<?xml version="1.0" standalone="no"?>
<!DOCTYPE svg PUBLIC "-//W3C//DTD SVG 1.1//EN" "http://www.w3.org/Graphics/SVG/1.1/DTD/svg11.dtd" >
<svg xmlns="http://www.w3.org/2000/svg" xmlns:xlink="http://www.w3.org/1999/xlink" version="1.1">
<metadata>
Created by FontForge 20170731 at Mon May 13 19:52:35 2013
 By Aleksey,,,
(c) 1992 Unity Progress. Portions (c) 2004 The Monotype Corporation. Portions (c) 2004 Microsoft Corporation. All Rights Reserved.
</metadata>
<defs>
<font id="BrowalliaNew-Bold" horiz-adv-x="744" >
  <font-face 
    font-family="Browallia New"
    font-weight="700"
    font-stretch="normal"
    units-per-em="2048"
    panose-1="2 11 7 4 2 2 2 2 2 4"
    ascent="1638"
    descent="-410"
    x-height="693"
    cap-height="957"
    bbox="-1058 -885 1606 1786"
    underline-thickness="102"
    underline-position="-358"
    unicode-range="U+0020-25CC"
  />
<missing-glyph horiz-adv-x="1536" 
d="M256 0v1280h1024v-1280h-1024zM288 32h960v1216h-960v-1216z" />
    <glyph glyph-name=".notdef" horiz-adv-x="1536" 
d="M256 0v1280h1024v-1280h-1024zM288 32h960v1216h-960v-1216z" />
    <glyph glyph-name="glyph1" horiz-adv-x="0" 
 />
    <glyph glyph-name="glyph2" horiz-adv-x="371" 
 />
    <glyph glyph-name="space" unicode=" " horiz-adv-x="371" 
 />
    <glyph glyph-name="space" unicode="&#xa0;" horiz-adv-x="371" 
 />
    <glyph glyph-name="exclam" unicode="!" horiz-adv-x="445" 
d="M168 247l-48 485v225h199v-225l-47 -485h-104zM128 0v183h183v-183h-183z" />
    <glyph glyph-name="quotedbl" unicode="&#x22;" horiz-adv-x="634" 
d="M108 617l-35 178v162h200v-162l-30 -178h-135zM402 617l-34 178v162h199v-162l-30 -178h-135z" />
    <glyph glyph-name="numbersign" unicode="#" 
d="M101 238h-89v144h117l39 192h-156v145h186l51 254h147l-52 -254h144l51 254h151l-52 -254h90v-145h-120l-39 -192h159v-144h-188l-52 -254h-145l50 254h-145l-52 -254h-147zM315 574l-38 -192h145l38 192h-145z" />
    <glyph glyph-name="dollar" unicode="$" 
d="M319 142v273q-247 71 -247 291q0 111 68 182t179 81v65h95v-65q208 -24 243 -227l-165 -21q-15 77 -78 104v-255q270 -68 270 -283q0 -124 -73 -202.5t-197 -96.5v-122h-95v119q-234 28 -273 283l170 19q21 -106 103 -145zM319 827q-84 -28 -84 -113q0 -76 84 -113v226z
M414 133q110 20 110 130q0 92 -110 124v-254z" />
    <glyph glyph-name="percent" unicode="%" horiz-adv-x="1189" 
d="M58 721q0 252 210 252q212 0 212 -252q0 -253 -209 -253q-213 0 -213 253zM201 722q0 -149 67 -149q66 0 66 149t-66 149q-67 0 -67 -149zM407 -37h-135l509 1010h132zM704 215q0 252 211 252t211 -252q0 -254 -209 -254q-213 0 -213 254zM847 215q0 -148 66 -148
q67 0 67 148q0 149 -67 149q-66 0 -66 -149z" />
    <glyph glyph-name="ampersand" unicode="&#x26;" horiz-adv-x="965" 
d="M944 117l-111 -142q-82 40 -157 110q-113 -102 -278 -102q-163 0 -251 82.5t-88 196.5q0 185 218 294q-98 117 -98 210q0 100 77.5 153.5t190.5 53.5q103 0 183 -53.5t80 -164.5q0 -119 -174 -228l133 -176q24 42 41 109l165 -38q-36 -136 -82 -197q78 -73 151 -108z
M445 637l49 38q55 43 55 84q0 85 -98 85q-93 0 -93 -72q0 -34 42 -83zM373 438q-126 -64 -126 -169q0 -135 143 -135q82 0 169 74z" />
    <glyph glyph-name="quotesingle" unicode="'" horiz-adv-x="318" 
d="M95 617l-35 178v162h200v-162l-30 -178h-135z" />
    <glyph glyph-name="parenleft" unicode="(" horiz-adv-x="445" 
d="M400 -281h-126q-204 308 -204 628q0 330 207 626h125q-157 -346 -157 -630q0 -287 155 -624z" />
    <glyph glyph-name="parenright" unicode=")" horiz-adv-x="445" 
d="M45 -281q155 332 155 624q0 285 -156 630h124q208 -295 208 -617q0 -327 -204 -637h-127z" />
    <glyph glyph-name="asterisk" unicode="*" horiz-adv-x="520" 
d="M160 517l-99 76q65 72 124 126q-114 25 -167 42l39 115q85 -35 153 -76q-16 106 -16 173h116q0 -47 -18 -175q55 25 165 72l35 -119q-73 -16 -168 -32l78 -88q4 -5 37 -43l-100 -66l-88 145q-39 -70 -91 -150z" />
    <glyph glyph-name="plus" unicode="+" horiz-adv-x="781" 
d="M306 138v248h-251v172h251v249h167v-249h252v-172h-252v-248h-167z" />
    <glyph glyph-name="comma" unicode="," horiz-adv-x="371" 
d="M91 183h184v-131q0 -210 -163 -265l-36 75q102 34 104 138h-89v183z" />
    <glyph glyph-name="hyphen" unicode="-" horiz-adv-x="445" 
d="M43 255v184h360v-184h-360z" />
    <glyph glyph-name="period" unicode="." horiz-adv-x="371" 
d="M96 0v183h183v-183h-183z" />
    <glyph glyph-name="slash" unicode="/" horiz-adv-x="371" 
d="M-2 -16l237 989h138l-240 -989h-135z" />
    <glyph glyph-name="zero" unicode="0" 
d="M367 961q311 0 311 -489q0 -488 -311 -488t-311 490q0 487 311 487zM367 809q-60 0 -89.5 -65.5t-29.5 -271.5q0 -207 31 -271.5t88 -64.5q65 0 92 73t27 263q0 191 -28.5 264t-90.5 73z" />
    <glyph glyph-name="one" unicode="1" 
d="M526 0h-183v691q-101 -94 -237 -139v167q206 73 271 242h149v-961z" />
    <glyph glyph-name="two" unicode="2" 
d="M676 170v-170h-643q8 78 52 164t212 239q195 179 195 279q0 127 -124 127q-121 0 -130 -150l-183 19q30 283 318 283q135 0 219 -71.5t84 -194.5q0 -172 -209 -360q-130 -117 -155 -165h364z" />
    <glyph glyph-name="three" unicode="3" 
d="M50 254l178 21q17 -139 136 -139q65 0 99.5 48.5t34.5 110.5q0 58 -32 104t-96 46q-35 0 -84 -13l20 149q153 0 153 123q0 106 -105 106q-106 0 -121 -128l-169 29q50 250 295 250q126 0 205 -74.5t79 -171.5q0 -126 -138 -201q181 -43 181 -227q0 -132 -93.5 -217.5
t-227.5 -85.5q-131 0 -216 73.5t-99 196.5z" />
    <glyph glyph-name="four" unicode="4" 
d="M416 0v193h-391v160l415 608h154v-607h119v-161h-119v-193h-178zM416 354v327l-220 -327h220z" />
    <glyph glyph-name="five" unicode="5" 
d="M59 246l183 19q21 -134 135 -134q137 0 137 187q0 176 -142 176q-79 0 -142 -70l-148 22l94 498h485v-172h-346l-29 -162q61 30 125 30q129 0 210.5 -91t81.5 -228q0 -118 -80 -227.5t-248 -109.5q-276 0 -316 262z" />
    <glyph glyph-name="six" unicode="6" 
d="M678 723l-177 -20q-13 107 -105 107q-132 0 -149 -269q68 80 170 80q124 0 201.5 -90.5t77.5 -222.5q0 -127 -75.5 -225.5t-232.5 -98.5q-331 0 -331 481q0 496 350 496q231 0 271 -238zM262 322q0 -76 37 -131t99 -55q118 0 118 170q0 180 -128 180q-126 0 -126 -164z
" />
    <glyph glyph-name="seven" unicode="7" 
d="M57 774v170h627v-133q-149 -147 -235.5 -381t-86.5 -430h-177q15 421 289 774h-417z" />
    <glyph glyph-name="eight" unicode="8" 
d="M214 516q-136 58 -136 198q0 116 79 181.5t209 65.5q114 0 200.5 -60t86.5 -187q0 -140 -132 -198q162 -65 162 -235q0 -137 -86 -217.5t-223 -80.5q-126 0 -223 71t-97 220q0 174 160 242zM252 701q0 -116 114 -116t114 117q0 113 -112 113q-116 0 -116 -114zM235 291
q0 -160 136 -160q131 0 131 158q0 149 -134 149q-62 0 -97.5 -42t-35.5 -105z" />
    <glyph glyph-name="nine" unicode="9" 
d="M61 221l177 20q13 -107 107 -107q129 0 147 269q-69 -80 -173 -80q-127 0 -202 95.5t-75 218.5q0 125 76 224.5t231 99.5q333 0 333 -483q0 -495 -351 -495q-231 0 -270 238zM476 622q0 71 -34 129t-101 58q-118 0 -118 -172q0 -179 128 -179q125 0 125 164z" />
    <glyph glyph-name="colon" unicode=":" horiz-adv-x="445" 
d="M131 510v183h184v-183h-184zM131 0v183h184v-183h-184z" />
    <glyph glyph-name="semicolon" unicode=";" horiz-adv-x="445" 
d="M126 510v183h183v-183h-183zM126 183h183v-131q0 -214 -162 -265l-36 75q101 34 104 138h-89v183z" />
    <glyph glyph-name="less" unicode="&#x3c;" horiz-adv-x="781" 
d="M718 109l-656 285v158l656 284v-186l-458 -175l458 -181v-185z" />
    <glyph glyph-name="equal" unicode="=" horiz-adv-x="781" 
d="M55 533v168h670v-168h-670zM55 243v169h670v-169h-670z" />
    <glyph glyph-name="greater" unicode="&#x3e;" horiz-adv-x="781" 
d="M62 108v185l458 180l-458 178v184l657 -284v-157z" />
    <glyph glyph-name="question" unicode="?" horiz-adv-x="817" 
d="M490 247h-166l-1 43q0 143 134 251q77 62 98.5 88.5t21.5 67.5q0 59 -45.5 94.5t-112.5 35.5q-147 0 -181 -161l-169 21q7 126 105 203t237 77q128 0 236.5 -71t108.5 -204q0 -62 -36 -116t-145 -146q-56 -47 -71 -79.5t-14 -103.5zM324 0v183h183v-183h-183z" />
    <glyph glyph-name="at" unicode="@" horiz-adv-x="1304" 
d="M1160 12h139q-145 -293 -578 -293q-346 0 -513.5 166t-167.5 430q0 276 177.5 467.5t491.5 191.5q268 0 411.5 -145t143.5 -358q0 -160 -112.5 -315.5t-319.5 -155.5q-99 0 -118 74q-77 -74 -177 -74q-114 0 -183 76.5t-69 197.5q0 167 101 300.5t253 133.5
q116 0 172 -89l16 72h172l-98 -468q-9 -43 -9 -57q0 -33 25 -33q52 0 141 94t89 250q0 175 -122.5 276t-318.5 101q-279 0 -413 -164t-134 -384q0 -206 140.5 -336.5t411.5 -130.5q312 0 449 173zM454 281q0 -162 117 -162q98 0 151 107.5t53 210.5q0 153 -121 153
q-103 0 -151.5 -106.5t-48.5 -202.5z" />
    <glyph glyph-name="A" unicode="A" horiz-adv-x="965" 
d="M960 0h-210l-83 217h-383l-79 -217h-205l373 957h204zM604 379l-131 355l-130 -355h261z" />
    <glyph glyph-name="B" unicode="B" horiz-adv-x="965" 
d="M98 957h382q231 0 302 -70.5t71 -170.5q0 -147 -135 -207q182 -53 182 -232q0 -103 -56.5 -172t-129 -87t-290.5 -18h-326v957zM291 798v-222h127q150 0 198.5 20.5t48.5 92.5q0 67 -43 88t-220 21h-111zM291 417v-256h179q134 0 182 24t48 102q0 75 -51.5 102.5
t-201.5 27.5h-156z" />
    <glyph glyph-name="C" unicode="C" horiz-adv-x="965" 
d="M710 352l187 -60q-85 -308 -398 -308q-224 0 -330 147t-106 339q0 229 118.5 366t329.5 137q305 0 383 -280l-191 -45q-37 160 -202 160q-239 0 -239 -324q0 -335 235 -335q166 0 213 203z" />
    <glyph glyph-name="D" unicode="D" horiz-adv-x="965" 
d="M97 957h353q149 0 242 -41t150 -157t57 -290q0 -469 -439 -469h-363v957zM290 795v-634h144q148 0 206.5 64t58.5 253q0 141 -36 209.5t-92.5 88t-193.5 19.5h-87z" />
    <glyph glyph-name="E" unicode="E" horiz-adv-x="892" 
d="M97 0v957h710v-162h-517v-212h481v-161h-481v-261h535v-161h-728z" />
    <glyph glyph-name="F" unicode="F" horiz-adv-x="817" 
d="M99 0v957h656v-162h-463v-226h399v-162h-399v-407h-193z" />
    <glyph glyph-name="G" unicode="G" horiz-adv-x="1040" 
d="M542 352v161h417v-381q-161 -148 -409 -148q-238 0 -362 139.5t-124 358.5q0 246 138 368.5t337 122.5q346 0 408 -281l-192 -36q-44 152 -216 152q-276 0 -276 -318q0 -159 70.5 -250t203.5 -91q122 0 227 81v122h-222z" />
    <glyph glyph-name="H" unicode="H" horiz-adv-x="965" 
d="M98 0v957h193v-377h379v377h193v-957h-193v418h-379v-418h-193z" />
    <glyph glyph-name="I" unicode="I" horiz-adv-x="371" 
d="M91 0v957h194v-957h-194z" />
    <glyph glyph-name="J" unicode="J" 
d="M443 957h192v-606q0 -176 -68 -271.5t-249 -95.5q-294 0 -295 312l182 21q2 -168 119 -168q69 0 94 41t25 149v618z" />
    <glyph glyph-name="K" unicode="K" horiz-adv-x="965" 
d="M100 0v957h193v-425l390 425h260l-360 -373l380 -584h-250l-263 449l-157 -160v-289h-193z" />
    <glyph glyph-name="L" unicode="L" horiz-adv-x="817" 
d="M97 0v957h194v-796h480v-161h-674z" />
    <glyph glyph-name="M" unicode="M" horiz-adv-x="1114" 
d="M95 0v957h289l173 -653l172 653h290v-957h-179v753l-190 -753h-187l-189 753v-753h-179z" />
    <glyph glyph-name="N" unicode="N" horiz-adv-x="965" 
d="M99 0v957h188l392 -639v639h179v-957h-193l-386 624v-624h-180z" />
    <glyph glyph-name="O" unicode="O" horiz-adv-x="1040" 
d="M58 473q0 232 122.5 366t340.5 134q247 0 356 -147t109 -349q0 -228 -123 -360.5t-339 -132.5q-218 0 -342 131t-124 358zM257 479q0 -149 69.5 -239.5t196.5 -90.5q133 0 198.5 95t65.5 238q0 326 -264 326q-266 0 -266 -329z" />
    <glyph glyph-name="P" unicode="P" horiz-adv-x="892" 
d="M97 0v957h310q159 0 232.5 -14t132 -88t58.5 -192q0 -105 -46 -175t-119.5 -98.5t-248.5 -28.5h-126v-361h-193zM290 795v-271h106q128 0 181.5 28t53.5 108q0 77 -47.5 106t-199.5 29h-94z" />
    <glyph glyph-name="Q" unicode="Q" horiz-adv-x="1040" 
d="M868 121q71 -50 154 -81l-71 -136q-68 19 -214 121q-94 -41 -208 -41q-251 0 -361 145t-110 350q0 230 123 362t343 132q218 0 340 -132t122 -362q0 -219 -118 -358zM712 230q75 88 75 249q0 329 -265 329q-128 0 -196.5 -88.5t-68.5 -240.5q0 -137 60.5 -236t198.5 -99
q42 0 79 14q-58 38 -119 60l54 110q95 -32 182 -98z" />
    <glyph glyph-name="R" unicode="R" horiz-adv-x="965" 
d="M98 0v957h407q189 0 282.5 -57t93.5 -211q0 -230 -253 -267q98 -51 213 -235l117 -187h-231l-208 310q-31 46 -69 68t-120 22h-39v-400h-193zM291 552h143q146 0 197 24.5t51 99.5q0 71 -42 95t-198 24h-151v-243z" />
    <glyph glyph-name="S" unicode="S" horiz-adv-x="892" 
d="M48 311l188 19q33 -184 209 -184q188 0 188 132q0 50 -41 75.5t-203 65.5q-306 77 -306 287q0 128 96 197.5t253 69.5q357 0 367 -290l-193 -8q-23 138 -176 138q-162 0 -162 -94q0 -31 28.5 -59t179.5 -66q241 -62 295.5 -137.5t54.5 -177.5q0 -296 -383 -296
q-356 0 -395 328z" />
    <glyph glyph-name="T" unicode="T" horiz-adv-x="817" 
d="M313 0v795h-284v162h760v-162h-283v-795h-193z" />
    <glyph glyph-name="U" unicode="U" horiz-adv-x="965" 
d="M96 957h193v-518q0 -115 8 -167t55 -87.5t131 -35.5q106 0 144.5 50t38.5 229v529h193v-503q0 -176 -21.5 -263.5t-105.5 -147t-243 -59.5q-155 0 -243 50.5t-119 131.5t-31 281v510z" />
    <glyph glyph-name="V" unicode="V" horiz-adv-x="892" 
d="M341 0l-342 957h210l242 -708l234 708h205l-342 -957h-207z" />
    <glyph glyph-name="W" unicode="W" horiz-adv-x="1262" 
d="M233 0l-228 957h197l145 -657l175 657h229l168 -668l147 668h195l-233 -957h-205l-190 715l-190 -715h-210z" />
    <glyph glyph-name="X" unicode="X" horiz-adv-x="892" 
d="M0 0l327 499l-296 458h226l191 -307l188 307h224l-297 -465l327 -492h-233l-212 331l-213 -331h-232z" />
    <glyph glyph-name="Y" unicode="Y" horiz-adv-x="892" 
d="M349 0v403l-351 554h227l225 -379l220 379h223l-352 -556v-401h-192z" />
    <glyph glyph-name="Z" unicode="Z" horiz-adv-x="817" 
d="M14 0v174l503 621h-446v162h701v-150l-525 -646h545v-161h-778z" />
    <glyph glyph-name="bracketleft" unicode="[" horiz-adv-x="445" 
d="M95 -270v1227h325v-144h-150v-938h150v-145h-325z" />
    <glyph glyph-name="backslash" unicode="\" horiz-adv-x="371" 
d="M-2 973h135l240 -989h-138z" />
    <glyph glyph-name="bracketright" unicode="]" horiz-adv-x="445" 
d="M350 957v-1227h-325v145h151v939h-151v143h325z" />
    <glyph glyph-name="asciicircum" unicode="^" horiz-adv-x="781" 
d="M75 452l246 521h145l239 -521h-185l-130 319l-128 -319h-187z" />
    <glyph glyph-name="underscore" unicode="_" 
d="M-12 -264v118h762v-118h-762z" />
    <glyph glyph-name="grave" unicode="`" horiz-adv-x="445" 
d="M323 778h-115l-181 195h206z" />
    <glyph glyph-name="a" unicode="a" 
d="M233 482l-166 30q55 197 300 197q171 0 231.5 -59t60.5 -208l-2 -214q0 -143 41 -228h-181q-11 27 -24 76q-94 -92 -215 -92q-102 0 -166 55.5t-64 149.5q0 75 41.5 130t210.5 88q130 25 179 45v19q0 98 -125 98q-90 0 -121 -87zM479 333q-88 -17 -212 -60
q-36 -25 -36 -65q0 -45 32 -69.5t70 -24.5q146 0 146 182v37z" />
    <glyph glyph-name="b" unicode="b" horiz-adv-x="817" 
d="M88 0v957h184v-345q84 97 201 97q138 0 215 -98t77 -257q0 -145 -71.5 -257.5t-218.5 -112.5q-132 0 -216 118v-102h-171zM270 362q0 -233 161 -233q146 0 146 216q0 224 -153 224q-154 0 -154 -207z" />
    <glyph glyph-name="c" unicode="c" 
d="M700 488l-180 -32q-19 109 -126 109q-150 0 -150 -206q0 -225 153 -225q107 0 132 132l181 -31q-57 -251 -322 -251q-156 0 -244.5 99t-88.5 263q0 148 79.5 255.5t257.5 107.5q244 0 308 -221z" />
    <glyph glyph-name="d" unicode="d" horiz-adv-x="817" 
d="M732 0h-171v102q-84 -118 -216 -118q-133 0 -211.5 104t-78.5 261q0 165 76.5 262.5t215.5 97.5q116 0 201 -97v345h184v-957zM242 362q0 -233 155 -233q73 0 112.5 61t39.5 154q0 225 -153 225q-154 0 -154 -207z" />
    <glyph glyph-name="e" unicode="e" 
d="M497 221l183 -31q-72 -206 -301 -206q-179 0 -258 104t-79 253q0 164 86 266t232 102q330 0 330 -415h-460q9 -173 151 -173q88 0 116 100zM508 406q-5 163 -137 163q-137 0 -137 -163h274z" />
    <glyph glyph-name="f" unicode="f" horiz-adv-x="445" 
d="M16 693h102v52q0 228 213 228q78 0 153 -23l-24 -128q-44 10 -85 10q-74 0 -74 -90v-49h137v-144h-137v-549h-183v549h-102v144z" />
    <glyph glyph-name="g" unicode="g" horiz-adv-x="817" 
d="M79 -46l210 -25q10 -70 106 -70q85 0 119 32.5t34 119.5v101q-83 -112 -208 -112q-135 0 -210 102.5t-75 248.5q0 143 70.5 250.5t221.5 107.5q129 0 212 -113v97h172v-622q0 -200 -74 -276t-255 -76q-170 0 -251 59t-72 176zM243 361q0 -213 148 -213q160 0 160 208
q0 213 -157 213q-151 0 -151 -208z" />
    <glyph glyph-name="h" unicode="h" horiz-adv-x="817" 
d="M279 957v-352q89 104 212 104q134 0 185 -75.5t51 -226.5v-407h-184v366q0 120 -22 161.5t-91 41.5q-151 0 -151 -222v-347h-184v957h184z" />
    <glyph glyph-name="i" unicode="i" horiz-adv-x="371" 
d="M96 787v170h183v-170h-183zM96 0v693h183v-693h-183z" />
    <glyph glyph-name="j" unicode="j" horiz-adv-x="371" 
d="M92 787v170h183v-170h-183zM275 693v-671q0 -168 -43 -235.5t-166 -67.5q-54 0 -127 19l32 157q29 -6 45 -6q48 0 62 24.5t14 118.5v661h183z" />
    <glyph glyph-name="k" unicode="k" 
d="M89 0v957h184v-508l215 244h226l-237 -253l253 -440h-197l-175 311l-85 -89v-222h-184z" />
    <glyph glyph-name="l" unicode="l" horiz-adv-x="371" 
d="M96 0v957h183v-957h-183z" />
    <glyph glyph-name="m" unicode="m" horiz-adv-x="1189" 
d="M82 693h169v-94q91 110 216 110q134 0 196 -110q91 110 212 110q227 0 227 -266v-443h-184v396q0 118 -28 145.5t-69 27.5q-136 0 -136 -236v-333h-184v380q0 85 -15 137t-81 52q-60 0 -99.5 -38.5t-39.5 -193.5v-337h-184v693z" />
    <glyph glyph-name="n" unicode="n" horiz-adv-x="817" 
d="M727 0h-184v354q0 122 -22.5 168.5t-90.5 46.5q-61 0 -106.5 -35.5t-45.5 -219.5v-314h-183v693h170v-102q91 118 229 118q233 0 233 -278v-431z" />
    <glyph glyph-name="o" unicode="o" horiz-adv-x="817" 
d="M54 356q0 147 98 250t259 103q159 0 258.5 -101t99.5 -259t-100 -261.5t-257 -103.5q-163 0 -260.5 97t-97.5 275zM242 347q0 -95 44.5 -154t124.5 -59t124.5 59.5t44.5 154.5t-44.5 153t-124.5 58t-124.5 -58.5t-44.5 -153.5z" />
    <glyph glyph-name="p" unicode="p" horiz-adv-x="817" 
d="M91 693h171v-102q75 118 216 118q138 0 213.5 -105t75.5 -253q0 -158 -78 -262.5t-212 -104.5q-109 0 -203 102v-350h-183v957zM272 358q0 -228 160 -228q148 0 148 219q0 215 -152 215q-156 0 -156 -206z" />
    <glyph glyph-name="q" unicode="q" horiz-adv-x="817" 
d="M549 -264v349q-78 -101 -205 -101q-132 0 -208.5 105.5t-76.5 264.5q0 140 71.5 247.5t223.5 107.5q131 0 209 -118v102h169v-957h-183zM555 355q0 210 -152 210q-156 0 -156 -220q0 -216 149 -216q78 0 118.5 66.5t40.5 159.5z" />
    <glyph glyph-name="r" unicode="r" horiz-adv-x="520" 
d="M272 0h-184v693h171v-98q71 114 157 114q63 0 121 -35l-57 -160q-46 30 -86 30q-70 0 -96 -65.5t-26 -264.5v-214z" />
    <glyph glyph-name="s" unicode="s" 
d="M31 198l184 28q24 -109 149 -109q131 0 131 75q0 42 -75 59q-254 56 -308.5 111t-54.5 134q0 213 292 213q254 0 306 -183l-173 -32q-22 83 -130 83q-125 0 -125 -57q0 -47 196 -90q143 -31 199.5 -78t56.5 -135q0 -115 -92.5 -174t-222.5 -59q-278 0 -333 214z" />
    <glyph glyph-name="t" unicode="t" horiz-adv-x="445" 
d="M414 693v-146h-125v-279q0 -84 10 -108t40 -24q26 0 74 18l16 -142q-64 -28 -145 -28q-114 0 -147 57.5t-33 203.5v302h-84v146h84v138l185 107v-245h125z" />
    <glyph glyph-name="u" unicode="u" horiz-adv-x="817" 
d="M552 0v104q-81 -120 -230 -120q-230 0 -230 271v438h183v-318q0 -151 22.5 -201t92.5 -50q87 0 118 53.5t31 223.5v292h184v-693h-171z" />
    <glyph glyph-name="v" unicode="v" 
d="M287 0l-280 693h193l168 -472l171 472h188l-275 -693h-165z" />
    <glyph glyph-name="w" unicode="w" horiz-adv-x="1040" 
d="M225 0l-219 693h178l130 -454l119 454h177l116 -454l132 454h181l-222 -693h-177l-119 446l-118 -446h-178z" />
    <glyph glyph-name="x" unicode="x" 
d="M8 0l250 357l-240 336h224l123 -190l129 190h216l-235 -328l256 -365h-225l-141 215l-142 -215h-215z" />
    <glyph glyph-name="y" unicode="y" 
d="M9 693h195l166 -492l162 492h190l-289 -788q-68 -186 -259 -186q-53 0 -104 11l-16 143q43 -8 77 -8q104 0 142 133z" />
    <glyph glyph-name="z" unicode="z" horiz-adv-x="668" 
d="M22 0v143l260 298q61 70 95 104l-85 -3l-244 -1v152h573v-130l-265 -305l-94 -101q77 4 95 4h284v-161h-619z" />
    <glyph glyph-name="braceleft" unicode="{" horiz-adv-x="520" 
d="M39 268v156q89 5 116 57t27 176q0 199 53 257.5t216 58.5h35v-156q-55 0 -88.5 -10t-37.5 -29t-13 -207q-9 -164 -117 -225q76 -45 99 -120t23 -256q0 -58 26 -76.5t108 -18.5v-156h-35q-149 0 -209 56.5t-60 235.5q0 142 -27 197t-116 60z" />
    <glyph glyph-name="bar" unicode="|" horiz-adv-x="374" 
d="M115 -281v1254h145v-1254h-145z" />
    <glyph glyph-name="braceright" unicode="}" horiz-adv-x="520" 
d="M476 268q-78 -5 -110.5 -53t-32.5 -179q0 -217 -64 -267t-205 -50h-35v156q108 0 119 26t20 217q9 168 117 228q-74 48 -96 110t-26 262q-2 63 -23.5 81t-110.5 18v156h35q149 0 209 -56.5t60 -235.5q0 -142 26.5 -197t116.5 -60v-156z" />
    <glyph glyph-name="asciitilde" unicode="~" horiz-adv-x="781" 
d="M44 339v169q83 90 193 90q69 0 200 -53q89 -36 122 -36q90 0 178 94v-176q-83 -86 -195 -86q-56 0 -160 44q-104 45 -160 45q-91 0 -178 -91z" />
    <glyph glyph-name="uni007F" horiz-adv-x="1024" 
 />
    <glyph glyph-name="exclamdown" unicode="&#xa1;" horiz-adv-x="445" 
d="M319 693v-183h-184v183h184zM278 443l48 -484v-225h-199v225l48 484h103z" />
    <glyph glyph-name="cent" unicode="&#xa2;" 
d="M486 530l-119 -394l29 -2q106 0 133 132l180 -31q-57 -251 -320 -251q-29 0 -66 5l-77 -252l-79 22l75 251q-187 88 -187 339q0 360 372 360q17 -3 25 -4l74 246l80 -23l-73 -242q124 -48 167 -198l-181 -32q-7 45 -33 74zM409 564l-15 1q-151 0 -151 -207
q0 -126 50 -182z" />
    <glyph glyph-name="sterling" unicode="&#xa3;" 
d="M652 186l71 -155q-94 -46 -180 -46q-59 0 -156 27q-97 28 -146 28q-80 0 -163 -56l-70 158q139 99 139 226l-3 38h-136v144h103q-27 77 -27 156q0 112 84.5 190t220.5 78q261 0 298 -252l-177 -26q-21 131 -127 131q-58 0 -89.5 -38.5t-31.5 -83.5q0 -69 33 -155h203
v-144h-173l1 -29q0 -94 -99 -210q36 18 90 18l41 -3q11 -1 53 -12q82 -20 108 -20q52 0 133 36z" />
    <glyph glyph-name="currency" unicode="&#xa4;" 
d="M116 614l-87 86l109 116l89 -89q63 38 142 38q78 0 143 -38l87 88l110 -110l-87 -87q37 -69 37 -143q0 -78 -37 -142l88 -87l-109 -111l-89 88q-74 -37 -142 -37q-79 0 -141 37l-85 -86l-111 110l85 86q-38 69 -38 142q0 80 36 139zM238 475q0 -62 42.5 -97t89.5 -35
q33 0 62 15.5t49.5 46t20.5 70.5q0 38 -18 67.5t-47.5 47t-66.5 17.5q-63 0 -97.5 -42t-34.5 -90z" />
    <glyph glyph-name="yen" unicode="&#xa5;" 
d="M276 178h-243v145h243v78h-243v144h171l-203 412h201l130 -278q25 -54 36 -92q10 40 35 92l133 278h201l-205 -412h173v-144h-246v-78h246v-145h-246v-178h-183v178z" />
    <glyph glyph-name="brokenbar" unicode="&#xa6;" horiz-adv-x="374" 
d="M115 458v516h146v-516h-146zM115 -281v516h146v-516h-146z" />
    <glyph glyph-name="section" unicode="&#xa7;" 
d="M644 754l-180 -19q0 99 -100 99q-86 0 -86 -61q0 -32 26 -57t137 -97q146 -91 201 -154.5t55 -147.5q0 -120 -118 -205q79 -75 79 -166q0 -95 -73 -161t-208 -66q-269 0 -302 237l179 21q24 -118 128 -118q94 0 94 77q0 37 -33.5 63t-164.5 111q-149 94 -194 157.5
t-45 140.5q0 142 120 209q-66 74 -66 146q0 89 69.5 150t193.5 61q250 0 288 -220zM480 191q57 51 57 96t-98 117l-178 129q-56 -38 -56 -89q0 -67 88 -125z" />
    <glyph glyph-name="dieresis" unicode="&#xa8;" horiz-adv-x="445" 
d="M3 816v158h158v-158h-158zM284 816v158h158v-158h-158z" />
    <glyph glyph-name="copyright" unicode="&#xa9;" horiz-adv-x="985" 
d="M494 977q205 0 353 -144t148 -356q0 -202 -145 -351.5t-356 -149.5q-204 0 -352 146t-148 355q0 207 144.5 353.5t355.5 146.5zM494 878q-167 0 -284 -116.5t-117 -284.5q0 -169 118.5 -285.5t282.5 -116.5q166 0 284 118.5t118 283.5q0 168 -118 284.5t-284 116.5z
M616 402l105 -35q-52 -170 -219 -170q-99 0 -176 65t-77 210q0 138 71.5 210t182.5 72q162 0 218 -159l-106 -25q-34 91 -116 91q-135 0 -135 -185t126 -185q92 0 126 111z" />
    <glyph glyph-name="ordfeminine" unicode="&#xaa;" horiz-adv-x="495" 
d="M166 818l-124 24q29 132 198 132q127 0 165 -39.5t38 -145.5v-156q0 -109 19 -136h-124q-8 17 -15 46q-58 -58 -141 -58q-158 0 -158 141q0 67 39.5 97.5t164.5 56.5q53 11 82 22l-1 14q-4 55 -66 55q-60 0 -77 -53zM310 715q-25 -10 -51 -16q-100 -19 -100 -63
q0 -53 64 -53q87 0 87 106v26z" />
    <glyph glyph-name="guillemotleft" unicode="&#xab;" 
d="M413 642l-169 -295l169 -301h-144l-206 301l206 295h144zM669 642l-169 -295l169 -301h-144l-206 301l206 295h144z" />
    <glyph glyph-name="logicalnot" unicode="&#xac;" horiz-adv-x="781" 
d="M557 246v288h-501v167h669v-455h-168z" />
    <glyph glyph-name="uni00AD" unicode="&#xad;" horiz-adv-x="445" 
d="M42 255v184h361v-184h-361z" />
    <glyph glyph-name="registered" unicode="&#xae;" horiz-adv-x="985" 
d="M494 977q205 0 353 -143t148 -357q0 -202 -145 -351.5t-356 -149.5q-204 0 -352 146t-148 355q0 207 144 353.5t356 146.5zM495 879q-172 0 -287 -121t-115 -281q0 -164 117 -283.5t285 -119.5q165 0 283.5 116.5t118.5 286.5q0 165 -115.5 283.5t-286.5 118.5zM268 209
v531h108l170 -1q69 0 111 -43.5t42 -105.5q0 -124 -143 -149q34 -9 73 -60l39 -65l63 -107h-134l-44 86q-41 80 -71.5 106t-77.5 26h-28v-218h-108zM376 511h44q102 0 133 14t31 59q0 23 -13 39q-12 33 -151 33h-44v-145z" />
    <glyph glyph-name="macron" unicode="&#xaf;" horiz-adv-x="739" 
d="M-12 1013v120h762v-120h-762z" />
    <glyph glyph-name="degree" unicode="&#xb0;" horiz-adv-x="535" 
d="M56 765q0 87 61 148t147 61q60 0 106.5 -28.5t74.5 -75t28 -105.5q0 -75 -55 -141.5t-154 -66.5q-75 0 -141.5 54.5t-66.5 153.5zM165 765q0 -42 29.5 -71t69.5 -29q41 0 70.5 29t29.5 71t-30 71t-70 29q-34 0 -66.5 -26.5t-32.5 -73.5z" />
    <glyph glyph-name="plusminus" unicode="&#xb1;" horiz-adv-x="734" 
d="M283 232v249h-250v172h250v249h168v-249h251v-172h-251v-249h-168zM33 0v172h669v-172h-669z" />
    <glyph glyph-name="uni00B2" unicode="&#xb2;" horiz-adv-x="445" 
d="M413 578v-103h-397q8 98 163 220q110 86 110 128q0 53 -66 53q-61 0 -70 -75l-124 10q16 158 197 158q90 0 138.5 -41.5t48.5 -98.5q0 -52 -30 -93t-121 -113l-54 -45h205z" />
    <glyph glyph-name="uni00B3" unicode="&#xb3;" horiz-adv-x="445" 
d="M26 618l120 13q11 -71 74 -71q71 0 71 71q0 64 -67 64q-20 0 -59 -9l15 95q88 0 88 52q0 43 -54 43q-56 0 -64 -64l-117 17q30 140 184 140q89 0 132.5 -44t43.5 -89q0 -56 -63 -94q89 -36 89 -117q0 -53 -50.5 -105.5t-149.5 -52.5q-167 0 -193 151z" />
    <glyph glyph-name="acute" unicode="&#xb4;" horiz-adv-x="445" 
d="M122 778l90 196h206l-180 -196h-116z" />
    <glyph glyph-name="mu" unicode="&#xb5;" horiz-adv-x="771" 
d="M72 693h183v-314q0 -248 130 -248q65 0 99 54t34 192v316h185v-693h-171v84q-52 -101 -139 -101t-138 101v-350h-183v959z" />
    <glyph glyph-name="paragraph" unicode="&#xb6;" 
d="M415 -263h-159v684q-105 0 -181 69t-76 197q0 98 48 163t112 86t188 21h390v-170h-74v-1050h-154v1050h-94v-1050z" />
    <glyph glyph-name="periodcentered" unicode="&#xb7;" horiz-adv-x="372" 
d="M96 374v184h183v-184h-183z" />
    <glyph glyph-name="periodcentered" unicode="&#x2219;" horiz-adv-x="372" 
d="M96 374v184h183v-184h-183z" />
    <glyph glyph-name="cedilla" unicode="&#xb8;" horiz-adv-x="445" 
d="M25 -263v77q62 -7 123 -7q108 0 108 61q0 55 -83 55q-42 0 -85 -13l16 65q53 17 110 17q167 0 167 -123q0 -143 -229 -143q-81 0 -127 11z" />
    <glyph glyph-name="uni00B9" unicode="&#xb9;" horiz-adv-x="445" 
d="M323 475h-124v335q-58 -41 -140 -64v101q129 41 164 122h100v-494z" />
    <glyph glyph-name="ordmasculine" unicode="&#xba;" horiz-adv-x="488" 
d="M17 728q0 116 61.5 181t165.5 65q101 0 163.5 -65.5t62.5 -180.5q0 -132 -67.5 -188.5t-158.5 -56.5q-103 0 -165 65t-62 180zM155 727q0 -133 87 -133t87 133q0 132 -87 132t-87 -132z" />
    <glyph glyph-name="guillemotright" unicode="&#xbb;" 
d="M325 46l170 295l-170 301h145l206 -301l-206 -295h-145zM69 46l170 295l-170 301h145l206 -301l-206 -295h-145z" />
    <glyph glyph-name="onequarter" unicode="&#xbc;" horiz-adv-x="1115" 
d="M324 475h-124v335q-61 -42 -140 -64v101q131 42 163 122h101v-494zM326 -35h-104l567 1004h104zM916 -27v95h-235v92l250 307h101v-304h70v-95h-70v-95h-116zM916 163v147l-119 -147h119z" />
    <glyph glyph-name="onehalf" unicode="&#xbd;" horiz-adv-x="1115" 
d="M324 475h-124v335q-61 -42 -140 -64v101q131 42 163 122h101v-494zM326 -35h-104l567 1004h104zM1081 75v-102h-396q6 96 163 220q109 86 109 128q0 53 -66 53q-61 0 -69 -76l-124 11q20 158 197 158q98 0 142 -45.5t44 -95.5t-25.5 -88t-125.5 -117q-38 -31 -53 -46h204
z" />
    <glyph glyph-name="threequarters" unicode="&#xbe;" horiz-adv-x="1115" 
d="M26 618l120 13q11 -71 74 -71q71 0 71 71q0 64 -67 64q-20 0 -59 -9l15 95q88 0 88 52q0 43 -54 43q-56 0 -64 -64l-117 17q30 140 184 140q89 0 132.5 -44t43.5 -89q0 -56 -63 -94q89 -36 89 -117q0 -53 -50.5 -105.5t-149.5 -52.5q-167 0 -193 151zM342 -35h-104
l567 1004h103zM916 -27v95h-236v92l250 307h102v-304h70v-95h-70v-95h-116zM916 163v147l-119 -147h119z" />
    <glyph glyph-name="questiondown" unicode="&#xbf;" horiz-adv-x="817" 
d="M498 693v-183h-183v183h183zM332 447h166l2 -50q0 -135 -140 -249q-89 -73 -102 -99.5t-13 -55.5q0 -44 39.5 -85.5t119.5 -41.5q144 0 181 161l169 -21q-43 -280 -343 -280q-173 0 -259 89.5t-86 183.5q0 65 36.5 119.5t145.5 145.5q58 46 71 75.5t13 107.5z" />
    <glyph glyph-name="Agrave" unicode="&#xc0;" horiz-adv-x="965" 
d="M960 0h-210l-83 217h-383l-79 -217h-205l373 957h204zM604 379l-131 355l-130 -355h261zM543 1048h-115l-181 195h206z" />
    <glyph glyph-name="Aacute" unicode="&#xc1;" horiz-adv-x="965" 
d="M960 0h-210l-83 217h-383l-79 -217h-205l373 957h204zM604 379l-131 355l-130 -355h261zM372 1048l90 196h206l-180 -196h-116z" />
    <glyph glyph-name="Acircumflex" unicode="&#xc2;" horiz-adv-x="965" 
d="M960 0h-210l-83 217h-383l-79 -217h-205l373 957h204zM604 379l-131 355l-130 -355h261zM252 1051l137 193h170l135 -193h-148l-75 97l-71 -97h-148z" />
    <glyph glyph-name="Atilde" unicode="&#xc3;" horiz-adv-x="965" 
d="M960 0h-210l-83 217h-383l-79 -217h-205l373 957h204zM604 379l-131 355l-130 -355h261zM321 1057h-84v23q0 143 118 143q46 0 114 -34q51 -22 82 -22q45 0 52 56h85q0 -164 -116 -164q-17 0 -44 5l-75 27q-64 23 -87 23q-45 0 -45 -57z" />
    <glyph glyph-name="Adieresis" unicode="&#xc4;" horiz-adv-x="965" 
d="M960 0h-210l-83 217h-383l-79 -217h-205l373 957h204zM604 379l-131 355l-130 -355h261zM243 1056v158h158v-158h-158zM524 1056v158h158v-158h-158z" />
    <glyph glyph-name="Aring" unicode="&#xc5;" horiz-adv-x="965" 
d="M960 0h-210l-83 217h-383l-79 -217h-205l373 957h204zM604 379l-131 355l-130 -355h261zM596 1146q0 -36 -17.5 -64.5t-46.5 -46t-64 -17.5q-53 0 -90.5 37t-37.5 91t37.5 91t90.5 37q36 0 64.5 -17.5t46 -46t17.5 -64.5zM526 1146q0 58 -58 58t-58 -58t58 -58t58 58z
" />
    <glyph glyph-name="AE" unicode="&#xc6;" horiz-adv-x="1337" 
d="M-56 0l446 957h865v-162h-474v-213h437v-161h-437v-260h492v-161h-685v225h-332l-98 -225h-214zM327 392h263v420h-75z" />
    <glyph glyph-name="Ccedilla" unicode="&#xc7;" horiz-adv-x="965" 
d="M710 352l187 -60q-85 -308 -398 -308q-224 0 -330 147t-106 339q0 229 118.5 366t329.5 137q305 0 383 -280l-191 -45q-37 160 -202 160q-239 0 -239 -324q0 -335 235 -335q166 0 213 203zM300 -263v77q62 -7 123 -7q108 0 108 61q0 55 -83 55q-42 0 -85 -13l16 65
q53 17 110 17q167 0 167 -123q0 -143 -229 -143q-81 0 -127 11z" />
    <glyph glyph-name="Egrave" unicode="&#xc8;" horiz-adv-x="892" 
d="M97 0v957h710v-162h-517v-212h481v-161h-481v-261h535v-161h-728zM533 1058h-115l-181 195h206z" />
    <glyph glyph-name="Eacute" unicode="&#xc9;" horiz-adv-x="892" 
d="M97 0v957h710v-162h-517v-212h481v-161h-481v-261h535v-161h-728zM362 1058l90 196h206l-180 -196h-116z" />
    <glyph glyph-name="Ecircumflex" unicode="&#xca;" horiz-adv-x="892" 
d="M97 0v957h710v-162h-517v-212h481v-161h-481v-261h535v-161h-728zM232 1061l137 193h170l135 -193h-148l-75 97l-71 -97h-148z" />
    <glyph glyph-name="Edieresis" unicode="&#xcb;" horiz-adv-x="892" 
d="M97 0v957h710v-162h-517v-212h481v-161h-481v-261h535v-161h-728zM233 1056v158h158v-158h-158zM514 1056v158h158v-158h-158z" />
    <glyph glyph-name="Igrave" unicode="&#xcc;" horiz-adv-x="371" 
d="M91 0v957h194v-957h-194zM273 1048h-115l-181 195h206z" />
    <glyph glyph-name="Iacute" unicode="&#xcd;" horiz-adv-x="371" 
d="M91 0v957h194v-957h-194zM112 1048l90 196h206l-180 -196h-116z" />
    <glyph glyph-name="Icircumflex" unicode="&#xce;" horiz-adv-x="371" 
d="M91 0v957h194v-957h-194zM-48 1051l137 193h170l135 -193h-148l-75 97l-71 -97h-148z" />
    <glyph glyph-name="Idieresis" unicode="&#xcf;" horiz-adv-x="371" 
d="M91 0v957h194v-957h-194zM-37 1066v158h158v-158h-158zM244 1066v158h158v-158h-158z" />
    <glyph glyph-name="Eth" unicode="&#xd0;" horiz-adv-x="966" 
d="M97 957h353q136 0 226.5 -34.5t157 -148.5t66.5 -307q0 -467 -440 -467h-363v418h-99v121h99v418zM290 795v-256h205v-121h-205v-257h145q139 0 202 56.5t63 256.5q0 140 -33 208t-88.5 90.5t-201.5 22.5h-87z" />
    <glyph glyph-name="Ntilde" unicode="&#xd1;" horiz-adv-x="965" 
d="M99 0v957h188l392 -639v639h179v-957h-193l-386 624v-624h-180zM346 1047h-84v23q0 143 118 143q46 0 114 -34q51 -22 82 -22q45 0 52 56h85q0 -164 -116 -164q-17 0 -44 5l-75 27q-64 23 -87 23q-45 0 -45 -57z" />
    <glyph glyph-name="Ograve" unicode="&#xd2;" horiz-adv-x="1040" 
d="M58 473q0 232 122.5 366t340.5 134q247 0 356 -147t109 -349q0 -228 -123 -360.5t-339 -132.5q-218 0 -342 131t-124 358zM257 479q0 -149 69.5 -239.5t196.5 -90.5q133 0 198.5 95t65.5 238q0 326 -264 326q-266 0 -266 -329zM583 1058h-115l-181 195h206z" />
    <glyph glyph-name="Oacute" unicode="&#xd3;" horiz-adv-x="1040" 
d="M58 473q0 232 122.5 366t340.5 134q247 0 356 -147t109 -349q0 -228 -123 -360.5t-339 -132.5q-218 0 -342 131t-124 358zM257 479q0 -149 69.5 -239.5t196.5 -90.5q133 0 198.5 95t65.5 238q0 326 -264 326q-266 0 -266 -329zM432 1058l90 196h206l-180 -196h-116z" />
    <glyph glyph-name="Ocircumflex" unicode="&#xd4;" horiz-adv-x="1040" 
d="M58 473q0 232 122.5 366t340.5 134q247 0 356 -147t109 -349q0 -228 -123 -360.5t-339 -132.5q-218 0 -342 131t-124 358zM257 479q0 -149 69.5 -239.5t196.5 -90.5q133 0 198.5 95t65.5 238q0 326 -264 326q-266 0 -266 -329zM297 1061l137 193h170l135 -193h-148
l-75 97l-71 -97h-148z" />
    <glyph glyph-name="Otilde" unicode="&#xd5;" horiz-adv-x="1040" 
d="M58 473q0 232 122.5 366t340.5 134q247 0 356 -147t109 -349q0 -228 -123 -360.5t-339 -132.5q-218 0 -342 131t-124 358zM257 479q0 -149 69.5 -239.5t196.5 -90.5q133 0 198.5 95t65.5 238q0 326 -264 326q-266 0 -266 -329zM366 1067h-84v23q0 143 118 143
q46 0 114 -34q51 -22 82 -22q45 0 52 56h85q0 -164 -116 -164q-17 0 -44 5l-75 27q-64 23 -87 23q-45 0 -45 -57z" />
    <glyph glyph-name="Odieresis" unicode="&#xd6;" horiz-adv-x="1040" 
d="M58 473q0 232 122.5 366t340.5 134q247 0 356 -147t109 -349q0 -228 -123 -360.5t-339 -132.5q-218 0 -342 131t-124 358zM257 479q0 -149 69.5 -239.5t196.5 -90.5q133 0 198.5 95t65.5 238q0 326 -264 326q-266 0 -266 -329zM303 1066v158h158v-158h-158zM584 1066v158
h158v-158h-158z" />
    <glyph glyph-name="multiply" unicode="&#xd7;" horiz-adv-x="781" 
d="M72 274l198 197l-199 198l122 122l198 -198l197 197l119 -119l-198 -197l200 -199l-122 -122l-199 200l-197 -198z" />
    <glyph glyph-name="Oslash" unicode="&#xd8;" horiz-adv-x="1040" 
d="M809 887l103 116l91 -80l-109 -122q92 -131 92 -328q0 -227 -126 -358t-333 -131q-181 0 -287 81l-106 -119l-93 81l112 126q-96 128 -96 332q0 225 126 357t337 132q173 0 289 -87zM689 753q-67 56 -167 56q-265 0 -265 -329q0 -107 30 -178zM760 650l-402 -451
q68 -59 162 -59q116 0 191 84.5t75 251.5q0 109 -26 174z" />
    <glyph glyph-name="Ugrave" unicode="&#xd9;" horiz-adv-x="965" 
d="M96 957h193v-518q0 -115 8 -167t55 -87.5t131 -35.5q106 0 144.5 50t38.5 229v529h193v-503q0 -176 -21.5 -263.5t-105.5 -147t-243 -59.5q-155 0 -243 50.5t-119 131.5t-31 281v510zM543 1048h-115l-181 195h206z" />
    <glyph glyph-name="Uacute" unicode="&#xda;" horiz-adv-x="965" 
d="M96 957h193v-518q0 -115 8 -167t55 -87.5t131 -35.5q106 0 144.5 50t38.5 229v529h193v-503q0 -176 -21.5 -263.5t-105.5 -147t-243 -59.5q-155 0 -243 50.5t-119 131.5t-31 281v510zM382 1058l90 196h206l-180 -196h-116z" />
    <glyph glyph-name="Ucircumflex" unicode="&#xdb;" horiz-adv-x="965" 
d="M96 957h193v-518q0 -115 8 -167t55 -87.5t131 -35.5q106 0 144.5 50t38.5 229v529h193v-503q0 -176 -21.5 -263.5t-105.5 -147t-243 -59.5q-155 0 -243 50.5t-119 131.5t-31 281v510zM252 1061l137 193h170l135 -193h-148l-75 97l-71 -97h-148z" />
    <glyph glyph-name="Udieresis" unicode="&#xdc;" horiz-adv-x="965" 
d="M96 957h193v-518q0 -115 8 -167t55 -87.5t131 -35.5q106 0 144.5 50t38.5 229v529h193v-503q0 -176 -21.5 -263.5t-105.5 -147t-243 -59.5q-155 0 -243 50.5t-119 131.5t-31 281v510zM253 1066v158h158v-158h-158zM534 1066v158h158v-158h-158z" />
    <glyph glyph-name="Yacute" unicode="&#xdd;" horiz-adv-x="892" 
d="M349 0v403l-351 554h227l225 -379l220 379h223l-352 -556v-401h-192zM342 1058l90 196h206l-180 -196h-116z" />
    <glyph glyph-name="Thorn" unicode="&#xde;" horiz-adv-x="892" 
d="M97 0v957h194v-180h116q165 0 235.5 -15t129.5 -88.5t59 -191.5q0 -103 -47.5 -173t-121 -99.5t-245.5 -29.5h-126v-180h-194zM291 615v-272h105q138 0 186.5 29.5t48.5 108.5q0 76 -45 105t-202 29h-93z" />
    <glyph glyph-name="germandbls" unicode="&#xdf;" horiz-adv-x="817" 
d="M91 0v622q0 179 60.5 265.5t225.5 86.5q133 0 199 -57t66 -141q0 -57 -36 -122q-31 -54 -41 -79l-5 -25q0 -24 17 -45q0 -4 78 -84q115 -117 115 -215q0 -93 -66 -157.5t-166 -64.5q-143 0 -212 124l128 75q29 -52 68 -52q64 0 64 68q0 42 -109 144q-111 108 -111 167
q0 38 43 127q45 91 45 124q0 69 -79 69q-59 0 -80 -40.5t-21 -167.5v-622h-183z" />
    <glyph glyph-name="agrave" unicode="&#xe0;" 
d="M233 482l-166 30q55 197 300 197q171 0 231.5 -59t60.5 -208l-2 -214q0 -143 41 -228h-181q-11 27 -24 76q-94 -92 -215 -92q-102 0 -166 55.5t-64 149.5q0 75 41.5 130t210.5 88q130 25 179 45v19q0 98 -125 98q-90 0 -121 -87zM479 333q-88 -17 -212 -60
q-36 -25 -36 -65q0 -45 32 -69.5t70 -24.5q146 0 146 182v37zM455 778h-115l-181 195h206z" />
    <glyph glyph-name="aacute" unicode="&#xe1;" 
d="M233 482l-166 30q55 197 300 197q171 0 231.5 -59t60.5 -208l-2 -214q0 -143 41 -228h-181q-11 27 -24 76q-94 -92 -215 -92q-102 0 -166 55.5t-64 149.5q0 75 41.5 130t210.5 88q130 25 179 45v19q0 98 -125 98q-90 0 -121 -87zM479 333q-88 -17 -212 -60
q-36 -25 -36 -65q0 -45 32 -69.5t70 -24.5q146 0 146 182v37zM284 778l90 196h206l-180 -196h-116z" />
    <glyph glyph-name="acircumflex" unicode="&#xe2;" 
d="M233 482l-166 30q55 197 300 197q171 0 231.5 -59t60.5 -208l-2 -214q0 -143 41 -228h-181q-11 27 -24 76q-94 -92 -215 -92q-102 0 -166 55.5t-64 149.5q0 75 41.5 130t210.5 88q130 25 179 45v19q0 98 -125 98q-90 0 -121 -87zM479 333q-88 -17 -212 -60
q-36 -25 -36 -65q0 -45 32 -69.5t70 -24.5q146 0 146 182v37zM150 781l137 193h170l135 -193h-148l-75 97l-71 -97h-148z" />
    <glyph glyph-name="atilde" unicode="&#xe3;" 
d="M233 482l-166 30q55 197 300 197q171 0 231.5 -59t60.5 -208l-2 -214q0 -143 41 -228h-181q-11 27 -24 76q-94 -92 -215 -92q-102 0 -166 55.5t-64 149.5q0 75 41.5 130t210.5 88q130 25 179 45v19q0 98 -125 98q-90 0 -121 -87zM479 333q-88 -17 -212 -60
q-36 -25 -36 -65q0 -45 32 -69.5t70 -24.5q146 0 146 182v37zM226 787h-84v23q0 143 118 143q46 0 114 -34q51 -22 82 -22q45 0 52 56h85q0 -164 -116 -164q-17 0 -44 5l-75 27q-64 23 -87 23q-45 0 -45 -57z" />
    <glyph glyph-name="adieresis" unicode="&#xe4;" 
d="M233 482l-166 30q55 197 300 197q171 0 231.5 -59t60.5 -208l-2 -214q0 -143 41 -228h-181q-11 27 -24 76q-94 -92 -215 -92q-102 0 -166 55.5t-64 149.5q0 75 41.5 130t210.5 88q130 25 179 45v19q0 98 -125 98q-90 0 -121 -87zM479 333q-88 -17 -212 -60
q-36 -25 -36 -65q0 -45 32 -69.5t70 -24.5q146 0 146 182v37zM155 786v158h158v-158h-158zM436 786v158h158v-158h-158z" />
    <glyph glyph-name="aring" unicode="&#xe5;" 
d="M233 482l-166 30q55 197 300 197q171 0 231.5 -59t60.5 -208l-2 -214q0 -143 41 -228h-181q-11 27 -24 76q-94 -92 -215 -92q-102 0 -166 55.5t-64 149.5q0 75 41.5 130t210.5 88q130 25 179 45v19q0 98 -125 98q-90 0 -121 -87zM479 333q-88 -17 -212 -60
q-36 -25 -36 -65q0 -45 32 -69.5t70 -24.5q146 0 146 182v37zM503 876q0 -36 -17.5 -64.5t-46.5 -46t-64 -17.5q-53 0 -90.5 37t-37.5 91t37.5 91t90.5 37q36 0 64.5 -17.5t46 -46t17.5 -64.5zM433 876q0 58 -58 58t-58 -58t58 -58t58 58z" />
    <glyph glyph-name="ae" unicode="&#xe6;" horiz-adv-x="1189" 
d="M938 221l179 -32q-76 -205 -306 -205q-151 0 -247 96q-121 -96 -271 -96q-125 0 -180.5 63t-55.5 141q0 108 67.5 153t248.5 81q64 13 112 29v18q0 100 -115 100q-100 0 -126 -87l-167 32q61 195 317 195q138 0 212 -64q78 64 189 64q331 0 331 -416h-461
q21 -169 144 -169q95 0 129 97zM945 407q0 162 -142 162q-64 0 -99.5 -49t-35.5 -113h277zM483 332q-151 -39 -164 -45q-78 -24 -78 -82q0 -91 102 -91q74 0 107 43t33 175z" />
    <glyph glyph-name="ccedilla" unicode="&#xe7;" 
d="M700 488l-180 -32q-19 109 -126 109q-150 0 -150 -206q0 -225 153 -225q107 0 132 132l181 -31q-57 -251 -322 -251q-156 0 -244.5 99t-88.5 263q0 148 79.5 255.5t257.5 107.5q244 0 308 -221zM197 -263v77q62 -7 123 -7q108 0 108 61q0 55 -83 55q-42 0 -85 -13l16 65
q53 17 110 17q167 0 167 -123q0 -143 -229 -143q-81 0 -127 11z" />
    <glyph glyph-name="egrave" unicode="&#xe8;" 
d="M497 221l183 -31q-72 -206 -301 -206q-179 0 -258 104t-79 253q0 164 86 266t232 102q330 0 330 -415h-460q9 -173 151 -173q88 0 116 100zM508 406q-5 163 -137 163q-137 0 -137 -163h274zM445 778h-115l-181 195h206z" />
    <glyph glyph-name="eacute" unicode="&#xe9;" 
d="M497 221l183 -31q-72 -206 -301 -206q-179 0 -258 104t-79 253q0 164 86 266t232 102q330 0 330 -415h-460q9 -173 151 -173q88 0 116 100zM508 406q-5 163 -137 163q-137 0 -137 -163h274zM284 778l90 196h206l-180 -196h-116z" />
    <glyph glyph-name="ecircumflex" unicode="&#xea;" 
d="M497 221l183 -31q-72 -206 -301 -206q-179 0 -258 104t-79 253q0 164 86 266t232 102q330 0 330 -415h-460q9 -173 151 -173q88 0 116 100zM508 406q-5 163 -137 163q-137 0 -137 -163h274zM144 781l137 193h170l135 -193h-148l-75 97l-71 -97h-148z" />
    <glyph glyph-name="edieresis" unicode="&#xeb;" 
d="M497 221l183 -31q-72 -206 -301 -206q-179 0 -258 104t-79 253q0 164 86 266t232 102q330 0 330 -415h-460q9 -173 151 -173q88 0 116 100zM508 406q-5 163 -137 163q-137 0 -137 -163h274zM151 786v158h158v-158h-158zM432 786v158h158v-158h-158z" />
    <glyph glyph-name="igrave" unicode="&#xec;" horiz-adv-x="372" 
d="M96 0v693h183v-693h-183zM263 778h-115l-181 195h206z" />
    <glyph glyph-name="iacute" unicode="&#xed;" horiz-adv-x="372" 
d="M96 0v693h183v-693h-183zM102 778l90 196h206l-180 -196h-116z" />
    <glyph glyph-name="icircumflex" unicode="&#xee;" horiz-adv-x="372" 
d="M96 0v693h183v-693h-183zM-38 781l137 193h170l135 -193h-148l-75 97l-71 -97h-148z" />
    <glyph glyph-name="idieresis" unicode="&#xef;" horiz-adv-x="372" 
d="M96 0v693h183v-693h-183zM-32 786v158h158v-158h-158zM249 786v158h158v-158h-158z" />
    <glyph glyph-name="eth" unicode="&#xf0;" horiz-adv-x="817" 
d="M217 957h191l71 -58l118 58l30 -64l-94 -43q234 -238 234 -493q0 -171 -100.5 -272t-259.5 -101q-174 0 -263.5 112.5t-89.5 251.5q0 150 92.5 247.5t211.5 97.5q73 0 145 -45q-17 28 -23 40q-24 42 -47 70q-13 16 -25 32l-163 -78l-28 63l142 67q-64 59 -142 115z
M246 346q0 -105 47 -159t116 -54q68 0 118 56t50 151q0 96 -50.5 152.5t-119.5 56.5q-67 0 -114 -53t-47 -150z" />
    <glyph glyph-name="ntilde" unicode="&#xf1;" horiz-adv-x="817" 
d="M727 0h-184v354q0 122 -22.5 168.5t-90.5 46.5q-61 0 -106.5 -35.5t-45.5 -219.5v-314h-183v693h170v-102q91 118 229 118q233 0 233 -278v-431zM277 787h-84v23q0 143 118 143q46 0 114 -34q51 -22 82 -22q45 0 52 56h85q0 -164 -116 -164q-17 0 -44 5l-75 27
q-64 23 -87 23q-45 0 -45 -57z" />
    <glyph glyph-name="ograve" unicode="&#xf2;" horiz-adv-x="817" 
d="M54 356q0 147 98 250t259 103q159 0 258.5 -101t99.5 -259t-100 -261.5t-257 -103.5q-163 0 -260.5 97t-97.5 275zM242 347q0 -95 44.5 -154t124.5 -59t124.5 59.5t44.5 154.5t-44.5 153t-124.5 58t-124.5 -58.5t-44.5 -153.5zM466 778h-115l-181 195h206z" />
    <glyph glyph-name="oacute" unicode="&#xf3;" horiz-adv-x="817" 
d="M54 356q0 147 98 250t259 103q159 0 258.5 -101t99.5 -259t-100 -261.5t-257 -103.5q-163 0 -260.5 97t-97.5 275zM242 347q0 -95 44.5 -154t124.5 -59t124.5 59.5t44.5 154.5t-44.5 153t-124.5 58t-124.5 -58.5t-44.5 -153.5zM325 778l90 196h206l-180 -196h-116z" />
    <glyph glyph-name="ocircumflex" unicode="&#xf4;" horiz-adv-x="817" 
d="M54 356q0 147 98 250t259 103q159 0 258.5 -101t99.5 -259t-100 -261.5t-257 -103.5q-163 0 -260.5 97t-97.5 275zM242 347q0 -95 44.5 -154t124.5 -59t124.5 59.5t44.5 154.5t-44.5 153t-124.5 58t-124.5 -58.5t-44.5 -153.5zM185 781l137 193h170l135 -193h-148l-75 97
l-71 -97h-148z" />
    <glyph glyph-name="otilde" unicode="&#xf5;" horiz-adv-x="817" 
d="M54 356q0 147 98 250t259 103q159 0 258.5 -101t99.5 -259t-100 -261.5t-257 -103.5q-163 0 -260.5 97t-97.5 275zM242 347q0 -95 44.5 -154t124.5 -59t124.5 59.5t44.5 154.5t-44.5 153t-124.5 58t-124.5 -58.5t-44.5 -153.5zM259 787h-84v23q0 143 118 143
q46 0 114 -34q51 -22 82 -22q45 0 52 56h85q0 -164 -116 -164q-17 0 -44 5l-75 27q-64 23 -87 23q-45 0 -45 -57z" />
    <glyph glyph-name="odieresis" unicode="&#xf6;" horiz-adv-x="817" 
d="M54 356q0 147 98 250t259 103q159 0 258.5 -101t99.5 -259t-100 -261.5t-257 -103.5q-163 0 -260.5 97t-97.5 275zM242 347q0 -95 44.5 -154t124.5 -59t124.5 59.5t44.5 154.5t-44.5 153t-124.5 58t-124.5 -58.5t-44.5 -153.5zM186 786v158h158v-158h-158zM467 786v158
h158v-158h-158z" />
    <glyph glyph-name="divide" unicode="&#xf7;" horiz-adv-x="734" 
d="M275 641v183h183v-183h-183zM32 387v171h669v-171h-669zM275 121v183h183v-183h-183z" />
    <glyph glyph-name="oslash" unicode="&#xf8;" horiz-adv-x="817" 
d="M618 652l68 79l73 -60l-71 -81q84 -102 84 -244q0 -136 -91.5 -249t-267.5 -113q-109 0 -201 55l-75 -87l-72 62l76 88q-84 102 -84 249q0 157 99 257.5t258 100.5q115 0 204 -57zM515 534q-44 35 -100 35q-63 0 -119.5 -52t-56.5 -164q0 -64 18 -117zM571 454l-256 -296
q41 -31 98 -31q66 0 121.5 50.5t55.5 164.5q0 61 -19 112z" />
    <glyph glyph-name="ugrave" unicode="&#xf9;" horiz-adv-x="817" 
d="M552 0v104q-81 -120 -230 -120q-230 0 -230 271v438h183v-318q0 -151 22.5 -201t92.5 -50q87 0 118 53.5t31 223.5v292h184v-693h-171zM482 778h-115l-181 195h206z" />
    <glyph glyph-name="uacute" unicode="&#xfa;" horiz-adv-x="817" 
d="M552 0v104q-81 -120 -230 -120q-230 0 -230 271v438h183v-318q0 -151 22.5 -201t92.5 -50q87 0 118 53.5t31 223.5v292h184v-693h-171zM321 778l90 196h206l-180 -196h-116z" />
    <glyph glyph-name="ucircumflex" unicode="&#xfb;" horiz-adv-x="817" 
d="M552 0v104q-81 -120 -230 -120q-230 0 -230 271v438h183v-318q0 -151 22.5 -201t92.5 -50q87 0 118 53.5t31 223.5v292h184v-693h-171zM182 781l137 193h170l135 -193h-148l-75 97l-71 -97h-148z" />
    <glyph glyph-name="udieresis" unicode="&#xfc;" horiz-adv-x="817" 
d="M552 0v104q-81 -120 -230 -120q-230 0 -230 271v438h183v-318q0 -151 22.5 -201t92.5 -50q87 0 118 53.5t31 223.5v292h184v-693h-171zM192 786v158h158v-158h-158zM473 786v158h158v-158h-158z" />
    <glyph glyph-name="yacute" unicode="&#xfd;" 
d="M9 693h195l166 -492l162 492h190l-289 -788q-68 -186 -259 -186q-53 0 -104 11l-16 143q43 -8 77 -8q104 0 142 133zM289 778l90 196h206l-180 -196h-116z" />
    <glyph glyph-name="thorn" unicode="&#xfe;" horiz-adv-x="817" 
d="M91 957h183v-344q95 96 204 96q120 0 204.5 -94t84.5 -264q0 -174 -84.5 -270.5t-205.5 -96.5q-112 0 -203 102v-350h-183v1221zM273 362q0 -233 161 -233q146 0 146 216q0 224 -154 224q-153 0 -153 -207z" />
    <glyph glyph-name="ydieresis" unicode="&#xff;" 
d="M9 693h195l166 -492l162 492h190l-289 -788q-68 -186 -259 -186q-53 0 -104 11l-16 143q43 -8 77 -8q104 0 142 133zM150 786v158h158v-158h-158zM431 786v158h158v-158h-158z" />
    <glyph glyph-name="dotlessi" unicode="&#x131;" horiz-adv-x="372" 
d="M96 0v693h183v-693h-183z" />
    <glyph glyph-name="OE" unicode="&#x152;" horiz-adv-x="1337" 
d="M1296 163v-163h-616v113q-74 -129 -250 -129q-111 0 -194 49.5t-136 162.5t-53 284q0 235 101 364.5t273 129.5q166 0 259 -122v105h598v-162h-430v-213h393v-161h-393v-258h448zM458 808q-212 0 -212 -314q0 -341 212 -341q211 0 211 337q0 318 -211 318z" />
    <glyph glyph-name="oe" unicode="&#x153;" horiz-adv-x="1262" 
d="M1020 223l179 -29q-72 -210 -302 -210q-148 0 -245 97q-103 -97 -243 -97q-151 0 -251.5 101.5t-100.5 259.5q0 155 93.5 259.5t261.5 104.5q145 0 242 -96q90 96 231 96q322 0 322 -416h-456q0 -71 40 -120t106 -49q88 0 123 99zM1031 407q0 74 -39.5 120.5t-102.5 46.5
q-69 0 -102.5 -51t-33.5 -116h278zM246 336q0 -67 41 -133.5t123 -66.5q67 0 113.5 54.5t46.5 162.5q0 85 -40 144.5t-120 59.5q-164 0 -164 -221z" />
    <glyph glyph-name="Scaron" unicode="&#x160;" horiz-adv-x="892" 
d="M48 311l188 19q33 -184 209 -184q188 0 188 132q0 50 -41 75.5t-203 65.5q-306 77 -306 287q0 128 96 197.5t253 69.5q357 0 367 -290l-193 -8q-23 138 -176 138q-162 0 -162 -94q0 -31 28.5 -59t179.5 -66q241 -62 295.5 -137.5t54.5 -177.5q0 -296 -383 -296
q-356 0 -395 328zM222 1244h148l71 -98l75 98h148l-135 -193h-170z" />
    <glyph glyph-name="scaron" unicode="&#x161;" 
d="M31 198l184 28q24 -109 149 -109q131 0 131 75q0 42 -75 59q-254 56 -308.5 111t-54.5 134q0 213 292 213q254 0 306 -183l-173 -32q-22 83 -130 83q-125 0 -125 -57q0 -47 196 -90q143 -31 199.5 -78t56.5 -135q0 -115 -92.5 -174t-222.5 -59q-278 0 -333 214zM142 974
h148l71 -98l75 98h148l-135 -193h-170z" />
    <glyph glyph-name="Ydieresis" unicode="&#x178;" horiz-adv-x="892" 
d="M349 0v403l-351 554h227l225 -379l220 379h223l-352 -556v-401h-192zM223 1096v158h158v-158h-158zM504 1096v158h158v-158h-158z" />
    <glyph glyph-name="Zcaron" unicode="&#x17d;" horiz-adv-x="817" 
d="M14 0v174l503 621h-446v162h701v-150l-525 -646h545v-161h-778zM212 1238h148l71 -98l75 98h148l-135 -193h-170z" />
    <glyph glyph-name="zcaron" unicode="&#x17e;" horiz-adv-x="668" 
d="M22 0v143l260 298q61 70 95 104l-85 -3l-244 -1v152h573v-130l-265 -305l-94 -101q77 4 95 4h284v-161h-619zM113 974h148l71 -98l75 98h148l-135 -193h-170z" />
    <glyph glyph-name="florin" unicode="&#x192;" 
d="M180 556l24 137h132l10 59q21 126 63.5 174t161.5 48q88 0 175 -27l-36 -148q-63 19 -103 19q-30 0 -48.5 -13.5t-31.5 -74.5l-7 -37h136l-25 -137h-133l-113 -639q-22 -126 -74.5 -162t-140.5 -36q-105 0 -183 26l37 144q71 -15 109 -15q37 0 53 20t28 92l98 570h-132z
" />
    <glyph glyph-name="circumflex" unicode="&#x2c6;" horiz-adv-x="445" 
d="M2 781l137 193h170l135 -193h-148l-75 97l-71 -97h-148z" />
    <glyph glyph-name="caron" unicode="&#x2c7;" horiz-adv-x="445" 
d="M2 974h148l71 -98l75 98h148l-135 -193h-170z" />
    <glyph glyph-name="ring" unicode="&#x2da;" horiz-adv-x="445" 
d="M351 876q0 -36 -17.5 -64.5t-46.5 -46t-64 -17.5q-53 0 -90.5 37t-37.5 91t37.5 91t90.5 37q36 0 64.5 -17.5t46 -46t17.5 -64.5zM281 876q0 58 -58 58t-58 -58t58 -58t58 58z" />
    <glyph glyph-name="ring" unicode="&#x25e6;" horiz-adv-x="445" 
d="M351 876q0 -36 -17.5 -64.5t-46.5 -46t-64 -17.5q-53 0 -90.5 37t-37.5 91t37.5 91t90.5 37q36 0 64.5 -17.5t46 -46t17.5 -64.5zM281 876q0 58 -58 58t-58 -58t58 -58t58 58z" />
    <glyph glyph-name="tilde" unicode="&#x2dc;" horiz-adv-x="445" 
d="M76 787h-84v23q0 143 118 143q46 0 114 -34q51 -22 82 -22q45 0 52 56h85q0 -164 -116 -164q-17 0 -44 5l-75 27q-64 23 -87 23q-45 0 -45 -57z" />
    <glyph glyph-name="uni0E01" unicode="&#xe01;" horiz-adv-x="930" 
d="M263 547q-62 63 -185 113q135 164 385 164q143 0 247.5 -61.5t104.5 -197.5v-565h-161v563q0 160 -187 160q-108 0 -169 -57q89 -52 143 -113q-26 0 -72.5 -49t-46.5 -123v-381h-162v381q0 120 103 166z" />
    <glyph glyph-name="uni0E02" unicode="&#xe02;" horiz-adv-x="908" 
d="M270 731q65 -39 65 -120q0 -68 -45 -104t-100 -36q-69 0 -109.5 42t-40.5 111q0 200 242 200q97 0 174.5 -52t77.5 -155q0 -70 -55.5 -163.5t-55.5 -135.5v-209h141q72 0 72 78v632h161v-634q0 -185 -179 -185h-455v109h98v199q0 54 61 128q81 97 81 162q0 133 -133 133z
M188 682q-64 0 -64 -67q0 -66 60 -66q65 0 65 66q0 67 -61 67z" />
    <glyph glyph-name="uni0E03" unicode="&#xe03;" horiz-adv-x="922" 
d="M306 629q-51 88 -117 88q-54 0 -54 -53q140 0 140 -129q0 -135 -127 -135q-140 0 -140 168q0 90 47 171.5t130 81.5q78 0 127 -73q39 73 110 73q60 0 98.5 -56.5t38.5 -112.5q0 -106 -52 -193q-64 -107 -64 -164v-186h120q76 0 76 74v636h162v-655q0 -164 -205 -164h-413
v109h98v194q0 51 66 148q78 114 78 166q0 71 -36 71q-26 0 -83 -59zM146 602q-58 0 -58 -67q0 -66 58 -66q57 0 57 68q0 65 -57 65z" />
    <glyph glyph-name="uni0E04" unicode="&#xe04;" horiz-adv-x="967" 
d="M410 303q-47 -165 -47 -303h-164v29q0 85 -31 170q-75 207 -75 315q0 142 105 226t280 84q150 0 261 -70t111 -229v-525h-162v516q0 209 -223 209q-107 0 -165 -58t-58 -151q0 -59 20 -166t27 -118q0 141 47 239.5t151 98.5q140 0 140 -146q0 -139 -141 -139
q-40 0 -76 18zM484 490q-64 0 -64 -64q0 -65 64 -65q65 0 65 65q0 64 -65 64z" />
    <glyph glyph-name="uni0E05" unicode="&#xe05;" horiz-adv-x="963" 
d="M587 701l-123 -64l-129 62q-43 0 -74.5 -55t-31.5 -115q0 -128 47 -297q19 309 198 309q138 0 138 -127q0 -160 -142 -160q-43 0 -73 15q-34 -120 -50 -269h-161v35q0 87 -29 164q-76 202 -76 302q0 125 76.5 224t177.5 99l129 -78l135 78q239 0 239 -297v-527h-161v516
q0 185 -90 185zM468 465q-63 0 -63 -63q0 -66 63 -66q66 0 66 66q0 63 -66 63z" />
    <glyph glyph-name="uni0E06" unicode="&#xe06;" horiz-adv-x="1059" 
d="M542 479v-126l97 -88q109 -101 123 -117l6 5q6 9 6 40v626h162v-696q0 -127 -123 -127q-34 0 -73.5 31t-165.5 169l-32 34v-86q0 -150 -169 -150q-79 0 -128.5 53.5t-49.5 132.5q0 87 50.5 140t135.5 53v111q0 25 26 74q24 45 24 79q0 51 -27 51q-47 0 -87 -56
q-48 85 -114 85q-53 0 -53 -53q139 0 139 -129q0 -135 -127 -135q-139 0 -139 168q0 99 49 176t129 77q69 0 125 -73q38 73 110 73q62 0 100 -47.5t38 -121.5q0 -24 -16 -84t-16 -89zM160 602q-57 0 -57 -67q0 -66 57 -66t57 68q0 65 -57 65zM381 281q-44 0 -70 -31t-26 -63
q0 -93 55 -93q41 0 41 54v133z" />
    <glyph glyph-name="uni0E07" unicode="&#xe07;" horiz-adv-x="703" 
d="M25 334l16 145q84 0 126 -40.5t76 -146.5q40 -124 55.5 -152.5t54.5 -28.5q61 0 61 90v321q-170 0 -170 148q0 69 43 111.5t109 42.5q180 0 180 -191v-424q0 -108 -63 -160.5t-154 -52.5q-136 0 -181 108.5t-75 186.5q-12 32 -54 39zM400 740q-68 0 -68 -68t68 -68t68 68
t-68 68z" />
    <glyph glyph-name="uni0E08" unicode="&#xe08;" horiz-adv-x="836" 
d="M276 273q-165 0 -165 139q0 73 45.5 109t103.5 36q140 0 151 -136l23 -277q4 -47 58 -47q67 0 67 92v350q0 188 -204 188q-166 0 -240 -123l-94 66q92 154 346 154q354 0 354 -289v-301q0 -238 -229 -238q-80 0 -138.5 35.5t-64.5 98.5zM256 477q-67 0 -67 -65
q0 -64 67 -64q66 0 66 64q0 65 -66 65z" />
    <glyph glyph-name="uni0E09" unicode="&#xe09;" horiz-adv-x="979" 
d="M219 248q-139 0 -139 139q0 52 37.5 98.5t104.5 46.5q159 0 159 -151v-209q0 -30 12 -30q16 0 66 66q88 117 154 157v200q0 162 -197 162q-124 0 -188.5 -41t-83.5 -98l-111 68q84 168 369 168q373 0 373 -250v-178q178 0 178 -197q0 -203 -170 -203t-170 154v96
q-27 -27 -89 -114q-94 -134 -200 -134q-38 0 -71.5 27.5t-33.5 77.5v145zM213 451q-57 0 -57 -64q0 -63 57 -63q56 0 56 63q0 64 -56 64zM774 314v-160q0 -62 45 -62q48 0 48 91q0 131 -93 131z" />
    <glyph glyph-name="uni0E0A" unicode="&#xe0a;" horiz-adv-x="903" 
d="M144 0v109h98v199q0 50 57 121q83 103 83 171q0 131 -131 131q60 -35 60 -105q0 -155 -142 -155q-62 0 -102 44t-40 110q0 95 69 145.5t170 50.5q196 0 239 -153q225 110 298 252l35 -146q-63 -80 -206 -135q146 -48 146 -229v-225q0 -185 -180 -185h-454zM168 682
q-63 0 -63 -67q0 -66 63 -66q62 0 62 66q0 67 -62 67zM510 580q-9 -69 -57.5 -142t-48.5 -120v-209h141q72 0 72 78v258q0 121 -107 135z" />
    <glyph glyph-name="uni0E0B" unicode="&#xe0b;" horiz-adv-x="957" 
d="M326 633q-6 27 -44.5 54.5t-68.5 27.5q-55 0 -55 -51q139 0 139 -129q0 -135 -127 -135q-141 0 -141 174q0 97 49 172t129 75q83 0 127 -73q55 73 111 73q102 0 117 -157q178 64 303 248l32 -142q-99 -99 -207 -135q147 -45 147 -229v-222q0 -184 -179 -184h-455v109h98
v267q0 65 86 157q47 50 47 102q0 53 -22 53q-50 0 -86 -55zM463 389v-280h141q72 0 72 78v254q0 55 -37 105t-86 50q-7 -20 -55 -99q-35 -58 -35 -108zM168 596q-57 0 -57 -63q0 -64 57 -64q60 0 60 64q0 63 -60 63z" />
    <glyph glyph-name="uni0E0C" unicode="&#xe0c;" horiz-adv-x="1217" 
d="M772 242q15 -29 15 -80q0 -168 -148 -168q-64 0 -105.5 48t-41.5 118q0 155 119 166v237q0 158 -166 158q-103 0 -162 -55q93 -48 143 -113q-44 0 -81.5 -60t-37.5 -112v-80q60 0 90.5 -42t30.5 -95q0 -72 -39.5 -119t-105.5 -47q-137 0 -137 182v201q0 131 102 166
q-63 71 -184 113q126 161 377 161q331 0 331 -256v-229q109 -15 160 -117v600h161v-716q0 -103 -102 -103q-32 0 -49 15.5t-44 78.5q-52 118 -126 148zM641 240q-63 0 -63 -78t65 -78q58 0 58 80q0 76 -60 76zM295 215q-55 0 -55 -67q0 -68 55 -68q58 0 58 66q0 69 -58 69z
" />
    <glyph glyph-name="uni0E0D" unicode="&#xe0d;" horiz-adv-x="1217" 
d="M559 109h56v454q0 158 -166 158q-103 0 -162 -55q81 -35 143 -113q-26 0 -72 -48.5t-46 -123.5v-102q145 0 145 -133q0 -148 -145 -148q-162 0 -162 182v201q0 125 103 166q-77 77 -185 113q126 161 377 161q331 0 331 -255v-457h97q63 0 63 59v651h161v-616
q0 -116 -44.5 -159.5t-89.5 -43.5h-404v109zM326 201q-57 0 -57 -68q0 -67 57 -67q59 0 59 67q0 68 -59 68zM942 -100h145q0 -155 -98 -226.5t-228 -71.5q-92 0 -169.5 40t-77.5 118q0 149 131 149q125 0 125 -124q0 -63 -57 -92q46 -7 82 -7q59 0 103 52.5t44 161.5z
M645 -158q-59 0 -59 -61q0 -58 57 -58q60 0 60 62q0 57 -58 57z" />
    <glyph glyph-name="uni0E0E" unicode="&#xe0e;" horiz-adv-x="938" 
d="M656 -185v748q0 160 -166 160q-105 0 -166 -57q94 -49 143 -113q-119 -44 -119 -172v-227q0 -158 -143 -158q-145 0 -145 137q0 140 127 140v108q0 131 102 166q-63 71 -184 113q127 164 385 164q327 0 327 -259v-750q0 -45 -96.5 -142t-140.5 -107q-18 26 -77.5 85.5
t-70.5 59.5q-16 -61 -74 -101t-118 -40q-64 0 -116 41t-52 123q0 78 53.5 118.5t122.5 40.5q50 0 109 -18q6 7 10 38q0 11 4 38h119q0 -60 -25 -123q76 -49 107 -94q15 0 44.5 29.5t39.5 51.5zM203 199q-57 0 -57 -64q0 -63 57 -63q56 0 56 63q0 64 -56 64zM330 -217
q-9 18 -70 18q-30 0 -57 -20.5t-27 -55.5q0 -63 62 -63q39 0 65.5 39t26.5 82z" />
    <glyph glyph-name="uni0E0F" unicode="&#xe0f;" horiz-adv-x="951" 
d="M619 -246q7 0 25.5 24.5t21.5 36.5v748q0 160 -166 160q-104 0 -165 -57q91 -48 142 -113q-26 0 -72 -48.5t-46 -123.5v-227q0 -158 -144 -158q-63 0 -103 38t-40 101q0 138 125 138v108q0 125 103 166q-66 66 -185 113q53 74 163.5 119t221.5 45q328 0 328 -259v-750
q-29 -113 -110 -178t-95 -65l-117 162l-96 -156l-90 121q0 -41 -46 -78.5t-79 -37.5q-150 0 -150 157t127 157q42 0 78 -16v70h111v-62q0 -21 -6 -61l47 -70l98 152zM213 199q-57 0 -57 -64q0 -63 57 -63q56 0 56 63q0 64 -56 64zM230 -223q-14 28 -41 28q-52 0 -52 -65
q0 -62 48 -62q45 0 45 99z" />
    <glyph glyph-name="uni0E10" unicode="&#xe10;" horiz-adv-x="838" 
d="M738 824l47 -82q-54 -54 -140 -54q-48 0 -137 24q-103 28 -159 28q-69 0 -97 -41q-5 -8 -10 -17q106 0 250 -50.5t181.5 -105.5t37.5 -149l-12 -192q-12 -189 -228 -189q-199 0 -211 156l-7 82q-172 0 -172 134q0 146 168 146q141 0 151 -174l10 -182q4 -68 65 -68
q62 0 66 64l15 231q0 137 -187 182.5t-305 45.5q0 89 89 153t197 64q57 0 194 -31q71 -16 106 -16q65 0 88 41zM223 434q-63 0 -63 -63q0 -64 63 -64q64 0 64 64q0 63 -64 63zM576 -326q-58 0 -89.5 38t-31.5 81q0 133 131 133q134 0 134 -170v-49q0 -178 -206 -178
q-79 0 -137 80l-78 -82l-63 100q-43 -106 -135 -106q-125 0 -125 166q0 57 35 102.5t85 45.5q60 0 103 -30q17 59 20 113h109q0 -100 -43 -184l39 -62l59 57q60 -100 142 -100q51 0 51 45zM582 -142q-59 0 -59 -57t60 -57q55 0 55 57t-56 57zM163 -293q-33 37 -62 37
q-39 0 -39 -66q0 -59 51 -59q50 0 50 88z" />
    <glyph glyph-name="uni0E11" unicode="&#xe11;" horiz-adv-x="1147" 
d="M258 686q-25 19 -49 19q-55 0 -55 -70q145 0 145 -127q0 -137 -123 -137q-145 0 -145 186q0 94 47 179t129 85q76 0 113 -77q28 77 110 77q62 0 97.5 -50.5t35.5 -123.5q0 -8 -18 -69q-12 -43 -12 -66v-116q0 31 102.5 229.5t224.5 198.5q168 0 168 -181v-643h-161v590
q0 82 -39 82q-84 0 -186.5 -261.5t-102.5 -410.5h-166v436q0 47 30 119t30 97q0 36 -31 36q-39 0 -92 -67q-8 19 -52 65zM172 574q-59 0 -59 -68q0 -65 57 -65q58 0 58 67q0 66 -56 66z" />
    <glyph glyph-name="uni0E12" unicode="&#xe12;" horiz-adv-x="1274" 
d="M837 346q45 0 90.5 -25.5t57.5 -54.5v553h162v-675q0 -144 -76 -144h-69q0 97 -50 173.5t-104 76.5q27 -49 27 -96q0 -73 -40.5 -121t-105.5 -48q-153 0 -153 182q0 68 33 109.5t67 41.5v219q0 170 -88 170l-125 -70l-119 66q-108 -22 -108 -219q0 -62 26 -147
q43 -139 43 -212q18 46 73 135q8 13 18 31q-76 19 -76 131q0 62 39 105t96 43q131 0 131 -144q0 -72 -34 -117q-100 -132 -138.5 -213t-38.5 -96h-195q0 99 -54 284q-44 150 -44 222q0 105 65.5 211.5t170.5 106.5l143 -70l125 70q117 0 184 -73.5t67 -193.5v-211zM453 494
q-59 0 -59 -72q0 -76 63 -76q54 0 54 74t-58 74zM730 236q-62 0 -62 -84q0 -78 63 -78q57 0 57 78q0 84 -58 84z" />
    <glyph glyph-name="uni0E13" unicode="&#xe13;" horiz-adv-x="1319" 
d="M1141 -6q-205 0 -205 160v108q-74 -28 -135 -209l-18 -53h-172v563q0 158 -166 158q-112 0 -162 -55q91 -48 147 -119q-123 0 -123 -166v-102q146 0 146 -134q0 -147 -146 -147q-161 0 -161 182v201q0 131 102 166q-63 71 -184 113q126 161 377 161q331 0 331 -256v-329
q47 87 160 149v434h161v-401l44 -4q70 -6 116 -65t46 -148q0 -186 -158 -207zM1093 324v-184q0 -48 40 -48q67 0 67 105q0 127 -107 127zM322 207q-58 0 -58 -67q0 -68 58 -68q59 0 59 68q0 67 -59 67z" />
    <glyph glyph-name="uni0E14" unicode="&#xe14;" horiz-adv-x="967" 
d="M355 0h-172q-4 118 -35 219q-68 204 -68 271q0 172 114.5 253t284.5 81q172 0 271.5 -74t99.5 -213v-537h-164v529q0 194 -211 194q-241 0 -241 -233q0 -34 43 -185q22 -77 22 -143q17 40 107 150q-82 36 -82 124q0 154 157 154q142 0 142 -148q0 -69 -105 -179
q-122 -128 -163 -263zM475 510q-69 0 -69 -69q0 -68 67 -68q70 0 70 70q0 67 -68 67z" />
    <glyph glyph-name="uni0E15" unicode="&#xe15;" horiz-adv-x="987" 
d="M428 307q-90 28 -90 139q0 64 42.5 103t103.5 39q151 0 151 -147q0 -66 -35 -111q-115 -148 -151.5 -230.5t-36.5 -99.5h-201q0 68 -11.5 116t-69.5 204q-36 96 -36 166q0 160 91 249t165 89l138 -64l139 64q120 0 184 -83.5t64 -183.5v-557h-162v580q0 49 -24.5 90
t-63.5 41l-135 -68l-140 68q-110 -41 -110 -229q0 -76 37 -164q46 -109 65 -193q16 75 86 182zM486 512q-68 0 -68 -69q0 -72 72 -72q65 0 65 70q0 71 -69 71z" />
    <glyph glyph-name="uni0E16" unicode="&#xe16;" horiz-adv-x="914" 
d="M250 547q-63 71 -184 113q138 164 385 164q158 0 255 -67.5t97 -191.5v-565h-162v563q0 160 -186 160q-119 0 -170 -57q82 -37 143 -113q-38 0 -78.5 -55.5t-40.5 -116.5v-92q158 0 158 -145q0 -74 -49.5 -111t-112.5 -37q-157 0 -157 197v188q0 131 102 166zM320 209
q-66 0 -66 -65q0 -68 66 -68q65 0 65 68q0 65 -65 65z" />
    <glyph glyph-name="uni0E17" unicode="&#xe17;" horiz-adv-x="996" 
d="M219 0v520q-170 0 -170 148q0 59 37.5 106t114.5 47q169 0 169 -190v-227q102 420 329 420q77 0 126.5 -50.5t49.5 -146.5v-627h-162v598q0 113 -49 113q-79 0 -180 -239t-101 -472h-164zM205 738q-68 0 -68 -68t68 -68t68 68t-68 68z" />
    <glyph glyph-name="uni0E18" unicode="&#xe18;" horiz-adv-x="891" 
d="M336 490v-381h180q88 0 88 88v168q0 72 -33.5 106t-184.5 66.5t-285 32.5q16 113 95 182t187 69q50 0 145 -27q84 -24 117 -24q88 0 129 54l50 -97q-44 -53 -122 -53q-49 0 -115 16q-154 37 -200 37q-33 0 -69.5 -22.5t-36.5 -55.5q83 -4 235 -49.5t201 -89.5t49 -121
v-209q0 -180 -137 -180h-528v109h73v344z" />
    <glyph glyph-name="uni0E19" unicode="&#xe19;" horiz-adv-x="1022" 
d="M215 -2v522q-170 0 -170 148q0 59 37.5 106t114.5 47q180 0 180 -190v-399q34 62 119.5 137.5t140.5 75.5v374h161v-362q87 0 136 -63t49 -166q0 -94 -44.5 -165t-137.5 -71q-83 0 -123.5 57t-40.5 129v158q-170 -71 -262 -336zM201 738q-68 0 -68 -68t68 -68t68 68
t-68 68zM798 344v-194q0 -43 34 -43q55 0 55 110q0 127 -89 127z" />
    <glyph glyph-name="uni0E1A" unicode="&#xe1a;" horiz-adv-x="989" 
d="M709 819h162v-677q0 -55 -34.5 -98.5t-105.5 -43.5h-594v109h99v411q-170 0 -170 148q0 59 37.5 106t113.5 47q181 0 181 -190v-522h237q74 0 74 92v618zM221 738q-67 0 -67 -68t67 -68q69 0 69 68t-69 68z" />
    <glyph glyph-name="uni0E1B" unicode="&#xe1b;" horiz-adv-x="991" 
d="M709 1219h162v-1077q0 -55 -34.5 -98.5t-105.5 -43.5h-594v109h99v411q-170 0 -170 148q0 59 37.5 106t113.5 47q181 0 181 -190v-522h237q74 0 74 92v1018zM221 738q-67 0 -67 -68t67 -68q69 0 69 68t-69 68z" />
    <glyph glyph-name="uni0E1C" unicode="&#xe1c;" horiz-adv-x="930" 
d="M291 0h-164v631q0 190 180 190q152 0 152 -153q0 -148 -170 -148v-284q0 15 70 94t110 113q21 -11 100.5 -101.5t79.5 -105.5v583h162v-819h-164q-46 163 -178 295q-132 -139 -178 -295zM303 738q-65 0 -65 -66q0 -68 65 -68q66 0 66 68q0 66 -66 66z" />
    <glyph glyph-name="uni0E1D" unicode="&#xe1d;" horiz-adv-x="930" 
d="M291 0h-164v631q0 190 180 190q152 0 152 -153q0 -148 -170 -148v-284q0 15 70 94t110 113q21 -11 100.5 -101.5t79.5 -105.5v989h162v-1225h-164q-46 163 -178 295q-132 -139 -178 -295zM303 738q-65 0 -65 -66q0 -68 65 -68q66 0 66 68q0 66 -66 66z" />
    <glyph glyph-name="uni0E1E" unicode="&#xe1e;" horiz-adv-x="1028" 
d="M563 617l-182 -617h-164v529q-170 0 -170 143q0 68 44.5 108.5t114.5 40.5q173 0 173 -182v-270l131 450h101l141 -450v448h162v-817h-160zM204 742q-67 0 -67 -66q0 -67 65 -67q67 0 67 67q0 66 -65 66z" />
    <glyph glyph-name="uni0E1F" unicode="&#xe1f;" horiz-adv-x="1037" 
d="M563 617l-182 -617h-164v529q-170 0 -170 143q0 149 154 149q178 0 178 -182v-270l131 450h101l141 -450v928h162v-1297h-160zM203 742q-66 0 -66 -66q0 -67 66 -67t66 67q0 66 -66 66z" />
    <glyph glyph-name="uni0E20" unicode="&#xe20;" horiz-adv-x="938" 
d="M660 0v563q0 160 -166 160q-105 0 -166 -57q81 -35 143 -113q-26 0 -72 -48.5t-46 -123.5v-227q0 -158 -144 -158q-141 0 -141 137q0 140 123 140v108q0 129 103 166q-79 79 -185 113q127 164 385 164q327 0 327 -259v-565h-161zM207 199q-57 0 -57 -64q0 -63 57 -63
q56 0 56 63q0 64 -56 64z" />
    <glyph glyph-name="uni0E21" unicode="&#xe21;" horiz-adv-x="991" 
d="M447 289v-121q0 -174 -185 -174q-182 0 -182 211q0 85 52.5 157t152.5 72v95q-170 0 -170 143q0 68 43.5 108.5t110.5 40.5q178 0 178 -182v-223q50 -12 141 -137t100 -125q23 0 23 61v604h162v-671q0 -152 -142 -152q-95 0 -204 179q-53 87 -80 114zM271 742
q-66 0 -66 -66q0 -67 66 -67t66 67q0 66 -66 66zM187 197q0 -88 55 -88q43 0 43 49v166q-98 0 -98 -127z" />
    <glyph glyph-name="uni0E22" unicode="&#xe22;" horiz-adv-x="905" 
d="M402 414h88v-94h-94q-97 0 -97 -129v-82h236q96 0 96 90v620h161v-645q0 -174 -177 -174h-478v205q0 66 43.5 115t108.5 53q-73 3 -118.5 56t-45.5 132v70q0 85 52 137.5t137 52.5q151 0 151 -157q0 -139 -147 -139q-23 0 -35 4q0 -115 119 -115zM314 738q-66 0 -66 -66
q0 -68 66 -68q65 0 65 68q0 66 -65 66z" />
    <glyph glyph-name="uni0E23" unicode="&#xe23;" horiz-adv-x="760" 
d="M473 291v115q0 68 -42 104t-154 58.5t-209 22.5l-15 -1q5 102 87 168t192 66q46 0 136 -23t136 -23q40 0 74 43l51 -96q-67 -49 -116 -49q-47 0 -139 27q-93 28 -144 28q-84 0 -109 -59q118 0 266 -67t148 -154v-271q0 -182 -178 -182q-152 0 -152 138q0 155 168 155z
M459 78q66 0 66 68q0 65 -66 65t-66 -65q0 -68 66 -68z" />
    <glyph glyph-name="uni0E24" unicode="&#xe24;" horiz-adv-x="934" 
d="M255 547q-81 81 -185 113q53 74 163.5 119t221.5 45q158 0 255 -67t97 -192v-864h-162v862q0 160 -186 160q-108 0 -169 -57q91 -48 142 -113q-26 0 -72 -48.5t-46 -123.5v-92q157 0 157 -145q0 -148 -162 -148q-157 0 -157 197v188q0 125 103 166zM324 209
q-65 0 -65 -65q0 -68 65 -68t65 68q0 65 -65 65z" />
    <glyph glyph-name="uni0E25" unicode="&#xe25;" horiz-adv-x="910" 
d="M289 287q180 0 180 -147q0 -148 -153 -148q-187 0 -187 289q0 297 232 297q69 0 126 -37.5t95.5 -94t38.5 -63.5v148q0 192 -180 192q-208 0 -265 -112l-102 63q79 154 356 154q189 0 271 -78t82 -248v-502h-162v66q0 102 -82.5 256.5t-181.5 154.5q-68 0 -68 -124v-66z
M312 207q-68 0 -68 -67q0 -68 68 -68q67 0 67 68q0 67 -67 67z" />
    <glyph glyph-name="uni0E26" unicode="&#xe26;" horiz-adv-x="951" 
d="M668 -316v879q0 160 -166 160q-104 0 -165 -57q91 -48 142 -113q-38 0 -78 -55.5t-40 -116.5v-227q0 -158 -144 -158q-141 0 -141 137q0 140 123 140v108q0 125 103 166q-81 81 -185 113q53 74 163.5 119t221.5 45q328 0 328 -259v-881h-162zM215 199q-57 0 -57 -64
q0 -63 57 -63q56 0 56 63q0 64 -56 64z" />
    <glyph glyph-name="uni0E27" unicode="&#xe27;" horiz-adv-x="817" 
d="M547 291v236q0 196 -178 196q-162 0 -199 -141l-137 53q23 80 129.5 133t204.5 53q187 0 264 -69t77 -227v-345q0 -182 -171 -182q-160 0 -160 150q0 143 170 143zM533 78q65 0 65 68q0 65 -65 65q-66 0 -66 -65q0 -68 66 -68z" />
    <glyph glyph-name="uni0E28" unicode="&#xe28;" horiz-adv-x="965" 
d="M752 901h193q0 -40 -52.5 -102t-101.5 -82q57 -71 57 -192v-525h-162v516q0 103 -24 144l-66 -27l-73 37q44 0 77 37q-44 18 -128 18q-101 0 -166.5 -54t-65.5 -155q0 -59 20 -166t27 -118q2 113 20.5 181.5t56 116.5t124.5 48q145 0 145 -148q0 -62 -41 -100.5
t-102 -38.5q-42 0 -76 21q-53 -168 -53 -312h-170v29q0 85 -31 170q-69 190 -69 308q0 149 104 233t272 84q153 0 228 -35q57 39 57 112zM488 498q-64 0 -64 -64q0 -65 64 -65q65 0 65 65q0 64 -65 64z" />
    <glyph glyph-name="uni0E29" unicode="&#xe29;" horiz-adv-x="1030" 
d="M140 0v109h98v411q-170 0 -170 148q0 67 42 110t109 43q181 0 181 -190v-522h237q74 0 74 92v65q-117 0 -200 45.5t-83 141.5q0 37 17 66t46 46t66 17q131 0 131 -123q0 -50 -28 -78q12 -6 51 -6v444h162v-397q30 0 63 48t33 81l108 -67q-11 -46 -85.5 -118.5
t-118.5 -72.5v-151q0 -55 -34.5 -98.5t-105.5 -43.5h-593zM223 738q-67 0 -67 -68t67 -68q69 0 69 68t-69 68zM561 520q-57 0 -57 -59t57 -59q60 0 60 59t-60 59z" />
    <glyph glyph-name="uni0E2A" unicode="&#xe2a;" horiz-adv-x="905" 
d="M555 697q-59 24 -148 24q-144 0 -229 -111l-102 64q99 147 348 147q158 0 221 -40q52 43 52 120h157q-28 -116 -126 -176q57 -71 57 -180v-545h-162v66q0 102 -82.5 256t-181.5 154q-68 0 -68 -123v-60q180 0 180 -141q0 -154 -153 -154q-189 0 -189 307q0 214 156 265
q147 48 231 98zM611 628q-42 -31 -144 -79q104 -68 156 -166v148q0 48 -12 97zM318 213q-68 0 -68 -67q0 -68 68 -68q67 0 67 68q0 67 -67 67z" />
    <glyph glyph-name="uni0E2B" unicode="&#xe2b;" horiz-adv-x="985" 
d="M213 0v520q-170 0 -170 148q0 58 38 105.5t114 47.5q180 0 180 -190v-322q131 205 209 244q-49 30 -49 111q0 72 48 117t120 45q163 0 163 -149q0 -108 -73 -144q76 -38 76 -140v-393h-162v387q0 76 -47 76q-50 0 -150.5 -153.5t-134.5 -309.5h-162zM199 738
q-68 0 -68 -68t68 -68q67 0 67 68t-67 68zM703 738q-72 0 -72 -72q0 -74 72 -74t72 74q0 72 -72 72z" />
    <glyph glyph-name="uni0E2C" unicode="&#xe2c;" horiz-adv-x="1039" 
d="M842 840q55 43 63 106l138 -43q0 -20 -43 -84.5t-88 -99.5v-719h-160l-191 373l-182 -373h-164v529q-170 0 -170 143q0 68 42.5 108.5t111.5 40.5q178 0 178 -182v-377l131 271h101l141 -271v378q-64 -4 -101 -4q-184 0 -184 130q0 146 195 146q126 0 182 -72zM660 830
q-97 0 -97 -58q0 -59 97 -59q90 0 90 59q0 58 -90 58zM201 742q-66 0 -66 -66q0 -67 66 -67q65 0 65 67q0 66 -65 66z" />
    <glyph glyph-name="uni0E2D" unicode="&#xe2d;" horiz-adv-x="924" 
d="M305 271v-86q0 -76 76 -76h172q84 0 84 98v356q0 156 -194 156q-176 0 -244 -121l-107 68q93 155 347 155q359 0 359 -266v-370q0 -185 -192 -185h-282q-80 0 -130 42.5t-50 113.5v225q0 182 178 182q153 0 153 -149q0 -143 -170 -143zM320 484q-66 0 -66 -66
q0 -68 66 -68q65 0 65 68q0 66 -65 66z" />
    <glyph glyph-name="uni0E2E" unicode="&#xe2e;" horiz-adv-x="903" 
d="M785 551v-366q0 -185 -193 -185h-283q-71 0 -125.5 38t-54.5 118v172q0 182 178 182q61 0 107.5 -36.5t46.5 -112.5q0 -144 -170 -144v-47q0 -61 76 -61h172q84 0 84 98v356q0 39 -10 56q-99 -37 -230 -37q-270 0 -270 110q0 64 91 98t208 34q172 0 244 -52q37 42 43 97
l135 -45q-21 -86 -86 -140q37 -37 37 -133zM576 705q-64 45 -156 45q-156 0 -156 -53q0 -41 153 -41q115 0 159 49zM305 430q-65 0 -65 -65q0 -68 65 -68q66 0 66 68q0 65 -66 65z" />
    <glyph glyph-name="uni0E2F" unicode="&#xe2f;" horiz-adv-x="860" 
d="M572 262v277q-75 -86 -207 -86q-109 0 -188 57.5t-79 149.5q0 62 38.5 111.5t118.5 49.5q130 0 130 -118q0 -117 -127 -117q25 -33 88 -33q104 0 168 79.5t64 186.5q99 0 127 -39t28 -118v-414q0 -256 -245 -256l-72 115q105 0 130.5 37t25.5 118zM258 760q-56 0 -56 -57
q0 -54 57 -54q56 0 56 55q0 56 -57 56z" />
    <glyph glyph-name="uni0E30" unicode="&#xe30;" horiz-adv-x="733" 
d="M649 809v-181q-38 -58 -156 -108.5t-194 -50.5q-223 0 -223 170q0 74 50 112.5t112 38.5q149 0 149 -135q0 -35 -8 -61q197 55 270 215zM234 708q-66 0 -66 -65q0 -68 68 -68q65 0 65 66q0 67 -67 67zM649 359v-181q-38 -58 -156 -108.5t-194 -50.5q-223 0 -223 170
q0 68 46.5 109.5t115.5 41.5q149 0 149 -135q0 -35 -8 -61q197 55 270 215zM234 258q-66 0 -66 -65q0 -68 68 -68q65 0 65 66q0 67 -67 67z" />
    <glyph glyph-name="uni0E31" unicode="&#xe31;" horiz-adv-x="0" 
d="M109 1321v-174q-24 -37 -119 -90t-240 -53q-319 0 -319 192q0 66 41.5 107t107.5 41q58 0 103.5 -33t45.5 -99q0 -68 -34 -102q137 -11 246 47t168 164zM-420 1274q-71 0 -71 -72q0 -75 75 -75q73 0 73 73q0 74 -77 74z" />
    <glyph glyph-name="uni0E32" unicode="&#xe32;" horiz-adv-x="746" 
d="M8 619q25 91 115.5 148t192.5 57q317 0 317 -259v-565h-162v565q0 158 -159 158q-60 0 -115 -42t-74 -103z" />
    <glyph glyph-name="uni0E33" unicode="&#xe33;" horiz-adv-x="764" 
d="M-203 950q-86 0 -129 53.5t-43 119.5q0 51 22.5 89.5t60.5 60.5t89 22q75 0 124 -48.5t49 -123.5q0 -52 -22 -90.5t-60.5 -60.5t-90.5 -22zM-203 1200q-28 0 -54 -21.5t-26 -57.5q0 -80 80 -80t80 80q0 79 -80 79zM23 619q25 91 115.5 148t192.5 57q317 0 317 -259v-565
h-162v565q0 158 -159 158q-60 0 -115 -42t-74 -103z" />
    <glyph glyph-name="uni0E34" unicode="&#xe34;" horiz-adv-x="0" 
d="M-103 905q-150 111 -383 111q-145 0 -303 -49q11 145 103 232t235 87q146 0 247 -115t101 -266zM-636 1084q62 14 154 14q122 0 231 -40q-41 138 -205 138q-152 0 -180 -112z" />
    <glyph glyph-name="uni0E35" unicode="&#xe35;" horiz-adv-x="0" 
d="M-281 1239v105h158v-322q22 -64 22 -117q-149 111 -394 111q-181 0 -292 -49q4 137 98.5 228t231.5 91q96 0 176 -47zM-634 1084q74 14 165 14q109 0 220 -40q-41 138 -205 138q-152 0 -180 -112z" />
    <glyph glyph-name="uni0E36" unicode="&#xe36;" horiz-adv-x="0" 
d="M-355 1272q0 48 43.5 79.5t87.5 31.5q144 0 144 -138q0 -98 -84 -139q61 -70 61 -201q-142 111 -382 111q-138 0 -304 -49q0 156 105 237.5t229 81.5q57 0 100 -14zM-219 1311q-68 0 -68 -68q0 -69 70 -69q67 0 67 67q0 70 -69 70zM-636 1084q62 14 154 14q123 0 232 -40
q-45 138 -206 138q-152 0 -180 -112z" />
    <glyph glyph-name="uni0E37" unicode="&#xe37;" horiz-adv-x="0" 
d="M-475 1286v64h127v-88q25 -13 79 -49v137h138v-373l12 -72q-145 111 -367 111q-137 0 -319 -49q0 135 97 227t233 92zM-652 1084q73 14 156 14q122 0 230 -40q-45 138 -206 138q-152 0 -180 -112z" />
    <glyph glyph-name="uni0E38" unicode="&#xe38;" horiz-adv-x="0" 
d="M-261 -385q-173 -2 -173 133q0 142 157 142q164 0 164 -191v-246h-148v162zM-291 -184q-68 0 -68 -68q0 -67 68 -67t68 67q0 68 -68 68z" />
    <glyph glyph-name="uni0E39" unicode="&#xe39;" horiz-adv-x="0" 
d="M-530 -408q-161 0 -161 147t155 147q150 0 150 -185v-119h115v299h147v-406h-406v117zM-558 -189q-60 0 -60 -73q0 -70 60 -70q61 0 61 70q0 73 -61 73z" />
    <glyph glyph-name="uni0E3A" unicode="&#xe3a;" horiz-adv-x="0" 
d="M-217 -348q-50 0 -82.5 32t-32.5 82q0 115 115 115q113 0 113 -115q0 -114 -113 -114z" />
    <glyph glyph-name="uni0E3F" unicode="&#xe3f;" horiz-adv-x="965" 
d="M368 1002h139v-45q346 -6 346 -241q0 -147 -135 -207q182 -53 182 -232q0 -97 -50 -164t-115.5 -88.5t-227.5 -23.5v-101h-139v100h-270v957h270v45zM368 576v222h-77v-222h77zM507 797v-220q158 4 158 112q0 56 -33.5 81t-124.5 27zM368 161v256h-77v-256h77zM507 416
v-255q106 1 149.5 27t43.5 99q0 66 -42 95.5t-151 33.5z" />
    <glyph glyph-name="uni0E40" unicode="&#xe40;" horiz-adv-x="496" 
d="M127 819h162v-528q166 0 166 -155q0 -63 -42.5 -100.5t-107.5 -37.5q-178 0 -178 182v639zM303 78q66 0 66 68q0 65 -66 65q-65 0 -65 -65q0 -68 65 -68z" />
    <glyph glyph-name="uni0E41" unicode="&#xe41;" horiz-adv-x="895" 
d="M121 819h162v-528q166 0 166 -155q0 -69 -45.5 -103.5t-104.5 -34.5q-178 0 -178 182v639zM297 78q66 0 66 68q0 65 -66 65q-65 0 -65 -65q0 -68 65 -68zM527 819h162v-528q166 0 166 -155q0 -63 -42.5 -100.5t-107.5 -37.5q-178 0 -178 182v639zM703 78q66 0 66 68
q0 65 -66 65q-65 0 -65 -65q0 -68 65 -68z" />
    <glyph glyph-name="uni0E42" unicode="&#xe42;" horiz-adv-x="537" 
d="M327 291q167 0 167 -155q0 -69 -45.5 -103.5t-104.5 -34.5q-56 0 -94 18q-39 18 -60 54q-20 36 -23 90q-1 10 -1 158v747q0 133 -222 133q0 130 87.5 198.5t198.5 68.5q49 0 147 -29t150 -29q51 0 98 47l49 -110q-42 -47 -123 -47q-45 0 -149 33q-103 34 -152 34
q-113 0 -131 -90q109 -23 158.5 -67t49.5 -142v-774zM342 78q66 0 66 68q0 65 -66 65q-65 0 -65 -65q0 -68 65 -68z" />
    <glyph glyph-name="uni0E43" unicode="&#xe43;" horiz-adv-x="623" 
d="M420 934v-643q166 0 166 -176q-24 -117 -159 -117q-169 0 -169 182v742q0 58 42 159t42 156q0 144 -141 144q-64 0 -103.5 -35t-39.5 -72q0 8 41 8q40 0 83.5 -28t43.5 -99q0 -57 -38.5 -94t-96.5 -37q-152 0 -152 183q0 119 71.5 196.5t199.5 77.5q132 0 198.5 -68.5
t66.5 -167.5q0 -52 -28 -153q-27 -101 -27 -158zM94 1209q-52 0 -52 -54q0 -55 52 -55q54 0 54 55q0 54 -54 54zM434 78q66 0 66 68q0 65 -66 65q-65 0 -65 -65q0 -68 65 -68z" />
    <glyph glyph-name="uni0E44" unicode="&#xe44;" horiz-adv-x="631" 
d="M409 975v-684q167 0 167 -176q-25 -117 -159 -117q-169 0 -169 182v796q2 54 41 146q40 93 40 138q0 26 -15 35q-12 4 -17 4q-24 0 -78 -88q-73 -121 -107 -121q-35 0 -76 102q-28 69 -45.5 93t-58.5 24l33 174q52 0 75.5 -22.5t52.5 -106.5q23 -66 38 -68q21 0 61 59
q81 118 146 118q137 0 137 -155q0 -46 -21 -119q-45 -152 -45 -214zM424 78q66 0 66 68q0 65 -66 65t-66 -65q0 -68 66 -68z" />
    <glyph glyph-name="uni0E45" unicode="&#xe45;" horiz-adv-x="746" 
d="M17 619q0 45 81.5 125t225.5 80q317 0 317 -259v-831h-162v831q0 158 -159 158q-108 0 -148.5 -59t-40.5 -86z" />
    <glyph glyph-name="uni0E46" unicode="&#xe46;" horiz-adv-x="1170" 
d="M529 594q0 6 41 6q53 0 82.5 -34t29.5 -78q0 -47 -30 -86t-86 -39q-93 0 -141 63t-48 152q0 214 197 246l118 -74l127 74q76 0 148 -48.5t72 -177.5v-545q0 -211 -87.5 -295t-162.5 -84l-103 113q39 0 115 43t76 172v592q0 95 -64 121l-121 -78l-114 72q-51 0 -51 -108z
M561 537q-51 0 -51 -51q0 -52 51 -52q52 0 52 52q0 51 -52 51z" />
    <glyph glyph-name="uni0E47" unicode="&#xe47;" horiz-adv-x="0" 
d="M-359 1135q5 17 25 54q26 32 88 32q58 0 85.5 -28.5t29.5 -117.5q-22 -120 -116 -120q-50 0 -149 79q-47 37 -59 37q-47 0 -47 -118q-219 3 -219 233q0 133 50 181t118 49q86 0 254 -5q68 0 92.5 17.5t34.5 101.5h137q0 -195 -150 -223q-128 0 -219 7l-90 7
q-102 -6 -102 -133q0 -22 14.5 -51t30.5 -29q0 74 63 90q66 0 129 -63zM-248 1157q-57 0 -57 -59q0 -66 59 -66q51 0 51 60q0 65 -53 65z" />
    <glyph glyph-name="uni0E48" unicode="&#xe48;" horiz-adv-x="0" 
d="M-279 1333h162v-353h-162v353z" />
    <glyph glyph-name="uni0E49" unicode="&#xe49;" horiz-adv-x="0" 
d="M-399 1145q-70 0 -105.5 44t-35.5 99q0 40 17 73t51 55t82 22q171 0 171 -166q0 -113 -67 -170q256 39 391 298v-224q-177 -187 -546 -187q-38 0 -75 5q92 45 117 151zM-389 1359q-65 0 -65 -66q0 -68 67 -68q64 0 64 65q0 69 -66 69z" />
    <glyph glyph-name="uni0E4A" unicode="&#xe4a;" horiz-adv-x="0" 
d="M-554 1164q24 10 50 10q50 0 77.5 -35t27.5 -76q0 -49 -33 -80.5t-82 -31.5q-151 0 -151 192q0 85 40 152t123 67q79 0 113 -57q47 57 129 57q135 0 135 -139q0 -89 -28 -141q140 73 140 268l130 -64q-35 -164 -165 -245.5t-290 -81.5q103 43 103 200q0 97 -68 97
q-37 0 -90 -41q-59 45 -98 45q-70 0 -70 -56q0 -28 7 -40zM-516 1116q-53 0 -53 -53q0 -55 53 -55t53 55q0 53 -53 53z" />
    <glyph glyph-name="uni0E4B" unicode="&#xe4b;" horiz-adv-x="0" 
d="M-119 1452v-174h193v-136h-193v-173h-161v173h-193v136h193v174h161z" />
    <glyph glyph-name="uni0E4C" unicode="&#xe4c;" horiz-adv-x="0" 
d="M-271 1196q148 0 148 -137q0 -129 -143 -129q-70 0 -113 46.5t-43 121.5q0 158 208 212q85 23 118.5 51.5t33.5 101.5h132q0 -200 -250 -222q-91 -9 -91 -45zM-258 1131q-68 0 -68 -68q0 -67 68 -67q67 0 67 67q0 68 -67 68z" />
    <glyph glyph-name="uni0E4D" unicode="&#xe4d;" horiz-adv-x="0" 
d="M-273 958q-76 0 -124 48.5t-48 124.5q0 51 22 89.5t60.5 60.5t89.5 22q52 0 90.5 -22t60 -60t21.5 -90q0 -76 -48 -124.5t-124 -48.5zM-273 1209q-80 0 -80 -80t80 -80t80 80t-80 80z" />
    <glyph glyph-name="uni0E4E" unicode="&#xe4e;" horiz-adv-x="0" 
d="M-98 1024q-58 -47 -166 -47q-141 0 -141 103q0 60 53.5 103.5t146.5 43.5q-94 9 -94 86q30 111 221 111q61 0 99 -17l-52 -39q-16 8 -53 11q-37 0 -74.5 -21t-37.5 -55q0 -64 98 -64l-23 -47q-88 0 -129 -32.5t-41 -69.5q0 -58 68 -58q51 0 79 29z" />
    <glyph glyph-name="uni0E4F" unicode="&#xe4f;" horiz-adv-x="1045" 
d="M533 0q-193 0 -300.5 119t-107.5 291q0 184 114 296.5t294 112.5q200 0 304.5 -123.5t104.5 -285.5q0 -207 -127 -308.5t-282 -101.5zM533 764q-167 0 -260 -102.5t-93 -251.5q0 -159 99 -256.5t254 -97.5q174 0 264 106t90 248q0 160 -99.5 257t-254.5 97zM533 175
q-90 0 -162 58.5t-72 176.5q0 117 72 175t162 58q109 0 171 -66t62 -167q0 -104 -65 -169.5t-168 -65.5z" />
    <glyph glyph-name="uni0E50" unicode="&#xe50;" horiz-adv-x="922" 
d="M467 592q149 0 257.5 -71.5t108.5 -229.5q0 -147 -100.5 -225.5t-259.5 -78.5q-175 0 -273.5 79.5t-98.5 224.5q0 143 98 222t268 79zM256 289q0 -92 57 -144.5t150 -52.5q215 0 215 197q0 196 -211 196t-211 -196z" />
    <glyph glyph-name="uni0E51" unicode="&#xe51;" horiz-adv-x="955" 
d="M437 107q-95 14 -95 110q0 58 38 87.5t85 29.5q125 0 125 -160q0 -61 -65 -119.5t-167 -58.5q-119 0 -185.5 79.5t-66.5 199.5q0 154 102.5 231.5t268.5 77.5q168 0 270.5 -77t102.5 -234q0 -109 -53.5 -207.5t-142.5 -141.5l-88 68q129 65 129 276q0 222 -218 222
q-107 0 -166 -65.5t-59 -152.5q0 -75 34.5 -131.5t94.5 -56.5q24 0 56 23zM467 269q-53 0 -53 -54q0 -55 53 -55t53 55q0 54 -53 54z" />
    <glyph glyph-name="uni0E52" unicode="&#xe52;" horiz-adv-x="1030" 
d="M525 369q15 8 38 8q101 0 101 -100q0 -109 -113 -109q-68 0 -107.5 62.5t-39.5 145.5q0 206 157 206q69 0 93 -53q0 18 44.5 35.5t82.5 17.5q58 0 100 -43.5t42 -124.5v-215q0 -199 -171 -199h-377q-103 0 -150 60t-47 141v354q0 168 -163 168l88 119q110 -4 173.5 -84
t63.5 -201v-319q0 -73 16 -102t68 -29h228q110 0 110 96v205q0 78 -35 78q-47 0 -47 -58h-57q0 56 -53 56q-37 0 -45 -52v-63zM563 320q-45 0 -45 -47t45 -47q48 0 48 47t-48 47z" />
    <glyph glyph-name="uni0E53" unicode="&#xe53;" horiz-adv-x="998" 
d="M296 226q113 0 113 -113q0 -117 -118 -117q-161 0 -161 280q0 142 58.5 225t165.5 83q112 0 165 -115q58 115 170 115q95 0 151 -79.5t56 -225.5q0 -154 -31 -241l-14 -38h-160q43 82 43 269q0 194 -81 194q-66 0 -66 -110v-353h-137v353q0 42 -22 77t-56 35
q-81 0 -81 -156q0 -35 5 -85v2zM288 166q-55 0 -55 -55t55 -55t55 55t-55 55z" />
    <glyph glyph-name="uni0E54" unicode="&#xe54;" horiz-adv-x="979" 
d="M642 144l117 -27q40 -9 65 -34l9 -9l-62 -82q-40 35 -124 35q-43 0 -141 -18q-85 -17 -136 -17q-132 0 -199 77.5t-67 196.5q0 320 317 320q35 0 105 -7q71 -7 106 -7q100 0 143.5 50.5t53.5 196.5l127 -69q0 -281 -275 -281q-32 0 -96 5t-96 5q-230 0 -230 -205
q0 -82 38 -134t104 -52q32 0 65 11q55 18 86 18q-49 0 -96 60t-47 107q0 128 121 128q112 0 112 -113q0 -82 -63 -98q22 -48 63 -57zM530 346q-49 0 -49 -49t49 -49t49 49t-49 49z" />
    <glyph glyph-name="uni0E55" unicode="&#xe55;" horiz-adv-x="1022" 
d="M546 119q-43 0 -89.5 55.5t-46.5 109.5q0 128 121 128q113 0 113 -113q0 -82 -64 -98q22 -48 82 -61l99 -21q44 -9 68 -33l7 -10l-64 -82q-58 33 -120 33q-43 0 -148 -21q-95 -19 -137 -19q-104 0 -183 70t-79 207q0 322 330 322q-47 31 -47 96q0 146 162 146
q153 0 153 -140q0 -37 -16 -57q112 0 148 53.5t36 143.5l131 -66q0 -80 -70.5 -159t-216.5 -79q-24 0 -102 13q-19 -43 -127 -46t-165.5 -55t-57.5 -156q0 -192 141 -192q29 0 63 11q62 20 79 20zM545 752q-67 0 -67 -68q0 -67 67 -67q68 0 68 67q0 68 -68 68zM531 348
q-49 0 -49 -49t49 -49t49 49t-49 49z" />
    <glyph glyph-name="uni0E56" unicode="&#xe56;" horiz-adv-x="996" 
d="M303 404h-80q-6 176 -78 267t-126 95l131 88q70 -33 121 -134t51 -191q71 61 229 61q344 0 344 -299q0 -126 -83.5 -210.5t-268.5 -84.5q-137 0 -216 58.5t-79 130.5q0 151 139 151q121 0 121 -131q0 -72 -53 -96q0 -21 101 -21q184 0 184 203q0 209 -221 209
q-141 0 -216 -96zM381 271q-55 0 -55 -56q0 -55 55 -55t55 55q0 56 -55 56z" />
    <glyph glyph-name="uni0E57" unicode="&#xe57;" horiz-adv-x="1149" 
d="M310.5 227.5q23.5 4.5 34.5 4.5q116 0 116 -115q0 -107 -105 -121q-122 0 -184 91.5t-62 215.5q0 118 55.5 198.5t156.5 80.5q118 0 150 -94q27 96 130 96q209 0 209 -258q0 -139 -55 -186q148 24 158 390q4 173 23.5 226.5t75.5 108.5l123 -78q-63 -27 -71 -142
q-14 -244 -37 -343.5t-120.5 -202.5t-332.5 -103q19 0 59 121.5t40 200.5q0 170 -83 170q-35 0 -58.5 -39t-23.5 -78h-73q0 48 -26.5 82.5t-66.5 34.5q-89 0 -89 -172q0 -20 17 -108q16 15 39.5 19.5zM341 168q-50 0 -50 -53t50 -53q54 0 54 53t-54 53z" />
    <glyph glyph-name="uni0E58" unicode="&#xe58;" horiz-adv-x="1010" 
d="M733 121q-39 0 -74.5 37.5t-35.5 78.5q0 47 33.5 89.5t91.5 42.5q56 0 99.5 -37t43.5 -113q0 -91 -61.5 -157t-149.5 -66q-79 0 -168 71q-58 46 -90 46q-39 -6 -38 -113q0 -6 -52 -6q-93 0 -160 75t-67 206q0 307 307 307q29 0 88 -4t88 -4q135 0 190.5 65.5t55.5 220.5
l135 -90q-27 -297 -311 -297q-32 0 -96 5q-63 6 -95 6q-201 0 -201 -213q0 -127 50 -146q0 119 88 119q50 0 140 -77q94 -81 136 -81q11 0 32 12.5t21 22.5zM752 301q-57 0 -57 -57t57 -57t57 57t-57 57z" />
    <glyph glyph-name="uni0E59" unicode="&#xe59;" horiz-adv-x="1077" 
d="M389 99q-53 35 -53 135q16 92 113 92q112 0 112 -133q0 -197 -196 -197q-114 0 -186 83t-72 220q0 131 79.5 210t204.5 79q194 0 246 -147q0 143 86 143q25 0 74 -18q50 -17 70 -17q61 0 61 172q0 36 -10 145l139 -57q0 -192 -32.5 -279t-127.5 -87q-21 0 -63 14t-60 14
q-53 0 -53 -94q0 -84 57.5 -176t102.5 -102l-78 -103q-91 33 -160 217q-66 178 -122.5 230t-126.5 52q-65 0 -101.5 -54t-36.5 -138q0 -112 32 -163.5t73 -51.5q8 0 19 6zM447 265q-49 0 -49 -58q0 -57 49 -57t49 57q0 58 -49 58z" />
    <glyph glyph-name="uni0E5A" unicode="&#xe5a;" horiz-adv-x="1094" 
d="M430 -8l-71 115q157 0 155 108v324q0 -23 -66 -54.5t-145 -31.5q-105 0 -178 49t-84 137q0 182 155 182q50 0 91 -29.5t41 -88.5q0 -117 -127 -117q29 -33 88 -33q98 0 164.5 76t66.5 190q90 0 123 -33.5t33 -123.5v-414q0 -130 -52 -193t-194 -63zM203 762
q-55 0 -55 -55t55 -55t55 55t-55 55zM869 798q84 1 109.5 -3.5t35.5 -20.5t10 -133v-413q0 -132 -51.5 -194.5t-194.5 -62.5l-71 115q101 0 131.5 34.5t30.5 121.5v276v280z" />
    <glyph glyph-name="uni0E5B" unicode="&#xe5b;" horiz-adv-x="1671" 
d="M615 684l-6 -90q-24 0 -56 23q-68 49 -155 49q-130 0 -187 -97.5t-57 -205.5q0 -109 60 -190t190 -81q91 0 151 49t129 195q37 78 41 78q3 0 55 -76q53 -76 68 -76q14 0 62 80q23 39 59 74q23 0 77 -112q22 -46 27 -48q11 18 62.5 87t62.5 69q23 0 78.5 -99.5
t100.5 -99.5q28 0 82 43t73 162h74q-21 -164 -89 -221t-126 -57q-99 0 -195 163q-89 -131 -121 -141q-30 0 -81 89l-31 54q-102 -139 -121 -139q-34 13 -94 117q-7 0 -37 -60q-59 -116 -126.5 -165.5t-175.5 -49.5q-126 0 -235.5 87t-109.5 280q0 187 107 282t227 95
q105 0 217 -68z" />
    <glyph glyph-name="uni200B" unicode="&#x200b;" horiz-adv-x="0" 
 />
    <glyph glyph-name="endash" unicode="&#x2013;" 
d="M0 278v137h744v-137h-744z" />
    <glyph glyph-name="emdash" unicode="&#x2014;" horiz-adv-x="1337" 
d="M0 278v137h1337v-137h-1337z" />
    <glyph glyph-name="quoteleft" unicode="&#x2018;" horiz-adv-x="371" 
d="M283 569h-184v131q0 213 163 266l36 -76q-102 -33 -104 -137h89v-184z" />
    <glyph glyph-name="quoteright" unicode="&#x2019;" horiz-adv-x="371" 
d="M89 957h184v-131q0 -210 -163 -265l-36 75q102 34 104 138h-89v183z" />
    <glyph glyph-name="quotesinglbase" unicode="&#x201a;" horiz-adv-x="372" 
d="M91 183h184v-131q0 -109 -33.5 -169t-129.5 -97l-36 76q104 32 104 138h-89v183z" />
    <glyph glyph-name="quotedblleft" unicode="&#x201c;" horiz-adv-x="668" 
d="M270 569h-184v131q0 213 163 266l36 -76q-102 -33 -104 -137h89v-184zM576 569h-184v131q0 211 163 266l36 -76q-102 -33 -104 -137h89v-184z" />
    <glyph glyph-name="quotedblright" unicode="&#x201d;" horiz-adv-x="668" 
d="M392 957h183v-132q0 -211 -162 -266l-36 77q102 34 103 138h-88v183zM84 957h183v-132q0 -212 -163 -266l-35 77q101 33 103 138h-88v183z" />
    <glyph glyph-name="quotedblbase" unicode="&#x201e;" horiz-adv-x="669" 
d="M414 183h183v-132q0 -106 -33.5 -168.5t-128.5 -96.5l-36 76q103 33 103 138h-88v183zM106 183h183v-132q0 -107 -34 -169t-129 -96l-35 76q103 34 103 138h-88v183z" />
    <glyph glyph-name="dagger" unicode="&#x2020;" 
d="M283 -229v771h-239v151h239v253h171v-253h238v-151h-238v-771h-171z" />
    <glyph glyph-name="daggerdbl" unicode="&#x2021;" 
d="M285 -229v218h-241v152h241v428h-241v153h241v224h171v-224h236v-153h-236v-428h236v-152h-236v-218h-171z" />
    <glyph glyph-name="bullet" unicode="&#x2022;" horiz-adv-x="468" 
d="M429 473q0 -71 -50.5 -132.5t-142.5 -61.5t-142.5 61.5t-50.5 132.5q0 80 56.5 136t136.5 56q71 0 132 -50t61 -142z" />
    <glyph glyph-name="ellipsis" unicode="&#x2026;" horiz-adv-x="1337" 
d="M1022 0v183h184v-183h-184zM577 0v183h184v-183h-184zM131 0v183h184v-183h-184z" />
    <glyph glyph-name="perthousand" unicode="&#x2030;" horiz-adv-x="1337" 
d="M1 731q0 243 189 243q188 0 188 -245q0 -257 -189 -257q-188 0 -188 259zM158 584q16 -10 30 -10q61 0 61 149t-61 149q-60 0 -60 -149q0 -116 30 -139zM183 -34l400 1008h128l-400 -1008h-128zM522 221q0 243 189 243q188 0 188 -244q0 -259 -189 -259q-188 0 -188 260z
M679 74q16 -10 30 -10q61 0 61 149t-61 149t-61 -149q0 -112 31 -139zM959 221q0 243 190 243q188 0 188 -244q0 -259 -190 -259q-188 0 -188 260zM1198 316q-18 46 -51 46q-60 0 -60 -149q0 -150 59 -150q61 0 61 150q0 67 -9 103z" />
    <glyph glyph-name="guilsinglleft" unicode="&#x2039;" horiz-adv-x="445" 
d="M400 642l-170 -295l170 -301h-145l-206 301l206 295h145z" />
    <glyph glyph-name="guilsinglright" unicode="&#x203a;" horiz-adv-x="445" 
d="M49 46l170 295l-170 301h144l207 -301l-207 -295h-144z" />
    <glyph glyph-name="Euro" unicode="&#x20ac;" 
d="M699 929l-39 -180q-55 56 -161 56t-171 -76q-37 -43 -53 -108h357l-20 -100h-350q-1 -15 -1 -39q0 -22 2 -47h330l-20 -101h-297q16 -69 50 -109q65 -77 169 -77q125 0 199 77v-199q-84 -42 -197 -42q-189 0 -312 130q-83 88 -110 220h-96l21 101h64q-1 15 -1 33
q0 30 1 53h-85l21 100h77q28 130 109 217q123 131 323 131q109 0 190 -40z" />
    <glyph glyph-name="trademark" unicode="&#x2122;" horiz-adv-x="1337" 
d="M306 422v443h-165v92h434v-92h-160v-443h-109zM640 422v535h169l97 -368l98 368h169v-535h-103v427l-115 -427h-98l-115 427v-427h-102z" />
    <glyph glyph-name="uni25CC" unicode="&#x25cc;" horiz-adv-x="1020" 
d="M838 756q0 -40 -41 -40q-45 0 -45 40q0 44 45 44q41 0 41 -44zM709 842q0 -42 -40 -42q-45 0 -45 42q0 45 45 45q40 0 40 -45zM925 628q0 -44 -45 -44q-42 0 -42 44q0 43 44 43q43 0 43 -43zM956 477q0 -43 -41 -43q-45 0 -45 43t45 43q41 0 41 -43zM558 875
q0 -46 -43 -46t-43 46q0 42 43 42t43 -42zM408 842q0 -42 -44 -42q-43 0 -43 42q0 45 43 45q44 0 44 -45zM925 326q0 -43 -45 -43q-42 0 -42 43q0 44 42 44q45 0 45 -44zM278 756q0 -40 -43 -40t-43 39q0 45 43 45t43 -44zM838 195q0 -43 -41 -43q-43 0 -43 43q0 45 43 45
q41 0 41 -45zM709 109q0 -40 -40 -40q-43 0 -43 40q0 45 43 45q40 0 40 -45zM192 628q0 -44 -41 -44q-44 0 -44 44q0 43 43 43q42 0 42 -43zM163 477q0 -43 -43 -43q-45 0 -45 43t45 43q43 0 43 -43zM558 81q0 -45 -43 -45t-43 45q0 43 43 43t43 -43zM192 326q0 -43 -42 -43
q-43 0 -43 43q0 44 43 44q42 0 42 -44zM408 113q0 -44 -44 -44q-43 0 -43 40q0 45 43 45q44 0 44 -41zM278 195q0 -43 -43 -43t-43 43q0 45 43 45t43 -45z" />
    <glyph glyph-name="glyph98" horiz-adv-x="0" 
d="M-615 1024h615v-1024h-615v1024z" />
    <glyph glyph-name="glyph99" horiz-adv-x="844" 
d="M764 824l47 -82q-54 -54 -139 -54q-48 0 -137 24q-103 28 -159 28q-92 0 -107 -58q92 0 238.5 -49.5t188.5 -104.5t42 -151l-13 -192q-13 -189 -227 -189q-196 0 -211 156l-8 82q-172 0 -172 134q0 146 172 146q137 0 147 -174l10 -182q4 -68 66 -68t66 64l14 231
q0 70 -45.5 116t-195 79t-251.5 33q0 88 89.5 152.5t197.5 64.5q59 0 153.5 -23.5t144.5 -23.5q71 0 89 41zM250 434q-63 0 -63 -63q0 -64 63 -64q64 0 64 64q0 63 -64 63z" />
    <glyph glyph-name="glyph100" horiz-adv-x="0" 
d="M-348 905q-135 111 -384 111q-226 0 -303 -49q11 143 103.5 231t234.5 88q144 0 246.5 -120.5t102.5 -260.5zM-881 1084q84 14 158 14q119 0 227 -41q-41 139 -206 139q-155 0 -179 -112z" />
    <glyph glyph-name="glyph101" horiz-adv-x="0" 
d="M-541 1239v105h158v-322q19 -35 22 -117q-149 111 -394 111q-181 0 -292 -49q4 137 98.5 228t231.5 91q96 0 176 -47zM-894 1084q81 14 166 14q109 0 219 -40q-41 138 -205 138q-152 0 -180 -112z" />
    <glyph glyph-name="glyph102" horiz-adv-x="0" 
d="M-623 1272q0 42 36.5 76.5t90.5 34.5q57 0 102.5 -34t45.5 -104q0 -99 -84 -139q58 -104 58 -148q0 -29 -6 -53q-130 111 -372 111q-124 0 -306 -49q0 153 107 236t228 83q57 0 100 -14zM-488 1311q-67 0 -67 -68q0 -69 69 -69q68 0 68 67q0 70 -70 70zM-904 1084
q84 14 158 14q120 0 228 -41q-45 139 -206 139q-152 0 -180 -112z" />
    <glyph glyph-name="glyph103" horiz-adv-x="0" 
d="M-725 1286v60h127v-84q36 -11 80 -49v133h137v-369l12 -72q-51 47 -166 79t-216 32q-74 0 -189 -17t-115 -32q0 152 104.5 235.5t225.5 83.5zM-902 1084q79 14 157 14q117 0 228 -40q-41 138 -205 138q-152 0 -180 -112z" />
    <glyph glyph-name="glyph105" horiz-adv-x="0" 
d="M-553 1333h162v-353h-162v353z" />
    <glyph glyph-name="glyph106" horiz-adv-x="0" 
d="M-670 1080q-119 0 -119 118q0 128 135 128q133 0 133 -107q0 -135 -55 -176q218 29 334 252v-191q-91 -91 -209 -122t-320 -31q81 40 101 129zM-660 1260q-58 0 -58 -56q0 -57 58 -57q53 0 53 56q0 57 -53 57z" />
    <glyph glyph-name="glyph107" horiz-adv-x="0" 
d="M-601 1287q64 46 109 46q117 0 117 -118q0 -75 -25 -121q49 10 84 86.5t35 142.5l111 -55q-32 -142 -148 -210.5t-240 -68.5q89 49 89 170q0 84 -58 84q-26 0 -77 -34q-54 36 -86 36q-58 0 -58 -83q27 8 51 8q86 0 86 -93q0 -94 -94 -94q-129 0 -129 164q0 73 36 128
t95 55q62 0 102 -43zM-709 1125q-47 0 -47 -45q0 -48 47 -48q45 0 45 48q0 45 -45 45z" />
    <glyph glyph-name="glyph108" horiz-adv-x="0" 
d="M-490 1420v-152h164v-115h-164v-149l-152 1l-1 148h-164v115h164v152h153z" />
    <glyph glyph-name="glyph109" horiz-adv-x="0" 
d="M-502 1198q135 0 135 -128q0 -51 -39.5 -82t-91.5 -31q-64 0 -100.5 43t-36.5 108q0 143 146 184l79 22q96 27 96 124h117q0 -182 -223 -199q-79 -6 -82 -41zM-489 1139q-60 0 -60 -59q0 -62 59 -62q60 0 60 62q0 59 -59 59z" />
    <glyph glyph-name="glyph115" horiz-adv-x="1207" 
d="M553 109h56v454q0 158 -166 158q-103 0 -162 -55q94 -49 143 -113q-26 0 -72.5 -49t-46.5 -123v-102q146 0 146 -128q0 -153 -146 -153q-161 0 -161 182v201q0 131 102 166q-63 71 -184 113q132 161 377 161q331 0 331 -255v-457h97q63 0 63 59v651h161v-616
q0 -116 -44.5 -159.5t-89.5 -43.5h-404v109zM320 201q-58 0 -58 -68q0 -67 58 -67q59 0 59 67q0 68 -59 68z" />
    <glyph glyph-name="glyph123" horiz-adv-x="0" 
d="M13 1280v-174q0 -7 -68 -49.5t-157 -67.5t-194 -25q-309 0 -309 187q0 73 47 110.5t106 37.5q146 0 146 -122q0 -81 -35 -112q303 0 464 215zM-563 1229q-74 0 -74 -72q0 -75 76 -75q71 0 71 73q0 74 -73 74z" />
    <glyph glyph-name="glyph124" horiz-adv-x="0" 
d="M-545 958q-86 0 -129 53.5t-43 119.5q0 80 46 126t126 46q75 0 124 -43.5t49 -128.5q0 -76 -49 -124.5t-124 -48.5zM-545 1209q-80 0 -80 -80t80 -80t80 80t-80 80z" />
    <glyph glyph-name="glyph125" horiz-adv-x="0" 
d="M-602 1141q16 78 100 78q100 0 100 -119t-102 -119q-52 0 -102 47q-61 58 -79 58q-44 0 -44 -107q-195 7 -195 207q0 205 215 205q74 -3 165 -4q59 0 79 14.5t29 91.5h122q0 -77 -28 -123.5t-84 -61.5q-32 -2 -220 -3l-75 2q-93 0 -93 -119q0 -49 42 -70q0 80 55 80
q62 0 115 -57zM-506 1159q-54 0 -54 -53q0 -59 58 -59q47 0 47 55q0 57 -51 57z" />
    <glyph glyph-name="glyph126" horiz-adv-x="0" 
d="M-545 1690h162v-279h-162v279z" />
    <glyph glyph-name="glyph127" horiz-adv-x="0" 
d="M-475 1538q-119 0 -119 119q0 55 38.5 92t94.5 37t95.5 -31t39.5 -84q0 -129 -55 -170q224 39 334 252v-190q-85 -88 -204 -121t-325 -33q88 56 101 129zM-466 1719q-56 0 -56 -57q0 -55 56 -55q54 0 54 53q0 59 -54 59z" />
    <glyph glyph-name="glyph128" horiz-adv-x="0" 
d="M-436 1702q49 49 110 49q117 0 117 -118q0 -75 -25 -121q51 18 85 89t34 140l111 -55q-31 -142 -145 -210.5t-243 -68.5q36 12 62.5 66.5t26.5 103.5q0 84 -58 84q-31 0 -78 -35q-48 37 -86 37q-54 0 -54 -84q19 8 48 8q86 0 86 -92q0 -94 -94 -94q-129 0 -129 164
q0 66 32 124t94 58q65 0 106 -45zM-543 1542q-48 0 -48 -45q0 -47 48 -47q45 0 45 47q0 45 -45 45z" />
    <glyph glyph-name="glyph129" horiz-adv-x="0" 
d="M-385 1766v-140h139v-96h-139v-127h-155v127h-140v96h140v140h155z" />
    <glyph glyph-name="glyph130" horiz-adv-x="0" 
d="M-400 1444q125 0 125 -119q0 -108 -121 -108q-59 0 -95 40t-36 103q0 132 138 174l73 21q93 27 93 116h112q0 -171 -213 -188q-72 -6 -76 -39zM-389 1389q-58 0 -58 -58q0 -57 58 -57q56 0 56 57q0 58 -56 58z" />
    <glyph glyph-name="glyph131" horiz-adv-x="209" 
 />
    <glyph glyph-name="glyph190" horiz-adv-x="453" 
d="M0 0v3l3 -3h-3z" />
    <glyph glyph-name="glyph191" horiz-adv-x="453" 
d="M338 -217v59h-215v-59h-84v213h379v-213h-80z" />
    <glyph glyph-name="glyph201" horiz-adv-x="0" 
d="M-277 1690h162v-279h-162v279z" />
    <glyph glyph-name="glyph202" horiz-adv-x="0" 
d="M-260 1538q-119 0 -119 119q0 53 34 91t90 38q129 0 144 -108q0 -136 -55 -177q224 38 334 252v-190q-85 -88 -204 -121t-325 -33q79 47 101 129zM-254 1719q-53 0 -53 -54q0 -59 57 -59q53 0 53 53q0 60 -57 60z" />
    <glyph glyph-name="glyph203" horiz-adv-x="0" 
d="M-471 1579q-1 8 47 8q86 0 86 -92q0 -94 -94 -94q-129 0 -129 164q0 158 106 182q106 0 127 -45q0 11 39 30t70 19q62 0 89.5 -39.5t27.5 -78.5q0 -75 -25 -121q51 18 85 89t34 140l111 -55q-26 -138 -142 -208.5t-246 -70.5q89 42 89 170q0 84 -58 84q-31 0 -78 -35
q0 7 -30.5 22t-55.5 15q-31 0 -47 -35q-6 -22 -6 -49zM-436 1542q-48 0 -48 -45q0 -47 48 -47q45 0 45 47q0 45 -45 45z" />
    <glyph glyph-name="glyph204" horiz-adv-x="0" 
d="M-123 1766v-140h140v-96h-140v-127h-155v127h-140v96h140v140h155z" />
    <glyph glyph-name="glyph205" horiz-adv-x="0" 
d="M-174 1444q125 0 125 -125q0 -45 -35 -73.5t-86 -28.5q-131 0 -131 143q0 134 137 174l74 21q92 26 92 116h113q0 -171 -214 -188q-71 -6 -75 -39zM-164 1389q-57 0 -57 -58q0 -57 57 -57t57 57q0 58 -57 58z" />
    <glyph glyph-name="glyph221" horiz-adv-x="0" 
d="M-250 -748q-174 0 -174 135q0 142 158 142q164 0 164 -191v-147h-148v61zM-281 -545q-67 0 -67 -68q0 -67 67 -67q68 0 68 67q0 68 -68 68z" />
    <glyph glyph-name="glyph222" horiz-adv-x="0" 
d="M-530 -768q-161 0 -161 147q0 65 44.5 106.5t107.5 41.5q153 0 153 -186v-119h115v299h147v-406h-406v117zM-618 -622q0 -70 60 -70q61 0 61 70q0 73 -59 73q-62 0 -62 -73z" />
    <glyph glyph-name="glyph223" horiz-adv-x="0" 
d="M-217 -684q-50 0 -82.5 32t-32.5 82q0 34 15 59.5t40.5 40.5t59.5 15q113 0 113 -115q0 -114 -113 -114z" />
    <glyph glyph-name="zero.ccmp" 
d="M372 822q266 0 266 -418t-266 -418t-266 419q0 417 266 417zM372 692q-26 0 -45 -11.5t-31.5 -43t-19 -87.5t-6.5 -146q0 -91 7 -147.5t20 -87.5t32 -42t43 -11q27 0 46.5 14.5t32 48t18 88.5t5.5 137q0 84 -6.5 139.5t-19 88.5t-32 46.5t-44.5 13.5z" />
    <glyph glyph-name="one.ccmp" 
d="M551 0h-157v591q-86 -81 -202 -119v143q175 61 231 207h128v-822z" />
    <glyph glyph-name="two.ccmp" 
d="M647 145v-145h-550q4 34 14.5 68.5t29.5 71.5q38 75 182 205q167 153 167 238q0 109 -106 109q-105 0 -112 -129l-156 17q26 242 272 242q57 0 104.5 -16t82 -46t53.5 -72t19 -94q0 -147 -179 -308q-111 -101 -132 -141h311z" />
    <glyph glyph-name="three.ccmp" 
d="M100 217l152 18q14 -119 116 -119q29 0 50.5 12t36 31t21.5 43.5t7 49.5q0 24 -6.5 47t-20 41t-34.5 29t-49 11q-29 0 -71 -11l17 128q130 0 130 105q0 91 -89 91q-90 0 -104 -110l-144 25q42 214 252 214q54 0 98.5 -18t76.5 -47t50 -67.5t18 -78.5q0 -108 -118 -172
q155 -36 155 -194q0 -56 -21.5 -103.5t-59 -82t-87.5 -54t-107 -19.5q-56 0 -102.5 16.5t-81.5 46.5t-57 72.5t-28 95.5z" />
    <glyph glyph-name="four.ccmp" 
d="M412 0v165h-335v137l355 520h132v-519h102v-138h-102v-165h-152zM412 303v279l-188 -279h188z" />
    <glyph glyph-name="five.ccmp" 
d="M96 210l157 17q18 -115 115 -115q117 0 117 160q0 150 -121 150q-67 0 -121 -59l-127 18l80 426h415v-147h-296l-24 -138q51 25 106 25t101 -20.5t79 -57.5t51.5 -87t18.5 -108q0 -100 -69 -194q-67 -94 -211 -94q-236 0 -271 224z" />
    <glyph glyph-name="six.ccmp" 
d="M630 618l-152 -17q-11 92 -89 92q-113 0 -128 -230q59 68 146 68q53 0 96.5 -21t75 -57t49 -85t17.5 -105q0 -52 -15.5 -101.5t-48 -88.5t-82 -63t-117.5 -24q-283 0 -283 412q0 424 299 424q197 0 232 -204zM274 275q0 -32 8 -61t23 -50.5t36.5 -34.5t48.5 -13
q101 0 101 146q0 154 -109 154q-108 0 -108 -141z" />
    <glyph glyph-name="seven.ccmp" 
d="M104 662v145h536v-114q-128 -125 -202 -325q-73 -198 -73 -368h-152q14 361 247 662h-356z" />
    <glyph glyph-name="eight.ccmp" 
d="M240 441q-116 50 -116 169q0 50 17.5 89.5t50 66.5t77.5 41.5t101 14.5q47 0 91 -12.5t78.5 -38t55 -66t20.5 -95.5q0 -119 -113 -169q139 -55 139 -201q0 -59 -19.5 -106t-54.5 -80t-83.5 -51t-106.5 -18q-53 0 -102 14.5t-87.5 45.5t-61.5 77.5t-23 111.5
q0 148 137 207zM272 599q0 -99 98 -99q97 0 97 100q0 97 -95 97q-100 0 -100 -98zM258 249q0 -137 116 -137q112 0 112 135q0 127 -114 127q-54 0 -84 -35.5t-30 -89.5z" />
    <glyph glyph-name="nine.ccmp" 
d="M114 189l151 17q12 -91 92 -91q109 0 126 230q-59 -69 -148 -69q-56 0 -99.5 23t-74.5 60.5t-47 86t-16 99.5t16 101t48 89t81.5 63t116.5 24q285 0 285 -413q0 -424 -300 -424q-198 0 -231 204zM469 532q0 29 -7 58t-21.5 51.5t-36 36.5t-50.5 14q-101 0 -101 -147
q0 -153 109 -153q107 0 107 140z" />
    <glyph glyph-name="glyph354" horiz-adv-x="0" 
d="M-90 1783q-10 -100 -90 -121q-25 -1 -208 -3l-61 2q-4 1 -7 1h-7q-62 0 -62 -87q0 -40 35 -57q0 65 45 65q49 0 122 -46q13 63 81 63q81 0 81 -96q0 -97 -82 -97q-41 0 -82 38q-80 47 -95 47q-35 0 -35 -87q-159 6 -159 168q0 156 155 156q8 0 35 -0.5t57.5 -1t57 -1
t33.5 -0.5q22 0 36.5 1t23.5 6.5t14.5 17t9.5 32.5h102zM-244 1551q-44 0 -44 -43q0 -48 46 -48q38 0 38 45q0 46 -40 46z" />
    <glyph glyph-name="glyph355" horiz-adv-x="0" 
d="M-125 1668v-279h-162v279h162z" />
    <glyph glyph-name="glyph356" horiz-adv-x="0" 
d="M37 1753v-171q-75 -78 -184 -109q-54 -15 -126.5 -22t-166.5 -7q71 42 91 116q-107 0 -107 107q0 48 30.5 82t81.5 34q116 0 129 -97q-4 -99 -49 -159q202 34 301 226zM-292 1669q0 54 -51 54q-48 0 -48 -49q0 -53 51 -53q48 0 48 48z" />
    <glyph glyph-name="glyph357" horiz-adv-x="0" 
d="M-471 1579q0 8 47 8q86 0 86 -92q0 -94 -94 -94q-129 0 -129 164q0 158 106 182q106 0 127 -45q0 5 11.5 13.5t28.5 16.5t35.5 13.5t33.5 5.5q31 0 53 -11.5t36 -28.5t21 -38t7 -40q0 -75 -25 -121q25 9 47 33.5t38 56.5t25 69t9 70l111 -55q-13 -70 -51 -122t-92 -87
t-117.5 -52.5t-127.5 -17.5q89 42 89 170q0 84 -58 84q-31 0 -78 -35q0 4 -9 10t-22.5 12t-28.5 10.5t-26 4.5q-26 0 -39.5 -22t-13.5 -62zM-436 1542q-48 0 -48 -45q0 -47 48 -47q45 0 45 47q0 45 -45 45z" />
    <glyph glyph-name="glyph358" horiz-adv-x="0" 
d="M15 1626v-96h-140v-127h-153v127h-142v96h142v140h153v-140h140z" />
    <glyph glyph-name="glyph359" horiz-adv-x="0" 
d="M49 1781q0 -172 -214 -188q-71 -6 -75 -39q125 0 125 -125q0 -45 -35 -73.5t-86 -28.5q-131 0 -131 143q0 66 34 110t103 64l74 21q92 26 92 116h113zM-173 1441q0 58 -57 58t-57 -58q0 -57 57 -57t57 57z" />
    <glyph glyph-name="glyph360" horiz-adv-x="0" 
d="M-46 1576q0 -38 -12.5 -69.5t-35 -54.5t-54.5 -36t-70 -13t-70 13t-54.5 36t-35 54.5t-12.5 69.5t12.5 69.5t35.5 54.5t54.5 35.5t69.5 12.5q39 0 70.5 -12.5t54 -35t35 -54.5t12.5 -70zM-138 1574q0 80 -80 80t-80 -80t80 -80t80 80z" />
    <glyph glyph-name="glyph361" horiz-adv-x="0" 
d="M-67 1454q-47 -39 -135 -39q-114 0 -114 84q0 24 11 45.5t32 38t51 26t68 9.5q-75 7 -75 70q24 90 179 90q48 0 80 -15l-43 -31q-14 6 -43 9q-13 0 -29 -4.5t-29.5 -12.5t-23 -19t-9.5 -25q0 -53 80 -53l-18 -37q-36 0 -62 -7.5t-43 -19t-25 -26.5t-8 -30q0 -47 55 -47
q41 0 64 23z" />
  </font>
</defs>
</svg>
