<?xml version="1.0" standalone="no"?>
<!DOCTYPE svg PUBLIC "-//W3C//DTD SVG 1.1//EN" "http://www.w3.org/Graphics/SVG/1.1/DTD/svg11.dtd" >
<svg xmlns="http://www.w3.org/2000/svg" xmlns:xlink="http://www.w3.org/1999/xlink" version="1.1">
<metadata>
Created by FontForge 20170731 at Mon May 13 19:57:33 2013
 By Aleksey,,,
(c) 1992 Unity Progress. Portions (c) 2004 The Monotype Corporation. Portions (c) 2004 Microsoft Corporation. All Rights Reserved.
</metadata>
<defs>
<font id="BrowalliaNew-Italic" horiz-adv-x="744" >
  <font-face 
    font-family="Browallia New"
    font-weight="400"
    font-style="italic"
    font-stretch="normal"
    units-per-em="2048"
    panose-1="2 11 3 4 2 2 2 9 2 4"
    ascent="1638"
    descent="-410"
    x-height="693"
    cap-height="957"
    bbox="-834 -778 1633 1770"
    underline-thickness="102"
    underline-position="-358"
    slope="-10"
    unicode-range="U+0020-25CC"
  />
<missing-glyph horiz-adv-x="1536" 
d="M256 0v1280h1024v-1280h-1024zM288 32h960v1216h-960v-1216z" />
    <glyph glyph-name=".notdef" horiz-adv-x="1536" 
d="M256 0v1280h1024v-1280h-1024zM288 32h960v1216h-960v-1216z" />
    <glyph glyph-name="glyph1" horiz-adv-x="0" 
 />
    <glyph glyph-name="glyph2" horiz-adv-x="371" 
 />
    <glyph glyph-name="space" unicode=" " horiz-adv-x="371" 
 />
    <glyph glyph-name="space" unicode="&#xa0;" horiz-adv-x="371" 
 />
    <glyph glyph-name="exclam" unicode="!" horiz-adv-x="371" 
d="M406 957l-44 -212l-139 -503h-74l73 519l41 196h143zM236 134l-28 -134h-133l28 134h133z" />
    <glyph glyph-name="quotedbl" unicode="&#x22;" horiz-adv-x="475" 
d="M351 957l-35 -160l-68 -179h-73l8 179l34 160h134zM567 957l-35 -160l-68 -179h-73l8 179l34 160h134z" />
    <glyph glyph-name="numbersign" unicode="#" 
d="M775 262h-201l-57 -278h-98l56 278h-205l-57 -278h-97l56 278h-110v97h130l48 237h-178v97h198l57 280h98l-57 -280h205l57 280h99l-57 -280h113v-97h-133l-49 -237h182v-97zM544 596h-206l-48 -237h205z" />
    <glyph glyph-name="dollar" unicode="$" 
d="M766 726l-113 -6q-18 113 -109 144l-69 -328q231 -95 231 -261q0 -35 -9 -69t-27.5 -67.5t-43 -60t-51 -44t-54 -27.5t-55 -15.5t-57.5 -7.5h-49l-24 -112h-64l24 120q-98 19 -160 97.5t-67 187.5l118 7q12 -154 130 -195l75 361q-211 85 -211 259q0 33 8 62.5t23.5 56
t38.5 50.5q21 22 44.5 38.5t48 27.5t51 17.5t54.5 8.5h52l10 51h65l-12 -59q180 -45 202 -236zM481 875q-57 0 -92.5 -15t-63 -53t-27.5 -90q0 -98 117 -155zM452 424l-73 -346q95 0 152 54t57 131q0 101 -136 161z" />
    <glyph glyph-name="percent" unicode="%" horiz-adv-x="1189" 
d="M1084 973l-787 -1008h-110l790 1008h107zM556 781q0 -82 -33.5 -164t-88 -118.5t-128.5 -36.5q-176 0 -176 201q0 107 62.5 204.5t176.5 97.5q187 0 187 -184zM453 795q0 91 -80 91q-70 0 -106.5 -86.5t-36.5 -158.5q0 -100 76 -100t111.5 86t35.5 168zM1140 285
q0 -85 -35 -168.5t-89 -117.5t-127 -34q-175 0 -175 201q0 110 62.5 206t176.5 96q187 0 187 -183zM1037 298q0 91 -81 91q-69 0 -105.5 -83.5t-36.5 -161.5q0 -101 76 -101t111.5 89.5t35.5 165.5z" />
    <glyph glyph-name="ampersand" unicode="&#x26;" horiz-adv-x="892" 
d="M871 356q-43 -90 -120 -177q43 -54 111 -131l-89 -71q-67 57 -110 116q-140 -114 -268 -114t-209 75t-81 195q0 73 29.5 133t80 99.5t141.5 81.5q-31 69 -40.5 98.5t-9.5 80.5q0 101 71.5 166t168.5 65q61 0 106.5 -24t72 -64.5t26.5 -94.5q0 -144 -239 -263
q86 -155 165 -254q48 58 91 136zM635 787q0 34 -23.5 63t-67.5 29q-52 0 -83.5 -40t-31.5 -85q0 -62 40 -139q166 85 166 172zM595 184q-122 160 -190 287q-106 -49 -143 -99t-37 -110q0 -74 50 -125t125 -51q98 0 195 98z" />
    <glyph glyph-name="quotesingle" unicode="'" horiz-adv-x="255" 
d="M346 957l-35 -160l-68 -179h-73l8 179l34 160h134z" />
    <glyph glyph-name="parenleft" unicode="(" horiz-adv-x="445" 
d="M552 973q-127 -138 -225.5 -357t-98.5 -451q0 -215 76 -446h-89q-102 224 -102 461q0 148 41 287t110.5 250.5t195.5 255.5h92z" />
    <glyph glyph-name="parenright" unicode=")" horiz-adv-x="445" 
d="M21 -281h-92q125 137 224 353.5t99 454.5q0 216 -75 446h88q103 -224 103 -461q0 -190 -71 -376.5t-276 -416.5z" />
    <glyph glyph-name="asterisk" unicode="*" horiz-adv-x="520" 
d="M586 781q-83 -27 -163 -36q40 -35 112 -124l-78 -55q-38 52 -89 140q-49 -92 -85 -140l-77 55q75 94 108 124q-84 16 -160 36l30 93q104 -36 151 -63q-13 118 -13 162h94q-1 -64 -15 -162q68 34 155 63z" />
    <glyph glyph-name="plus" unicode="+" horiz-adv-x="781" 
d="M752 417h-260v-262h-111v262h-261v110h261v260h111v-260h260v-110z" />
    <glyph glyph-name="comma" unicode="," horiz-adv-x="371" 
d="M235 134l-24 -117q-40 -195 -179 -210l11 51q78 22 103 142h-74l29 134h134z" />
    <glyph glyph-name="hyphen" unicode="-" horiz-adv-x="445" 
d="M447 405l-24 -118h-361l25 118h360z" />
    <glyph glyph-name="period" unicode="." horiz-adv-x="371" 
d="M239 134l-29 -134h-133l28 134h134z" />
    <glyph glyph-name="slash" unicode="/" horiz-adv-x="371" 
d="M549 973l-514 -989h-103l515 989h102z" />
    <glyph glyph-name="zero" unicode="0" 
d="M756 644q0 -237 -107 -448.5t-298 -211.5q-122 0 -189 91.5t-67 238.5q0 128 29.5 240.5t89.5 210.5t131.5 147t153.5 49q70 0 125 -31t93.5 -102.5t38.5 -183.5zM644 672q0 194 -144 194q-81 0 -142.5 -77t-105 -236.5t-43.5 -268.5q0 -206 147 -206q130 0 209 203.5
t79 390.5z" />
    <glyph glyph-name="one" unicode="1" 
d="M641 961l-200 -961h-119l151 723q-98 -77 -275 -124l22 107q118 47 214.5 117t138.5 138h68z" />
    <glyph glyph-name="two" unicode="2" 
d="M243 108h429l-23 -108h-571q17 77 53 143t98 123t192 161q80 64 120.5 102t66.5 86t26 93q0 67 -46.5 112.5t-114.5 45.5q-149 0 -190 -196l-115 17q16 126 97.5 200t205.5 74q99 0 162 -39t90.5 -100.5t27.5 -116.5q0 -51 -21.5 -104t-69.5 -105t-222 -190
q-151 -120 -195 -198z" />
    <glyph glyph-name="three" unicode="3" 
d="M587 489q111 -66 111 -188q0 -131 -96 -224t-230 -93q-128 0 -208.5 71t-90.5 196l115 14q24 -187 175 -187q59 0 107.5 29t78 74.5t29.5 102.5q0 74 -49.5 118.5t-126.5 44.5q-9 0 -38 -3l21 98q16 -2 32 -2q64 0 111 21.5t73 59t26 89.5q0 45 -20.5 80t-54.5 55.5
t-79 20.5q-74 0 -120 -52.5t-59 -123.5l-116 24q28 115 108.5 181t195.5 66q78 0 137.5 -32.5t92.5 -86.5t33 -127q0 -152 -158 -226z" />
    <glyph glyph-name="four" unicode="4" 
d="M725 349l-21 -105h-135l-51 -244h-118l51 244h-390l25 117l535 596h97l-127 -608h134zM556 748l-356 -399h273z" />
    <glyph glyph-name="five" unicode="5" 
d="M765 944l-23 -108h-363l-72 -244q81 59 171 59q69 0 123.5 -28.5t91 -90t36.5 -152.5q0 -101 -35 -186t-128 -147.5t-201 -62.5q-85 0 -144.5 33t-93.5 99.5t-34 137.5v20l120 11l-1 -44q2 -35 14 -63.5t34.5 -51t51.5 -35.5t61 -13q74 0 128.5 47t82.5 117.5t28 126.5
q0 80 -46.5 128.5t-125.5 48.5q-104 0 -183 -99l-104 7l145 490h467z" />
    <glyph glyph-name="six" unicode="6" 
d="M759 725l-109 -10q-18 147 -130 147q-90 0 -154 -89.5t-97 -217.5q99 82 196 82q114 0 183 -76t69 -199q0 -154 -95 -266t-233 -112q-127 0 -202 92t-75 243q0 147 53 305.5t145 247.5t219 89q100 0 161 -62.5t69 -173.5zM604 350q0 83 -45.5 137.5t-117.5 54.5
q-95 0 -154 -86t-59 -187q0 -77 48 -134t116 -57q90 0 151 89t61 183z" />
    <glyph glyph-name="seven" unicode="7" 
d="M796 944l-22 -108q-164 -143 -287.5 -380t-169.5 -456h-123q30 176 146 417t299 419h-477l23 108h611z" />
    <glyph glyph-name="eight" unicode="8" 
d="M593 512q114 -71 114 -199q0 -141 -96 -235.5t-238 -94.5q-82 0 -143.5 34t-95.5 91.5t-34 134.5q0 65 21.5 121.5t66.5 99.5t114 62q-107 59 -107 174q0 71 41.5 133.5t103.5 95t144 32.5q119 0 195 -64.5t76 -168.5q0 -151 -162 -216zM641 729q0 70 -44.5 103.5
t-103.5 33.5q-57 0 -97 -22t-62.5 -64.5t-22.5 -84.5q0 -136 148 -136q54 0 95 22.5t64 60t23 87.5zM588 320q0 68 -44 109.5t-113 41.5q-92 0 -152 -67.5t-60 -169.5q0 -68 44.5 -112t122.5 -44q91 0 146.5 77.5t55.5 164.5z" />
    <glyph glyph-name="nine" unicode="9" 
d="M90 219l111 11q21 -148 128 -148q53 0 100.5 36.5t87 104.5t64.5 165q-110 -82 -200 -82q-65 0 -124 35.5t-91.5 97t-32.5 145.5q0 153 94.5 265t234.5 112q126 0 200.5 -92t74.5 -244q0 -235 -109.5 -438t-304.5 -203q-102 0 -163.5 62.5t-69.5 172.5zM624 670
q0 97 -52.5 146.5t-112.5 49.5q-48 0 -93 -29.5t-82 -93t-37 -145.5q0 -84 45.5 -140.5t116.5 -56.5q90 0 152.5 88t62.5 181z" />
    <glyph glyph-name="colon" unicode=":" horiz-adv-x="371" 
d="M354 693l-27 -134h-134l28 134h133zM238 134l-28 -134h-134l28 134h134z" />
    <glyph glyph-name="semicolon" unicode=";" horiz-adv-x="371" 
d="M351 693l-29 -134h-133l28 134h134zM235 134l-24 -117q-40 -195 -179 -210l11 51q78 22 103 142h-74l29 134h134z" />
    <glyph glyph-name="less" unicode="&#x3c;" horiz-adv-x="781" 
d="M754 148l-634 270v110l634 268v-117l-503 -206l503 -209v-116z" />
    <glyph glyph-name="equal" unicode="=" horiz-adv-x="781" 
d="M752 563h-632v109h632v-109zM752 272h-632v110h632v-110z" />
    <glyph glyph-name="greater" unicode="&#x3e;" horiz-adv-x="781" 
d="M754 418l-634 -270v116l502 209l-502 206v117l634 -268v-110z" />
    <glyph glyph-name="question" unicode="?" 
d="M392 240h-112q7 61 32.5 114.5t60 88t121.5 104.5q139 112 139 200q0 57 -45.5 94.5t-110.5 37.5q-159 0 -189 -203l-118 19q56 278 304 278q136 0 205.5 -72t69.5 -162q0 -39 -15.5 -79t-52 -82.5t-141.5 -126.5q-74 -59 -105.5 -101t-42.5 -110zM384 134l-28 -134h-134
l28 134h134z" />
    <glyph glyph-name="at" unicode="@" horiz-adv-x="1357" 
d="M1309 12q-56 -121 -206 -207t-370 -86q-195 0 -341 63.5t-233 196.5t-87 327q0 139 51.5 269t135 220t199 135t261.5 45q265 0 411.5 -152.5t146.5 -357.5q0 -182 -122.5 -325t-270.5 -143q-87 0 -114 53q-8 15 -12 56q-94 -108 -201 -108q-108 0 -172 88t-64 205
q0 106 54 210t133.5 155.5t151.5 51.5q124 0 197 -120l22 101h117l-94 -438q-19 -89 -19 -102q0 -43 45 -43q25 0 70.5 26t90 75.5t68 115t23.5 144.5q0 192 -138 302t-328 110q-114 0 -211 -38.5t-170.5 -110t-118.5 -181t-45 -232.5q0 -166 67 -277t199.5 -168t295.5 -57
q322 0 460 197h118zM820 424q0 82 -41.5 134t-110.5 52q-94 0 -160 -103t-66 -224q0 -73 36.5 -130.5t103.5 -57.5q62 0 119.5 51t88 120.5t30.5 157.5z" />
    <glyph glyph-name="A" unicode="A" horiz-adv-x="892" 
d="M824 0h-124l-46 275h-387l-153 -275h-141l543 957h151zM638 374l-37 240q-21 136 -27 239q-31 -81 -95 -196l-157 -283h316z" />
    <glyph glyph-name="B" unicode="B" horiz-adv-x="892" 
d="M699 499q155 -50 155 -196q0 -119 -93 -211t-239 -92h-464l201 957h296q66 0 117.5 -6.5t100 -33t75.5 -75.5t27 -112q0 -169 -176 -231zM364 848l-63 -300h194q261 0 261 174q0 40 -16 67.5t-48 43t-125 15.5h-203zM278 439l-69 -331h218q68 0 112 5t89 29t70 66.5
t25 93.5q0 80 -50.5 108.5t-151.5 28.5h-243z" />
    <glyph glyph-name="C" unicode="C" horiz-adv-x="965" 
d="M977 672l-120 -11q-37 207 -230 207q-110 0 -192.5 -60t-134 -169t-51.5 -247q0 -141 69.5 -222t191.5 -81q61 0 116.5 24.5t104 80t75.5 143.5l127 -18q-59 -160 -172 -247.5t-261 -87.5q-108 0 -191 41t-135.5 133.5t-52.5 236.5q0 246 141.5 412t358.5 166
q152 0 246 -80t110 -221z" />
    <glyph glyph-name="D" unicode="D" horiz-adv-x="965" 
d="M59 0l200 957h289q78 0 144 -11.5t129.5 -57t97 -126.5t33.5 -196q0 -128 -44.5 -237.5t-124 -188t-169 -109.5t-210.5 -31h-345zM365 848l-155 -740h152q189 0 274 59t135.5 169t50.5 236q0 102 -32.5 166.5t-90.5 87t-165 22.5h-169z" />
    <glyph glyph-name="E" unicode="E" horiz-adv-x="892" 
d="M951 957l-23 -109h-562l-63 -298h548l-23 -109h-548l-69 -333h602l-22 -108h-731l200 957h691z" />
    <glyph glyph-name="F" unicode="F" horiz-adv-x="817" 
d="M883 957l-23 -109h-494l-64 -305h504l-23 -109h-504l-90 -434h-128l199 957h623z" />
    <glyph glyph-name="G" unicode="G" horiz-adv-x="1040" 
d="M1024 677l-125 -14q-42 204 -248 204q-183 0 -287 -142.5t-104 -343.5q0 -292 267 -292q125 0 269 83l43 205h-291l23 109h419l-82 -390q-179 -112 -379 -112q-190 0 -294.5 105t-104.5 294q0 164 71 305.5t189 213t265 71.5q155 0 247.5 -71.5t121.5 -224.5z" />
    <glyph glyph-name="H" unicode="H" horiz-adv-x="965" 
d="M1008 957l-200 -957h-128l94 451h-495l-95 -451h-128l201 957h127l-83 -398h496l83 398h128z" />
    <glyph glyph-name="I" unicode="I" horiz-adv-x="371" 
d="M404 957l-200 -957h-128l201 957h127z" />
    <glyph glyph-name="J" unicode="J" horiz-adv-x="668" 
d="M716 957l-145 -699q-57 -274 -286 -274q-241 0 -241 209q0 43 10 86l119 8q-10 -55 -10 -81q0 -117 124 -117q46 0 79.5 22t49.5 58t31 110l142 678h127z" />
    <glyph glyph-name="K" unicode="K" horiz-adv-x="892" 
d="M991 957l-445 -390l326 -567h-143l-276 485l-200 -174l-66 -311h-128l200 957h128l-96 -461l520 461h180z" />
    <glyph glyph-name="L" unicode="L" 
d="M701 108l-23 -108h-624l199 957h128l-177 -849h497z" />
    <glyph glyph-name="M" unicode="M" horiz-adv-x="1114" 
d="M1166 957l-200 -957h-126l100 465q33 154 99 362q-42 -95 -102 -201l-356 -626h-123l-96 614q-13 83 -19 196q-17 -127 -32 -200l-128 -610h-124l200 957h157l96 -620q19 -122 25 -235q40 98 133 262l336 593h160z" />
    <glyph glyph-name="N" unicode="N" horiz-adv-x="965" 
d="M1012 957l-200 -957h-127l-237 553q-67 157 -99 258q-10 -93 -38 -229l-121 -582h-125l201 957h124l161 -359q56 -125 98 -229t76 -224q17 112 45 249l117 563h125z" />
    <glyph glyph-name="O" unicode="O" horiz-adv-x="1040" 
d="M1033 544q0 -160 -67.5 -283.5t-183 -200t-259.5 -76.5q-92 0 -163.5 28t-123.5 84t-83 136.5t-31 168.5q0 246 142.5 409t364.5 163q182 0 293 -118t111 -311zM905 554q0 138 -76.5 225.5t-200.5 87.5q-111 0 -193.5 -59t-134.5 -167.5t-52 -246.5q0 -149 87.5 -227
t197.5 -78q88 0 168.5 50.5t142 157.5t61.5 257z" />
    <glyph glyph-name="P" unicode="P" horiz-adv-x="892" 
d="M266 388l-81 -388h-128l201 957h399q80 0 135 -15.5t98 -75t43 -144.5q0 -145 -103 -239.5t-324 -94.5h-240zM364 853l-75 -356h211q164 0 235.5 66t71.5 156q0 43 -16 72.5t-49.5 45.5t-132.5 16h-245z" />
    <glyph glyph-name="Q" unicode="Q" horiz-adv-x="1040" 
d="M808 77q48 -57 131 -111l-57 -76q-87 57 -156 138q-97 -46 -185 -46q-116 0 -208.5 45.5t-151 143.5t-58.5 247q0 160 68 284.5t180.5 197.5t258.5 73q123 0 213 -53t140.5 -149t50.5 -227q0 -297 -226 -467zM646 112q-60 54 -122 86l46 80q76 -33 160 -119
q81 63 129 170.5t48 222.5q0 138 -76.5 226.5t-198.5 88.5q-176 0 -279.5 -141t-103.5 -319q0 -85 29 -151t95 -116.5t145 -50.5q71 0 128 23z" />
    <glyph glyph-name="R" unicode="R" horiz-adv-x="965" 
d="M653 430q102 -71 175 -250l74 -180h-143l-69 178q-41 106 -82.5 164t-76 70.5t-103.5 12.5h-149l-88 -425h-128l200 957h402q73 0 124 -6.5t95 -32t68 -74.5t24 -120q0 -250 -323 -294zM369 852l-68 -323h177q105 0 158 2.5t106 26t82.5 69.5t29.5 99q0 50 -21 79.5
t-56 38t-96 8.5h-312z" />
    <glyph glyph-name="S" unicode="S" horiz-adv-x="892" 
d="M897 685l-123 -9q0 98 -65.5 144.5t-165.5 46.5q-86 0 -146.5 -35.5t-60.5 -106.5q0 -38 23 -68t63.5 -51.5t159.5 -73.5q90 -40 139.5 -70t80 -81t30.5 -117q0 -81 -42 -141.5t-128.5 -99.5t-198.5 -39q-368 0 -369 325l125 12l-1 -33q0 -37 10 -69.5t37 -63t78 -48
t124 -17.5q94 0 165 42.5t71 122.5q0 38 -23 70t-61 53t-126 59q-101 43 -154.5 75t-89.5 86t-36 120q0 124 95 189.5t240 65.5q116 0 193.5 -35t119 -107.5t36.5 -145.5z" />
    <glyph glyph-name="T" unicode="T" horiz-adv-x="817" 
d="M943 957l-23 -109h-312l-176 -848h-128l176 848h-314l23 109h754z" />
    <glyph glyph-name="U" unicode="U" horiz-adv-x="965" 
d="M1009 957l-117 -561q-86 -413 -417 -413q-173 0 -259.5 80t-86.5 199q0 44 27 173l109 522h128l-123 -588q-15 -72 -15 -109q0 -76 60.5 -123.5t153.5 -47.5q92 0 154 42.5t92.5 113t54.5 185.5l111 527h128z" />
    <glyph glyph-name="V" unicode="V" horiz-adv-x="892" 
d="M1012 957l-525 -957h-137l-184 957h123l111 -571q31 -160 40 -250q58 118 99 194l341 627h132z" />
    <glyph glyph-name="W" unicode="W" horiz-adv-x="1262" 
d="M1419 957l-487 -957h-137l-32 580q-5 90 -7 182q-38 -87 -67 -141l-331 -621h-132l-59 957h130l22 -473l8 -208l-1 -100q78 160 115 230l291 551h132l32 -559q5 -88 7 -232q13 37 53.5 126t59.5 126l273 539h130z" />
    <glyph glyph-name="X" unicode="X" horiz-adv-x="892" 
d="M1028 957l-463 -494l263 -463h-139l-156 280q-23 41 -53 106q-30 -41 -86 -101l-267 -285h-169l457 484l-271 473h141l179 -317q16 -28 37 -76q47 63 150 172l210 221h167z" />
    <glyph glyph-name="Y" unicode="Y" horiz-adv-x="892" 
d="M1033 957l-457 -597l-75 -360h-128l77 370l-294 587h137l141 -279q50 -99 90 -196q50 91 132 194l225 281h152z" />
    <glyph glyph-name="Z" unicode="Z" horiz-adv-x="817" 
d="M851 957l-11 -100l-634 -752q29 4 37 4h522l-23 -109h-709l12 96l578 693q31 37 59 67q-57 -7 -85 -7h-32l-75 -1h-322l23 109h660z" />
    <glyph glyph-name="bracketleft" unicode="[" horiz-adv-x="371" 
d="M523 957l-19 -91h-143l-217 -1037h145l-19 -91h-262l252 1219h263z" />
    <glyph glyph-name="backslash" unicode="\" horiz-adv-x="371" 
d="M366 -16h-92l-160 989h91z" />
    <glyph glyph-name="bracketright" unicode="]" horiz-adv-x="371" 
d="M440 957l-257 -1219h-261l19 91h144l217 1037h-144l19 91h263z" />
    <glyph glyph-name="asciicircum" unicode="^" horiz-adv-x="627" 
d="M651 450h-118l-162 390l-156 -390h-121l230 523h95z" />
    <glyph glyph-name="underscore" unicode="_" 
d="M694 -266h-779v85h779v-85z" />
    <glyph glyph-name="grave" unicode="`" horiz-adv-x="445" 
d="M414 777h-92l-127 180h143z" />
    <glyph glyph-name="a" unicode="a" 
d="M645 0h-119q-10 34 -14 86q-118 -102 -240 -102q-94 0 -153.5 55.5t-59.5 145.5q0 60 26.5 105.5t76 73.5t100 35.5t159.5 11.5q104 5 152 24q14 48 14 80q0 97 -150 97q-146 0 -191 -126l-119 10q75 213 316 213q115 0 188 -50t73 -130q0 -52 -17 -129l-38 -172
q-18 -81 -18 -134q0 -33 14 -94zM556 351q-42 -18 -169 -28t-169 -44.5t-42 -89.5q0 -113 132 -113q205 0 248 275z" />
    <glyph glyph-name="b" unicode="b" 
d="M176 131l-28 -131h-104l200 957h118l-71 -342q102 94 197 94q105 0 166 -77.5t61 -205.5q0 -137 -52 -236.5t-130.5 -152.5t-154.5 -53q-144 0 -202 147zM219 285v-23q0 -91 44 -136t104 -45q67 0 117 44.5t82.5 135t32.5 169.5q0 74 -36.5 129t-109.5 55
q-66 0 -116 -46.5t-84 -136t-34 -146.5z" />
    <glyph glyph-name="c" unicode="c" horiz-adv-x="668" 
d="M683 479l-116 -8q-2 141 -137 141q-120 0 -177.5 -113.5t-57.5 -245.5q0 -177 135 -177q133 0 193 177l118 -13q-87 -256 -313 -256q-70 0 -125 28.5t-91.5 91.5t-36.5 158q0 93 27 177t73.5 144t115 93t150.5 33q109 0 175.5 -61.5t66.5 -168.5z" />
    <glyph glyph-name="d" unicode="d" 
d="M800 957l-200 -957h-109l21 101q-101 -117 -212 -117q-71 0 -121.5 34.5t-79 98t-28.5 151.5q0 119 47.5 223.5t127 161t163.5 56.5q129 0 195 -125l78 373h118zM567 437q0 78 -41.5 126.5t-109.5 48.5q-94 0 -161 -103.5t-67 -218.5q0 -211 146 -211q90 0 161.5 105
t71.5 253z" />
    <glyph glyph-name="e" unicode="e" 
d="M702 317h-511q-2 -20 -2 -36q0 -62 19.5 -107t53.5 -69t81 -24q143 0 211 155l114 -12q-29 -102 -123 -171t-203 -69q-130 0 -201.5 82t-71.5 212q0 115 52.5 221t136.5 158t181 52q84 0 144 -34.5t94 -99t34 -153.5q0 -51 -9 -105zM210 407h389l1 29q0 33 -7 60.5
t-20.5 50t-33 38.5t-44 24t-54.5 8q-170 0 -231 -210z" />
    <glyph glyph-name="f" unicode="f" horiz-adv-x="371" 
d="M545 954l-21 -103q-61 16 -101 16q-43 0 -61 -29q-13 -22 -23 -70l-15 -75h132l-19 -91h-132l-126 -602h-118l126 602h-106l19 91h106l20 99q12 60 27.5 97t56.5 60.5t105 23.5q45 0 130 -19z" />
    <glyph glyph-name="g" unicode="g" 
d="M755 693l-140 -669q-63 -301 -317 -301q-134 0 -198.5 48.5t-64.5 130.5q0 16 3 35l119 -11q0 -64 32.5 -85t95.5 -21q57 0 98 15.5t64.5 51t48.5 150.5l12 56q-92 -93 -196 -93q-113 0 -180 81.5t-67 214.5q0 82 28.5 156t73.5 128.5t109 91.5t137 37q136 0 210 -129
l23 113h109zM580 427q0 51 -19 93.5t-56 68t-90 25.5q-89 0 -159.5 -94.5t-70.5 -212.5q0 -110 43.5 -160t107.5 -50q115 0 179.5 110.5t64.5 219.5z" />
    <glyph glyph-name="h" unicode="h" 
d="M601 0h-119l89 420q18 85 18 115q0 77 -91 77q-80 0 -137 -40t-85.5 -104.5t-50.5 -169.5l-62 -298h-119l200 957h118l-76 -368q123 120 240 120q57 0 98 -20.5t62 -57t21 -87.5q0 -34 -21 -135z" />
    <glyph glyph-name="i" unicode="i" horiz-adv-x="297" 
d="M358 957l-28 -134h-118l28 134h118zM303 693l-145 -693h-118l145 693h118z" />
    <glyph glyph-name="j" unicode="j" horiz-adv-x="297" 
d="M357 957l-28 -134h-117l28 134h117zM302 693l-151 -721q-33 -157 -80.5 -203t-120.5 -46q-46 0 -112 17l21 100q40 -11 72 -11q31 0 52 18.5t31 48.5t24 97l145 700h119z" />
    <glyph glyph-name="k" unicode="k" horiz-adv-x="668" 
d="M740 693l-295 -258l178 -435h-129l-138 356l-144 -124l-48 -232h-118l200 957h118l-124 -593l344 329h156z" />
    <glyph glyph-name="l" unicode="l" horiz-adv-x="297" 
d="M353 957l-200 -957h-118l200 957h118z" />
    <glyph glyph-name="m" unicode="m" horiz-adv-x="1114" 
d="M978 0h-118l95 458q12 58 12 81q0 73 -82 73q-72 0 -123.5 -37t-78 -95t-44.5 -144l-70 -336h-119l98 468q11 53 11 68q0 76 -77 76q-192 0 -252 -284l-68 -328h-118l145 693h118l-24 -114q116 130 230 130q136 0 165 -130q105 130 235 130q173 0 173 -157
q0 -33 -15 -105z" />
    <glyph glyph-name="n" unicode="n" 
d="M601 0h-119l92 439q14 67 14 95q0 78 -93 78q-205 0 -265 -290l-67 -322h-119l145 693h107l-25 -120q134 136 255 136q81 0 130.5 -44.5t49.5 -123.5q0 -40 -17 -121z" />
    <glyph glyph-name="o" unicode="o" 
d="M722 419q0 -213 -115 -324t-258 -111q-136 0 -210 79t-74 200q0 134 52.5 237t133.5 156t192 53q86 0 148 -35.5t96.5 -100.5t34.5 -154zM605 420q0 89 -45 143.5t-121 54.5q-62 0 -116 -35t-97 -115t-43 -193q0 -92 44.5 -145.5t122.5 -53.5q113 0 184 108t71 236z" />
    <glyph glyph-name="p" unicode="p" 
d="M183 111l-79 -377h-118l201 959h109l-21 -96q108 112 211 112q106 0 167.5 -76t61.5 -203q0 -198 -107 -322t-232 -124t-193 127zM598 430q0 74 -36.5 129t-110.5 55q-96 0 -163.5 -108t-67.5 -223q0 -68 8.5 -98.5t29 -55.5t48.5 -36.5t65 -11.5q98 0 162.5 109.5
t64.5 239.5z" />
    <glyph glyph-name="q" unicode="q" 
d="M738 693l-199 -959h-119l72 344q-101 -94 -194 -94q-69 0 -120 35t-80 98t-29 149q0 94 26.5 175t69 137t107 93.5t139.5 37.5q135 0 199 -143l26 127h102zM566 430q0 81 -42 131.5t-109 50.5q-66 0 -115.5 -45t-82 -132t-32.5 -153q0 -201 149 -201q105 0 168.5 117
t63.5 232z" />
    <glyph glyph-name="r" unicode="r" horiz-adv-x="445" 
d="M561 683l-49 -109q-30 22 -67 22q-164 0 -230 -318l-58 -278h-113l145 693h105l-30 -141q105 157 210 157q35 0 87 -26z" />
    <glyph glyph-name="s" unicode="s" horiz-adv-x="668" 
d="M666 490l-115 -8q-6 136 -163 136q-49 0 -89 -24t-40 -65q0 -33 23.5 -53.5t107.5 -56.5q103 -45 145 -73t62 -67t20 -84q0 -96 -80 -153.5t-202 -57.5q-83 0 -140.5 23t-88.5 59.5t-43 75t-12 95.5l119 7q0 -87 48 -127.5t123 -40.5q157 0 157 105q0 65 -141 125
q-78 33 -118 55.5t-65 60t-25 87.5q0 52 25 95t81.5 74t141.5 31q124 0 195 -57.5t74 -161.5z" />
    <glyph glyph-name="t" unicode="t" horiz-adv-x="371" 
d="M430 693l-20 -91h-116l-80 -383q-15 -72 -15 -88q0 -43 52 -43q39 0 70 8l-20 -97q-42 -11 -82 -11q-144 0 -144 106q0 23 17 105l84 403h-93l19 91h93l36 171l135 81l-53 -252h117z" />
    <glyph glyph-name="u" unicode="u" 
d="M745 693l-144 -693h-109l26 125q-125 -141 -256 -141q-77 0 -127.5 44.5t-50.5 114.5q0 44 22 150l83 400h118l-92 -443q-12 -58 -12 -86q0 -83 94 -83q92 0 161.5 66t106.5 247l62 299h118z" />
    <glyph glyph-name="v" unicode="v" horiz-adv-x="668" 
d="M747 693l-396 -693h-132l-113 693h115l59 -382q9 -58 24 -204q31 68 87 169l232 417h124z" />
    <glyph glyph-name="w" unicode="w" horiz-adv-x="965" 
d="M1039 693l-339 -693h-123l-26 407q-3 47 -4 147q-31 -81 -63 -151l-184 -403h-124l-72 693h113l32 -311l12 -175q1 -9 4 -79q30 101 77 204l165 361h129l23 -346q5 -75 6 -211q30 79 107 243l148 314h119z" />
    <glyph glyph-name="x" unicode="x" horiz-adv-x="668" 
d="M719 693l-291 -350l175 -343h-131l-69 141q-22 46 -50 112l-207 -253h-148l302 352l-173 341h130l59 -123q35 -73 59 -133l199 256h145z" />
    <glyph glyph-name="y" unicode="y" horiz-adv-x="668" 
d="M750 693l-442 -785q-72 -127 -123 -158t-105 -31q-41 0 -80 13l7 111q37 -10 71 -10q67 0 121 97l38 68l-116 695h117l52 -350q13 -90 27 -208l310 558h123z" />
    <glyph glyph-name="z" unicode="z" horiz-adv-x="668" 
d="M685 693l-16 -74l-376 -423q-24 -27 -95 -98q98 6 135 6h273l-22 -104h-558l19 91l373 420q40 44 89 92q-85 -8 -121 -8h-258l21 98h536z" />
    <glyph glyph-name="braceleft" unicode="{" horiz-adv-x="447" 
d="M595 973l-22 -102h-20q-50 0 -79.5 -16t-42 -48.5t-30.5 -117.5q-20 -96 -39.5 -156t-63 -109.5t-108.5 -77.5q92 -42 92 -156q0 -52 -29 -186q-21 -97 -21 -120q0 -22 8 -35.5t25 -20.5t80 -7l-22 -102h-36q-62 0 -86 8t-43 24.5t-28.5 42t-9.5 59.5q0 45 30 187
q23 108 23 145q0 105 -103 108l23 107q54 1 92 30t58.5 80t39.5 139q26 121 43 168t44 81t59 50.5t58.5 20.5t71.5 4h36z" />
    <glyph glyph-name="bar" unicode="|" horiz-adv-x="347" 
d="M225 -281h-102v1254h102v-1254z" />
    <glyph glyph-name="braceright" unicode="}" horiz-adv-x="447" 
d="M413 400l-23 -107q-52 -1 -89 -27t-58.5 -77t-41.5 -143q-27 -127 -42 -170t-41.5 -77.5t-59.5 -52.5t-60 -22.5t-74 -4.5h-36l22 102h20q93 0 120 60q11 23 32 123q22 104 42 163t62.5 106.5t106.5 72.5q-92 48 -92 157q0 53 29 186q21 97 21 120q0 62 -93 62h-20
l22 102h36q62 0 86 -8t43 -24.5t28.5 -42t9.5 -59.5q0 -40 -22 -145q-31 -148 -31 -187q0 -105 103 -107z" />
    <glyph glyph-name="asciitilde" unicode="~" horiz-adv-x="781" 
d="M775 439q-80 -74 -181 -74q-69 0 -188 53q-77 34 -129 34q-78 0 -170 -88v133q69 79 182 79q72 0 205 -57q73 -31 112 -31q87 0 169 90v-139z" />
    <glyph glyph-name="uni007F" horiz-adv-x="1024" 
 />
    <glyph glyph-name="exclamdown" unicode="&#xa1;" horiz-adv-x="445" 
d="M387 693l-28 -134h-135l28 134h135zM307 455l-55 -507l-58 -212h-146l44 212l139 507h76z" />
    <glyph glyph-name="cent" unicode="&#xa2;" horiz-adv-x="743" 
d="M560 584l-249 -500q19 -6 39 -6q150 0 213 176l115 -13q-23 -60 -59 -108t-81.5 -81.5t-98 -51.5t-108.5 -18q-37 0 -65 9l-131 -258l-69 21l129 260q-114 64 -114 218q0 119 36.5 208.5t93.5 149t127.5 89.5t138.5 30q14 0 30.5 -1.5t34.5 -3.5l125 253l68 -21
l-125 -253q106 -46 106 -182v-11l-117 -18q-2 72 -39 112zM496 614l-32 1q-192 0 -248 -266q-12 -60 -12 -106q0 -88 44 -127z" />
    <glyph glyph-name="sterling" unicode="&#xa3;" horiz-adv-x="743" 
d="M320 528h206l-20 -97h-185q3 -14 3 -28q0 -67 -46.5 -139.5t-124.5 -138.5q29 7 53 10.5t44 3.5q61 0 119 -16q54 -14 90 -20.5t56 -6.5q47 0 133 36l16 -107q-114 -41 -167 -41q-15 0 -28.5 1.5t-26.5 3.5l-161 48q-17 2 -32 3.5t-28 1.5q-104 0 -209 -60l-22 113
q100 51 154.5 131.5t54.5 189.5v15h-128l20 97h100q-2 23 -3.5 44.5t-1.5 41.5q0 88 31 155t81.5 112.5t115.5 68.5t133 23q238 0 238 -222q0 -6 -0.5 -12.5t-0.5 -12.5l-119 -18q0 5 0.5 9.5t0.5 9.5q0 150 -141 150q-64 0 -104.5 -25.5t-64 -64t-32.5 -82.5t-9 -80
q0 -22 1 -46t4 -51z" />
    <glyph glyph-name="currency" unicode="&#xa4;" horiz-adv-x="743" 
d="M222 627l-73 89l92 78l72 -91q80 47 164 47q86 0 145 -47l110 91l59 -78l-109 -89q21 -47 21 -98q0 -112 -85 -209l73 -89l-93 -78l-72 92q-78 -48 -164 -48q-87 0 -145 48l-110 -92l-58 78l109 89q-20 52 -20 96q0 115 84 211zM250 474q-4 -11 -4 -34q0 -27 8.5 -52
t26 -43.5t43 -29.5t60.5 -11q33 0 69.5 14t67 41t51 65t20.5 86q0 58 -37.5 95.5t-100.5 37.5q-30 0 -62.5 -11.5t-61.5 -33.5t-50.5 -53t-29.5 -71z" />
    <glyph glyph-name="yen" unicode="&#xa5;" horiz-adv-x="743" 
d="M264 0l44 212h-271l18 91h271l20 93h-271l20 97h223l-169 464h131l119 -337q8 -25 14 -49.5t15 -50.5q13 20 32 46t44 60l247 331h140l-361 -464h223l-20 -97h-269l-20 -93h269l-18 -91h-269l-44 -212h-118z" />
    <glyph glyph-name="brokenbar" unicode="&#xa6;" horiz-adv-x="347" 
d="M380 973l-107 -515h-102l107 515h102zM226 235l-107 -516h-102l107 516h102z" />
    <glyph glyph-name="section" unicode="&#xa7;" horiz-adv-x="743" 
d="M36 -46l121 17v-3q0 -150 136 -150q36 0 66.5 11.5t53 30t35 41.5t12.5 46v1q0 15 -3.5 28.5t-22.5 34.5t-60 54.5t-116 87.5q-47 34 -79.5 62t-52.5 53.5t-29 51.5t-9 56q0 88 51 146.5t139 82.5q-53 62 -53 128q0 48 23 91.5t62 76.5t90.5 52.5t108.5 19.5
q227 0 227 -198v-21q0 -6 -1 -7l-125 -13v16q0 127 -111 127q-36 0 -65.5 -12t-49.5 -30t-31 -39t-11 -39q0 -15 3 -29t20.5 -34t54 -50t104.5 -77q61 -43 96.5 -74.5t53.5 -57t22.5 -47.5t4.5 -46q0 -78 -49.5 -134t-140.5 -92q70 -63 70 -143q0 -53 -25 -99t-67 -80.5
t-98 -54.5t-118 -20q-237 0 -237 216v19zM461 159q57 27 90 62.5t33 74.5q0 73 -144 174q-72 51 -114 90q-60 -30 -93 -65.5t-33 -77.5q0 -73 130 -161q43 -29 75.5 -53t55.5 -44z" />
    <glyph glyph-name="dieresis" unicode="&#xa8;" horiz-adv-x="445" 
d="M165 829l28 134h123l-28 -134h-123zM408 829l28 134h123l-28 -134h-123z" />
    <glyph glyph-name="copyright" unicode="&#xa9;" horiz-adv-x="985" 
d="M650 973q82 0 154.5 -27t127.5 -77t87 -120t32 -155q0 -80 -23.5 -156t-64.5 -143t-98 -123.5t-124.5 -97.5t-142.5 -63.5t-153 -22.5q-84 0 -157.5 28t-128 79t-86 121.5t-31.5 155.5q0 79 23 154.5t64.5 142.5t98.5 123t124.5 96t143 62.5t154.5 22.5zM633 892
q-64 0 -126 -18.5t-118 -52.5t-104 -80.5t-83 -102t-55 -118.5t-20 -129q0 -71 25.5 -129.5t70 -101.5t106 -66.5t133.5 -23.5q63 0 125 18.5t118 51.5t104 79t83 101.5t55 119t20 131.5q0 71 -27 130t-73 101.5t-106.5 66t-127.5 23.5zM689 401l75 -24q-86 -179 -275 -179
q-41 0 -78.5 11.5t-66.5 36t-46.5 61.5t-17.5 88q0 82 26.5 149t71.5 114.5t105 73t128 25.5q174 0 190 -154l-81 -19q-22 100 -127 100q-41 0 -81 -18.5t-72 -54t-51.5 -88t-19.5 -120.5q0 -128 132 -128q128 0 188 126z" />
    <glyph glyph-name="ordfeminine" unicode="&#xaa;" horiz-adv-x="495" 
d="M426 557q-91 -70 -181 -70q-135 0 -135 103q0 63 32.5 104.5t92.5 61.5l167 28l65 13q4 11 4 31q0 69 -86 69q-97 0 -125 -82l-85 22q52 136 227 136q168 0 168 -116q0 -7 -1.5 -17.5l-3.5 -24.5l-42 -196q-5 -23 -6.5 -40t-1.5 -31q0 -33 10 -49h-97q-4 9 -4 33v12
q0 2 0.5 5t1.5 8zM450 721q-40 -9 -82.5 -15t-78 -15.5t-58 -27t-22.5 -49.5q0 -49 74 -49q135 0 167 156z" />
    <glyph glyph-name="guillemotleft" unicode="&#xab;" horiz-adv-x="743" 
d="M246 345l107 -298h-95l-147 298l271 297h96zM499 345l110 -298h-99l-143 298l267 297h99z" />
    <glyph glyph-name="logicalnot" unicode="&#xac;" horiz-adv-x="781" 
d="M716 277h-111l60 286h-521l22 109h632z" />
    <glyph glyph-name="uni00AD" unicode="&#xad;" horiz-adv-x="445" 
d="M54 287l25 118h361l-25 -118h-361z" />
    <glyph glyph-name="registered" unicode="&#xae;" horiz-adv-x="985" 
d="M650 973q82 0 154.5 -27t127.5 -77t87 -120t32 -155q0 -80 -23.5 -156t-64.5 -143t-98 -123.5t-124.5 -97.5t-142.5 -63.5t-153 -22.5q-84 0 -157.5 28t-128 79t-86 121.5t-31.5 155.5q0 79 23 154.5t64.5 142.5t98.5 123t124.5 96t143 62.5t154.5 22.5zM633 892
q-64 0 -126 -18.5t-118 -52.5t-104 -80.5t-83 -102t-55 -118.5t-20 -129q0 -71 25.5 -129.5t70 -101.5t106 -66.5t133.5 -23.5q63 0 125 18.5t118 51.5t104 79t83 101.5t55 119t20 131.5q0 71 -27 130t-73 101.5t-106.5 66t-127.5 23.5zM275 208l110 530h182q200 0 200 -111
q0 -34 -14.5 -65.5t-40 -56.5t-59 -41t-72.5 -19q46 -15 95 -133l44 -104h-105l-30 84q-17 46 -29.5 73.5t-26 42.5t-30.5 20t-42 5h-50l-47 -225h-85zM422 506h104q69 0 108.5 24t39.5 73q0 63 -122 63h-97z" />
    <glyph glyph-name="macron" unicode="&#xaf;" horiz-adv-x="738" 
d="M145 1022l17 84h778l-17 -84h-778z" />
    <glyph glyph-name="degree" unicode="&#xb0;" horiz-adv-x="535" 
d="M201 792q8 37 29 70t50.5 57.5t65 39t73.5 14.5q31 0 58.5 -10.5t47.5 -29.5t31.5 -44.5t11.5 -56.5q0 -42 -19 -82t-50.5 -71t-71.5 -49.5t-83 -18.5q-30 0 -57 10.5t-47.5 29t-32 44.5t-11.5 57q0 8 1.5 17.5t3.5 22.5zM272 792q-1 -5 -1.5 -8t-0.5 -4v-10
q0 -38 23.5 -63t65.5 -25q21 0 45 10t44 28t33.5 42.5t13.5 53.5q0 38 -26 62.5t-64 24.5q-18 0 -39.5 -7.5t-40.5 -21.5t-33.5 -34.5t-19.5 -47.5z" />
    <glyph glyph-name="plusminus" unicode="&#xb1;" horiz-adv-x="734" 
d="M299 170l55 263h-260l22 109h260l54 260h111l-54 -260h261l-22 -109h-261l-55 -263h-111zM636 0h-632l22 110h632z" />
    <glyph glyph-name="uni00B2" unicode="&#xb2;" horiz-adv-x="445" 
d="M68 478q24 82 206 198q60 38 94 61t50.5 37.5t20.5 24.5t4 24v16q0 53 -77 53q-81 0 -115 -75l-96 11q64 141 229 141q166 0 166 -101q0 -56 -45 -116q-33 -43 -175 -131q-30 -19 -52.5 -35t-38.5 -29h252l-16 -79h-407z" />
    <glyph glyph-name="uni00B3" unicode="&#xb3;" horiz-adv-x="445" 
d="M100 606l98 10q6 -73 84 -73q54 0 88.5 26t34.5 78q0 55 -91 55l-36 -2l30 71q54 0 85.5 20t31.5 62q0 43 -67 43q-70 0 -107 -66l-90 15q70 124 212 124q158 0 158 -94q0 -99 -115 -133q90 -24 90 -97q0 -34 -16.5 -66t-47.5 -57t-74 -40t-95 -15q-173 0 -173 137v2z
" />
    <glyph glyph-name="acute" unicode="&#xb4;" horiz-adv-x="445" 
d="M259 779l126 183h154l-183 -183h-97z" />
    <glyph glyph-name="mu" unicode="&#xb5;" horiz-adv-x="770" 
d="M761 693l-144 -693h-105l17 82q-80 -98 -194 -98q-100 0 -147 86l-70 -336h-117l200 959h117l-62 -294q-24 -116 -24 -184q0 -63 27 -94t93 -31q46 0 80.5 13.5t62 48.5t49 94t40.5 151l62 296h115z" />
    <glyph glyph-name="paragraph" unicode="&#xb6;" horiz-adv-x="718" 
d="M161 -266l142 682q-47 0 -86.5 14t-68 40.5t-44.5 63.5t-16 83q0 63 23 124t69.5 109t116 77.5t163.5 29.5h414l-23 -113h-94l-231 -1110h-111l231 1110h-146l-231 -1110h-108z" />
    <glyph glyph-name="periodcentered" unicode="&#xb7;" horiz-adv-x="371" 
d="M157 404l28 134h134l-28 -134h-134z" />
    <glyph glyph-name="periodcentered" unicode="&#x2219;" horiz-adv-x="371" 
d="M157 404l28 134h134l-28 -134h-134z" />
    <glyph glyph-name="cedilla" unicode="&#xb8;" horiz-adv-x="445" 
d="M73 -101l58 116h87l-36 -70q94 -10 94 -74q0 -23 -12.5 -48.5t-38.5 -47t-67.5 -36t-98.5 -14.5q-25 0 -47.5 2t-44.5 6l23 76l84 -2q45 0 69 16.5t24 39.5q0 36 -94 36z" />
    <glyph glyph-name="uni00B9" unicode="&#xb9;" horiz-adv-x="445" 
d="M268 478l75 362q-72 -51 -161 -74l17 81q108 35 195 122h71l-102 -491h-95z" />
    <glyph glyph-name="ordmasculine" unicode="&#xba;" horiz-adv-x="488" 
d="M398 973q45 0 77.5 -13t53 -37t30.5 -57t10 -73q0 -57 -19.5 -112.5t-55.5 -99.5t-86 -71t-111 -27q-78 0 -125.5 44t-47.5 129q0 71 23.5 129.5t61.5 100t87.5 64.5t101.5 23zM380 886q-32 0 -60 -14t-50 -42t-34.5 -69t-12.5 -95q0 -97 91 -97q31 0 59.5 14t50.5 42
t35 69.5t13 96.5q0 95 -92 95z" />
    <glyph glyph-name="guillemotright" unicode="&#xbb;" horiz-adv-x="743" 
d="M540 345l-108 297h97l146 -297l-270 -298h-96zM288 345l-111 297h99l143 -297l-267 -298h-99z" />
    <glyph glyph-name="onequarter" unicode="&#xbc;" horiz-adv-x="1115" 
d="M109 -37l930 1010h102l-929 -1010h-103zM268 478l75 362q-72 -51 -161 -74l17 81q108 35 195 122h71l-102 -491h-95zM881 -20l21 100h-250l17 81l329 309h79l-66 -319h68l-15 -71h-68l-21 -100h-94zM917 151l35 171l-185 -171h150z" />
    <glyph glyph-name="onehalf" unicode="&#xbd;" horiz-adv-x="1115" 
d="M94 -37l928 1010h103l-929 -1010h-102zM268 478l75 362q-72 -51 -161 -74l17 81q108 35 195 122h71l-102 -491h-95zM633 -20q16 78 207 198q49 31 81 54.5t51 42.5t27 34.5t8 30.5q0 52 -77 52q-74 0 -114 -73l-97 9q64 142 229 142q167 0 167 -102q0 -35 -9.5 -62
t-34.5 -54t-67.5 -58t-108.5 -73q-26 -17 -49.5 -31.5t-41.5 -30.5h252l-17 -79h-406z" />
    <glyph glyph-name="threequarters" unicode="&#xbe;" horiz-adv-x="1115" 
d="M109 -37l929 1010h103l-929 -1010h-103zM100 606l112 10q-1 -5 -1.5 -9t-0.5 -9q0 -28 19 -41.5t53 -13.5q54 0 88.5 26t34.5 78q0 55 -89 55l-38 -2l30 71q54 0 85.5 20t31.5 62q0 43 -67 43q-70 0 -107 -66l-90 15q70 124 212 124q158 0 158 -94q0 -99 -115 -133
q90 -24 90 -97q0 -34 -16.5 -66t-47.5 -57t-74 -40t-95 -15q-173 0 -173 137v2zM881 -20l21 100h-250l17 81l328 309h80l-66 -319h68l-15 -71h-68l-21 -100h-94zM917 151l35 171l-185 -171h150z" />
    <glyph glyph-name="questiondown" unicode="&#xbf;" horiz-adv-x="817" 
d="M575 693l-28 -134h-133l28 134h133zM519 458l-7 -34q-10 -48 -23.5 -83t-36.5 -65.5t-58.5 -61t-89.5 -69.5q-73 -53 -103 -97.5t-30 -91.5q0 -30 11.5 -55.5t32 -44t48.5 -29t60 -10.5q160 0 232 193l117 -14q-96 -276 -367 -276q-61 0 -109 16t-81.5 43.5t-51 65.5
t-17.5 83q0 73 47.5 145t152.5 152q43 33 69.5 55t43 45.5t27 53.5t20.5 79h113z" />
    <glyph glyph-name="Agrave" unicode="&#xc0;" horiz-adv-x="892" 
d="M824 0h-124l-46 275h-387l-153 -275h-141l543 957h151zM638 374l-37 240q-21 136 -27 239q-31 -81 -95 -196l-157 -283h316zM649 1041h-92l-127 180h143z" />
    <glyph glyph-name="Aacute" unicode="&#xc1;" horiz-adv-x="892" 
d="M824 0h-124l-46 275h-387l-153 -275h-141l543 957h151zM638 374l-37 240q-21 136 -27 239q-31 -81 -95 -196l-157 -283h316zM511 1043l126 183h154l-183 -183h-97z" />
    <glyph glyph-name="Acircumflex" unicode="&#xc2;" horiz-adv-x="892" 
d="M824 0h-124l-46 275h-387l-153 -275h-141l543 957h151zM638 374l-37 240q-21 136 -27 239q-31 -81 -95 -196l-157 -283h316zM633 1154l-98 -111h-135l180 183h126l107 -183h-133z" />
    <glyph glyph-name="Atilde" unicode="&#xc3;" horiz-adv-x="892" 
d="M824 0h-124l-46 275h-387l-153 -275h-141l543 957h151zM638 374l-37 240q-21 136 -27 239q-31 -81 -95 -196l-157 -283h316zM385 1060q31 148 163 148q14 0 35 -8.5t43.5 -18.5t44.5 -18.5t38 -8.5q40 0 58 56h85q-31 -148 -159 -148q-16 0 -39 9.5t-46.5 20.5
t-43.5 20.5t-30 9.5q-49 0 -63 -62h-86z" />
    <glyph glyph-name="Adieresis" unicode="&#xc4;" horiz-adv-x="892" 
d="M824 0h-124l-46 275h-387l-153 -275h-141l543 957h151zM638 374l-37 240q-21 136 -27 239q-31 -81 -95 -196l-157 -283h316zM431 1093l28 134h123l-28 -134h-123zM674 1093l28 134h123l-28 -134h-123z" />
    <glyph glyph-name="Aring" unicode="&#xc5;" horiz-adv-x="892" 
d="M824 0h-124l-46 275h-387l-153 -275h-141l543 957h151zM638 374l-37 240q-21 136 -27 239q-31 -81 -95 -196l-157 -283h316zM506 1137q5 25 19 46t33.5 37t42.5 25t46 9q17 0 34.5 -6.5t31.5 -18.5t22.5 -29.5t8.5 -38.5q0 -30 -12.5 -56.5t-33 -46.5t-46.5 -31.5
t-53 -11.5q-17 0 -34.5 6t-31 17t-22 28t-8.5 39q0 15 3 32zM555 1137q-3 -14 -3 -24q0 -49 58 -49q18 0 33.5 8.5t27.5 22t18.5 30t6.5 32.5q0 49 -57 49q-71 0 -84 -69z" />
    <glyph glyph-name="AE" unicode="&#xc6;" horiz-adv-x="1337" 
d="M-46 0l658 957h785l-23 -113h-481l-61 -294h447l-24 -113h-447l-67 -324h499l-23 -113h-626l57 276h-370l-187 -276h-137zM355 388h316l95 456h-95z" />
    <glyph glyph-name="Ccedilla" unicode="&#xc7;" horiz-adv-x="965" 
d="M977 672l-120 -11q-37 207 -230 207q-110 0 -192.5 -60t-134 -169t-51.5 -247q0 -141 69.5 -222t191.5 -81q61 0 116.5 24.5t104 80t75.5 143.5l127 -18q-59 -160 -172 -247.5t-261 -87.5q-108 0 -191 41t-135.5 133.5t-52.5 236.5q0 246 141.5 412t358.5 166
q152 0 246 -80t110 -221zM434 -101l58 116h87l-36 -70q94 -10 94 -74q0 -23 -12.5 -48.5t-38.5 -47t-67.5 -36t-98.5 -14.5q-25 0 -47.5 2t-44.5 6l23 76l84 -2q45 0 69 16.5t24 39.5q0 36 -94 36z" />
    <glyph glyph-name="Egrave" unicode="&#xc8;" horiz-adv-x="892" 
d="M951 957l-23 -109h-562l-63 -298h548l-23 -109h-548l-69 -333h602l-22 -108h-731l200 957h691zM669 1041h-92l-127 180h143z" />
    <glyph glyph-name="Eacute" unicode="&#xc9;" horiz-adv-x="892" 
d="M951 957l-23 -109h-562l-63 -298h548l-23 -109h-548l-69 -333h602l-22 -108h-731l200 957h691zM538 1043l126 183h154l-183 -183h-97z" />
    <glyph glyph-name="Ecircumflex" unicode="&#xca;" horiz-adv-x="892" 
d="M951 957l-23 -109h-562l-63 -298h548l-23 -109h-548l-69 -333h602l-22 -108h-731l200 957h691zM624 1154l-98 -111h-135l180 183h126l107 -183h-133z" />
    <glyph glyph-name="Edieresis" unicode="&#xcb;" horiz-adv-x="892" 
d="M951 957l-23 -109h-562l-63 -298h548l-23 -109h-548l-69 -333h602l-22 -108h-731l200 957h691zM424 1093l28 134h123l-28 -134h-123zM667 1093l28 134h123l-28 -134h-123z" />
    <glyph glyph-name="Igrave" unicode="&#xcc;" horiz-adv-x="371" 
d="M404 957l-200 -957h-128l201 957h127zM400 1041h-92l-127 180h143z" />
    <glyph glyph-name="Iacute" unicode="&#xcd;" horiz-adv-x="371" 
d="M404 957l-200 -957h-128l201 957h127zM297 1043l126 183h154l-183 -183h-97z" />
    <glyph glyph-name="Icircumflex" unicode="&#xce;" horiz-adv-x="371" 
d="M404 957l-200 -957h-128l201 957h127zM394 1154l-98 -111h-135l180 183h126l107 -183h-133z" />
    <glyph glyph-name="Idieresis" unicode="&#xcf;" horiz-adv-x="371" 
d="M404 957l-200 -957h-128l201 957h127zM179 1093l28 134h123l-28 -134h-123zM422 1093l28 134h123l-28 -134h-123z" />
    <glyph glyph-name="Eth" unicode="&#xd0;" horiz-adv-x="965" 
d="M56 0l90 435h-105l18 87h105l90 435h330q76 0 134 -8.5t100.5 -30t72.5 -58t51 -92.5q22 -57 22 -136q0 -32 -4.5 -68.5t-12.5 -79.5q-50 -245 -187 -364.5t-359 -119.5h-345zM206 113h204q79 0 144.5 18t116.5 60.5t87.5 114t58.5 179.5q15 72 15 129q0 64 -15 108
t-48 71t-85 39t-125 12h-201l-67 -322h263l-18 -87h-263z" />
    <glyph glyph-name="Ntilde" unicode="&#xd1;" horiz-adv-x="965" 
d="M1012 957l-200 -957h-127l-237 553q-67 157 -99 258q-10 -93 -38 -229l-121 -582h-125l201 957h124l161 -359q56 -125 98 -229t76 -224q17 112 45 249l117 563h125zM424 1060q31 148 163 148q14 0 35 -8.5t43.5 -18.5t44.5 -18.5t38 -8.5q40 0 58 56h85
q-31 -148 -159 -148q-16 0 -39 9.5t-46.5 20.5t-43.5 20.5t-30 9.5q-49 0 -63 -62h-86z" />
    <glyph glyph-name="Ograve" unicode="&#xd2;" horiz-adv-x="1040" 
d="M1033 544q0 -160 -67.5 -283.5t-183 -200t-259.5 -76.5q-92 0 -163.5 28t-123.5 84t-83 136.5t-31 168.5q0 246 142.5 409t364.5 163q182 0 293 -118t111 -311zM905 554q0 138 -76.5 225.5t-200.5 87.5q-111 0 -193.5 -59t-134.5 -167.5t-52 -246.5q0 -149 87.5 -227
t197.5 -78q88 0 168.5 50.5t142 157.5t61.5 257zM703 1041h-92l-127 180h143z" />
    <glyph glyph-name="Oacute" unicode="&#xd3;" horiz-adv-x="1040" 
d="M1033 544q0 -160 -67.5 -283.5t-183 -200t-259.5 -76.5q-92 0 -163.5 28t-123.5 84t-83 136.5t-31 168.5q0 246 142.5 409t364.5 163q182 0 293 -118t111 -311zM905 554q0 138 -76.5 225.5t-200.5 87.5q-111 0 -193.5 -59t-134.5 -167.5t-52 -246.5q0 -149 87.5 -227
t197.5 -78q88 0 168.5 50.5t142 157.5t61.5 257zM587 1043l126 183h154l-183 -183h-97z" />
    <glyph glyph-name="Ocircumflex" unicode="&#xd4;" horiz-adv-x="1040" 
d="M1033 544q0 -160 -67.5 -283.5t-183 -200t-259.5 -76.5q-92 0 -163.5 28t-123.5 84t-83 136.5t-31 168.5q0 246 142.5 409t364.5 163q182 0 293 -118t111 -311zM905 554q0 138 -76.5 225.5t-200.5 87.5q-111 0 -193.5 -59t-134.5 -167.5t-52 -246.5q0 -149 87.5 -227
t197.5 -78q88 0 168.5 50.5t142 157.5t61.5 257zM703 1154l-98 -111h-135l180 183h126l107 -183h-133z" />
    <glyph glyph-name="Otilde" unicode="&#xd5;" horiz-adv-x="1040" 
d="M1033 544q0 -160 -67.5 -283.5t-183 -200t-259.5 -76.5q-92 0 -163.5 28t-123.5 84t-83 136.5t-31 168.5q0 246 142.5 409t364.5 163q182 0 293 -118t111 -311zM905 554q0 138 -76.5 225.5t-200.5 87.5q-111 0 -193.5 -59t-134.5 -167.5t-52 -246.5q0 -149 87.5 -227
t197.5 -78q88 0 168.5 50.5t142 157.5t61.5 257zM453 1060q31 148 163 148q14 0 35 -8.5t43.5 -18.5t44.5 -18.5t38 -8.5q40 0 58 56h85q-31 -148 -159 -148q-16 0 -39 9.5t-46.5 20.5t-43.5 20.5t-30 9.5q-49 0 -63 -62h-86z" />
    <glyph glyph-name="Odieresis" unicode="&#xd6;" horiz-adv-x="1040" 
d="M1033 544q0 -160 -67.5 -283.5t-183 -200t-259.5 -76.5q-92 0 -163.5 28t-123.5 84t-83 136.5t-31 168.5q0 246 142.5 409t364.5 163q182 0 293 -118t111 -311zM905 554q0 138 -76.5 225.5t-200.5 87.5q-111 0 -193.5 -59t-134.5 -167.5t-52 -246.5q0 -149 87.5 -227
t197.5 -78q88 0 168.5 50.5t142 157.5t61.5 257zM480 1093l28 134h123l-28 -134h-123zM723 1093l28 134h123l-28 -134h-123z" />
    <glyph glyph-name="multiply" unicode="&#xd7;" horiz-adv-x="781" 
d="M113 267l249 206l-163 204l96 80l162 -205l248 204l61 -79l-246 -204l162 -205l-95 -79l-163 205l-248 -206z" />
    <glyph glyph-name="Oslash" unicode="&#xd8;" horiz-adv-x="1040" 
d="M949 869l136 123l52 -55l-142 -129q47 -102 47 -207q0 -94 -22.5 -176t-62.5 -150.5t-94.5 -122.5t-118 -91.5t-133 -57t-139.5 -19.5q-156 0 -274 100l-135 -123l-53 55l142 129q-50 115 -50 222q0 132 48.5 243.5t129 192t184 125.5t213.5 45q162 0 272 -104zM853 781
q-86 84 -199 84q-71 0 -136 -24t-119 -72.5t-94 -121t-60 -169.5q-12 -59 -12 -111q0 -35 4.5 -67.5t15.5 -63.5zM892 714l-598 -543q79 -79 197 -79q81 0 157 36.5t134.5 102.5t93.5 157.5t35 201.5q0 73 -19 124z" />
    <glyph glyph-name="Ugrave" unicode="&#xd9;" horiz-adv-x="965" 
d="M1009 957l-117 -561q-86 -413 -417 -413q-173 0 -259.5 80t-86.5 199q0 44 27 173l109 522h128l-123 -588q-15 -72 -15 -109q0 -76 60.5 -123.5t153.5 -47.5q92 0 154 42.5t92.5 113t54.5 185.5l111 527h128zM704 1041h-92l-127 180h143z" />
    <glyph glyph-name="Uacute" unicode="&#xda;" horiz-adv-x="965" 
d="M1009 957l-117 -561q-86 -413 -417 -413q-173 0 -259.5 80t-86.5 199q0 44 27 173l109 522h128l-123 -588q-15 -72 -15 -109q0 -76 60.5 -123.5t153.5 -47.5q92 0 154 42.5t92.5 113t54.5 185.5l111 527h128zM590 1043l126 183h154l-183 -183h-97z" />
    <glyph glyph-name="Ucircumflex" unicode="&#xdb;" horiz-adv-x="965" 
d="M1009 957l-117 -561q-86 -413 -417 -413q-173 0 -259.5 80t-86.5 199q0 44 27 173l109 522h128l-123 -588q-15 -72 -15 -109q0 -76 60.5 -123.5t153.5 -47.5q92 0 154 42.5t92.5 113t54.5 185.5l111 527h128zM668 1154l-98 -111h-135l180 183h126l107 -183h-133z" />
    <glyph glyph-name="Udieresis" unicode="&#xdc;" horiz-adv-x="965" 
d="M1009 957l-117 -561q-86 -413 -417 -413q-173 0 -259.5 80t-86.5 199q0 44 27 173l109 522h128l-123 -588q-15 -72 -15 -109q0 -76 60.5 -123.5t153.5 -47.5q92 0 154 42.5t92.5 113t54.5 185.5l111 527h128zM462 1093l28 134h123l-28 -134h-123zM705 1093l28 134h123
l-28 -134h-123z" />
    <glyph glyph-name="Yacute" unicode="&#xdd;" horiz-adv-x="892" 
d="M1033 957l-457 -597l-75 -360h-128l77 370l-294 587h137l141 -279q50 -99 90 -196q50 91 132 194l225 281h152zM532 1043l126 183h154l-183 -183h-97z" />
    <glyph glyph-name="Thorn" unicode="&#xde;" horiz-adv-x="892" 
d="M56 0l198 957h127l-40 -195h234q161 0 240.5 -45.5t79.5 -152.5q0 -36 -9 -79q-60 -290 -418 -290h-245l-40 -195h-127zM246 307h247q61 0 111 14t85 42t54 69.5t19 97.5q0 63 -47 91t-153 28h-245z" />
    <glyph glyph-name="germandbls" unicode="&#xdf;" horiz-adv-x="817" 
d="M53 0l135 652q66 321 346 321q48 0 86.5 -12t65 -33.5t40.5 -50t14 -61.5q0 -41 -22.5 -83t-67.5 -104l-53 -73q-6 -8 -10.5 -20.5t-4.5 -25.5q0 -22 18 -44.5t54 -49.5q33 -25 56 -46t37.5 -41t21 -40t6.5 -42q0 -51 -24 -98.5t-63.5 -84t-92 -58.5t-109.5 -22
q-164 0 -204 157l111 47q31 -108 111 -108q21 0 46.5 9t47.5 26t36.5 40t14.5 52q0 50 -70 107q-41 33 -65.5 56t-37 41t-16.5 33.5t-4 33.5q0 29 18 66t63 93q84 103 84 153q0 16 -6.5 31.5t-20 28t-34.5 20t-49 7.5q-33 0 -63.5 -8t-57.5 -33t-49 -70t-37 -119l-134 -647
h-117z" />
    <glyph glyph-name="agrave" unicode="&#xe0;" 
d="M645 0h-119q-10 34 -14 86q-118 -102 -240 -102q-94 0 -153.5 55.5t-59.5 145.5q0 60 26.5 105.5t76 73.5t100 35.5t159.5 11.5q104 5 152 24q14 48 14 80q0 97 -150 97q-146 0 -191 -126l-119 10q75 213 316 213q115 0 188 -50t73 -130q0 -52 -17 -129l-38 -172
q-18 -81 -18 -134q0 -33 14 -94zM556 351q-42 -18 -169 -28t-169 -44.5t-42 -89.5q0 -113 132 -113q205 0 248 275zM481 777h-92l-127 180h143z" />
    <glyph glyph-name="aacute" unicode="&#xe1;" 
d="M645 0h-119q-10 34 -14 86q-118 -102 -240 -102q-94 0 -153.5 55.5t-59.5 145.5q0 60 26.5 105.5t76 73.5t100 35.5t159.5 11.5q104 5 152 24q14 48 14 80q0 97 -150 97q-146 0 -191 -126l-119 10q75 213 316 213q115 0 188 -50t73 -130q0 -52 -17 -129l-38 -172
q-18 -81 -18 -134q0 -33 14 -94zM556 351q-42 -18 -169 -28t-169 -44.5t-42 -89.5q0 -113 132 -113q205 0 248 275zM412 779l126 183h154l-183 -183h-97z" />
    <glyph glyph-name="acircumflex" unicode="&#xe2;" 
d="M645 0h-119q-10 34 -14 86q-118 -102 -240 -102q-94 0 -153.5 55.5t-59.5 145.5q0 60 26.5 105.5t76 73.5t100 35.5t159.5 11.5q104 5 152 24q14 48 14 80q0 97 -150 97q-146 0 -191 -126l-119 10q75 213 316 213q115 0 188 -50t73 -130q0 -52 -17 -129l-38 -172
q-18 -81 -18 -134q0 -33 14 -94zM556 351q-42 -18 -169 -28t-169 -44.5t-42 -89.5q0 -113 132 -113q205 0 248 275zM511 890l-98 -111h-135l180 183h126l107 -183h-133z" />
    <glyph glyph-name="atilde" unicode="&#xe3;" 
d="M645 0h-119q-10 34 -14 86q-118 -102 -240 -102q-94 0 -153.5 55.5t-59.5 145.5q0 60 26.5 105.5t76 73.5t100 35.5t159.5 11.5q104 5 152 24q14 48 14 80q0 97 -150 97q-146 0 -191 -126l-119 10q75 213 316 213q115 0 188 -50t73 -130q0 -52 -17 -129l-38 -172
q-18 -81 -18 -134q0 -33 14 -94zM556 351q-42 -18 -169 -28t-169 -44.5t-42 -89.5q0 -113 132 -113q205 0 248 275zM245 796q31 148 163 148q14 0 35 -8.5t43.5 -18.5t44.5 -18.5t38 -8.5q40 0 58 56h85q-31 -148 -159 -148q-16 0 -39 9.5t-46.5 20.5t-43.5 20.5t-30 9.5
q-49 0 -63 -62h-86z" />
    <glyph glyph-name="adieresis" unicode="&#xe4;" 
d="M645 0h-119q-10 34 -14 86q-118 -102 -240 -102q-94 0 -153.5 55.5t-59.5 145.5q0 60 26.5 105.5t76 73.5t100 35.5t159.5 11.5q104 5 152 24q14 48 14 80q0 97 -150 97q-146 0 -191 -126l-119 10q75 213 316 213q115 0 188 -50t73 -130q0 -52 -17 -129l-38 -172
q-18 -81 -18 -134q0 -33 14 -94zM556 351q-42 -18 -169 -28t-169 -44.5t-42 -89.5q0 -113 132 -113q205 0 248 275zM288 829l28 134h123l-28 -134h-123zM531 829l28 134h123l-28 -134h-123z" />
    <glyph glyph-name="aring" unicode="&#xe5;" 
d="M645 0h-119q-10 34 -14 86q-118 -102 -240 -102q-94 0 -153.5 55.5t-59.5 145.5q0 60 26.5 105.5t76 73.5t100 35.5t159.5 11.5q104 5 152 24q14 48 14 80q0 97 -150 97q-146 0 -191 -126l-119 10q75 213 316 213q115 0 188 -50t73 -130q0 -52 -17 -129l-38 -172
q-18 -81 -18 -134q0 -33 14 -94zM556 351q-42 -18 -169 -28t-169 -44.5t-42 -89.5q0 -113 132 -113q205 0 248 275zM368 873q5 25 19 46t33.5 37t42.5 25t46 9q17 0 34.5 -6.5t31.5 -18.5t22.5 -29.5t8.5 -38.5q0 -30 -12.5 -56.5t-33 -46.5t-46.5 -31.5t-53 -11.5
q-17 0 -34.5 6t-31 17t-22 28t-8.5 39q0 15 3 32zM417 873q-3 -14 -3 -24q0 -49 58 -49q18 0 33.5 8.5t27.5 22t18.5 30t6.5 32.5q0 49 -57 49q-71 0 -84 -69z" />
    <glyph glyph-name="ae" unicode="&#xe6;" horiz-adv-x="1189" 
d="M1129 212q-120 -228 -354 -228q-161 0 -231 130q-154 -130 -314 -130q-54 0 -92 13t-61.5 35t-34.5 51t-11 62q0 109 91.5 174t265.5 86q48 6 90.5 14t80.5 18l6 26q4 16 5.5 30.5t1.5 26.5q0 51 -30.5 71.5t-99.5 20.5q-164 0 -212 -134l-112 14q88 217 346 217
q186 0 220 -94q100 94 242 94q60 0 106 -18.5t77 -52.5t47 -81t16 -104q0 -21 -3 -45t-8 -52l-10 -39h-501q-10 -37 -10 -84q0 -152 160 -152q141 0 209 147zM670 413h382q3 24 3 46q0 153 -149 153q-38 0 -76 -13.5t-70 -39.5t-56 -63t-34 -83zM543 348q-49 -16 -106 -28.5
t-124 -20.5q-76 -9 -116 -45t-40 -96q0 -81 116 -81q40 0 76 11t65 28t50.5 38t32.5 41t23 58t23 95z" />
    <glyph glyph-name="ccedilla" unicode="&#xe7;" horiz-adv-x="668" 
d="M683 479l-116 -8q-2 141 -137 141q-120 0 -177.5 -113.5t-57.5 -245.5q0 -177 135 -177q133 0 193 177l118 -13q-87 -256 -313 -256q-70 0 -125 28.5t-91.5 91.5t-36.5 158q0 93 27 177t73.5 144t115 93t150.5 33q109 0 175.5 -61.5t66.5 -168.5zM233 -101l58 116h87
l-36 -70q94 -10 94 -74q0 -23 -12.5 -48.5t-38.5 -47t-67.5 -36t-98.5 -14.5q-25 0 -47.5 2t-44.5 6l23 76l84 -2q45 0 69 16.5t24 39.5q0 36 -94 36z" />
    <glyph glyph-name="egrave" unicode="&#xe8;" 
d="M702 317h-511q-2 -20 -2 -36q0 -62 19.5 -107t53.5 -69t81 -24q143 0 211 155l114 -12q-29 -102 -123 -171t-203 -69q-130 0 -201.5 82t-71.5 212q0 115 52.5 221t136.5 158t181 52q84 0 144 -34.5t94 -99t34 -153.5q0 -51 -9 -105zM210 407h389l1 29q0 33 -7 60.5
t-20.5 50t-33 38.5t-44 24t-54.5 8q-170 0 -231 -210zM481 777h-92l-127 180h143z" />
    <glyph glyph-name="eacute" unicode="&#xe9;" 
d="M702 317h-511q-2 -20 -2 -36q0 -62 19.5 -107t53.5 -69t81 -24q143 0 211 155l114 -12q-29 -102 -123 -171t-203 -69q-130 0 -201.5 82t-71.5 212q0 115 52.5 221t136.5 158t181 52q84 0 144 -34.5t94 -99t34 -153.5q0 -51 -9 -105zM210 407h389l1 29q0 33 -7 60.5
t-20.5 50t-33 38.5t-44 24t-54.5 8q-170 0 -231 -210zM393 779l126 183h154l-183 -183h-97z" />
    <glyph glyph-name="ecircumflex" unicode="&#xea;" 
d="M702 317h-511q-2 -20 -2 -36q0 -62 19.5 -107t53.5 -69t81 -24q143 0 211 155l114 -12q-29 -102 -123 -171t-203 -69q-130 0 -201.5 82t-71.5 212q0 115 52.5 221t136.5 158t181 52q84 0 144 -34.5t94 -99t34 -153.5q0 -51 -9 -105zM210 407h389l1 29q0 33 -7 60.5
t-20.5 50t-33 38.5t-44 24t-54.5 8q-170 0 -231 -210zM508 890l-98 -111h-135l180 183h126l107 -183h-133z" />
    <glyph glyph-name="edieresis" unicode="&#xeb;" 
d="M702 317h-511q-2 -20 -2 -36q0 -62 19.5 -107t53.5 -69t81 -24q143 0 211 155l114 -12q-29 -102 -123 -171t-203 -69q-130 0 -201.5 82t-71.5 212q0 115 52.5 221t136.5 158t181 52q84 0 144 -34.5t94 -99t34 -153.5q0 -51 -9 -105zM210 407h389l1 29q0 33 -7 60.5
t-20.5 50t-33 38.5t-44 24t-54.5 8q-170 0 -231 -210zM295 829l28 134h123l-28 -134h-123zM538 829l28 134h123l-28 -134h-123z" />
    <glyph glyph-name="igrave" unicode="&#xec;" horiz-adv-x="297" 
d="M303 693l-145 -693h-118l145 693h118zM325 777h-92l-127 180h143z" />
    <glyph glyph-name="iacute" unicode="&#xed;" horiz-adv-x="297" 
d="M303 693l-145 -693h-118l145 693h118zM199 779l126 183h154l-183 -183h-97z" />
    <glyph glyph-name="icircumflex" unicode="&#xee;" horiz-adv-x="297" 
d="M303 693l-145 -693h-118l145 693h118zM303 890l-98 -111h-135l180 183h126l107 -183h-133z" />
    <glyph glyph-name="idieresis" unicode="&#xef;" horiz-adv-x="297" 
d="M303 693l-145 -693h-118l145 693h118zM105 829l28 134h123l-28 -134h-123zM348 829l28 134h123l-28 -134h-123z" />
    <glyph glyph-name="eth" unicode="&#xf0;" horiz-adv-x="743" 
d="M352 957h142q21 -20 38 -36.5t30 -30.5l153 67l16 -67l-124 -54q119 -182 119 -370q0 -122 -37 -212.5t-96 -150.5t-131.5 -89.5t-144.5 -29.5q-130 0 -193.5 67.5t-63.5 184.5q0 103 32.5 187.5t86 144.5t122 92.5t139.5 32.5q65 0 130 -38q-11 38 -27 73t-37 66
l-197 -83l-15 67l171 71q-44 51 -113 108zM592 345q9 45 9 83q0 42 -12 74.5t-33.5 55t-50.5 34t-63 11.5q-41 0 -80.5 -16.5t-73 -50t-59.5 -84t-39 -118.5q-5 -26 -8 -47t-3 -39q0 -44 13 -75.5t34.5 -52t50 -30.5t59.5 -10q36 0 75 14.5t74.5 46.5t63.5 82t43 122z" />
    <glyph glyph-name="ntilde" unicode="&#xf1;" 
d="M601 0h-119l92 439q14 67 14 95q0 78 -93 78q-205 0 -265 -290l-67 -322h-119l145 693h107l-25 -120q134 136 255 136q81 0 130.5 -44.5t49.5 -123.5q0 -40 -17 -121zM268 796q31 148 163 148q14 0 35 -8.5t43.5 -18.5t44.5 -18.5t38 -8.5q40 0 58 56h85
q-31 -148 -159 -148q-16 0 -39 9.5t-46.5 20.5t-43.5 20.5t-30 9.5q-49 0 -63 -62h-86z" />
    <glyph glyph-name="ograve" unicode="&#xf2;" 
d="M722 419q0 -213 -115 -324t-258 -111q-136 0 -210 79t-74 200q0 134 52.5 237t133.5 156t192 53q86 0 148 -35.5t96.5 -100.5t34.5 -154zM605 420q0 89 -45 143.5t-121 54.5q-62 0 -116 -35t-97 -115t-43 -193q0 -92 44.5 -145.5t122.5 -53.5q113 0 184 108t71 236z
M481 777h-92l-127 180h143z" />
    <glyph glyph-name="oacute" unicode="&#xf3;" 
d="M722 419q0 -213 -115 -324t-258 -111q-136 0 -210 79t-74 200q0 134 52.5 237t133.5 156t192 53q86 0 148 -35.5t96.5 -100.5t34.5 -154zM605 420q0 89 -45 143.5t-121 54.5q-62 0 -116 -35t-97 -115t-43 -193q0 -92 44.5 -145.5t122.5 -53.5q113 0 184 108t71 236z
M369 779l126 183h154l-183 -183h-97z" />
    <glyph glyph-name="ocircumflex" unicode="&#xf4;" 
d="M722 419q0 -213 -115 -324t-258 -111q-136 0 -210 79t-74 200q0 134 52.5 237t133.5 156t192 53q86 0 148 -35.5t96.5 -100.5t34.5 -154zM605 420q0 89 -45 143.5t-121 54.5q-62 0 -116 -35t-97 -115t-43 -193q0 -92 44.5 -145.5t122.5 -53.5q113 0 184 108t71 236z
M505 890l-98 -111h-135l180 183h126l107 -183h-133z" />
    <glyph glyph-name="otilde" unicode="&#xf5;" 
d="M722 419q0 -213 -115 -324t-258 -111q-136 0 -210 79t-74 200q0 134 52.5 237t133.5 156t192 53q86 0 148 -35.5t96.5 -100.5t34.5 -154zM605 420q0 89 -45 143.5t-121 54.5q-62 0 -116 -35t-97 -115t-43 -193q0 -92 44.5 -145.5t122.5 -53.5q113 0 184 108t71 236z
M239 796q31 148 163 148q14 0 35 -8.5t43.5 -18.5t44.5 -18.5t38 -8.5q40 0 58 56h85q-31 -148 -159 -148q-16 0 -39 9.5t-46.5 20.5t-43.5 20.5t-30 9.5q-49 0 -63 -62h-86z" />
    <glyph glyph-name="odieresis" unicode="&#xf6;" 
d="M722 419q0 -213 -115 -324t-258 -111q-136 0 -210 79t-74 200q0 134 52.5 237t133.5 156t192 53q86 0 148 -35.5t96.5 -100.5t34.5 -154zM605 420q0 89 -45 143.5t-121 54.5q-62 0 -116 -35t-97 -115t-43 -193q0 -92 44.5 -145.5t122.5 -53.5q113 0 184 108t71 236z
M282 829l28 134h123l-28 -134h-123zM525 829l28 134h123l-28 -134h-123z" />
    <glyph glyph-name="divide" unicode="&#xf7;" horiz-adv-x="734" 
d="M378 602l28 134h133l-28 -134h-133zM722 417h-632l23 110h632zM296 208l28 134h133l-28 -134h-133z" />
    <glyph glyph-name="oslash" unicode="&#xf8;" horiz-adv-x="817" 
d="M691 652l83 84l52 -46l-88 -90q35 -62 35 -147q0 -114 -35.5 -201.5t-93 -147t-132 -90t-152.5 -30.5q-104 0 -172 53l-87 -89l-52 47l90 92q-41 59 -41 146q0 123 39 212.5t99 148t132.5 87t140.5 28.5q98 0 182 -57zM607 566q-49 46 -114 46q-47 0 -95 -23.5t-87 -68.5
t-64 -111.5t-25 -152.5q0 -34 11 -73zM643 503l-372 -381q44 -41 106 -41q48 0 97 22.5t88.5 67t64.5 110.5t25 154q0 38 -9 68z" />
    <glyph glyph-name="ugrave" unicode="&#xf9;" 
d="M745 693l-144 -693h-109l26 125q-125 -141 -256 -141q-77 0 -127.5 44.5t-50.5 114.5q0 44 22 150l83 400h118l-92 -443q-12 -58 -12 -86q0 -83 94 -83q92 0 161.5 66t106.5 247l62 299h118zM533 777h-92l-127 180h143z" />
    <glyph glyph-name="uacute" unicode="&#xfa;" 
d="M745 693l-144 -693h-109l26 125q-125 -141 -256 -141q-77 0 -127.5 44.5t-50.5 114.5q0 44 22 150l83 400h118l-92 -443q-12 -58 -12 -86q0 -83 94 -83q92 0 161.5 66t106.5 247l62 299h118zM414 779l126 183h154l-183 -183h-97z" />
    <glyph glyph-name="ucircumflex" unicode="&#xfb;" 
d="M745 693l-144 -693h-109l26 125q-125 -141 -256 -141q-77 0 -127.5 44.5t-50.5 114.5q0 44 22 150l83 400h118l-92 -443q-12 -58 -12 -86q0 -83 94 -83q92 0 161.5 66t106.5 247l62 299h118zM506 890l-98 -111h-135l180 183h126l107 -183h-133z" />
    <glyph glyph-name="udieresis" unicode="&#xfc;" 
d="M745 693l-144 -693h-109l26 125q-125 -141 -256 -141q-77 0 -127.5 44.5t-50.5 114.5q0 44 22 150l83 400h118l-92 -443q-12 -58 -12 -86q0 -83 94 -83q92 0 161.5 66t106.5 247l62 299h118zM288 829l28 134h123l-28 -134h-123zM531 829l28 134h123l-28 -134h-123z" />
    <glyph glyph-name="yacute" unicode="&#xfd;" horiz-adv-x="668" 
d="M750 693l-442 -785q-72 -127 -123 -158t-105 -31q-41 0 -80 13l7 111q37 -10 71 -10q67 0 121 97l38 68l-116 695h117l52 -350q13 -90 27 -208l310 558h123zM359 779l126 183h154l-183 -183h-97z" />
    <glyph glyph-name="thorn" unicode="&#xfe;" horiz-adv-x="743" 
d="M-15 -266l254 1223h118l-70 -337q98 89 209 89q55 0 98 -17.5t73 -50t45.5 -79t15.5 -103.5q0 -98 -32 -184.5t-86 -151t-125 -102t-148 -37.5q-104 0 -164 88l-70 -338h-118zM219 343q-12 -59 -12 -102t12.5 -73.5t32.5 -49.5t45.5 -28t51.5 -9q34 0 71 14t71 46.5
t61.5 84t43.5 126.5q5 26 8 49.5t3 44.5q0 42 -11 73.5t-30 53.5t-45 33t-55 11q-37 0 -74.5 -17.5t-71.5 -52t-60.5 -86t-40.5 -118.5z" />
    <glyph glyph-name="ydieresis" unicode="&#xff;" horiz-adv-x="668" 
d="M750 693l-442 -785q-72 -127 -123 -158t-105 -31q-41 0 -80 13l7 111q37 -10 71 -10q67 0 121 97l38 68l-116 695h117l52 -350q13 -90 27 -208l310 558h123zM279 829l28 134h123l-28 -134h-123zM522 829l28 134h123l-28 -134h-123z" />
    <glyph glyph-name="dotlessi" unicode="&#x131;" horiz-adv-x="297" 
d="M303 693l-145 -693h-118l145 693h118z" />
    <glyph glyph-name="OE" unicode="&#x152;" horiz-adv-x="1337" 
d="M1270 113l-23 -113h-562l28 138q-120 -154 -293 -154q-153 0 -227.5 84.5t-74.5 246.5q0 69 12.5 138t36 135t57 126.5t74.5 111.5q118 147 328 147q171 0 231 -145l26 129h542l-23 -113h-424l-61 -292h391l-23 -113h-391l-68 -326h444zM604 871q-50 0 -100 -20t-95 -67
t-82.5 -124t-61.5 -190q-10 -45 -14 -83.5t-4 -70.5q0 -61 17 -104.5t44.5 -71.5t62 -41t69.5 -13q46 0 95.5 19t95.5 65t84.5 123t62.5 193q18 88 18 156q0 61 -17.5 104.5t-45 71t-61.5 40.5t-68 13z" />
    <glyph glyph-name="oe" unicode="&#x153;" horiz-adv-x="1262" 
d="M614 114q-123 -130 -285 -130q-123 0 -193.5 64.5t-70.5 185.5q0 112 35 200.5t92.5 149.5t132.5 93t156 32q172 0 229 -133q121 133 282 133q49 0 94.5 -14t81 -45t57 -79t21.5 -115q0 -76 -16 -141h-512q-4 -23 -6 -40.5t-2 -28.5q0 -42 14.5 -73t38.5 -51.5
t53.5 -30.5t59.5 -10q136 0 208 145l115 -17q-107 -225 -345 -225q-176 0 -240 130zM199 348q-5 -23 -7.5 -45.5t-2.5 -42.5q0 -40 9 -73t28 -56.5t48.5 -36.5t71.5 -13q46 0 94 24t87 70t64 112t25 149q0 43 -12.5 76t-34.5 55t-50.5 33.5t-61.5 11.5q-47 0 -88 -19
t-74.5 -53.5t-58 -83.5t-37.5 -108zM743 412h383q2 12 3.5 23.5t1.5 22.5q0 33 -11 61t-30.5 49t-48 32.5t-62.5 11.5q-42 0 -81 -16.5t-70.5 -44t-54 -64t-30.5 -75.5z" />
    <glyph glyph-name="Scaron" unicode="&#x160;" horiz-adv-x="892" 
d="M897 685l-123 -9q0 98 -65.5 144.5t-165.5 46.5q-86 0 -146.5 -35.5t-60.5 -106.5q0 -38 23 -68t63.5 -51.5t159.5 -73.5q90 -40 139.5 -70t80 -81t30.5 -117q0 -81 -42 -141.5t-128.5 -99.5t-198.5 -39q-368 0 -369 325l125 12l-1 -33q0 -37 10 -69.5t37 -63t78 -48
t124 -17.5q94 0 165 42.5t71 122.5q0 38 -23 70t-61 53t-126 59q-101 43 -154.5 75t-89.5 86t-36 120q0 124 95 189.5t240 65.5q116 0 193.5 -35t119 -107.5t36.5 -145.5zM591 1115l96 111h133l-186 -183h-125l-102 183h135z" />
    <glyph glyph-name="scaron" unicode="&#x161;" horiz-adv-x="668" 
d="M666 490l-115 -8q-6 136 -163 136q-49 0 -89 -24t-40 -65q0 -33 23.5 -53.5t107.5 -56.5q103 -45 145 -73t62 -67t20 -84q0 -96 -80 -153.5t-202 -57.5q-83 0 -140.5 23t-88.5 59.5t-43 75t-12 95.5l119 7q0 -87 48 -127.5t123 -40.5q157 0 157 105q0 65 -141 125
q-78 33 -118 55.5t-65 60t-25 87.5q0 52 25 95t81.5 74t141.5 31q124 0 195 -57.5t74 -161.5zM439 851l96 111h133l-186 -183h-125l-102 183h135z" />
    <glyph glyph-name="Ydieresis" unicode="&#x178;" horiz-adv-x="892" 
d="M1033 957l-457 -597l-75 -360h-128l77 370l-294 587h137l141 -279q50 -99 90 -196q50 91 132 194l225 281h152zM443 1093l28 134h123l-28 -134h-123zM686 1093l28 134h123l-28 -134h-123z" />
    <glyph glyph-name="Zcaron" unicode="&#x17d;" horiz-adv-x="817" 
d="M851 957l-11 -100l-634 -752q29 4 37 4h522l-23 -109h-709l12 96l578 693q31 37 59 67q-57 -7 -85 -7h-32l-75 -1h-322l23 109h660zM523 1115l96 111h133l-186 -183h-125l-102 183h135z" />
    <glyph glyph-name="zcaron" unicode="&#x17e;" horiz-adv-x="668" 
d="M685 693l-16 -74l-376 -423q-24 -27 -95 -98q98 6 135 6h273l-22 -104h-558l19 91l373 420q40 44 89 92q-85 -8 -121 -8h-258l21 98h536zM429 851l96 111h133l-186 -183h-125l-102 183h135z" />
    <glyph glyph-name="florin" unicode="&#x192;" horiz-adv-x="743" 
d="M-71 -264l43 101q69 -15 95 -15q66 0 105 100l257 680h-131l35 91h131l33 87q23 62 48 100t52.5 59t58.5 28t67 7q60 0 135 -25l-44 -100q-54 16 -97 16q-17 0 -30.5 -2t-25.5 -12.5t-24 -31.5t-27 -59l-26 -67h133l-35 -91h-133l-274 -713q-65 -170 -205 -170
q-53 0 -141 17z" />
    <glyph glyph-name="circumflex" unicode="&#x2c6;" horiz-adv-x="445" 
d="M363 890l-98 -111h-135l180 183h126l107 -183h-133z" />
    <glyph glyph-name="caron" unicode="&#x2c7;" horiz-adv-x="445" 
d="M363 851l96 111h133l-186 -183h-125l-102 183h135z" />
    <glyph glyph-name="ring" unicode="&#x2da;" horiz-adv-x="445" 
d="M240 873q5 25 19 46t33.5 37t42.5 25t46 9q17 0 34.5 -6.5t31.5 -18.5t22.5 -29.5t8.5 -38.5q0 -30 -12.5 -56.5t-33 -46.5t-46.5 -31.5t-53 -11.5q-17 0 -34.5 6t-31 17t-22 28t-8.5 39q0 15 3 32zM289 873q-3 -14 -3 -24q0 -49 58 -49q18 0 33.5 8.5t27.5 22t18.5 30
t6.5 32.5q0 49 -57 49q-71 0 -84 -69z" />
    <glyph glyph-name="ring" unicode="&#x25e6;" horiz-adv-x="445" 
d="M240 873q5 25 19 46t33.5 37t42.5 25t46 9q17 0 34.5 -6.5t31.5 -18.5t22.5 -29.5t8.5 -38.5q0 -30 -12.5 -56.5t-33 -46.5t-46.5 -31.5t-53 -11.5q-17 0 -34.5 6t-31 17t-22 28t-8.5 39q0 15 3 32zM289 873q-3 -14 -3 -24q0 -49 58 -49q18 0 33.5 8.5t27.5 22t18.5 30
t6.5 32.5q0 49 -57 49q-71 0 -84 -69z" />
    <glyph glyph-name="tilde" unicode="&#x2dc;" horiz-adv-x="445" 
d="M123 796q31 148 163 148q14 0 35 -8.5t43.5 -18.5t44.5 -18.5t38 -8.5q40 0 58 56h85q-31 -148 -159 -148q-16 0 -39 9.5t-46.5 20.5t-43.5 20.5t-30 9.5q-49 0 -63 -62h-86z" />
    <glyph glyph-name="uni0E01" unicode="&#xe01;" horiz-adv-x="860" 
d="M682 0h-96l103 582q4 23 4 33q0 125 -193 125q-131 0 -208 -48q7 0 54 -33t85 -71q-27 0 -86 -38.5t-74 -121.5l-76 -428h-96l78 447q8 43 29.5 79t76.5 66q-31 36 -93 59.5t-79 24.5q46 50 165.5 99t233.5 49q88 0 150.5 -23.5t95.5 -67t33 -104.5q0 -20 -4 -43z" />
    <glyph glyph-name="uni0E02" unicode="&#xe02;" horiz-adv-x="834" 
d="M789 819l-117 -655q-29 -164 -176 -164h-335l16 92h102l54 301q11 61 22 80l52 85q17 26 24.5 50.5t7.5 48.5q0 89 -117 89q-15 0 -34 -4q53 -30 53 -93q0 -59 -45 -108t-114 -49q-58 0 -90 31t-32 90q0 88 70.5 148t167.5 60q129 0 183 -46.5t54 -118.5q0 -71 -57 -148
q-37 -50 -45 -94l-57 -322h116q71 0 84 74l117 653h96zM267 643q0 52 -54 52q-32 0 -55.5 -24t-23.5 -56q0 -52 53 -52q22 0 40 11t29 29t11 40z" />
    <glyph glyph-name="uni0E03" unicode="&#xe03;" horiz-adv-x="877" 
d="M840 819l-117 -655q-29 -164 -176 -164h-307l16 92h99l87 498q8 0 39 31.5t31 42.5q0 15 -17.5 42t-29.5 27l-110 -51l-86 51q-50 -20 -77 -62t-28 -56q25 12 60 12q114 0 114 -105q0 -60 -42.5 -107.5t-110.5 -47.5q-64 0 -97 40t-33 101q0 91 60.5 182t153.5 134
l98 -64l125 64q63 -39 104 -113q13 -22 13 -27l-8 -45q-26 -35 -64 -61l-85 -486h91q40 0 60.5 22.5t25.5 51.5l115 653h96zM272 510q0 53 -54 53q-23 0 -40.5 -10.5t-28 -28t-10.5 -40.5q0 -54 56 -54q33 0 55 23.5t22 56.5z" />
    <glyph glyph-name="uni0E04" unicode="&#xe04;" horiz-adv-x="858" 
d="M674 0h-96l96 547q4 23 4 39q0 154 -203 154q-92 0 -160.5 -44.5t-97.5 -111t-29 -123.5q0 -56 25 -111l17 91q12 62 58 102.5t103 40.5q117 0 117 -109q0 -40 -18.5 -75.5t-54 -58.5t-82.5 -23q-32 0 -52 8l-57 -326h-97l25 135q0 45 -4 68q-21 52 -59 189q-7 33 -7 77
q0 147 113.5 251t290.5 104q85 0 145 -27t91.5 -75.5t31.5 -117.5q0 -30 -4 -53zM436 463q0 51 -55 51q-22 0 -39.5 -10.5t-28 -28t-10.5 -39.5q0 -51 56 -51q36 0 56.5 25t20.5 53z" />
    <glyph glyph-name="uni0E05" unicode="&#xe05;" horiz-adv-x="834" 
d="M654 0h-97l101 568q8 45 8 61q0 72 -66 109l-125 -82l-92 82q-207 -110 -207 -283q0 -126 27 -169q34 139 86.5 221.5t153.5 82.5q45 0 78.5 -25.5t33.5 -74.5q0 -58 -22 -95.5t-59 -55t-85 -17.5q-50 0 -77 22q-60 -174 -76 -344h-101q0 8 2 35q3 27 3 35q0 23 -5 62
t-29 151q-18 81 -18 135q0 293 322 406l82 -72l117 72q67 -15 109 -67t42 -126q0 -32 -4 -55zM492 467q0 58 -60 58q-24 0 -42.5 -11.5t-30 -30.5t-11.5 -42q0 -58 60 -58q24 0 42.5 11.5t30 30t11.5 42.5z" />
    <glyph glyph-name="uni0E06" unicode="&#xe06;" horiz-adv-x="1032" 
d="M989 819l-112 -630q-9 -52 -17 -79.5t-27 -54.5t-50 -42t-72 -15q-61 0 -98 51l-123 168l-19 -102q-9 -50 -49 -84.5t-92 -34.5q-124 0 -124 131q0 62 29.5 114.5t75 79.5t105.5 27l42 242q7 0 38.5 31t31.5 43q0 16 -18 42.5t-29 26.5l-110 -51l-86 51q-50 -20 -77 -62
t-28 -56q25 12 60 12q114 0 114 -105q0 -43 -22 -80t-55 -56t-76 -19q-66 0 -98 41t-32 100q0 62 28 124t75.5 112.5t110.5 79.5l98 -64l125 64q63 -39 104 -113q13 -22 13 -27l-8 -45q-26 -35 -64 -61l-45 -248l133 -176q45 -60 86 -60q37 0 51 78l115 647h96zM288 510
q0 53 -54 53q-23 0 -40.5 -10.5t-28 -28t-10.5 -40.5q0 -54 56 -54q33 0 55 23.5t22 56.5zM402 262q-112 0 -112 -127q0 -59 38 -59q39 0 49 55z" />
    <glyph glyph-name="uni0E07" unicode="&#xe07;" horiz-adv-x="662" 
d="M594 680l-92 -514q-18 -103 -64 -138.5t-104 -35.5q-30 0 -55 12.5t-43.5 36t-35.5 94.5l-24 101q-17 71 -133 82l17 86q66 0 120 -24.5t70 -80.5l55 -190q8 -27 37 -27q50 0 62 72l73 411q-24 -8 -53 -8q-110 0 -110 103q0 44 18 80.5t55 60t90 23.5q120 0 120 -112
q0 -15 -3 -32zM520 703q0 51 -55 51q-22 0 -39.5 -10.5t-28 -28t-10.5 -39.5q0 -51 56 -51q32 0 54.5 23t22.5 55z" />
    <glyph glyph-name="uni0E08" unicode="&#xe08;" horiz-adv-x="762" 
d="M322 305q-24 -8 -53 -8q-109 0 -109 103q0 70 41.5 116.5t120.5 46.5q49 0 84 -32.5t35 -84.5q0 -13 -2 -26l-48 -270q-2 -9 -2 -16q0 -52 50 -52q53 0 65 70l79 444q3 17 3 32q0 110 -174 110q-165 0 -252 -138l-74 39q118 185 344 185q123 0 187.5 -52t64.5 -137
q0 -21 -4 -43l-82 -461q-24 -135 -180 -135q-127 0 -127 101q0 12 2 26zM365 443q0 51 -56 51q-23 0 -39.5 -9t-27.5 -27.5t-10 -41.5q0 -51 55 -51q20 0 37 9t29 27.5t12 41.5z" />
    <glyph glyph-name="uni0E09" unicode="&#xe09;" horiz-adv-x="889" 
d="M558 83q0 13 2 28l16 100q-18 0 -96 -94q-100 -121 -193 -121q-86 9 -86 92q0 6 5 35l28 162q-24 -8 -54 -8q-110 0 -110 104q0 64 42 113t122 49q119 0 119 -109q0 -11 -4 -34l-41 -238q-6 -35 -6 -45q0 -31 22 -31q35 0 145 133q60 72 119 99l51 281q3 15 3 28
q0 113 -173 113q-168 0 -270 -134l-65 41q122 177 334 177q123 0 196.5 -51t73.5 -138q0 -19 -4 -41l-47 -264q141 0 141 -133q0 -78 -42.5 -139.5t-123.5 -61.5q-100 0 -104 87zM277 422q0 51 -56 51q-22 0 -39 -10.5t-27.5 -27.5t-10.5 -39q0 -52 55 -52q22 0 39.5 10.5
t28 28t10.5 39.5zM738 215q-14 37 -66 37l-22 -121q-1 -7 -1 -14q0 -39 29 -39q27 0 45.5 31t18.5 71q0 25 -4 35z" />
    <glyph glyph-name="uni0E0A" unicode="&#xe0a;" horiz-adv-x="850" 
d="M882 789q-31 -23 -106 -62q-121 -47 -131 -47q59 -18 83.5 -58.5t24.5 -84.5q0 -12 -2 -23l-61 -350q-29 -164 -177 -164h-335l16 92h102l54 301q11 61 22 80l52 85q17 26 24.5 50.5t7.5 48.5q0 89 -117 89q-14 0 -34 -4q53 -30 53 -93q0 -54 -42 -105.5t-110 -51.5
q-129 0 -129 122q0 56 25 98.5t79 75.5t136 33q187 0 225 -107q33 2 109 35t143.5 79t67.5 57zM284 643q0 52 -53 52q-23 0 -41 -11t-28.5 -29t-10.5 -40q0 -52 53 -52q22 0 40 11t29 29t11 40zM552 643q-6 -65 -50 -124.5t-52 -104.5l-57 -322h116q71 0 84 74l58 324
q4 22 4 43q0 88 -103 110z" />
    <glyph glyph-name="uni0E0B" unicode="&#xe0b;" horiz-adv-x="914" 
d="M955 789q-48 -40 -138.5 -74.5t-98.5 -34.5q40 0 74 -44.5t34 -97.5q0 -12 -2 -24l-62 -350q-29 -164 -176 -164h-336l17 92h102l89 502l75 66q-8 52 -53 80l-99 -48l-84 48q-26 -9 -58 -39.5t-32 -51.5q21 5 37 5q113 0 113 -115q0 -61 -44 -109.5t-110 -48.5
q-127 0 -127 128q0 130 88.5 223.5t124.5 93.5l105 -48l118 46q14 0 39 -20t35 -36q25 -42 31 -58q52 10 136.5 52t132.5 78.5t48 44.5zM622 642l-72 -68l-85 -482h117q71 0 84 74l58 324q4 22 4 43q0 89 -106 109zM283 533q0 51 -53 51q-37 0 -57.5 -25.5t-20.5 -54.5
q0 -51 53 -51q32 0 55 24t23 56z" />
    <glyph glyph-name="uni0E0C" unicode="&#xe0c;" horiz-adv-x="1108" 
d="M1055 819l-123 -688q-11 -61 -36.5 -96t-75.5 -35q-76 0 -107 72l-57 135l-21 -110q-8 -42 -44 -71.5t-82 -29.5q-105 0 -105 125q0 46 20.5 97t50.5 75q35 28 107 39l50 287q2 11 2 20q-2 101 -173 101q-128 0 -188 -48q8 0 53 -31.5t86 -72.5q-60 -12 -104.5 -55.5
t-55.5 -104.5l-16 -94q123 -12 123 -123q0 -88 -47.5 -150.5t-123.5 -62.5q-89 0 -89 90q0 14 4 37l55 322q7 42 27 77.5t79 67.5q-31 36 -93 59.5t-79 24.5q48 54 158.5 101t220.5 47q257 0 262 -162q0 -27 -3 -39l-53 -299q35 -31 61 -92l47 -110q8 -19 25 -19q21 0 30 53
l119 663h96zM565 256q-45 0 -65.5 -45.5t-20.5 -85.5q0 -45 31 -45q24 0 29 29zM221 254l-22 -121q-1 -6 -1 -20q2 -27 20 -27q24 0 41.5 31.5t17.5 75.5q0 61 -56 61z" />
    <glyph glyph-name="uni0E0D" unicode="&#xe0d;" horiz-adv-x="1151" 
d="M1102 819l-119 -665q-12 -68 -30 -94t-46.5 -43t-64.5 -17h-363l16 92h60l91 523q2 11 2 21q0 104 -156 104q-128 0 -196 -48q35 0 139 -104q-42 0 -95.5 -46t-64.5 -113l-31 -172q28 8 54 8q108 0 108 -103q0 -76 -48.5 -120t-113.5 -44q-117 0 -119 110q0 16 3 34
l53 305q6 36 36 79.5t70 65.5q-31 36 -93 59.5t-79 24.5q54 60 171 104t217 44q243 0 243 -166q0 -16 -4 -39l-91 -527h175q25 0 45 19q12 11 18 47l117 661h96zM337 146q0 51 -56 51q-20 0 -37 -9t-29 -27.5t-12 -41.5q0 -51 56 -51q22 0 39.5 10.5t28 28t10.5 39.5z
M936 -86q-8 -109 -96 -208t-213 -99q-212 0 -212 157q6 64 48 106t106 42q105 0 105 -101q0 -38 -20 -76t-54 -38l13 -5q10 -4 28 -4q27 0 71 19.5t79.5 67t52.5 139.5h92zM608 -201q0 47 -49 47q-20 0 -36.5 -9.5t-26 -26t-9.5 -36.5q0 -47 50 -47q33 0 52 23.5t19 48.5z
" />
    <glyph glyph-name="uni0E0E" unicode="&#xe0e;" horiz-adv-x="946" 
d="M701 -226l-250 -215v1q0 4 -45 65.5t-66 71.5q-88 -115 -223 -115q-121 0 -121 98q0 46 20 82t67.5 63t119.5 27q73 0 127 -35l19 28q56 83 61 145h96q-11 -98 -113 -218l86 -86l129 109l138 783q4 23 4 43q0 119 -164 119q-119 0 -196 -48q7 0 54 -33t85 -71
q-33 0 -89.5 -41.5t-70.5 -118.5l-52 -286q-26 -144 -166 -144q-45 0 -80.5 26.5t-35.5 79.5q0 47 19.5 82.5t54 56.5t81.5 21q32 0 52 -8l33 191q17 100 106 145q-31 36 -93 59.5t-79 24.5q46 51 158 99.5t229 48.5q250 0 250 -191q0 -28 -4 -51zM242 146q0 51 -56 51
q-36 0 -56.5 -25t-20.5 -53q0 -51 55 -51q22 0 39.5 10.5t28 28t10.5 39.5zM273 -250q-46 29 -95 29q-32 0 -59 -19q-31 -21 -31 -51q0 -47 48 -47q41 0 82 27q42 26 55 61z" />
    <glyph glyph-name="uni0E0F" unicode="&#xe0f;" horiz-adv-x="928" 
d="M695 -221q-40 -124 -201 -209l-69 130l-122 -132l-55 102q-60 -102 -161 -102q-93 0 -93 104q0 75 38 130q44 61 116 61q63 0 106 -52q9 14 47 92q27 60 27 84h84q0 -20 -32.5 -99t-76.5 -136l22 -43l124 137l75 -153q30 17 46 36q20 25 28 50l148 832q2 14 2 26
q-4 103 -164 103q-120 0 -197 -48q7 0 54 -33t85 -71q-34 0 -90 -42t-70 -118l-52 -286q-26 -144 -166 -144q-50 0 -83 28.5t-33 77.5q0 70 43.5 115t111.5 45q32 0 52 -8l33 191q17 100 106 145q-31 36 -93 59.5t-79 24.5q46 51 158 99.5t229 48.5q253 0 253 -168
q0 -18 -4 -41zM239 146q0 51 -56 51q-36 0 -56.5 -25t-20.5 -53q0 -51 55 -51q22 0 39.5 10.5t28 28t10.5 39.5zM205 -256q-33 45 -68 45q-28 -3 -46.5 -34t-18.5 -71q0 -43 29 -45q46 -2 104 105z" />
    <glyph glyph-name="uni0E10" unicode="&#xe10;" horiz-adv-x="725" 
d="M730 723q-71 -20 -86 -20q-46 0 -108 15q-88 21 -145 21q-79 0 -131 -49q73 0 164 -30t136.5 -74t45.5 -107q0 -5 -5 -34l-55 -314q-24 -135 -180 -135q-125 0 -127 98q0 19 2 29l19 105q-27 -9 -54 -9q-46 0 -78 26.5t-32 78.5q0 71 49 116.5t114 45.5q120 0 120 -109
q0 -12 -4 -35l-33 -192l-1 -17q0 -17 5 -28.5t15.5 -17t26.5 -5.5q54 0 66 70l49 282q2 10 2 29q0 96 -143.5 133t-265.5 37q134 184 315 184q41 0 110 -17q92 -22 114 -22q29 0 85 21zM303 365q0 51 -56 51q-22 0 -39.5 -10.5t-27.5 -28t-10 -39.5q0 -51 55 -51
q22 0 39.5 10.5t28 28t10.5 39.5zM455 -359l-160 -96l-84 64l-120 -64q-4 6 -28 68q-7 -12 -41 -41q-30 -19 -57 -19q-92 0 -92 94q0 62 38 97t87 35q38 0 78 -29q30 49 60 145h76q-41 -142 -94 -207l18 -47l92 45l77 -60l87 50l6 35l-13 -3q-13 -3 -26 -3q-84 0 -84 80
q0 50 34.5 83t84.5 33q90 0 90 -86q0 -20 -4 -41zM425 -189q0 37 -39 37q-51 0 -51 -53q0 -37 38 -37q52 0 52 53zM32 -319q-30 30 -53 30q-42 0 -42 -55q0 -37 29 -37q33 0 66 62z" />
    <glyph glyph-name="uni0E11" unicode="&#xe11;" horiz-adv-x="1096" 
d="M1033 711q0 -17 -3 -35l-118 -676h-97l117 658q1 5 1 19q-2 36 -33 36q-30 0 -56 -35q-35 -20 -166 -221l-92 -141q-48 -74 -75.5 -124.5t-37.5 -89.5t-22 -102h-103l104 590q8 0 39 31.5t31 42.5q0 15 -17.5 42t-29.5 27l-110 -51l-86 51q-50 -20 -77 -62t-28 -56
q25 12 60 12q114 0 114 -105q0 -43 -22 -80t-55 -56t-76 -19q-64 0 -97 40t-33 101q0 55 24 114t72.5 114.5t117.5 87.5l98 -64l125 64q63 -39 104 -113q13 -22 13 -27l-8 -45q-26 -35 -64 -61l-45 -252q80 147 211 320t214 173q46 0 75.5 -28.5t30.5 -79.5zM282 510
q0 53 -54 53q-23 0 -40.5 -10.5t-28 -28.5t-10.5 -40q0 -54 56 -54q37 0 57 25.5t20 54.5z" />
    <glyph glyph-name="uni0E12" unicode="&#xe12;" horiz-adv-x="1131" 
d="M1082 819l-121 -679q-12 -67 -39 -105.5t-88 -38.5q-44 0 -73 44q-10 16 -38 83q-32 78 -39 78l-18 -102q-18 -103 -125 -103q-108 0 -108 133q0 89 50.5 150.5t133.5 68.5l43 246q4 23 4 39q0 23 -9 43t-26.5 38.5t-32.5 23.5l-131 -89l-108 89q-109 -57 -153 -136.5
t-44 -154.5q0 -56 33 -162q35 -112 35 -131q0 14 26.5 56.5t69.5 96.5q12 14 15 21q-28 0 -51.5 11.5t-39.5 35.5t-16 55q0 60 43.5 110t115.5 50q43 0 80.5 -29t37.5 -82q0 -61 -73 -150q-66 -81 -93 -118t-53 -93.5t-40 -117.5h-102q2 26 2 43q0 71 -39 218t-39 173
q0 71 30.5 152.5t97.5 137.5t187 100l95 -80l127 82q66 -25 109 -79t43 -116q0 -8 -5 -37l-47 -274q24 -19 31.5 -36t46.5 -106q37 -86 54 -86q15 0 21 30q1 7 5 26l118 671h97zM439 471q0 56 -58 56q-22 0 -39.5 -10t-28.5 -28.5t-11 -41.5q0 -58 55 -58q23 0 41.5 11
t29.5 29.5t11 41.5zM605 277q-96 -28 -96 -137q0 -62 34 -62q25 0 31 31z" />
    <glyph glyph-name="uni0E13" unicode="&#xe13;" horiz-adv-x="1215" 
d="M898 98q0 10 2 21l24 136q-63 -37 -113.5 -83t-103.5 -114l-45 -58h-94l109 615q2 11 2 21q0 104 -165 104q-128 0 -196 -48q35 0 139 -104q-26 0 -60 -20t-63 -55t-37 -84l-31 -172q28 8 54 8q108 0 108 -103q0 -76 -48.5 -120t-113.5 -44q-117 0 -119 110q0 16 3 34
l53 305q6 36 36 79.5t70 65.5q-31 36 -93 59.5t-79 24.5q54 60 171 104t217 44q252 0 252 -166q0 -16 -4 -39l-78 -442l42 39q85 74 137.5 102.5t62.5 28.5l83 472h95l-82 -462q147 0 147 -150q0 -88 -44.5 -149.5t-130.5 -61.5q-56 0 -82.5 25.5t-24.5 76.5zM1016 269
l-24 -142q-1 -9 -1 -16q3 -33 39 -33q34 0 50 36.5t16 94.5q0 60 -80 60zM357 146q0 51 -56 51q-22 0 -39.5 -10.5t-28 -28t-10.5 -39.5q0 -51 56 -51q20 0 37 9t29 27.5t12 41.5z" />
    <glyph glyph-name="uni0E14" unicode="&#xe14;" horiz-adv-x="862" 
d="M676 0h-96l101 568q3 17 3 32q0 140 -196 140q-131 0 -219 -83t-88 -214q0 -60 35 -144q44 -105 44 -157q20 41 62 104q16 25 58 74q-46 2 -75.5 35.5t-29.5 80.5q0 66 48.5 111t117.5 45q52 0 84.5 -31t32.5 -79q0 -89 -80 -170q-150 -151 -195 -312h-100l2 68
q0 97 -35 187q-34 91 -42.5 120.5t-8.5 79.5q0 86 43 168.5t141.5 139t216.5 56.5q85 0 149 -23.5t99 -69t35 -109.5q0 -19 -4 -41zM488 469q0 58 -60 58q-23 0 -41.5 -11.5t-30 -30.5t-11.5 -42q0 -58 59 -58q24 0 42.5 11.5t30 30.5t11.5 42z" />
    <glyph glyph-name="uni0E15" unicode="&#xe15;" horiz-adv-x="871" 
d="M686 0h-95l100 568q8 45 8 61q0 30 -18.5 61.5t-47.5 47.5l-125 -82l-98 88q-116 -45 -167.5 -128t-51.5 -173q0 -61 35 -144q45 -107 45 -157q52 104 121 178q-47 2 -77 35.5t-30 80.5q0 40 18.5 74t57 58t90.5 24q53 0 85 -31t32 -79q0 -88 -80 -170
q-152 -155 -195 -312h-100l2 74q0 50 -5 81.5t-30 99.5q-37 98 -44 126.5t-7 75.5q0 110 73.5 213t260.5 154l82 -72l116 72q152 -34 152 -193q0 -33 -4 -55zM498 469q0 19 -16 38.5t-43 19.5q-24 0 -42.5 -11.5t-30 -30t-11.5 -42.5q0 -58 59 -58q21 0 39.5 9.5t31.5 29
t13 45.5z" />
    <glyph glyph-name="uni0E16" unicode="&#xe16;" horiz-adv-x="871" 
d="M682 0h-96l103 582q4 23 4 33q0 125 -193 125q-131 0 -208 -48q7 0 54 -33t85 -71q-27 0 -86 -38.5t-74 -121.5l-31 -172q24 8 53 8q109 0 109 -102q0 -75 -49 -119.5t-113 -44.5q-117 0 -119 110q0 16 3 34l53 305q6 33 25 72t81 73q-31 36 -93 59.5t-79 24.5
q46 50 165.5 99t233.5 49q88 0 150.5 -23.5t95.5 -67t33 -104.5q0 -20 -4 -43zM330 146q0 51 -55 51q-27 0 -52.5 -20.5t-25.5 -57.5q0 -51 55 -51q22 0 39.5 10.5t28 28t10.5 39.5z" />
    <glyph glyph-name="uni0E17" unicode="&#xe17;" horiz-adv-x="942" 
d="M758 0h-96l110 626q5 28 5 36q0 80 -68 80q-55 0 -226 -246.5t-212 -495.5h-96l98 563q-20 -8 -54 -8q-40 0 -74 27t-34 78q0 73 50 117t114 44q53 0 86 -30t33 -78q0 -12 -4 -35l-45 -262q77 132 147 217t102 118t67.5 53t67.5 20q36 0 67.5 -17t54 -52.5t22.5 -82.5
q0 -22 -4 -45zM318 701q0 51 -56 51q-22 0 -39 -10.5t-27.5 -28t-10.5 -39.5q0 -51 55 -51q22 0 39.5 10.5t28 28t10.5 39.5z" />
    <glyph glyph-name="uni0E18" unicode="&#xe18;" horiz-adv-x="764" 
d="M832 742q-77 -50 -166 -50q-46 0 -89 11l-93 24q-31 8 -68 8l-12 -73q127 -31 186.5 -80.5t60.5 -100.5q0 -7 -1 -14l-60 -344q-21 -123 -143 -123h-365l15 92h110l90 510l-90 13l-82 2q-16 0 -16 16q0 34 50.5 91.5t107 75t124.5 17.5q34 0 145 -22q111 -21 145 -21
q76 0 124 45zM322 738q-29 0 -54.5 -15t-41.5 -37l86 -8zM480 535q-56 28 -93 35l-84 -478h146q40 0 47 43l54 312q1 9 1 16q3 35 -71 72z" />
    <glyph glyph-name="uni0E19" unicode="&#xe19;" horiz-adv-x="914" 
d="M602 271q-46 0 -156 -82t-173 -189h-97l98 563q-20 -8 -53 -8q-109 0 -109 105q0 68 48.5 114.5t116.5 46.5q53 0 85.5 -30t32.5 -78q0 -12 -4 -35l-90 -512q61 68 169 131.5t148 63.5l83 458h96l-80 -448q145 0 145 -145q0 -96 -45.5 -162t-138.5 -66q-100 0 -100 107
q0 18 6 55zM319 701q0 51 -55 51q-20 0 -37.5 -9t-29 -27t-11.5 -42q0 -51 56 -51q20 0 37 9t28.5 27t11.5 42zM781 199q0 88 -78 88l-23 -121q-4 -21 -4 -37q0 -45 34 -45q59 0 71 115z" />
    <glyph glyph-name="uni0E1A" unicode="&#xe1a;" horiz-adv-x="926" 
d="M883 819l-123 -696q-9 -53 -53 -88t-103 -35h-536l17 92h108l82 471q-20 -8 -54 -8q-108 0 -108 105q0 73 50 117t114 44q47 0 83 -27t36 -81q0 -12 -4 -35l-102 -586h303q20 0 39 8.5t25.5 20t12.5 43.5l117 655h96zM320 701q0 51 -56 51q-22 0 -39 -10.5t-27.5 -28
t-10.5 -39.5q0 -51 55 -51q22 0 39.5 10.5t28 28t10.5 39.5z" />
    <glyph glyph-name="uni0E1B" unicode="&#xe1b;" horiz-adv-x="926" 
d="M953 1219l-193 -1096q-9 -53 -53 -88t-103 -35h-536l17 92h108l82 471q-20 -8 -54 -8q-108 0 -108 105q0 73 50 117t114 44q47 0 83 -27t36 -81q0 -12 -4 -35l-102 -586h303q20 0 39 8.5t25.5 20t12.5 43.5l186 1055h97zM320 701q0 51 -56 51q-22 0 -39 -10.5t-27.5 -28
t-10.5 -39.5q0 -51 55 -51q22 0 39.5 10.5t28 28t10.5 39.5z" />
    <glyph glyph-name="uni0E1C" unicode="&#xe1c;" horiz-adv-x="875" 
d="M838 819l-146 -819h-96q-10 72 -59.5 167t-108.5 149q-165 -129 -272 -316h-100l118 678q10 60 58 101.5t110 41.5q47 0 81 -30.5t34 -77.5q0 -43 -17 -78t-53 -57.5t-86 -22.5q-31 0 -51 8l-61 -370q23 32 124 132q60 52 134 97q73 -57 127.5 -143t54.5 -99l113 639h96z
M386 701q0 51 -56 51q-27 0 -52 -21t-25 -57q0 -51 54 -51q29 0 54 20.5t25 57.5z" />
    <glyph glyph-name="uni0E1D" unicode="&#xe1d;" horiz-adv-x="875" 
d="M908 1219l-216 -1219h-96q-10 72 -59.5 167t-108.5 149q-165 -129 -272 -316h-100l118 678q10 60 58 101.5t110 41.5q47 0 81 -30.5t34 -77.5q0 -43 -17 -78t-53 -57.5t-86 -22.5q-31 0 -51 8l-61 -370q23 32 124 132q60 52 134 97q73 -57 127.5 -143t54.5 -99l182 1039
h97zM386 701q0 51 -56 51q-27 0 -52 -21t-25 -57q0 -51 54 -51q29 0 54 20.5t25 57.5z" />
    <glyph glyph-name="uni0E1E" unicode="&#xe1e;" horiz-adv-x="1014" 
d="M969 819l-145 -819h-95q0 125 -73 353q-47 147 -47 290q0 -21 -40.5 -109.5t-109.5 -191.5q-56 -82 -120 -198.5t-64 -143.5h-98l98 563q-20 -8 -54 -8q-108 0 -108 105q0 73 50 117t114 44q119 0 119 -108q0 -12 -4 -35l-72 -405q19 27 76 118t91.5 159t49.5 108t49 161
h101q-4 -4 -4 -77q0 -78 8 -137t34 -150q49 -170 49 -182l99 546h96zM320 701q0 51 -56 51q-22 0 -39 -10.5t-27.5 -28t-10.5 -39.5q0 -51 55 -51q22 0 39.5 10.5t28 28t10.5 39.5z" />
    <glyph glyph-name="uni0E1F" unicode="&#xe1f;" horiz-adv-x="1014" 
d="M1039 1219l-215 -1219h-95q0 125 -73 353q-47 147 -47 290q0 -21 -40.5 -109.5t-109.5 -191.5q-56 -82 -120 -198.5t-64 -143.5h-98l98 563q-20 -8 -54 -8q-108 0 -108 105q0 73 50 117t114 44q119 0 119 -108q0 -12 -4 -35l-72 -405q19 27 76 118t91.5 159t49.5 108
t49 161h101q-4 -4 -4 -77q0 -78 8 -137t34 -150q49 -170 49 -182l168 946h97zM320 701q0 51 -56 51q-22 0 -39 -10.5t-27.5 -28t-10.5 -39.5q0 -51 55 -51q22 0 39.5 10.5t28 28t10.5 39.5z" />
    <glyph glyph-name="uni0E20" unicode="&#xe20;" horiz-adv-x="961" 
d="M765 0h-96l103 582q4 23 4 33q0 125 -193 125q-131 0 -208 -48q7 0 54 -33t85 -71q-34 0 -90 -42t-70 -118l-52 -286q-26 -144 -166 -144q-45 0 -80.5 26.5t-35.5 79.5q0 43 17 78t52.5 58.5t85.5 23.5q32 0 52 -8l33 191q17 100 106 145q-31 36 -93 59.5t-79 24.5
q46 50 165.5 99t233.5 49q88 0 150.5 -23.5t95.5 -67t33 -104.5q0 -20 -4 -43zM227 146q0 51 -56 51q-36 0 -56.5 -25t-20.5 -53q0 -51 55 -51q20 0 37 9t29 27.5t12 41.5z" />
    <glyph glyph-name="uni0E21" unicode="&#xe21;" horiz-adv-x="885" 
d="M846 819l-113 -630q-12 -68 -25 -102t-52 -61.5t-83 -27.5q-60 0 -99 51l-128 168l-18 -102q-9 -49 -51.5 -84t-89.5 -35q-63 0 -94.5 40.5t-31.5 90.5q0 87 57 154t154 67l37 215q-24 -8 -53 -8q-109 0 -109 105q0 71 50 116t115 45q118 0 118 -108q0 -13 -4 -35
l-62 -348l134 -166q13 -17 45 -54q15 -16 41 -16q37 0 51 78l115 647h96zM354 701q0 51 -55 51q-22 0 -39.5 -10.5t-28 -28t-10.5 -39.5q0 -51 56 -51q32 0 54.5 23t22.5 55zM258 262q-113 0 -113 -127q0 -59 40 -59q39 0 49 55z" />
    <glyph glyph-name="uni0E22" unicode="&#xe22;" horiz-adv-x="836" 
d="M801 819l-117 -661q-12 -70 -51 -114t-133 -44h-427l35 197q23 128 142 168q-88 14 -88 108q0 26 4 49l27 154q11 63 60 103t108 40q50 0 82 -29t32 -79q0 -63 -43.5 -110.5t-111.5 -47.5q-31 0 -51 8l-9 -45q-2 -9 -2 -17q0 -23 12 -43.5t29.5 -35.5t95.5 -51
q-36 -15 -117 -60q-62 -41 -73 -106l-19 -111h324q66 0 78 70l117 657h96zM401 699q0 51 -53 51q-23 0 -40.5 -10.5t-27.5 -28t-10 -39.5q0 -51 54 -51q32 0 54.5 23t22.5 55z" />
    <glyph glyph-name="uni0E23" unicode="&#xe23;" horiz-adv-x="668" 
d="M713 733q-79 -30 -109 -30q-43 0 -116 20q-83 23 -123 23q-86 0 -137 -51q328 -53 328 -205q0 -29 -6 -62l-52 -286q-26 -144 -166 -144q-45 0 -80.5 27t-35.5 82q0 59 38.5 108t116.5 49q31 0 51 -8l33 187q1 8 1 16q0 71 -91.5 113.5t-248.5 67.5l-44 7
q111 174 301 174q43 0 116 -22q74 -21 103 -21q12 0 50.5 12t38.5 17zM367 197q-23 0 -40 -9t-27 -27.5t-10 -41.5q0 -51 54 -51q22 0 40.5 9t28.5 28t10 41q0 51 -56 51z" />
    <glyph glyph-name="uni0E24" unicode="&#xe24;" horiz-adv-x="871" 
d="M629 -297h-96l156 879q4 23 4 33q0 125 -193 125q-131 0 -208 -48q7 0 54 -33t85 -71q-27 0 -86 -38.5t-74 -121.5l-31 -172q24 8 53 8q109 0 109 -102q0 -75 -49 -119.5t-113 -44.5q-117 0 -119 110q0 16 3 34l53 305q6 33 25 72t81 73q-31 36 -93 59.5t-79 24.5
q46 50 165.5 99t233.5 49q88 0 150.5 -23.5t95.5 -67t33 -104.5q0 -20 -4 -43zM330 146q0 51 -55 51q-27 0 -52.5 -20.5t-25.5 -57.5q0 -51 55 -51q22 0 39.5 10.5t28 28t10.5 39.5z" />
    <glyph glyph-name="uni0E25" unicode="&#xe25;" horiz-adv-x="795" 
d="M614 0h-97l17 88q0 45 -38 155t-87 186.5t-94 76.5q-62 0 -76 -78l-31 -172q24 8 53 8q51 0 80 -33.5t29 -68.5q0 -71 -46 -117.5t-116 -46.5q-120 0 -120 113q0 15 3 31l50 282q12 65 60.5 110.5t101.5 45.5q71 0 114 -30q41 -30 91 -115t63 -138l47 271q4 23 4 41
q0 129 -181 129q-155 0 -247 -132l-62 50q124 163 334 163q79 0 137.5 -24t87.5 -66t29 -102q0 -21 -6 -55zM298 146q0 19 -17 35t-38 16q-24 0 -39.5 -9t-27 -27t-11.5 -42q0 -51 55 -51q20 0 37.5 9t29 27t11.5 42z" />
    <glyph glyph-name="uni0E26" unicode="&#xe26;" horiz-adv-x="961" 
d="M724 -297h-96l156 879q4 23 4 33q0 125 -193 125q-131 0 -208 -48q7 0 54 -33t85 -71q-34 0 -90 -42t-70 -118l-52 -286q-26 -144 -166 -144q-45 0 -80.5 26.5t-35.5 79.5q0 70 43.5 115t111.5 45q32 0 52 -8l33 191q17 100 106 145q-31 36 -93 59.5t-79 24.5
q46 50 165.5 99t233.5 49q88 0 150.5 -23.5t95.5 -67t33 -104.5q0 -20 -4 -43zM239 146q0 51 -56 51q-36 0 -56.5 -25t-20.5 -53q0 -51 55 -51q20 0 37 9t29 27.5t12 41.5z" />
    <glyph glyph-name="uni0E27" unicode="&#xe27;" horiz-adv-x="748" 
d="M502 256l55 316q4 23 4 43q0 127 -172 127q-158 0 -243 -146l-68 35q111 193 324 193q116 0 187.5 -51.5t71.5 -145.5q0 -14 -4 -37l-79 -448q-25 -144 -166 -144q-45 0 -81 26.5t-36 79.5q0 67 44.5 113.5t111.5 46.5q31 0 51 -8zM502 146q0 51 -55 51q-27 0 -52.5 -21
t-25.5 -57q0 -51 55 -51q22 0 39.5 10.5t28 28t10.5 39.5z" />
    <glyph glyph-name="uni0E28" unicode="&#xe28;" horiz-adv-x="856" 
d="M883 830q-32 -77 -124 -156q11 -22 16 -55q0 -46 -4 -68l-97 -551h-96l90 508q7 48 7 63q0 22 -7 41q-44 -40 -100.5 -79.5t-67.5 -42.5q0 -87 -40.5 -130.5t-111.5 -43.5q-34 0 -47 10l-57 -326h-96l25 135q0 56 -4 68q-66 204 -66 266q0 157 115.5 256t279.5 99
q141 0 221 -80q42 35 84 116zM648 680q-54 60 -169 60q-86 0 -151.5 -37t-102 -98t-36.5 -144q0 -56 24 -111l17 91q11 61 56 102t105 41q53 0 84 -31q48 29 173 127zM437 463q0 51 -56 51q-22 0 -39 -10.5t-27.5 -28t-10.5 -39.5q0 -51 55 -51q22 0 39.5 10.5t28 28
t10.5 39.5z" />
    <glyph glyph-name="uni0E29" unicode="&#xe29;" horiz-adv-x="994" 
d="M1037 502q-60 -116 -201 -174l-35 -205q-9 -55 -53.5 -89t-102.5 -34h-553l17 92h108l82 471q-20 -8 -53 -8q-109 0 -109 105q0 68 48 114.5t116 46.5q119 0 119 -108q0 -12 -4 -35l-102 -586h319q20 0 39 8.5t26 20.5t13 43l27 145q-63 -8 -74 -8q-92 0 -153.5 34
t-61.5 95q0 60 43 105t104 45q105 0 105 -113q-6 -61 -55 -88q44 -2 51 -2q28 2 53 12l78 430h96l-71 -403q33 20 57.5 44t41.5 52.5t17 34.5zM344 701q0 51 -55 51q-23 0 -40.5 -10.5t-27.5 -28t-10 -39.5q0 -51 55 -51q22 0 39.5 10.5t28 28t10.5 39.5zM638 469
q0 49 -52 49q-28 0 -49 -21t-21 -48q0 -49 50 -49q28 0 50 21t22 48z" />
    <glyph glyph-name="uni0E2A" unicode="&#xe2a;" horiz-adv-x="813" 
d="M875 770q-43 -70 -144 -153q-2 -15 -7 -45l-101 -572h-96l16 88q0 48 -41 164.5t-90.5 185t-87.5 68.5q-62 0 -76 -78l-30 -172q24 8 53 8q48 0 78.5 -28t30.5 -74q0 -43 -18.5 -79t-56 -60.5t-88.5 -24.5q-119 0 -119 112q0 15 3 32l49 282q12 69 65 114.5t123 45.5
q51 0 108 -38q60 24 150 79q12 7 31 20q-32 93 -172 93q-153 0 -252 -132l-61 50q123 163 329 163q180 0 236 -112q85 63 108 123zM627 568q-44 -31 -145 -74q10 -17 31 -51q7 -12 67 -146zM308 146q0 51 -56 51q-36 0 -56.5 -25t-20.5 -53q0 -51 55 -51q20 0 37 9t29 27.5
t12 41.5z" />
    <glyph glyph-name="uni0E2B" unicode="&#xe2b;" horiz-adv-x="938" 
d="M740 576q84 -54 84 -166q0 -34 -8 -78l-60 -332h-96l68 381q2 13 2 25q0 69 -60 102q-269 -199 -401 -508h-96l98 563q-20 -8 -54 -8q-108 0 -108 105q0 70 47 115.5t117 45.5q119 0 119 -108q0 -12 -4 -35l-74 -426q146 197 293 309q-68 26 -68 103q0 73 48.5 116.5
t123.5 43.5q115 0 115 -113q0 -94 -86 -135zM752 701q0 51 -55 51q-22 0 -40 -8.5t-28 -28t-10 -41.5q0 -51 55 -51q22 0 40 8.5t28 28t10 41.5zM316 701q0 51 -56 51q-22 0 -39 -10.5t-27.5 -28t-10.5 -39.5q0 -51 55 -51q22 0 39.5 10.5t28 28t10.5 39.5z" />
    <glyph glyph-name="uni0E2C" unicode="&#xe2c;" horiz-adv-x="1026" 
d="M1084 770q-14 -36 -60 -84t-98 -69l-109 -617h-94q0 125 -74 353q-47 145 -47 290q0 -34 -53 -136.5t-96 -164.5q-45 -66 -114.5 -189.5t-69.5 -152.5h-98l98 563q-20 -8 -54 -8q-108 0 -108 105q0 69 48 115t116 46q119 0 119 -108q0 -12 -4 -35l-72 -405q10 14 76 118
t94 164l42 90q13 31 54 174h101q-4 -4 -4 -77q0 -78 8 -137t34 -150q49 -170 49 -182l56 313q-115 0 -115 96q0 62 37.5 100.5t101.5 38.5q99 0 99 -90q0 -17 -6 -39q75 60 104 132zM885 717q0 45 -47 45q-22 0 -34 -6t-21.5 -20.5t-9.5 -36.5q0 -47 48 -47q22 0 33.5 7
t21 21.5t9.5 36.5zM314 701q0 51 -56 51q-36 0 -56.5 -25t-20.5 -53q0 -51 55 -51q22 0 39.5 10.5t28 28t10.5 39.5z" />
    <glyph glyph-name="uni0E2D" unicode="&#xe2d;" horiz-adv-x="809" 
d="M110 55q-10 20 -11 48q0 7 4 32l49 289q11 63 59 103.5t109 40.5q42 0 78 -28t36 -81q0 -48 -19 -82.5t-53.5 -55t-80.5 -20.5q-31 0 -51 8l-26 -143q-2 -15 -2 -26q0 -24 14.5 -36t35.5 -12h238q57 0 69 68l74 420q3 17 3 34q0 132 -165 132q-154 0 -241 -133l-67 45
q111 166 327 166q114 0 178.5 -55.5t64.5 -139.5q0 -22 -4 -45l-80 -457q-22 -127 -143 -127h-299q-72 0 -97 55zM363 447q0 51 -56 51q-23 0 -38 -9t-27 -27.5t-12 -41.5q0 -51 55 -51q20 0 37 9t29 27.5t12 41.5z" />
    <glyph glyph-name="uni0E2E" unicode="&#xe2e;" horiz-adv-x="832" 
d="M862 785q-13 -23 -51 -65.5t-67 -61.5l2 -37q0 -14 -4 -37l-80 -457q-22 -127 -144 -127h-299q-49 0 -77.5 27.5t-31.5 75.5q0 7 4 32l34 195q10 60 57.5 101.5t110.5 41.5q42 0 78 -28t36 -80q0 -42 -17.5 -77t-52.5 -58t-83 -23q-31 0 -51 8l-11 -49q-2 -10 -2 -19
q1 -19 10 -32q15 -23 41 -23h238q59 0 70 68l73 451q-108 -56 -263 -56q-83 0 -164 36t-81 89q0 60 88 102t203 42q169 0 285 -91q35 18 86 99zM633 686q-94 60 -218 60q-60 0 -115 -18t-59 -42q0 -25 63.5 -42t92.5 -17q49 0 113.5 13t122.5 46zM358 353q0 51 -55 51
q-23 0 -40.5 -10.5t-27.5 -28t-10 -39.5q0 -51 56 -51q32 0 54.5 23t22.5 55z" />
    <glyph glyph-name="uni0E2F" unicode="&#xe2f;" horiz-adv-x="801" 
d="M732 756q0 -14 -1 -18l-94 -537q-20 -113 -86.5 -157t-124.5 -46l-28 72q48 0 89.5 32.5t53.5 100.5l55 313q-93 -125 -253 -125q-97 0 -151.5 52.5t-54.5 146.5t55.5 161.5t139.5 67.5q49 0 79 -28.5t30 -69.5q0 -45 -21.5 -81t-55 -56.5t-75.5 -20.5q-30 0 -57 15
q-3 -12 -3 -24q0 -87 121 -87q100 0 186.5 95t106.5 212l8 45q81 0 81 -63zM375 705q0 53 -55 53q-27 0 -52.5 -21t-25.5 -57q0 -53 55 -53q22 0 39.5 10.5t28 28t10.5 39.5z" />
    <glyph glyph-name="uni0E30" unicode="&#xe30;" horiz-adv-x="666" 
d="M654 795l-25 -139q-54 -63 -156.5 -105t-191.5 -42q-168 0 -168 122q0 69 41 114.5t111 45.5q127 0 127 -104q0 -44 -35 -92q179 44 297 200zM320 674q0 54 -56 54q-37 0 -57 -25.5t-20 -54.5q0 -53 55 -53q32 0 55 23.5t23 55.5zM568 301l-25 -139q-54 -63 -156.5 -105
t-191.5 -42q-168 0 -168 122q0 50 21 86.5t54 55t77 18.5q127 0 127 -104q0 -44 -35 -92q179 44 297 200zM234 180q0 54 -56 54q-37 0 -57 -25.5t-20 -54.5q0 -53 55 -53q36 0 57 25.5t21 53.5z" />
    <glyph glyph-name="uni0E31" unicode="&#xe31;" horiz-adv-x="0" 
d="M328 1308l-27 -149q-185 -139 -420 -139q-83 0 -141 32q-74 39 -74 116q0 49 19 85t51 56t77 20q131 0 131 -107q0 -65 -55 -114q255 0 439 200zM-123 1212q0 53 -56 53q-41 0 -63.5 -26.5t-22.5 -54.5q0 -56 60 -56q36 0 59 28t23 56z" />
    <glyph glyph-name="uni0E32" unicode="&#xe32;" horiz-adv-x="684" 
d="M502 0h-97l101 572q4 23 4 49q0 121 -157 121t-232 -144l-70 37q100 189 322 189q75 0 127.5 -23t81 -65.5t28.5 -102.5q0 -20 -4 -43z" />
    <glyph glyph-name="uni0E33" unicode="&#xe33;" horiz-adv-x="715" 
d="M527 0h-97l101 572q4 23 4 49q0 121 -157 121t-232 -144l-70 37q100 189 322 189q75 0 127.5 -23t81 -65.5t28.5 -102.5q0 -20 -4 -43zM147 1184q0 -44 -19.5 -81.5t-58 -63t-90.5 -25.5q-32 0 -58 13t-43 39t-17 63q0 44 19.5 81.5t58 63t89.5 25.5q119 0 119 -115z
M81 1172q0 62 -65 62q-43 0 -67.5 -30t-24.5 -63q0 -61 66 -61q38 0 64.5 27t26.5 65z" />
    <glyph glyph-name="uni0E34" unicode="&#xe34;" horiz-adv-x="0" 
d="M-27 942q-147 66 -316 66q-146 0 -304 -57q25 137 126 222t239 85q116 0 188.5 -71.5t72.5 -186.5q0 -27 -6 -58zM-99 1045q-33 137 -192 137q-144 0 -229 -127q102 29 203 29q110 0 218 -39z" />
    <glyph glyph-name="uni0E35" unicode="&#xe35;" horiz-adv-x="0" 
d="M47 1352l-48 -269q3 -55 3 -67q0 -56 -7 -74q-147 66 -315 66q-147 0 -305 -57q23 136 123.5 221.5t238.5 85.5q136 0 184 -73l29 167h97zM-76 1045q-44 137 -193 137q-144 0 -230 -127q104 29 205 29q110 0 218 -39z" />
    <glyph glyph-name="uni0E36" unicode="&#xe36;" horiz-adv-x="0" 
d="M-55 1150q41 -73 41 -143q0 -26 -6 -65q-147 66 -316 66q-146 0 -305 -57q23 140 124.5 223.5t242.5 83.5q24 0 67 -6q0 69 45.5 104t102.5 35q43 0 76.5 -25.5t33.5 -74.5q0 -108 -106 -141zM-15 1280q0 52 -52 52q-21 0 -39 -10t-28 -27.5t-10 -38.5q0 -51 54 -51
q21 0 38 10t27 27t10 38zM-92 1045q-35 137 -192 137q-145 0 -230 -127q103 29 204 29q110 0 218 -39z" />
    <glyph glyph-name="uni0E37" unicode="&#xe37;" horiz-adv-x="0" 
d="M31 1358l-49 -278q11 -38 11 -66q0 -54 -6 -72q-146 66 -315 66q-147 0 -305 -57q31 146 132.5 226.5t254.5 80.5l18 100h93l-22 -123q4 0 30 -14t36 -27l29 164h93zM-84 1045q-40 137 -193 137q-143 0 -229 -127q102 29 203 29q110 0 219 -39z" />
    <glyph glyph-name="uni0E38" unicode="&#xe38;" horiz-adv-x="0" 
d="M-291 -588h-96l34 192q-24 -8 -53 -8q-108 0 -108 103q0 49 20.5 86t56.5 57.5t84 20.5q47 0 83.5 -27t36.5 -82q0 -18 -3 -35zM-310 -258q0 51 -55 51q-20 0 -37 -9t-29 -27.5t-12 -41.5q0 -51 56 -51q32 0 54.5 23t22.5 55z" />
    <glyph glyph-name="uni0E39" unicode="&#xe39;" horiz-adv-x="0" 
d="M-230 -144l-78 -444h-312l33 192q-24 -8 -53 -8q-108 0 -108 103q0 72 44.5 118t116.5 46q47 0 83.5 -27t36.5 -82q0 -18 -3 -35l-40 -223h119l65 360h96zM-544 -258q0 51 -55 51q-22 0 -39.5 -10.5t-28 -28t-10.5 -39.5q0 -51 56 -51q32 0 54.5 23t22.5 55z" />
    <glyph glyph-name="uni0E3A" unicode="&#xe3a;" horiz-adv-x="0" 
d="M-172 -162q0 -42 -29.5 -71t-71.5 -29q-69 0 -69 67q0 41 29.5 71t70.5 30q70 0 70 -68z" />
    <glyph glyph-name="uni0E3F" unicode="&#xe3f;" horiz-adv-x="892" 
d="M699 499q155 -50 155 -196q0 -119 -93 -211t-239 -92h-82l-31 -146h-103l31 146h-279l201 957h280l33 152h102l-33 -155q20 -2 34 -4q104 -18 152 -77t48 -143q0 -169 -176 -231zM516 848h-152l-63 -300h152zM619 847l-63 -296q200 19 200 171q0 120 -137 125zM532 439
l-69 -331q56 1 81 6q92 17 135.5 69t43.5 119q0 75 -46.5 105.5t-144.5 31.5zM430 439h-152l-69 -331h151z" />
    <glyph glyph-name="uni0E40" unicode="&#xe40;" horiz-adv-x="459" 
d="M88 142l121 677h96l-100 -563q24 8 53 8q53 0 80.5 -32.5t27.5 -69.5q0 -71 -45 -117.5t-116 -46.5q-120 0 -120 111q0 18 3 33zM295 146q0 51 -55 51q-24 0 -39.5 -9t-27 -27t-11.5 -42q0 -51 55 -51q20 0 37.5 9t29 27t11.5 42z" />
    <glyph glyph-name="uni0E41" unicode="&#xe41;" horiz-adv-x="799" 
d="M88 142l121 677h96l-100 -563q24 8 53 8q53 0 80.5 -32.5t27.5 -69.5q0 -71 -45 -117.5t-116 -46.5q-120 0 -120 111q0 18 3 33zM295 146q0 51 -55 51q-24 0 -39.5 -9t-27 -27t-11.5 -42q0 -51 55 -51q20 0 37.5 9t29 27t11.5 42zM450 142l121 677h96l-100 -563
q24 8 53 8q53 0 80.5 -32.5t27.5 -69.5q0 -71 -45 -117.5t-116 -46.5q-120 0 -120 111q0 18 3 33zM657 146q0 51 -55 51q-24 0 -39.5 -9t-27 -27t-11.5 -42q0 -51 55 -51q20 0 37.5 9t29 27t11.5 42z" />
    <glyph glyph-name="uni0E42" unicode="&#xe42;" horiz-adv-x="570" 
d="M704 1336q-29 -33 -102 -33q-36 0 -109 31q-70 30 -108 30q-53 0 -110 -39q196 -69 196 -178q0 -12 -2 -22l-153 -869q24 8 53 8q53 0 80.5 -32.5t27.5 -69.5q0 -71 -45 -117.5t-116 -46.5q-120 0 -120 111q0 18 3 33l170 966l2 16q0 42 -35 77.5t-109.5 67.5t-99.5 32
q116 131 264 131q42 0 118 -25q73 -24 104 -24q43 0 73 24zM406 146q0 51 -55 51q-22 0 -39.5 -10.5t-28 -28t-10.5 -39.5q0 -51 55 -51q22 0 39.5 10.5t28 28t10.5 39.5z" />
    <glyph glyph-name="uni0E43" unicode="&#xe43;" horiz-adv-x="535" 
d="M308 256q24 8 53 8q53 0 80.5 -32.5t27.5 -69.5q0 -71 -45 -117.5t-116 -46.5q-120 0 -120 115l3 29l199 1130q2 11 2 23q-2 61 -64 61q-64 0 -94 -66q86 0 86 -77q0 -63 -32 -107.5t-87 -44.5q-84 0 -84 94q0 77 31.5 138.5t81.5 96t116 34.5q144 0 144 -123
q0 -12 -4 -35zM259 1188q0 43 -31 43q-49 0 -49 -70q0 -38 30 -38q50 0 50 65zM398 146q0 51 -55 51q-22 0 -39.5 -10.5t-28 -28t-10.5 -39.5q0 -51 55 -51q22 0 39.5 10.5t28 28t10.5 39.5z" />
    <glyph glyph-name="uni0E44" unicode="&#xe44;" horiz-adv-x="629" 
d="M410 256q24 8 53 8q47 0 77.5 -29.5t30.5 -72.5q0 -71 -45 -117.5t-116 -46.5q-120 0 -120 111q0 18 3 33l205 1157q4 23 4 34q0 17 -10 17q-15 0 -31 -39l-115 -287q-34 -84 -100 -84q-26 0 -40 11.5t-18.5 28t-4.5 48.5l18 230v61q-11 33 -49 33l14 78q72 0 98.5 -30
t28.5 -74q0 -11 -1 -23l-29 -291l139 340q32 78 112 78q84 0 84 -80q0 -20 -4 -43zM500 146q0 51 -55 51q-22 0 -39.5 -10.5t-28 -28t-10.5 -39.5q0 -51 55 -51q22 0 39.5 10.5t28 28t10.5 39.5z" />
    <glyph glyph-name="uni0E45" unicode="&#xe45;" horiz-adv-x="684" 
d="M469 -297h-96l154 869q4 23 4 49q0 121 -157 121t-232 -144l-70 37q100 189 322 189q75 0 127.5 -23t81 -65.5t28.5 -102.5q0 -21 -4 -43z" />
    <glyph glyph-name="uni0E46" unicode="&#xe46;" horiz-adv-x="965" 
d="M903 671q0 -24 -2 -36l-127 -715q-22 -123 -120 -190t-168 -68l-33 69q21 0 76.5 25t79.5 43q56 44 70 121l122 693q3 17 3 34q-4 84 -95 84l-109 -57l-82 51q-57 0 -93.5 -50.5t-36.5 -102.5q35 26 101 26q48 0 78 -36q26 -33 26 -76q0 -40 -25.5 -78t-59.5 -56t-76 -18
q-145 0 -145 166q0 76 28.5 143t82 112t131.5 64l86 -67l104 67q49 0 85.5 -16t65.5 -52t33 -80zM523 482q0 55 -58 55q-39 0 -60 -26.5t-21 -57.5q0 -55 57 -55q38 0 60 27t22 57z" />
    <glyph glyph-name="uni0E47" unicode="&#xe47;" horiz-adv-x="0" 
d="M86 1344q-45 -135 -205 -135q-31 0 -92 7t-92 7q-141 0 -141 -118q0 -9 4 -26q38 48 91 48q70 0 134 -60q18 74 91 74q34 0 54.5 -26t20.5 -59q0 -93 -103 -93q-18 0 -33.5 5.5t-26.5 14t-62 54.5q-36 28 -66 28q-81 0 -96 -104q-82 33 -82 128q0 86 62 139.5t155 53.5
q26 0 98 -10q61 -8 97 -8q92 0 112 80h80zM-94 1061q0 31 -33 31q-47 0 -47 -47q0 -31 32 -31q48 0 48 47z" />
    <glyph glyph-name="uni0E48" unicode="&#xe48;" horiz-adv-x="0" 
d="M6 1200l-45 -258h-96l45 258h96z" />
    <glyph glyph-name="uni0E49" unicode="&#xe49;" horiz-adv-x="0" 
d="M260 1299l-26 -153q-185 -198 -431 -198q-39 0 -76 7q38 23 67.5 60t31.5 46q-121 0 -121 98q0 61 40.5 103.5t94.5 42.5q125 0 125 -114q0 -41 -30.5 -100t-47.5 -67q237 63 373 275zM-101 1196q0 52 -53 52q-21 0 -38 -10.5t-27.5 -27.5t-10.5 -38q0 -51 54 -51
q21 0 38 10t27 27t10 38z" />
    <glyph glyph-name="uni0E4A" unicode="&#xe4a;" horiz-adv-x="0" 
d="M211 1172q-33 -95 -120 -162.5t-216 -67.5q44 32 68 79.5t24 88.5q0 66 -43 66q-48 0 -88 -45q-38 41 -86 41q-58 0 -72 -84q32 20 63 20q33 0 52.5 -25.5t19.5 -56.5q0 -90 -109 -90q-95 0 -95 113q0 73 42 132.5t111 59.5q55 0 80 -51q48 51 109 51q92 0 92 -105
q0 -66 -55 -138q127 58 165 233zM-227 1030q0 39 -39 39q-56 0 -56 -55q0 -39 39 -39q56 0 56 55z" />
    <glyph glyph-name="uni0E4B" unicode="&#xe4b;" horiz-adv-x="0" 
d="M129 1147l-16 -90h-115l-21 -121h-96l20 121h-114l16 90h115l22 127h97l-22 -127h114z" />
    <glyph glyph-name="uni0E4C" unicode="&#xe4c;" horiz-adv-x="0" 
d="M276 1401q-43 -139 -198 -154q-84 -6 -131.5 -11.5t-81.5 -23t-54 -61.5q37 25 82 25q98 0 98 -106q0 -63 -52 -107q-35 -31 -98 -31q-60 0 -97 39.5t-37 101.5q0 94 81.5 164.5t250.5 73.5q38 1 73 13t60 77h104zM-74 1065q0 53 -53 53q-74 0 -74 -73q0 -54 53 -54
q74 0 74 74z" />
    <glyph glyph-name="uni0E4D" unicode="&#xe4d;" horiz-adv-x="0" 
d="M2 1071q0 -49 -22.5 -87t-60 -60.5t-85.5 -22.5q-36 0 -62 15t-41 40.5t-15 59.5q0 49 22.5 87t59.5 60.5t85 22.5q119 0 119 -115zM-64 1059q0 62 -65 62q-43 0 -67.5 -30t-24.5 -63q0 -61 66 -61q43 0 67 29.5t24 62.5z" />
    <glyph glyph-name="uni0E4E" unicode="&#xe4e;" horiz-adv-x="0" 
d="M264 1407l-57 -39q-19 11 -51 11q-44 0 -86 -24.5t-42 -60.5q0 -55 89 -55l-31 -47q-64 0 -119 -25q-72 -31 -72 -87q0 -48 60 -48q51 0 84 29l39 -37q-64 -47 -175 -47q-122 0 -122 84q0 71 64 114.5t163 51.5q-84 6 -84 62q0 63 73.5 99t170.5 36q62 0 96 -17z" />
    <glyph glyph-name="uni0E4F" unicode="&#xe4f;" horiz-adv-x="1057" 
d="M977 490q0 -190 -140 -340t-349 -150q-167 0 -255.5 91t-88.5 239q0 124 63.5 237.5t173 182.5t252.5 69q167 0 255.5 -90.5t88.5 -238.5zM920 479q0 80 -31 142.5t-98 102.5t-168 40q-200 0 -311 -136t-111 -288q0 -133 80.5 -209t216.5 -76q128 0 227 67t147 156
t48 201zM797 455q0 -71 -32 -132.5t-97 -104t-150 -42.5q-90 0 -143 51t-53 138q0 73 30 130.5t95 102.5t153 45q61 0 105 -23t68 -65t24 -100z" />
    <glyph glyph-name="uni0E50" unicode="&#xe50;" horiz-adv-x="850" 
d="M740 344q0 -154 -109 -250t-269 -96q-83 0 -147 25.5t-100.5 77t-36.5 129.5q0 154 109.5 250.5t273.5 96.5q130 0 204.5 -60.5t74.5 -172.5zM642 334q0 168 -195 168q-116 0 -192.5 -71.5t-76.5 -184.5q0 -168 195 -168q115 0 192 71t77 185z" />
    <glyph glyph-name="uni0E51" unicode="&#xe51;" horiz-adv-x="895" 
d="M512 -111l-41 68q112 51 161 142t49 197q0 95 -56 148.5t-154 53.5q-114 0 -198.5 -77t-84.5 -187q0 -78 32.5 -114t97.5 -36q35 0 84 27q-133 0 -133 102q0 68 41 116t114 48q137 0 137 -127q0 -82 -73.5 -167t-182.5 -85q-68 0 -116 26t-73.5 72.5t-25.5 112.5
q0 162 112.5 264.5t281.5 102.5q85 0 151.5 -29t106 -86.5t39.5 -140.5q0 -135 -76 -259.5t-193 -171.5zM477 250q0 53 -55 53q-69 0 -69 -69q0 -54 57 -54q67 0 67 70z" />
    <glyph glyph-name="uni0E52" unicode="&#xe52;" horiz-adv-x="1041" 
d="M859 97q-13 -46 -51 -71.5t-84 -25.5h-522q-25 0 -46 10t-33.5 27.5t-13.5 53.5q0 25 3 42l103 576q1 8 1 15q-3 25 -23.5 34.5t-69.5 9.5l13 84q176 0 179 -112q0 -22 -2 -27l-98 -557q-3 -16 -3 -27q0 -27 13.5 -37t39.5 -10h416q27 0 47 7t29.5 21.5t15.5 49.5l44 252
q2 11 2 32q-5 52 -48 52q-24 0 -44.5 -18t-49.5 -85h-69q-9 103 -80 103q-68 0 -92 -66q127 0 127 -100q0 -72 -40 -111t-108 -39q-52 0 -84 39.5t-32 87.5q0 100 62.5 185.5t151.5 85.5q105 0 148 -78q48 78 135 78q123 0 123 -123q0 -14 -4 -37zM489 318q0 45 -47 45
q-65 0 -65 -68q0 -45 46 -45q66 0 66 68z" />
    <glyph glyph-name="uni0E53" unicode="&#xe53;" horiz-adv-x="998" 
d="M815 0h-94l66 367q3 17 3 33q0 94 -79 94q-51 0 -89 -42t-46 -89l-64 -363h-96l63 365q2 13 2 25q0 102 -124 102q-75 0 -121.5 -76.5t-46.5 -167.5q34 14 70 14q31 0 55.5 -17t37.5 -43.5t13 -62.5q0 -66 -43.5 -104.5t-114.5 -38.5q-129 0 -129 170q0 188 81.5 300
t219.5 112q54 0 105.5 -29t64.5 -78q18 46 69 76.5t107 30.5q45 0 81.5 -16.5t58.5 -51t22 -86.5q0 -16 -4 -39zM293 144q0 49 -51 49q-27 0 -50.5 -19t-23.5 -55q0 -49 51 -49q27 0 50.5 19t23.5 55z" />
    <glyph glyph-name="uni0E54" unicode="&#xe54;" horiz-adv-x="1016" 
d="M1102 862q-31 -160 -148.5 -263t-275.5 -103q-26 0 -79 2t-79 2q-152 0 -242.5 -71t-90.5 -201q0 -148 135 -148q28 0 85 8q58 9 87 9q-34 7 -68.5 29.5t-60 60.5t-25.5 75q0 49 18 84.5t51 57.5t77 22q57 0 94 -30t37 -77q0 -92 -90 -134q26 -33 75 -43l125 -25
q58 -15 113 -51l-64 -74q-84 47 -166 47q-52 0 -154 -19q-110 -20 -159 -20q-60 0 -106 22.5t-75.5 72.5t-29.5 124q0 164 122.5 264.5t303.5 100.5q27 0 81 -2t81 -2q264 0 342 315zM541 305q0 52 -53 52q-24 0 -46 -18t-22 -50q0 -51 53 -51q24 0 46 18t22 49z" />
    <glyph glyph-name="uni0E55" unicode="&#xe55;" horiz-adv-x="969" 
d="M1059 922q-9 -40 -41 -95t-70 -89q19 -30 19 -76q0 -53 -32.5 -95.5t-81 -61.5t-118.5 -19q-38 0 -113 6q-74 6 -112 6q-137 0 -225.5 -73t-88.5 -197q0 -67 37 -107.5t99 -40.5q28 0 85 8q58 9 87 9q-31 6 -61.5 23t-61.5 58t-31 87q0 63 36 108q48 53 110 53
q38 0 66.5 -12t46.5 -37t18 -57q0 -91 -91 -135q0 -9 31 -25t45 -18q98 -14 141.5 -27t96.5 -49l-63 -74q-95 47 -167 47q-55 0 -154 -19q-107 -20 -159 -20q-98 0 -154.5 60t-56.5 159q0 93 43 170.5t137.5 135t227.5 57.5q34 0 114 -6q62 -4 100 -4q144 0 144 88
q-15 -17 -62 -32t-77 -15q-129 0 -129 100q0 67 49 103t131 36q61 0 127 -41q65 76 74 144zM842 742q-22 32 -78 32q-34 0 -56 -10t-22 -32q0 -16 15 -25.5t42 -9.5q66 0 99 45zM551 307q0 50 -53 50q-27 0 -47.5 -20t-20.5 -48q0 -51 52 -51q27 0 48 20.5t21 48.5z" />
    <glyph glyph-name="uni0E56" unicode="&#xe56;" horiz-adv-x="865" 
d="M359 86q81 0 145 29.5t100.5 86.5t36.5 136q0 50 -21 85.5t-59.5 56t-91.5 20.5q-159 0 -243 -135h-29q20 79 20 182q0 161 -82 307l91 51q81 -135 81 -309q0 -16 -4 -61q50 26 104 37.5t105 11.5q100 0 161.5 -65.5t61.5 -180.5q0 -97 -44.5 -171t-122.5 -120.5
t-179 -46.5q-88 0 -158.5 44t-70.5 128q0 59 42.5 106.5t109.5 47.5q124 0 124 -107q0 -41 -22 -80.5t-55 -52.5zM359 207q0 47 -50 47q-21 0 -38 -10.5t-27 -27.5t-10 -38q0 -47 49 -47q21 0 38 10.5t27.5 27.5t10.5 38z" />
    <glyph glyph-name="uni0E57" unicode="&#xe57;" horiz-adv-x="1092" 
d="M1168 836q-75 -51 -118 -166t-78 -324q-28 -166 -145.5 -257t-295.5 -91q189 238 189 420q0 82 -66 82q-90 0 -125 -152h-80q0 152 -82 152q-75 0 -127.5 -85t-52.5 -192q36 39 102 39q51 0 77.5 -33.5t26.5 -74.5q0 -64 -47.5 -112t-111.5 -48q-148 0 -148 205
q0 143 85.5 262t209.5 119q95 0 129 -92q65 92 172 92q126 0 126 -162q0 -176 -125 -324q179 102 218 317q15 90 60 265q37 105 106 160h101zM316 140q0 49 -52 49q-25 0 -46 -21.5t-21 -48.5q0 -49 51 -49q32 0 50 22.5t18 47.5z" />
    <glyph glyph-name="uni0E58" unicode="&#xe58;" horiz-adv-x="973" 
d="M998 846q0 -367 -303 -367q-44 0 -132 7q-87 8 -131 8q-110 0 -182 -71.5t-72 -180.5q0 -88 39 -88q41 123 110 123q38 0 149 -99q111 -98 158 -98q41 0 41 37q-140 0 -140 102q0 46 21.5 81.5t56.5 57t79 21.5q126 0 126 -127q0 -95 -58.5 -174.5t-140.5 -79.5
q-34 0 -65.5 11.5t-52.5 27t-91 77.5q-73 64 -84 64q-35 0 -35 -96q0 -49 14 -84q-85 0 -151 59.5t-66 141.5q0 375 383 375q37 0 109 -7q73 -6 110 -6q213 0 213 285h95zM736 258q0 47 -50 47q-27 0 -48 -20t-21 -49q0 -47 49 -47q28 0 49 20.5t21 48.5z" />
    <glyph glyph-name="uni0E59" unicode="&#xe59;" horiz-adv-x="908" 
d="M928 858q0 -160 -39.5 -295t-115.5 -135q-40 0 -94 33q-23 14 -36 14q-18 -4 -18 -34q0 -43 53 -164l100 -234l-86 -43l-106 246q-40 99 -63.5 145t-59 75.5t-77.5 29.5q-74 0 -125.5 -89.5t-51.5 -190.5q0 -144 103 -144q57 0 79 45q-12 -6 -38 -6q-84 0 -84 94
q0 66 38.5 112t102.5 46q50 0 75 -34.5t25 -78.5q0 -65 -30.5 -125t-78 -94.5t-102.5 -34.5q-188 0 -188 219q0 148 79 256.5t210 108.5q110 0 155 -94q12 89 70 94q23 0 75 -29t68 -29q27 4 44.5 125t17.5 211h98zM436 244q0 45 -40 45q-24 0 -40 -22t-16 -48q0 -41 37 -41
q24 0 41.5 20t17.5 46z" />
    <glyph glyph-name="uni0E5A" unicode="&#xe5a;" horiz-adv-x="873" 
d="M640 757q0 -14 -1 -19l-94 -537q-14 -83 -72.5 -141t-138.5 -62l-29 72q28 0 62.5 18t54 43.5t27.5 71.5l55 313q-65 -77 -109.5 -101t-99.5 -24q-57 0 -101.5 21t-72 65.5t-27.5 112.5q0 64 27 117.5t70.5 82.5t97.5 29q42 0 75.5 -25t33.5 -73q0 -44 -21.5 -80t-55 -57
t-75.5 -21q-30 0 -57 15q0 -61 29.5 -86t86.5 -25q34 0 69 21.5t66.5 59.5t53 73t38 73.5t27.5 124.5q81 0 81 -62zM332 705q0 53 -55 53q-32 0 -55 -23.5t-23 -54.5q0 -53 55 -53q22 0 39.5 10.5t28 28t10.5 39.5zM895 793l-104 -594q-16 -89 -78 -145t-133 -58l-29 72
q28 0 62.5 18t54 43.5t27.5 71.5l108 608q31 -4 92 -16z" />
    <glyph glyph-name="uni0E5B" unicode="&#xe5b;" horiz-adv-x="1637" 
d="M1633 410q-91 -278 -267 -278q-43 0 -78 26.5t-88 122.5l-143 -127l-87 131l-146 -127l-72 111q-64 -111 -162.5 -190t-218.5 -79q-142 0 -216 86t-74 240q0 174 114 295t289 121q97 0 205 -66l-23 -90q-99 72 -197 72q-134 0 -218 -97t-84 -252q0 -101 57 -163t149 -62
q101 0 182.5 66t196.5 254l89 -137l147 137l87 -135l148 135l74 -132q43 -67 76 -67q118 0 186 205h74z" />
    <glyph glyph-name="uni200B" unicode="&#x200b;" horiz-adv-x="0" 
 />
    <glyph glyph-name="endash" unicode="&#x2013;" 
d="M744 299h-744v95h744v-95z" />
    <glyph glyph-name="emdash" unicode="&#x2014;" horiz-adv-x="1337" 
d="M1337 299h-1337v95h1337v-95z" />
    <glyph glyph-name="quoteleft" unicode="&#x2018;" horiz-adv-x="297" 
d="M375 973l-10 -51q-76 -21 -103 -143h73l-28 -133h-135l25 117q42 195 178 210z" />
    <glyph glyph-name="quoteright" unicode="&#x2019;" horiz-adv-x="297" 
d="M370 953l-24 -117q-40 -193 -179 -211l11 52q77 21 103 142h-73l28 134h134z" />
    <glyph glyph-name="quotesinglbase" unicode="&#x201a;" horiz-adv-x="297" 
d="M34 16l28 136h126l-22 -107q-17 -81 -55.5 -132t-95.5 -74l-20 46q79 31 100 131h-61z" />
    <glyph glyph-name="quotedblleft" unicode="&#x201c;" horiz-adv-x="445" 
d="M552 973l-10 -51q-77 -21 -103 -143h73l-28 -133h-135l25 117q42 195 178 210zM344 973l-10 -51q-77 -21 -104 -143h74l-29 -133h-134l25 117q42 195 178 210z" />
    <glyph glyph-name="quotedblright" unicode="&#x201d;" horiz-adv-x="445" 
d="M558 953l-25 -117q-41 -194 -178 -211l11 52q77 21 103 142h-73l28 134h134zM343 953l-24 -117q-40 -193 -179 -211l11 52q77 21 102 142h-73l28 134h135z" />
    <glyph glyph-name="quotedblbase" unicode="&#x201e;" horiz-adv-x="445" 
d="M10 0l28 136h126l-22 -107q-17 -81 -55.5 -132t-95.5 -74l-20 46q79 31 100 131h-61zM212 0l28 136h126l-22 -107q-33 -158 -151 -206l-19 46q78 31 99 131h-61z" />
    <glyph glyph-name="dagger" unicode="&#x2020;" horiz-adv-x="743" 
d="M214 -226l164 791h-260l22 105h260l55 265h118l-55 -265h262l-22 -105h-262l-164 -791h-118z" />
    <glyph glyph-name="daggerdbl" unicode="&#x2021;" horiz-adv-x="743" 
d="M216 -226l50 242h-262l22 105h262l98 473h-262l22 105h262l51 245h118l-51 -245h263l-22 -105h-263l-98 -473h263l-22 -105h-263l-50 -242h-118z" />
    <glyph glyph-name="bullet" unicode="&#x2022;" horiz-adv-x="468" 
d="M448 469q0 -69 -48 -117.5t-117 -48.5q-42 0 -78 19t-61.5 57.5t-25.5 89.5q0 47 22.5 84t59 59t83.5 22t84 -22t59 -59t22 -84z" />
    <glyph glyph-name="ellipsis" unicode="&#x2026;" horiz-adv-x="1337" 
d="M1247 134l-28 -134h-133l28 134h133zM800 134l-28 -134h-134l29 134h133zM354 134l-29 -134h-133l28 134h134z" />
    <glyph glyph-name="perthousand" unicode="&#x2030;" horiz-adv-x="1337" 
d="M154 -35l602 1008h86l-602 -1008h-86zM126 717q51 248 238 248q148 0 148 -152q0 -17 -2.5 -40.5t-8.5 -52.5q-52 -258 -240 -258q-146 0 -146 156q0 22 2.5 46.5t8.5 52.5zM222 712q-9 -45 -9 -79q0 -89 68 -89q22 0 45.5 16t43 48t31.5 78.5t12 108.5q0 89 -65 89
q-92 0 -126 -172zM496 219q53 248 238 248q149 0 149 -152q0 -17 -2.5 -40.5t-8.5 -52.5q-53 -257 -241 -257q-146 0 -146 155q0 22 2.5 46.5t8.5 52.5zM592 214q-9 -45 -9 -79q0 -89 68 -89q22 0 45.5 16.5t43 48.5t31.5 79t12 109q0 87 -64 87q-91 0 -127 -172zM936 219
q53 248 239 248q148 0 148 -152q0 -17 -2.5 -40.5t-8.5 -52.5q-53 -257 -241 -257q-146 0 -146 155q0 22 2.5 46.5t8.5 52.5zM1032 214q-9 -45 -9 -79q0 -89 68 -89q22 0 45.5 16.5t43 48.5t31.5 79t12 109q0 87 -64 87q-91 0 -127 -172z" />
    <glyph glyph-name="guilsinglleft" unicode="&#x2039;" horiz-adv-x="445" 
d="M214 344l111 -297h-97l-144 297l268 298h97z" />
    <glyph glyph-name="guilsinglright" unicode="&#x203a;" horiz-adv-x="445" 
d="M280 346l-111 296h97l138 -292l-262 -303h-97z" />
    <glyph glyph-name="Euro" unicode="&#x20ac;" 
d="M680 36q-41 -18 -69 -28.5t-54 -16.5t-55.5 -7.5t-74.5 -1.5q-80 0 -146 24.5t-113 71t-73 115t-27 156.5h-86l46 80h48q2 10 3 17.5t3 19t6 30.5t12 52h-77l46 80h61q30 79 83 146.5t121.5 117t147 77.5t159.5 28q48 0 79.5 -2.5t56 -8.5t45.5 -16t47 -25l-24 -115h-11
q-21 19 -42 34.5t-45 26t-52.5 16t-64.5 5.5q-56 0 -113 -17t-110 -52.5t-100 -89t-82 -125.5h314l-45 -80h-301q-14 -45 -17 -69.5t-3 -42.5v-7h253l-46 -80h-210q4 -73 30 -126.5t65.5 -88.5t88 -52t98.5 -17q49 0 83 5.5t60 16t49 26.5t49 37h11z" />
    <glyph glyph-name="trademark" unicode="&#x2122;" horiz-adv-x="1337" 
d="M360 425l94 453h-172l16 79h435l-16 -79h-174l-94 -453h-89zM682 425l110 532h130l47 -425l218 425h128l-110 -532h-81l93 446l-230 -446h-81l-48 453l-94 -453h-82z" />
    <glyph glyph-name="uni25CC" unicode="&#x25cc;" horiz-adv-x="1020" 
d="M948 756q-9 -40 -50 -40q-37 0 -37 28t15.5 42t39.5 14q34 0 34 -30q0 -2 -0.5 -5.5t-1.5 -8.5zM837 842q-9 -42 -49 -42q-38 0 -38 29t16 43.5t40 14.5q33 0 33 -30q0 -4 -0.5 -7t-1.5 -8zM1008 628q-9 -44 -54 -44q-35 0 -35 30q0 29 16 43t39 14q36 0 36 -29
q0 -2 -0.5 -5.5t-1.5 -8.5zM1008 477q-9 -43 -50 -43q-38 0 -38 30q0 28 16 42t40 14q34 0 34 -29q0 -2 -0.5 -5.5t-1.5 -8.5zM692 875q-9 -46 -52 -46q-36 0 -36 31q0 28 15 42.5t39 14.5q36 0 36 -29q0 -3 -0.5 -6t-1.5 -7zM536 842q-9 -42 -53 -42q-36 0 -36 29
t15.5 43.5t38.5 14.5q37 0 37 -31q0 -2 -0.5 -5.5t-1.5 -8.5zM945 326q-9 -43 -54 -43q-35 0 -35 29q0 28 15 43t38 15q37 0 37 -31q0 -12 -1 -13zM388 756q-9 -40 -52 -40q-36 0 -36 28t16 42t38 14q36 0 36 -30q0 -2 -0.5 -5.5t-1.5 -8.5zM831 195q-9 -43 -50 -43
q-36 0 -36 29t15.5 44t38.5 15q34 0 34 -30q0 -2 -0.5 -6t-1.5 -9zM684 109q-7 -40 -48 -40q-36 0 -36 28q0 29 15.5 43t38.5 14q32 0 32 -28q0 -4 -0.5 -8t-1.5 -9zM275 628q-9 -44 -50 -44q-37 0 -37 31q0 28 15.5 42t38.5 14q35 0 35 -29q0 -2 -0.5 -5.5t-1.5 -8.5z
M215 477q-9 -43 -52 -43q-38 0 -38 30q0 28 16 42t40 14q36 0 36 -29q0 -2 -0.5 -5.5t-1.5 -8.5zM527 81q-9 -45 -52 -45q-36 0 -36 31q0 29 15.5 43t38.5 14q36 0 36 -29q0 -2 -0.5 -5.5t-1.5 -8.5zM212 326q-9 -43 -51 -43q-36 0 -36 29q0 28 15.5 43t38.5 15q35 0 35 -30
q0 -2 -0.5 -5.5t-1.5 -8.5zM384 113q-9 -44 -53 -44q-36 0 -36 28q0 29 15.5 43t38.5 14q37 0 37 -29q0 -3 -0.5 -5.5t-1.5 -6.5zM271 195q-9 -43 -52 -43q-36 0 -36 29t15.5 44t38.5 15q36 0 36 -31q0 -2 -0.5 -5.5t-1.5 -8.5z" />
    <glyph glyph-name="glyph98" horiz-adv-x="0" 
d="M119 1024l-181 -1024h-614l180 1024h615z" />
    <glyph glyph-name="glyph99" horiz-adv-x="715" 
d="M733 723q-71 -20 -86 -20q-46 0 -108 15q-88 21 -145 21q-79 0 -131 -49q73 0 164 -30t136.5 -74t45.5 -107q0 -5 -5 -34l-55 -314q-24 -135 -180 -135q-125 0 -127 98q0 19 2 29l19 105q-27 -9 -54 -9q-46 0 -78 26.5t-32 78.5q0 71 49 116.5t114 45.5q120 0 120 -109
q0 -12 -4 -35l-33 -192l-1 -17q0 -17 5 -28.5t15.5 -17t26.5 -5.5q54 0 66 70l49 282q2 10 2 29q0 96 -143.5 133t-265.5 37q134 184 315 184q41 0 110 -17q92 -22 114 -22q29 0 85 21zM306 365q0 51 -56 51q-22 0 -39.5 -10.5t-27.5 -28t-10 -39.5q0 -51 55 -51
q22 0 39.5 10.5t28 28t10.5 39.5z" />
    <glyph glyph-name="glyph100" horiz-adv-x="0" 
d="M-209 942q-147 66 -316 66q-146 0 -304 -57q25 137 126 222t239 85q71 0 128.5 -28.5t95 -87.5t37.5 -142q0 -27 -6 -58zM-281 1045q-33 137 -192 137q-144 0 -229 -127q102 29 203 29q110 0 218 -39z" />
    <glyph glyph-name="glyph101" horiz-adv-x="0" 
d="M-149 1352l-48 -269q3 -55 3 -67q0 -56 -7 -74q-147 66 -315 66q-147 0 -305 -57q23 136 123.5 221.5t238.5 85.5q136 0 184 -73l29 167h97zM-272 1045q-44 137 -193 137q-144 0 -230 -127q104 29 205 29q110 0 218 -39z" />
    <glyph glyph-name="glyph102" horiz-adv-x="0" 
d="M-248 1150q41 -73 41 -143q0 -26 -6 -65q-147 66 -316 66q-146 0 -305 -57q23 140 124.5 223.5t242.5 83.5q24 0 67 -6q0 63 42 101t106 38q43 0 76.5 -25.5t33.5 -74.5q0 -108 -106 -141zM-208 1280q0 52 -52 52q-21 0 -39 -10.5t-28 -27.5t-10 -38q0 -51 54 -51
q21 0 38 10t27 27t10 38zM-285 1045q-35 137 -192 137q-145 0 -230 -127q103 29 204 29q110 0 218 -39z" />
    <glyph glyph-name="glyph103" horiz-adv-x="0" 
d="M-147 1358l-49 -278q11 -38 11 -66q0 -54 -6 -72q-146 66 -315 66q-147 0 -305 -57q31 146 132.5 226.5t254.5 80.5l18 100h93l-22 -123q6 0 31 -14.5t35 -26.5l29 164h93zM-262 1045q-40 137 -193 137q-143 0 -229 -127q102 29 203 29q110 0 219 -39z" />
    <glyph glyph-name="glyph105" horiz-adv-x="0" 
d="M-203 1200l-45 -258h-96l45 258h96z" />
    <glyph glyph-name="glyph106" horiz-adv-x="0" 
d="M-92 1258l-25 -140q-166 -178 -391 -178q-36 0 -70 6q57 32 90 97q-110 0 -110 94q0 54 37.5 90.5t88.5 36.5q111 0 111 -102q0 -44 -32 -97.5t-39 -54.5q88 20 182 85t158 163zM-422 1164q0 47 -49 47q-20 0 -35.5 -9.5t-25 -25t-9.5 -35.5q0 -47 49 -47q20 0 35.5 9.5
t25 25t9.5 35.5z" />
    <glyph glyph-name="glyph107" horiz-adv-x="0" 
d="M-84 1170q-33 -95 -120 -162.5t-216 -67.5q37 25 64.5 72t27.5 96q0 66 -43 66q-48 0 -88 -45q-38 41 -86 41q-58 0 -72 -84q32 20 63 20q33 0 52.5 -25.5t19.5 -56.5q0 -90 -109 -90q-95 0 -95 113q0 73 42 132.5t111 59.5q55 0 80 -51q48 51 109 51q92 0 92 -105
q0 -66 -55 -138q127 58 165 233zM-522 1028q0 39 -39 39q-56 0 -56 -55q0 -39 39 -39q56 0 56 55z" />
    <glyph glyph-name="glyph108" horiz-adv-x="0" 
d="M-183 1147l-16 -90h-115l-20 -121h-97l21 121h-115l16 90h115l23 127h96l-23 -127h115z" />
    <glyph glyph-name="glyph109" horiz-adv-x="0" 
d="M25 1362l-6 -21q-9 -33 -36 -60t-70 -42t-169 -25q-102 -9 -137 -77q35 22 75 22q89 0 89 -94q0 -32 -14 -57t-45.5 -46.5t-74.5 -21.5q-54 0 -88 36t-34 91q0 83 70.5 148t225.5 65q35 0 66 12t53 70h95zM-289 1059q0 49 -49 49q-65 0 -65 -65q0 -49 48 -49q66 0 66 65z
" />
    <glyph glyph-name="glyph115" horiz-adv-x="1118" 
d="M1088 820l-119 -666q-11 -63 -29.5 -91.5t-47.5 -45.5t-64 -17h-362l16 92h59l88 490q5 28 5 52q0 106 -166 106q-94 0 -184 -48q7 0 54 -33t85 -71q-28 0 -86.5 -39t-73.5 -121l-31 -172q24 8 53 8q109 0 109 -102q0 -75 -49 -119.5t-113 -44.5q-119 0 -119 110
q0 16 3 34l53 305q10 56 40 95q16 22 66 50q-49 56 -172 84q51 54 166.5 101t208.5 47q81 0 136.5 -18t86 -54.5t30.5 -88.5q0 -16 -2 -34q-1 -14 -4 -43l-86 -494h173q23 0 45 19q12 10 18 47l116 662h97zM322 146q0 51 -55 51q-31 0 -54.5 -22.5t-23.5 -55.5q0 -51 55 -51
q20 0 37 9t29 27.5t12 41.5z" />
    <glyph glyph-name="glyph123" horiz-adv-x="0" 
d="M148 1333l-27 -149q-102 -76 -214.5 -107.5t-205.5 -31.5q-118 0 -166.5 45t-48.5 98q0 68 44.5 117t106.5 49q50 0 88.5 -26.5t38.5 -80.5q0 -65 -55 -114q255 0 439 200zM-416 1270q-29 -28 -29 -61q0 -56 60 -56q37 0 59.5 27.5t22.5 56.5q0 53 -56 53q-37 0 -57 -20z
" />
    <glyph glyph-name="glyph124" horiz-adv-x="0" 
d="M-193 1071q0 -72 -48.5 -121t-119.5 -49q-36 0 -62 15t-41 40.5t-15 59.5q0 49 22.5 87t59.5 60.5t85 22.5q119 0 119 -115zM-259 1059q0 62 -65 62q-43 0 -67.5 -30t-24.5 -63q0 -61 66 -61q43 0 67 29.5t24 62.5z" />
    <glyph glyph-name="glyph125" horiz-adv-x="0" 
d="M-139 1327q0 -54 -55.5 -93.5t-118.5 -39.5q-28 0 -74 6q-65 9 -90 9q-58 0 -95.5 -32.5t-37.5 -89.5q0 -24 6 -32q43 55 95 55q47 0 86 -23.5t44 -35.5q30 61 92 61q66 0 66 -63q0 -98 -105 -98q-23 0 -45.5 12.5t-50.5 39.5q-47 46 -82 46q-76 0 -96 -105
q-80 32 -80 128q0 88 57 141t162 53q23 0 70 -7q46 -7 69 -7q34 0 68.5 21t34.5 54h80zM-264 1039q0 32 -33 32q-47 0 -47 -49q0 -33 33 -33q47 0 47 50z" />
    <glyph glyph-name="glyph126" horiz-adv-x="0" 
d="M-103 1653l-43 -244h-96l43 244h96z" />
    <glyph glyph-name="glyph127" horiz-adv-x="0" 
d="M215 1742l-25 -140q-166 -178 -391 -178q-36 0 -70 6q57 32 90 97q-110 0 -110 94q0 55 37.5 91t88.5 36q111 0 111 -102q0 -44 -32 -97.5t-39 -54.5q88 20 182 85t158 163zM-115 1648q0 47 -49 47q-20 0 -35.5 -9.5t-25 -25t-9.5 -35.5q0 -47 49 -47q18 0 33.5 8
t26 24.5t10.5 37.5z" />
    <glyph glyph-name="glyph128" horiz-adv-x="0" 
d="M256 1701q-33 -95 -120 -162.5t-216 -67.5q37 25 64.5 72t27.5 96q0 66 -43 66q-48 0 -88 -45q-38 41 -86 41q-58 0 -72 -84q32 20 63 20q29 0 50.5 -23.5t21.5 -58.5q0 -90 -109 -90q-95 0 -95 113q0 74 42.5 133t110.5 59q55 0 80 -51q48 51 109 51q92 0 92 -105
q0 -66 -55 -138q127 58 165 233zM-182 1559q0 39 -39 39q-56 0 -56 -55q0 -39 39 -39q56 0 56 55z" />
    <glyph glyph-name="glyph129" horiz-adv-x="0" 
d="M15 1614l-17 -91h-115l-20 -120h-96l20 120h-114l16 91h115l22 127h96l-22 -127h115z" />
    <glyph glyph-name="glyph130" horiz-adv-x="0" 
d="M101 1639q-12 -43 -37 -71t-51.5 -37.5t-63.5 -15t-92 -10.5t-86 -22t-45 -47q33 20 65 20q80 0 80 -86q0 -49 -34.5 -80.5t-84.5 -31.5q-49 0 -78.5 32t-29.5 82q0 79 64 136t202 57q77 0 98 50l9 24h84zM-182 1366q0 43 -44 43q-58 0 -58 -59q0 -43 42 -43q60 0 60 59z
" />
    <glyph glyph-name="glyph131" horiz-adv-x="211" 
 />
    <glyph glyph-name="glyph190" horiz-adv-x="455" 
d="M5 0h-5v6z" />
    <glyph glyph-name="glyph191" horiz-adv-x="455" 
d="M424 -4l-30 -180h-97l11 67h-181l-10 -67h-98l30 180h375z" />
    <glyph glyph-name="glyph201" horiz-adv-x="0" 
d="M96 1657l-45 -248h-96l45 248h96z" />
    <glyph glyph-name="glyph202" horiz-adv-x="0" 
d="M344 1713l-25 -140q-166 -178 -391 -178q-36 0 -70 6q57 32 90 97q-110 0 -110 94q0 55 37.5 91t88.5 36q111 0 111 -102q0 -41 -30.5 -94t-40.5 -58q88 20 182 85t158 163zM14 1619q0 47 -49 47q-20 0 -35.5 -9.5t-25 -25t-9.5 -35.5q0 -47 49 -47q18 0 33.5 8t26 24.5
t10.5 37.5z" />
    <glyph glyph-name="glyph203" horiz-adv-x="0" 
d="M372 1635q-33 -95 -120 -162.5t-216 -67.5q37 25 64.5 72t27.5 96q0 66 -43 66q-48 0 -88 -45q-38 41 -86 41q-58 0 -72 -84q32 20 63 20q29 0 50.5 -23.5t21.5 -58.5q0 -90 -109 -90q-95 0 -95 113q0 74 42.5 133t110.5 59q55 0 80 -51q48 51 109 51q92 0 92 -105
q0 -66 -55 -138q127 58 165 233zM-66 1493q0 39 -39 39q-56 0 -56 -55q0 -39 39 -39q56 0 56 55z" />
    <glyph glyph-name="glyph204" horiz-adv-x="0" 
d="M207 1610l-16 -90h-115l-23 -121h-96l22 121h-114l16 90h115l23 127h96l-23 -127h115z" />
    <glyph glyph-name="glyph205" horiz-adv-x="0" 
d="M337 1674l-6 -21q-9 -33 -36 -60t-70 -42t-169 -25q-102 -9 -137 -77q35 22 75 22q89 0 89 -94q0 -54 -41 -89.5t-93 -35.5q-54 0 -88 36t-34 91q0 85 71 149t225 64q31 0 54 7.5t35 20.5t30 54h95zM23 1371q0 49 -49 49q-65 0 -65 -65q0 -49 48 -49q66 0 66 65z" />
    <glyph glyph-name="glyph221" horiz-adv-x="0" 
d="M-324 -778h-97l17 90q-24 -8 -53 -8q-108 0 -108 103q0 72 44.5 118t116.5 46q52 0 86 -29.5t34 -79.5q0 -18 -3 -35zM-361 -550q0 51 -55 51q-22 0 -39.5 -10.5t-28 -28t-10.5 -39.5q0 -51 56 -51q36 0 56.5 25t20.5 53z" />
    <glyph glyph-name="glyph222" horiz-adv-x="0" 
d="M-283 -432l-61 -346h-311l17 90q-24 -8 -53 -8q-108 0 -108 103q0 72 44.5 118t116.5 46q47 0 83.5 -27t36.5 -82q0 -17 -3 -35l-20 -121h115l47 262h96zM-595 -550q0 51 -55 51q-22 0 -39.5 -10.5t-28 -28t-10.5 -39.5q0 -51 56 -51q32 0 54.5 23t22.5 55z" />
    <glyph glyph-name="glyph223" horiz-adv-x="0" 
d="M-232 -497q0 -36 -26 -68t-72 -32q-70 0 -70 67q0 41 29 71t70 30q69 0 69 -68z" />
    <glyph glyph-name="zero.ccmp" 
d="M654 551q0 -202 -92 -384q-91 -181 -254 -181q-53 0 -94 21t-68.5 58.5t-42 89t-14.5 113.5q0 107 27.5 207t74.5 177t110 123.5t134 46.5q42 0 81.5 -15t69.5 -47.5t48.5 -84t19.5 -124.5zM559 575q0 165 -124 165q-70 0 -121.5 -64.5t-89.5 -203.5q-37 -130 -37 -229
q0 -176 125 -176q111 0 179 174q34 90 50.5 173t17.5 161z" />
    <glyph glyph-name="one.ccmp" 
d="M561 822l-171 -822h-102l129 618q-83 -66 -235 -106l19 92q49 19 95.5 44.5t86.5 54.5t71 59.5t49 59.5h58z" />
    <glyph glyph-name="two.ccmp" 
d="M225 92h367l-20 -92h-488q12 58 31.5 100t53 81t84 81.5t124.5 102.5q44 36 78 65.5t57 57t35 55.5t12 62q0 28 -10.5 53t-29.5 43t-44 28.5t-54 10.5q-127 0 -162 -167l-98 14q6 54 27.5 97.5t55.5 74t78.5 47t97.5 16.5q63 0 108.5 -20t74.5 -51.5t42.5 -70t13.5 -75.5
v-2q0 -91 -78 -179q-8 -9 -34.5 -31.5t-62.5 -52.5t-76.5 -65t-77.5 -69t-65.5 -64t-39.5 -50z" />
    <glyph glyph-name="three.ccmp" 
d="M524 418q95 -56 95 -161q0 -56 -22 -105.5t-60.5 -86.5t-89 -58t-107.5 -21q-54 0 -99 15.5t-78.5 45t-54 72t-24.5 96.5l99 12q19 -160 149 -160q38 0 71.5 14t58.5 38t39.5 56t14.5 68q0 63 -42 101t-108 38q-4 0 -12 -0.5t-21 -1.5l18 83q2 -1 14 -1h14
q82 0 130.5 39.5t48.5 105.5q0 29 -10 53.5t-27.5 42t-42 27.5t-52.5 10q-31 0 -57 -12t-45.5 -32.5t-32.5 -48t-18 -57.5l-99 20q24 100 92 156t168 56q51 0 92.5 -16t71 -44t45.5 -66.5t16 -84.5q0 -130 -135 -193z" />
    <glyph glyph-name="four.ccmp" 
d="M656 298l-18 -89h-116l-43 -209h-101l44 209h-334l22 100l457 509h83l-109 -520h115zM511 640l-304 -342h233z" />
    <glyph glyph-name="five.ccmp" 
d="M659 807l-20 -92h-310l-62 -209q70 51 147 51q42 0 80.5 -14t68.5 -42.5t47.5 -72t17.5 -103.5q0 -57 -18 -117t-56 -109.5t-97 -81t-140 -31.5q-50 0 -92.5 16t-73.5 46t-48.5 72.5t-17.5 96.5v17l102 10l-1 -38q2 -29 13 -54.5t29.5 -44t42.5 -29.5t53 -11
q48 0 85.5 24.5t64 61t40.5 80t14 82.5q0 69 -39 110.5t-108 41.5q-89 0 -156 -85l-89 6l124 419h399z" />
    <glyph glyph-name="six.ccmp" 
d="M648 620l-93 -9q-17 126 -111 126q-39 0 -72 -21t-60 -57t-48 -83.5t-35 -100.5q85 70 168 70q49 0 88.5 -17.5t67.5 -48.5t43.5 -74t15.5 -95q0 -65 -21.5 -123.5t-59 -103t-89 -71t-110.5 -26.5q-55 0 -99 21t-74.5 59t-47 91t-16.5 116q0 112 27.5 212t75.5 175
t113 118.5t140 43.5q88 0 139 -52.5t58 -149.5zM515 299q0 34 -10 63.5t-28 52t-44 35.5t-57 13q-41 0 -74.5 -21t-57.5 -54.5t-37 -75t-13 -82.5q0 -32 10.5 -61t29.5 -52t44.5 -36.5t55.5 -13.5q39 0 72.5 22t57.5 56t37.5 75t13.5 79z" />
    <glyph glyph-name="seven.ccmp" 
d="M643 807l-19 -92q-69 -60 -131.5 -145t-114 -181.5t-89 -197t-56.5 -191.5h-105q12 73 44.5 166t82 190.5t113.5 191t140 167.5h-407l19 92h523z" />
    <glyph glyph-name="eight.ccmp" 
d="M513 438q97 -61 97 -170q0 -60 -22 -112t-60.5 -90t-90.5 -59.5t-112 -21.5q-52 0 -95 17t-74 46.5t-48 70.5t-17 89q0 41 10.5 79t32 70t54 56t76.5 37q-91 49 -91 148q0 49 20.5 90.5t55 71t79 46t92.5 16.5q50 0 92.5 -14.5t73.5 -41t48.5 -63t17.5 -81.5
q0 -129 -139 -184zM554 623q0 30 -10.5 52t-28 36.5t-40 21.5t-47.5 7h-11q-34 0 -61 -12.5t-45.5 -33.5t-28.5 -47t-10 -53q0 -116 126 -116q35 0 64 11t49.5 30.5t31.5 46t11 57.5zM509 274q0 58 -38 93.5t-96 35.5q-40 0 -73.5 -15.5t-57.5 -43t-37.5 -64.5t-13.5 -80
q0 -58 38 -95.5t105 -37.5q40 0 72 19t54.5 49t34.5 66.5t12 72.5z" />
    <glyph glyph-name="nine.ccmp" 
d="M95 187l95 10q18 -127 109 -127q69 0 126 67.5t90 194.5q-94 -70 -171 -70q-44 0 -82.5 17t-67.5 48t-45.5 75t-16.5 97q0 64 21.5 123t59 103t89 70.5t111.5 26.5q55 0 98.5 -21t74 -59.5t46.5 -91.5t16 -116q0 -203 -94 -375q-95 -173 -260 -173q-88 0 -140 53.5
t-59 147.5zM552 573q0 41 -12.5 72.5t-32.5 52.5t-45.5 31.5t-51.5 10.5t-57.5 -14.5t-59 -43t-46 -71.5t-18.5 -100q0 -35 10 -65.5t28.5 -53.5t44 -36t56.5 -13q39 0 73 22t58.5 55.5t38.5 74t14 78.5z" />
    <glyph glyph-name="glyph354" horiz-adv-x="0" 
d="M177 1709q0 -28 -16 -52t-41 -42t-56 -28.5t-61 -10.5q-15 0 -39.5 2.5t-49.5 5t-46 5t-29 2.5q-58 0 -95.5 -32.5t-37.5 -89.5q0 -25 6 -32q43 55 95 55q22 0 44.5 -7t41 -17t30.5 -19.5t14 -15.5q30 61 92 61q66 0 66 -63q0 -98 -105 -98q-23 0 -45.5 12.5t-50.5 39.5
q-47 46 -82 46q-77 0 -96 -105q-80 32 -80 128q0 88 56.5 141t162.5 53q9 0 28.5 -2t41 -5t41 -5t28.5 -2q16 0 34 5t33.5 15t25.5 24t10 31h80zM52 1421q0 32 -33 32q-47 0 -47 -49q0 -33 33 -33q47 0 47 50z" />
    <glyph glyph-name="glyph355" horiz-adv-x="0" 
d="M86 1580l-45 -248h-96l45 248h96z" />
    <glyph glyph-name="glyph356" horiz-adv-x="0" 
d="M344 1713l-25 -140q-166 -178 -391 -178q-36 0 -70 6q56 32 90 97q-110 0 -110 94q0 27 10.5 50t27.5 40.5t40 27t48 9.5q111 0 111 -102q0 -19 -9.5 -44.5t-21.5 -48.5t-24 -40t-16 -19q44 10 90.5 32t91.5 54t85.5 73t72.5 89zM14 1619q0 47 -49 47q-29 0 -49.5 -20.5
t-20.5 -49.5q0 -47 49 -47q26 0 48 18.5t22 51.5z" />
    <glyph glyph-name="glyph357" horiz-adv-x="0" 
d="M332 1635q-17 -47 -47.5 -89t-73 -73.5t-96.5 -49.5t-119 -18q18 12 35 31t29.5 41t20 47t7.5 49q0 66 -43 66q-48 0 -88 -45q-38 41 -86 41q-59 0 -72 -84q32 20 63 20q29 0 50.5 -23.5t21.5 -58.5q0 -90 -109 -90q-95 0 -95 113q0 35 11 69.5t31 61.5t48 44t63 17
q54 0 80 -51q48 51 109 51q92 0 92 -105q0 -68 -55 -138q127 58 165 233zM-106 1493q0 39 -39 39q-56 0 -56 -55q0 -39 39 -39q56 0 56 55z" />
    <glyph glyph-name="glyph358" horiz-adv-x="0" 
d="M207 1610l-16 -90h-115l-23 -121h-96l22 121h-114l16 90h115l23 127h96l-23 -127h115z" />
    <glyph glyph-name="glyph359" horiz-adv-x="0" 
d="M322 1720l-5 -19q-8 -28 -22 -47t-41.5 -32t-72 -21t-111.5 -14q-93 -9 -124 -70q32 20 68 20q80 0 80 -84q0 -24 -10 -45t-27 -36t-39 -23.5t-45 -8.5q-49 0 -79.5 32.5t-30.5 81.5q0 37 15.5 72t48 61.5t83 42.5t120.5 16q24 0 39.5 3t27.5 11t21 22.5t19 37.5h85z
M40 1447q0 44 -44 44q-59 0 -59 -58q0 -44 43 -44q60 0 60 58z" />
    <glyph glyph-name="glyph360" horiz-adv-x="0" 
d="M172 1510q0 -36 -13 -67.5t-35.5 -54t-53.5 -35.5t-66 -13q-54 0 -86 32t-32 83q0 36 13 67.5t35.5 54t53 35.5t65.5 13q119 0 119 -115zM106 1498q0 62 -65 62q-21 0 -38 -8.5t-29 -22t-18.5 -30t-6.5 -32.5q0 -61 66 -61q21 0 38 8t29 21.5t18 29.5t6 33z" />
    <glyph glyph-name="glyph361" horiz-adv-x="0" 
d="M286 1711l-40 -27q-14 8 -35 8q-14 0 -29 -4.5t-28 -12.5t-21.5 -18.5t-8.5 -23.5q0 -37 61 -37l-21 -32q-25 0 -48.5 -6t-42 -16t-29.5 -24.5t-11 -30.5q0 -33 40 -33q19 0 33 5.5t26 14.5l26 -26q-43 -31 -120 -31q-83 0 -83 57q0 24 12 44t32.5 34.5t49 23.5t61.5 12
q-57 3 -57 42q0 22 14 39t37 29t53.5 18t62.5 6q21 0 37 -3t29 -8z" />
  </font>
</defs>
</svg>
