<?xml version="1.0" standalone="no"?>
<!DOCTYPE svg PUBLIC "-//W3C//DTD SVG 1.1//EN" "http://www.w3.org/Graphics/SVG/1.1/DTD/svg11.dtd" >
<svg xmlns="http://www.w3.org/2000/svg" xmlns:xlink="http://www.w3.org/1999/xlink" version="1.1">
<metadata>
Created by FontForge 20170731 at Tue Aug 10 16:03:30 1999
 By Aleksey,,,
Browallia (c) Unity Progress 1992. Arial (c) The Monotype Corporation 1990-1992. Data (c) The Monotype Corporation/Type Solutions Inc. 1990-1993. All Rights Reserved
</metadata>
<defs>
<font id="BrowalliaNew" horiz-adv-x="744" >
  <font-face 
    font-family="Browallia New"
    font-weight="400"
    font-stretch="normal"
    units-per-em="2048"
    panose-1="2 11 6 4 2 2 2 2 2 4"
    ascent="1638"
    descent="-410"
    x-height="693"
    cap-height="957"
    bbox="-941 -789 1620 1770"
    underline-thickness="102"
    underline-position="-358"
    unicode-range="U+0020-F71D"
  />
<missing-glyph horiz-adv-x="748" 
d="M68 0v1365h544v-1365h-544zM136 68h408v1229h-408v-1229z" />
    <glyph glyph-name=".notdef" horiz-adv-x="748" 
d="M68 0v1365h544v-1365h-544zM136 68h408v1229h-408v-1229z" />
    <glyph glyph-name="glyph1" horiz-adv-x="0" 
 />
    <glyph glyph-name="glyph2" horiz-adv-x="455" 
 />
    <glyph glyph-name="space" unicode=" " horiz-adv-x="455" 
 />
    <glyph glyph-name="space" unicode="&#xa0;" horiz-adv-x="455" 
 />
    <glyph glyph-name="exclam" unicode="!" horiz-adv-x="371" 
d="M151 238l-36 507v212h145v-212l-33 -507h-76zM120 0v134h135v-134h-135z" />
    <glyph glyph-name="quotedbl" unicode="&#x22;" horiz-adv-x="475" 
d="M94 618l-33 182v157h134v-157l-29 -182h-72zM310 618l-32 182v157h134v-157l-31 -182h-71z" />
    <glyph glyph-name="numbersign" unicode="#" 
d="M67 -16l57 278h-110v97h130l48 237h-178v97h198l56 280h98l-57 -280h206l57 280h98l-56 -280h113v-97h-133l-49 -237h182v-97h-201l-57 -278h-98l56 278h-205l-57 -278h-98zM242 359h205l48 237h-205z" />
    <glyph glyph-name="dollar" unicode="$" 
d="M333 -138v118q-269 33 -285 286l118 22q25 -190 167 -209v374q-122 27 -193.5 89t-71.5 180q0 105 65 179.5t200 87.5v56h69v-56q225 -22 255 -236l-121 -18q-20 131 -134 155v-339q158 -33 218.5 -104t60.5 -175q0 -123 -78 -204t-201 -87v-119h-69zM333 891
q-47 -7 -79.5 -30t-50.5 -56t-18 -74q0 -121 148 -165v325zM402 79q71 9 114.5 60.5t43.5 124.5q0 65 -34 105t-124 68v-358z" />
    <glyph glyph-name="percent" unicode="%" horiz-adv-x="1189" 
d="M78 727q0 71 23 126t68.5 87.5t109.5 32.5q57 0 101.5 -25t75.5 -81.5t31 -146.5q0 -113 -56 -183t-151 -70t-148.5 70t-53.5 190zM282 892q-102 0 -102 -177q0 -167 102 -167q103 0 103 177q0 167 -103 167zM283 -35l523 1008h96l-522 -1008h-97zM697 225q0 76 25 131
t69.5 85t106.5 30q97 0 152.5 -68.5t55.5 -185.5q0 -113 -56 -182.5t-151 -69.5q-55 0 -98.5 24.5t-73.5 83t-30 152.5zM902 390q-103 0 -103 -177q0 -167 102 -167q103 0 103 176q0 168 -102 168z" />
    <glyph glyph-name="ampersand" unicode="&#x26;" horiz-adv-x="892" 
d="M635 113q-116 -129 -275 -129q-87 0 -152 34.5t-108 101t-43 144.5q0 177 228 286q-107 124 -107 210q0 91 69 152t168 61q65 0 115 -27t79 -72.5t29 -104.5q0 -136 -181 -233l172 -219q29 58 45 133l122 -26q-31 -125 -84 -206q65 -87 149 -147l-79 -93q-71 46 -147 135
zM396 612q122 71 122 154q0 42 -27.5 76.5t-81.5 34.5q-41 0 -76 -27.5t-35 -78.5q0 -46 46 -99zM561 206l-215 267q-162 -97 -162 -202q0 -74 52.5 -129t125.5 -55q123 0 199 119z" />
    <glyph glyph-name="quotesingle" unicode="'" horiz-adv-x="255" 
d="M89 618l-30 179v160h134v-160l-32 -179h-72z" />
    <glyph glyph-name="parenleft" unicode="(" horiz-adv-x="445" 
d="M313 -281q-232 292 -232 628q0 317 232 626h84q-126 -207 -160.5 -351.5t-34.5 -275.5q0 -314 195 -627h-84z" />
    <glyph glyph-name="parenright" unicode=")" horiz-adv-x="445" 
d="M165 -281h-84q195 313 195 627q0 112 -22 218.5t-58 189.5t-115 219h84q232 -309 232 -626q0 -334 -232 -628z" />
    <glyph glyph-name="asterisk" unicode="*" horiz-adv-x="520" 
d="M42 781l30 93q104 -36 151 -63q-13 118 -13 162h94q-2 -64 -15 -162q67 34 154 63l30 -93q-83 -27 -162 -36q40 -35 112 -124l-78 -55q-38 52 -90 140q-48 -92 -85 -140l-77 55q76 94 109 124q-84 16 -160 36z" />
    <glyph glyph-name="plus" unicode="+" horiz-adv-x="781" 
d="M335 155v262h-261v110h261v260h111v-260h260v-110h-260v-262h-111z" />
    <glyph glyph-name="comma" unicode="," horiz-adv-x="371" 
d="M119 0v134h134v-134q0 -142 -109 -189l-33 50q71 31 74 139h-66z" />
    <glyph glyph-name="hyphen" unicode="-" horiz-adv-x="445" 
d="M42 287v118h361v-118h-361z" />
    <glyph glyph-name="period" unicode="." horiz-adv-x="371" 
d="M121 0v134h134v-134h-134z" />
    <glyph glyph-name="slash" unicode="/" horiz-adv-x="371" 
d="M0 -16l277 989h94l-276 -989h-95z" />
    <glyph glyph-name="zero" unicode="0" 
d="M55 472q0 489 313 489q312 0 312 -489q0 -488 -312 -488q-313 0 -313 488zM176 472q0 -392 192 -392q191 0 191 392t-193 392q-190 0 -190 -392z" />
    <glyph glyph-name="one" unicode="1" 
d="M498 0h-117v749q-94 -90 -235 -142v114q205 96 276 240h76v-961z" />
    <glyph glyph-name="two" unicode="2" 
d="M670 113v-113h-633q0 84 59 167t186 187q94 78 148 130.5t86 108.5t32 105t-23 86t-63.5 58.5t-93.5 21.5q-87 0 -137 -51.5t-51 -140.5l-120 12q25 277 310 277q132 0 215.5 -72.5t83.5 -193.5q0 -70 -43.5 -151.5t-239.5 -246.5q-87 -73 -122.5 -106t-62.5 -78h469z
" />
    <glyph glyph-name="three" unicode="3" 
d="M56 253l118 15q38 -188 187 -188q57 0 101 26.5t70 71t26 102.5q0 82 -52.5 134t-134.5 52q-34 0 -83 -13l13 103l28 -1q32 1 60 8t51.5 21t40.5 33.5t25.5 44t8.5 53.5q0 68 -44.5 108.5t-112.5 40.5q-146 0 -173 -172l-117 21q45 248 288 248q120 0 200 -69t80 -180
q0 -133 -132 -194q179 -41 179 -235q0 -132 -92.5 -216t-230.5 -84q-84 0 -149.5 33.5t-106 93.5t-48.5 143z" />
    <glyph glyph-name="four" unicode="4" 
d="M432 0v229h-415v108l437 620h96v-620h129v-108h-129v-229h-118zM432 337v431l-299 -431h299z" />
    <glyph glyph-name="five" unicode="5" 
d="M55 251l124 10q27 -181 184 -181q53 0 96 24.5t74.5 78.5t31.5 131q0 98 -54.5 157.5t-149.5 59.5q-115 0 -174 -93l-111 14l93 492h476v-112h-382l-51 -258q86 61 180 61q88 0 154.5 -40.5t105 -110t38.5 -160.5q0 -100 -45 -178.5t-116 -120t-166 -41.5
q-129 0 -212 71.5t-96 195.5z" />
    <glyph glyph-name="six" unicode="6" 
d="M665 723l-117 -9q-17 81 -60.5 115.5t-101.5 34.5q-94 0 -156 -89.5t-63 -280.5q84 127 233 127q83 0 145.5 -40.5t99.5 -110t37 -159.5q0 -154 -87 -240.5t-212 -86.5q-333 0 -333 464q0 513 344 513q76 0 133.5 -28.5t92.5 -81t45 -128.5zM185 310q0 -97 54.5 -163.5
t141.5 -66.5q82 0 131.5 64t49.5 160q0 65 -24 113t-65 74t-97 26q-57 0 -98.5 -25.5t-67 -72.5t-25.5 -109z" />
    <glyph glyph-name="seven" unicode="7" 
d="M63 832v113h620v-92q-152 -161 -251.5 -395t-113.5 -458h-121q5 224 104.5 452.5t230.5 379.5h-469z" />
    <glyph glyph-name="eight" unicode="8" 
d="M236 519q-143 53 -143 195q0 65 29 118.5t92 91t154 37.5q75 0 137.5 -29t101.5 -86t39 -135q0 -139 -141 -192q180 -59 180 -245q0 -128 -89 -209t-227 -81t-226.5 81.5t-88.5 211.5q0 194 182 242zM213 718q0 -69 44 -111.5t113 -42.5q66 0 110.5 41.5t44.5 106.5
q0 39 -17.5 72.5t-53.5 56.5t-85 23q-45 0 -80.5 -20t-55.5 -52t-20 -74zM175 276q0 -92 57.5 -144t138.5 -52q84 0 139 54t55 138q0 57 -25.5 101t-70 69.5t-102.5 25.5q-51 0 -93 -21.5t-70.5 -65.5t-28.5 -105z" />
    <glyph glyph-name="nine" unicode="9" 
d="M73 221l113 11q27 -152 159 -152q29 0 55 7.5t48.5 23t41 37.5t32 49t23 56.5t15 63t7.5 71.5v62q-79 -126 -228 -126q-125 0 -204.5 89.5t-79.5 224.5q0 97 39.5 170t106 113t155.5 40q96 0 165.5 -42.5t116.5 -135.5t47 -285q0 -262 -90.5 -388t-252.5 -126
q-69 0 -125 24.5t-95 77.5t-49 135zM554 644q0 93 -50 156.5t-133 63.5q-87 0 -141 -68t-54 -162q0 -88 54 -147t138 -59q86 0 136 60t50 156z" />
    <glyph glyph-name="colon" unicode=":" horiz-adv-x="371" 
d="M121 559v134h134v-134h-134zM121 0v134h134v-134h-134z" />
    <glyph glyph-name="semicolon" unicode=";" horiz-adv-x="371" 
d="M119 559v134h134v-134h-134zM119 0v134h134v-134q0 -142 -109 -189l-33 50q71 31 74 139h-66z" />
    <glyph glyph-name="less" unicode="&#x3c;" horiz-adv-x="781" 
d="M73 418v110l634 268v-117l-503 -206l503 -209v-116z" />
    <glyph glyph-name="equal" unicode="=" horiz-adv-x="781" 
d="M706 563h-632v109h632v-109zM706 272h-632v110h632v-110z" />
    <glyph glyph-name="greater" unicode="&#x3e;" horiz-adv-x="781" 
d="M707 418l-634 -270v116l502 209l-502 206v117l634 -268v-110z" />
    <glyph glyph-name="question" unicode="?" 
d="M308 236l-1 40q0 38 7.5 72t22 63.5t36.5 55.5q66 55 164 168q19 32 19 69q0 49 -24 86.5t-66.5 62t-94.5 24.5q-161 0 -191 -194l-121 14q33 276 310 276q91 0 160 -34t108 -92t39 -135q0 -85 -73 -158q-20 -20 -67 -71t-64.5 -72t-28 -46.5t-16 -57.5t-6.5 -71h-113z
M301 0v134h134v-134h-134z" />
    <glyph glyph-name="at" unicode="@" horiz-adv-x="1357" 
d="M758 106q-94 -108 -201 -108q-108 0 -172 88t-64 205q0 106 54 210t133.5 155.5t151.5 51.5q124 0 197 -120l22 101h117l-94 -438q-19 -89 -19 -102q0 -43 45 -43q25 0 70.5 26t90 75.5t68 115t23.5 144.5q0 192 -138 302t-328 110q-114 0 -211 -38.5t-170.5 -110
t-118.5 -181t-45 -232.5q0 -166 67 -277t199.5 -168t295.5 -57q322 0 460 197h118q-56 -121 -206 -207t-370 -86q-195 0 -341 63.5t-233 196.5t-87 327q0 139 51.5 269t135 220t199 135t261.5 45q265 0 411.5 -152.5t146.5 -357.5q0 -182 -122.5 -325t-270.5 -143
q-122 0 -126 109zM442 283q0 -78 38 -133t102 -55q101 0 169.5 106t68.5 223q0 81 -41 133.5t-111 52.5q-94 0 -160 -103t-66 -224z" />
    <glyph glyph-name="A" unicode="A" horiz-adv-x="892" 
d="M-2 0l368 957h136l392 -957h-145l-111 290h-400l-105 -290h-135zM274 393h325l-100 265q-50 133 -68 198q-18 -92 -52 -182z" />
    <glyph glyph-name="B" unicode="B" horiz-adv-x="892" 
d="M98 0v957h359q166 0 241.5 -72.5t75.5 -172.5q0 -137 -134 -203q181 -53 181 -232q0 -277 -358 -277h-365zM225 555h207q70 0 114.5 9.5t74 43t29.5 89.5q0 58 -26.5 92.5t-73.5 44.5t-134 10h-191v-289zM225 113h238q47 0 83 4.5t71 23.5t53.5 53.5t18.5 82.5
q0 78 -50 121.5t-193 43.5h-221v-329z" />
    <glyph glyph-name="C" unicode="C" horiz-adv-x="965" 
d="M786 336l127 -32q-82 -320 -397 -320q-231 0 -340 144.5t-109 357.5q0 242 130 364.5t321 122.5q297 0 378 -278l-124 -30q-64 200 -256 200q-155 0 -237 -100t-82 -279q0 -207 88.5 -300.5t220.5 -93.5q227 0 280 244z" />
    <glyph glyph-name="D" unicode="D" horiz-adv-x="965" 
d="M103 0v957h330q94 0 167.5 -13t141 -66.5t110 -153t42.5 -240.5q0 -216 -102.5 -350t-343.5 -134h-345zM230 113h204q126 0 193 37t102 123.5t35 212.5q0 88 -17.5 154t-52.5 111t-89 69t-174 24h-201v-731z" />
    <glyph glyph-name="E" unicode="E" horiz-adv-x="892" 
d="M106 0v957h692v-113h-566v-293h530v-112h-530v-326h588v-113h-714z" />
    <glyph glyph-name="F" unicode="F" horiz-adv-x="817" 
d="M110 0v957h645v-113h-519v-296h449v-113h-449v-435h-126z" />
    <glyph glyph-name="G" unicode="G" horiz-adv-x="1040" 
d="M551 375v113h405v-355q-187 -149 -396 -149q-115 0 -204.5 32.5t-151.5 97.5t-97.5 158.5t-35.5 201.5q0 218 123.5 358.5t355.5 140.5q324 0 392 -284l-114 -31q-60 207 -277 207q-167 0 -258 -101t-91 -282q0 -203 102.5 -293.5t248.5 -90.5q167 0 279 99v178h-281z
" />
    <glyph glyph-name="H" unicode="H" horiz-adv-x="965" 
d="M107 0v957h127v-393h497v393h127v-957h-127v451h-497v-451h-127z" />
    <glyph glyph-name="I" unicode="I" horiz-adv-x="371" 
d="M125 0v957h126v-957h-126z" />
    <glyph glyph-name="J" unicode="J" horiz-adv-x="668" 
d="M36 272l114 15q8 -190 142 -190q57 0 90 24.5t43 66t10 110.5v659h127v-652q0 -168 -68.5 -244.5t-200.5 -76.5q-131 0 -195.5 72t-61.5 216z" />
    <glyph glyph-name="K" unicode="K" horiz-adv-x="892" 
d="M98 0v957h127v-475l475 475h171l-401 -388l419 -569h-167l-341 484l-156 -152v-332h-127z" />
    <glyph glyph-name="L" unicode="L" 
d="M98 0v957h127v-844h471v-113h-598z" />
    <glyph glyph-name="M" unicode="M" horiz-adv-x="1114" 
d="M99 0v957h191l226 -678l46 -141l51 153l229 666h170v-957h-122v801l-278 -801h-114l-277 815v-815h-122z" />
    <glyph glyph-name="N" unicode="N" horiz-adv-x="965" 
d="M102 0v957h130l502 -751v751h122v-957h-130l-503 752v-752h-121z" />
    <glyph glyph-name="O" unicode="O" horiz-adv-x="1040" 
d="M65 466q0 144 51 257t154 182t253 69q100 0 184.5 -36t145 -100.5t94 -157t33.5 -203.5q0 -154 -55.5 -262t-165 -169.5t-237.5 -61.5q-132 0 -239 63.5t-162.5 176t-55.5 242.5zM195 464q0 -114 42.5 -198t114 -129t170.5 -45q154 0 240.5 106.5t86.5 279.5
q0 119 -41 206.5t-112.5 134t-171.5 46.5q-80 0 -141 -26.5t-103.5 -79.5t-63.5 -126.5t-21 -168.5z" />
    <glyph glyph-name="P" unicode="P" horiz-adv-x="892" 
d="M103 0v957h361q80 0 140.5 -8t113 -40t84.5 -92t32 -137q0 -291 -359 -291h-245v-389h-127zM230 502h247q226 0 226 174q0 42 -11.5 73t-34 52.5t-55.5 32t-127 10.5h-245v-342z" />
    <glyph glyph-name="Q" unicode="Q" horiz-adv-x="1040" 
d="M828 102q89 -60 163 -88l-37 -88q-103 37 -206 117q-106 -59 -235 -59q-218 0 -337 145.5t-119 349.5q0 239 131.5 367t327.5 128q128 0 227.5 -49.5t164.5 -160.5t65 -285q0 -237 -145 -377zM550 264q109 -30 180 -91q112 102 112 306q0 173 -87 279.5t-239 106.5
q-104 0 -176 -46t-112 -132.5t-40 -207.5q0 -174 86.5 -280.5t241.5 -106.5q68 0 128 26q-59 38 -125 54z" />
    <glyph glyph-name="R" unicode="R" horiz-adv-x="965" 
d="M105 0v957h424q120 0 171 -17t85 -46t59.5 -80t25.5 -118q0 -224 -269 -261q57 -25 101 -72t80 -103l167 -260h-160l-126 199q-47 74 -80.5 117.5t-66 69t-59.5 32.5t-78 7h-147v-425h-127zM232 535h272q128 0 182 44.5t54 116.5q0 155 -205 155h-303v-316z" />
    <glyph glyph-name="S" unicode="S" horiz-adv-x="892" 
d="M60 307l120 11q14 -115 92 -168t190 -53q119 0 178.5 47.5t59.5 115.5q0 47 -29.5 81.5t-80.5 53t-182 48.5q-97 22 -163 51t-107 84t-41 132q0 82 39.5 139t118.5 90.5t178 33.5q173 0 263.5 -79t96.5 -207l-121 -9q-20 184 -233 184q-220 0 -220 -144q0 -42 27 -72.5
t69.5 -45.5t131.5 -35q158 -36 214 -62t91 -60.5t52.5 -77.5t17.5 -95q0 -134 -103 -210t-251 -76q-198 0 -300 89t-108 234z" />
    <glyph glyph-name="T" unicode="T" horiz-adv-x="817" 
d="M347 0v844h-316v113h759v-113h-317v-844h-126z" />
    <glyph glyph-name="U" unicode="U" horiz-adv-x="965" 
d="M731 957h127v-553q0 -139 -26.5 -212t-73 -118t-115.5 -67.5t-159 -22.5q-187 0 -283 90t-96 330v553h127v-552q0 -114 16.5 -164.5t46.5 -81t74.5 -46t103.5 -15.5q84 0 140 24t87 84t31 199v552z" />
    <glyph glyph-name="V" unicode="V" horiz-adv-x="892" 
d="M377 0l-371 957h137l249 -695q27 -75 50 -157q18 66 52 157l258 695h129l-374 -957h-130z" />
    <glyph glyph-name="W" unicode="W" horiz-adv-x="1262" 
d="M270 0l-254 957h130l146 -627q23 -98 40 -196l43 177l182 646h153l137 -484q54 -192 75 -339q18 89 47 208l151 615h127l-263 -957h-122l-201 729l-30 112q-9 -39 -28 -112l-203 -729h-130z" />
    <glyph glyph-name="X" unicode="X" horiz-adv-x="892" 
d="M6 0l370 499l-326 458h150l174 -245q54 -76 77 -118q25 42 76 109l192 254h138l-336 -451l362 -506h-156l-241 341q-17 24 -42 64q-27 -45 -46 -71l-240 -334h-152z" />
    <glyph glyph-name="Y" unicode="Y" horiz-adv-x="892" 
d="M373 0v405l-369 552h154l189 -289q45 -68 97 -161q56 96 104 169l186 281h147l-382 -552v-405h-126z" />
    <glyph glyph-name="Z" unicode="Z" horiz-adv-x="817" 
d="M27 0v118l490 612q56 70 99 114h-534v113h686v-113l-596 -731h611v-113h-756z" />
    <glyph glyph-name="bracketleft" unicode="[" horiz-adv-x="371" 
d="M91 -266v1223h259v-97h-142v-1028h142v-98h-259z" />
    <glyph glyph-name="backslash" unicode="\" horiz-adv-x="371" 
d="M277 -16l-277 989h95l276 -989h-94z" />
    <glyph glyph-name="bracketright" unicode="]" horiz-adv-x="371" 
d="M285 -266h-260v98h142v1028h-142v97h260v-1223z" />
    <glyph glyph-name="asciicircum" unicode="^" horiz-adv-x="627" 
d="M156 450h-121l231 523h94l232 -523h-118l-161 390z" />
    <glyph glyph-name="underscore" unicode="_" 
d="M-20 -266v85h779v-85h-779z" />
    <glyph glyph-name="grave" unicode="`" horiz-adv-x="445" 
d="M304 779h-95l-151 183h157z" />
    <glyph glyph-name="a" unicode="a" 
d="M541 86q-120 -102 -256 -102q-108 0 -172.5 53.5t-64.5 145.5q0 53 23 95t76 74.5t174 47.5q145 18 210 40v31q0 141 -167 141q-91 0 -127.5 -34t-53.5 -98l-114 15q45 214 312 214q75 0 128.5 -16t87 -48t43.5 -72t10 -126v-305q0 -22 8.5 -64t28.5 -78h-123
q-18 37 -23 86zM531 348q-62 -25 -192 -44q-105 -15 -135 -45t-30 -73q0 -110 139 -110q49 0 88 12.5t67.5 38.5t45.5 64.5t17 113.5v43z" />
    <glyph glyph-name="b" unicode="b" 
d="M196 0h-109v957h118v-341q74 93 190 93q90 0 154.5 -43t102 -122t37.5 -187q0 -165 -82.5 -269t-217.5 -104q-123 0 -193 103v-87zM195 352q0 -103 22.5 -157t65.5 -84t96 -30q87 0 138.5 74.5t51.5 191.5q0 83 -23 142.5t-63.5 91t-97.5 31.5q-92 0 -141 -76.5
t-49 -183.5z" />
    <glyph glyph-name="c" unicode="c" horiz-adv-x="668" 
d="M541 254l115 -15q-18 -117 -95 -186t-193 -69q-149 0 -232.5 96.5t-83.5 263.5q0 120 37 200.5t113 122.5t166 42q235 0 277 -219l-114 -18q-33 140 -158 140q-200 0 -200 -265q0 -266 193 -266q150 0 175 173z" />
    <glyph glyph-name="d" unicode="d" 
d="M538 0v87q-66 -103 -194 -103q-139 0 -218.5 104.5t-79.5 257.5q0 113 37 195t101 125t155 43q122 0 191 -95v343h117v-957h-109zM166 346q0 -78 22.5 -138t65 -93.5t101.5 -33.5q86 0 135.5 69.5t49.5 185.5q0 129 -50 202.5t-140 73.5q-184 0 -184 -266z" />
    <glyph glyph-name="e" unicode="e" 
d="M563 223l121 -15q-60 -224 -305 -224q-104 0 -177.5 42.5t-113 122t-39.5 192.5q0 169 87 268.5t237 99.5q33 0 63 -5q29 -5 56 -15t50 -25q24 -15 44 -34q21 -21 38 -46q18 -26 31 -55q12 -29 20 -63q8 -33 11 -70q1 -11 1 -79h-517q6 -109 62 -172.5t148 -63.5
q132 0 183 142zM177 413h387q-8 100 -61 149.5t-129 49.5q-56 0 -98 -24.5t-68.5 -68.5t-30.5 -106z" />
    <glyph glyph-name="f" unicode="f" horiz-adv-x="371" 
d="M116 0v602h-104v91h104v74q0 64 11.5 99t35.5 59t60.5 36t84.5 12q50 0 110 -11l-18 -103q-36 7 -69 7q-55 0 -76.5 -23.5t-21.5 -85.5v-64h135v-91h-135v-602h-117z" />
    <glyph glyph-name="g" unicode="g" 
d="M67 -57l114 -17q15 -110 159 -110q54 0 92.5 15t62 44.5t32 66.5t8.5 149q-77 -91 -192 -91q-91 0 -157.5 44t-104.5 122.5t-38 184.5q0 164 82 261t218 97q123 0 203 -99v83h108v-599q0 -131 -19 -192t-58 -101.5t-98 -61t-138 -20.5q-138 0 -207.5 61t-66.5 163z
M164 359q0 -262 190 -262q90 0 140 69t50 189q0 115 -51.5 186t-140.5 71q-93 0 -140.5 -74t-47.5 -179z" />
    <glyph glyph-name="h" unicode="h" 
d="M88 0v957h118v-343q82 95 207 95q92 0 147.5 -35.5t74 -94t18.5 -140.5v-439h-118v439q0 169 -146 169q-67 0 -110 -31t-58 -80t-15 -118v-379h-118z" />
    <glyph glyph-name="i" unicode="i" horiz-adv-x="297" 
d="M89 822v135h117v-135h-117zM89 0v693h117v-693h-117z" />
    <glyph glyph-name="j" unicode="j" horiz-adv-x="297" 
d="M87 821v136h118v-136h-118zM-61 -269l22 100q35 -9 55 -9q30 0 46.5 17t20.5 44t4 82v728h118v-731q0 -85 -14.5 -136.5t-55 -79t-104.5 -27.5q-48 0 -92 12z" />
    <glyph glyph-name="k" unicode="k" horiz-adv-x="668" 
d="M89 0v957h117v-546l278 282h152l-265 -257l292 -436h-145l-229 354l-83 -79v-275h-117z" />
    <glyph glyph-name="l" unicode="l" horiz-adv-x="297" 
d="M86 0v957h117v-957h-117z" />
    <glyph glyph-name="m" unicode="m" horiz-adv-x="1114" 
d="M88 0v693h105v-97q73 113 210 113q153 0 196 -121q83 121 214 121q215 0 215 -233v-476h-117v437q0 170 -124 170q-169 0 -169 -204v-403h-118v450q0 157 -123 157q-57 0 -95 -25.5t-57 -76.5t-19 -145v-360h-118z" />
    <glyph glyph-name="n" unicode="n" 
d="M88 0v693h106v-98q76 114 221 114q236 0 236 -252v-457h-117v422q0 185 -144 185q-184 0 -184 -228v-379h-118z" />
    <glyph glyph-name="o" unicode="o" 
d="M44 347q0 180 92 271t233 91q89 0 160 -36.5t118 -116.5t47 -200q0 -191 -94.5 -281.5t-230.5 -90.5q-102 0 -174 43.5t-111.5 124.5t-39.5 195zM165 347q0 -85 25.5 -145t70 -90.5t108.5 -30.5q99 0 151.5 73t52.5 197q0 119 -54 190t-150 71q-103 0 -153.5 -75.5
t-50.5 -189.5z" />
    <glyph glyph-name="p" unicode="p" 
d="M88 -266v959h107v-90q76 106 201 106q146 0 220 -105t74 -252q0 -184 -92.5 -276t-209.5 -92q-113 0 -182 88v-338h-118zM195 343q0 -80 21.5 -139t63 -91t100.5 -32q94 0 142 78t48 194q0 117 -50 190.5t-135 73.5q-90 0 -140 -80.5t-50 -193.5z" />
    <glyph glyph-name="q" unicode="q" 
d="M530 -266v340q-64 -90 -181 -90q-68 0 -123 27t-96.5 80.5t-62 119t-20.5 142.5q0 178 85.5 267t206.5 89q129 0 203 -108v92h106v-959h-118zM168 349q0 -80 22.5 -140.5t65.5 -94t102 -33.5q91 0 137.5 74.5t46.5 182.5q0 121 -51 199.5t-140 78.5q-91 0 -137 -75.5
t-46 -191.5z" />
    <glyph glyph-name="r" unicode="r" horiz-adv-x="445" 
d="M87 0v693h106v-105q66 121 150 121q59 0 120 -38l-40 -109q-43 26 -86 26q-45 0 -74.5 -25t-44 -82t-14.5 -118v-363h-117z" />
    <glyph glyph-name="s" unicode="s" horiz-adv-x="668" 
d="M41 207l116 18q21 -144 180 -144t159 110q0 40 -28 59t-127 44q-64 16 -114.5 30.5t-89 41.5t-57.5 62.5t-19 80.5q0 52 25.5 95.5t82.5 74t147 30.5q83 0 141 -21t90 -62.5t44 -111.5l-115 -15q-17 113 -152 113q-150 0 -150 -89q0 -25 14.5 -43t35 -26t113.5 -34
q24 -6 108.5 -29t128 -70.5t43.5 -116.5q0 -102 -80 -161t-200 -59q-256 0 -296 223z" />
    <glyph glyph-name="t" unicode="t" horiz-adv-x="371" 
d="M345 105l17 -104q-50 -10 -89 -10q-55 0 -91.5 16.5t-54 49.5t-17.5 146v399h-86v91h86v172l117 70v-242h118v-91h-118v-406q0 -47 6 -63.5t21 -24t39 -7.5q20 0 52 4z" />
    <glyph glyph-name="u" unicode="u" 
d="M542 0v102q-80 -118 -220 -118q-64 0 -110.5 18t-75.5 54t-39.5 82.5t-10.5 125.5v429h117v-384q0 -90 6.5 -121.5t24 -54.5t45.5 -35t67 -12q70 0 113 31.5t57 81.5t14 123v371h118v-693h-106z" />
    <glyph glyph-name="v" unicode="v" horiz-adv-x="668" 
d="M281 0l-264 693h124l149 -415q24 -67 44 -140q16 55 44 132l154 423h121l-263 -693h-109z" />
    <glyph glyph-name="w" unicode="w" horiz-adv-x="965" 
d="M216 0l-212 693h121l152 -549q10 48 36 143l110 406h121l138 -534l159 534h114l-217 -693h-122l-137 533l-140 -533h-123z" />
    <glyph glyph-name="x" unicode="x" horiz-adv-x="668" 
d="M10 0l253 360l-234 333h147l106 -162q24 -36 48 -78q22 33 53 76l117 164h140l-239 -326l258 -367h-145l-180 274l-182 -274h-142z" />
    <glyph glyph-name="y" unicode="y" horiz-adv-x="668" 
d="M83 -267l-13 110q38 -10 67 -10q41 0 67.5 16t38 41t39.5 103l3 6l-263 694h126l144 -401q32 -90 51 -161q19 79 48 158l148 404h118l-264 -705q-38 -101 -64 -153.5t-69 -84t-101 -31.5q-34 0 -76 14z" />
    <glyph glyph-name="z" unicode="z" horiz-adv-x="668" 
d="M26 0v95l441 507q-75 -4 -132 -4h-283v95h567v-77l-448 -521q79 6 148 6h321v-101h-614z" />
    <glyph glyph-name="braceleft" unicode="{" horiz-adv-x="447" 
d="M37 400q50 1 81 24.5t42.5 70.5t11.5 156q0 108 5 154t21 79t43.5 55t55.5 28t82 6h36v-102h-20q-74 0 -93 -28t-19 -106q0 -136 -5.5 -197.5t-38 -112.5t-93.5 -81q61 -24 99 -83.5t38 -210.5q0 -116 1.5 -145t12.5 -49.5t33 -28.5t65 -8h20v-102h-36q-55 0 -83.5 7
t-56 28.5t-41.5 52.5t-17 56l-6 215q-3 106 -33 159.5t-105 55.5v107z" />
    <glyph glyph-name="bar" unicode="|" horiz-adv-x="347" 
d="M123 -281v1254h102v-1254h-102z" />
    <glyph glyph-name="braceright" unicode="}" horiz-adv-x="447" 
d="M409 400v-107q-75 -2 -105.5 -52t-30.5 -193q0 -118 -3.5 -157.5t-20 -76t-44 -59t-57.5 -29.5t-81 -7h-36v102h20q74 0 93 28t19 107q0 140 5 201t38 112t94 77q-59 28 -90 70.5t-39 106.5t-11 270q-5 38 -24 58t-85 20h-20v102h36q58 0 94 -10t65 -43t37.5 -81
t8.5 -150q0 -108 8.5 -166.5t39 -90t89.5 -32.5z" />
    <glyph glyph-name="asciitilde" unicode="~" horiz-adv-x="781" 
d="M57 364v133q69 79 181 79q71 0 205 -57q73 -31 113 -31q87 0 169 90v-139q-80 -74 -181 -74q-69 0 -188 53q-76 34 -129 34q-78 0 -170 -88z" />
    <glyph glyph-name="exclamdown" unicode="&#xa1;" horiz-adv-x="445" 
d="M290 693v-134h-135v134h135zM260 455l36 -507v-212h-146v212l34 507h76z" />
    <glyph glyph-name="cent" unicode="&#xa2;" horiz-adv-x="743" 
d="M486 584l-145 -500q21 -6 40 -6q150 0 177 176l117 -13q-21 -122 -102 -190.5t-191 -68.5q-37 0 -67 9l-77 -258l-73 21l75 260q-170 87 -170 329q0 188 91 277t216 89q29 0 66 -5l73 253l72 -21l-73 -253q120 -48 147 -193l-114 -18q-16 71 -62 112zM416 614l-32 1
q-193 0 -193 -266q0 -173 80 -233z" />
    <glyph glyph-name="sterling" unicode="&#xa3;" horiz-adv-x="743" 
d="M258 528h206v-97h-185q12 -27 12 -57q0 -126 -116 -249q53 14 94 14q55 0 122 -16q111 -27 152 -27q48 0 125 36l38 -107q-98 -41 -158 -41q-32 0 -56 5l-85 23l-86 25q-35 5 -61 5q-104 0 -197 -60l-45 113q150 86 150 255q0 35 -11 81h-128v97h100q-33 108 -33 172
q0 133 88.5 203t207.5 70q251 0 289 -247l-116 -18q-26 169 -175 169q-80 0 -124.5 -51.5t-44.5 -108.5q0 -69 37 -189z" />
    <glyph glyph-name="currency" unicode="&#xa4;" horiz-adv-x="743" 
d="M139 627l-91 89l75 78l91 -91q70 47 155 47q86 0 154 -47l91 91l76 -78l-91 -89q47 -71 47 -153q0 -83 -47 -154l91 -89l-76 -78l-91 92q-68 -48 -154 -48t-155 48l-91 -92l-75 78l91 89q-46 70 -46 154q0 82 46 153zM199 474q0 -62 44 -116t125 -54q61 0 115 44.5
t54 125.5q0 48 -23 85.5t-60.5 60.5t-85.5 23q-61 0 -115 -44.5t-54 -124.5z" />
    <glyph glyph-name="yen" unicode="&#xa5;" horiz-adv-x="743" 
d="M311 0v212h-271v91h271v93h-271v97h223l-265 464h131l189 -337q27 -49 49 -100q18 39 54 106l179 331h140l-265 -464h223v-97h-269v-93h269v-91h-269v-212h-118z" />
    <glyph glyph-name="brokenbar" unicode="&#xa6;" horiz-adv-x="347" 
d="M225 973v-515h-102v515h102zM225 235v-516h-102v516h102z" />
    <glyph glyph-name="section" unicode="&#xa7;" horiz-adv-x="743" 
d="M93 -46l118 17q30 -153 167 -153q67 0 104.5 34.5t37.5 78.5q0 31 -29 69t-217 153q-125 76 -173 134.5t-48 132.5q0 141 147 185q-84 78 -84 162t65.5 145t172.5 61q242 0 273 -226l-122 -13q-23 143 -141 143q-65 0 -99.5 -35t-34.5 -69q0 -31 27 -67t197 -139
q168 -103 198 -157.5t30 -106.5q0 -124 -148 -187q104 -78 104 -183q0 -91 -71.5 -152.5t-187.5 -61.5q-248 0 -286 235zM475 159q96 51 96 122q0 79 -181 189q-83 51 -133 90q-98 -55 -98 -127q0 -78 165 -177q98 -57 151 -97z" />
    <glyph glyph-name="dieresis" unicode="&#xa8;" horiz-adv-x="445" 
d="M40 829v134h123v-134h-123zM283 829v134h123v-134h-123z" />
    <glyph glyph-name="copyright" unicode="&#xa9;" horiz-adv-x="985" 
d="M495 973q198 0 345 -138.5t147 -354.5q0 -206 -145 -349t-347 -143t-347.5 142t-145.5 350q0 206 141.5 349.5t351.5 143.5zM495 892q-169 0 -290 -119.5t-121 -292.5q0 -170 119 -290t292 -120q168 0 289 117.5t121 292.5q0 178 -125 295t-285 117zM653 401l80 -24
q-48 -179 -238 -179q-100 0 -179 67t-79 214q0 134 73 206t191 72q173 0 222 -154l-77 -19q-43 100 -148 100q-74 0 -123 -53.5t-49 -153.5q0 -202 165 -202q128 0 162 126z" />
    <glyph glyph-name="ordfeminine" unicode="&#xaa;" horiz-adv-x="495" 
d="M358 557q-79 -70 -167 -70q-160 0 -160 143q0 93 94 126l65 14l96 14l63 13q0 100 -103 100q-97 0 -108 -82l-90 22q24 136 199 136q196 0 196 -158v-156l-1 -40q0 -89 27 -120h-97q-14 28 -14 58zM348 721q-74 -17 -147 -28.5t-73 -62.5q0 -65 85 -65q135 0 135 156z
" />
    <glyph glyph-name="guillemotleft" unicode="&#xab;" horiz-adv-x="743" 
d="M222 345l169 -298h-95l-209 298l209 297h96zM475 345l172 -298h-99l-205 298l205 297h99z" />
    <glyph glyph-name="logicalnot" unicode="&#xac;" horiz-adv-x="781" 
d="M706 277h-111v286h-521v109h632v-395z" />
    <glyph glyph-name="minus" unicode="&#xad;" horiz-adv-x="445" 
d="M42 287v118h361v-118h-361z" />
    <glyph glyph-name="registered" unicode="&#xae;" horiz-adv-x="985" 
d="M495 973q198 0 345 -138.5t147 -354.5q0 -206 -145 -349t-347 -143t-347.5 142t-145.5 350q0 206 141.5 349.5t351.5 143.5zM495 892q-169 0 -290 -119.5t-121 -292.5q0 -170 119 -290t292 -120q168 0 289 117.5t121 292.5q0 178 -125 295t-285 117zM279 208v530h182
q226 0 226 -143q0 -58 -41.5 -101t-109.5 -49q49 -15 123 -133l65 -104h-105l-47 84q-51 92 -80.5 116.5t-77.5 24.5h-50v-225h-85zM364 506h104q129 0 129 81q0 79 -136 79h-97v-160z" />
    <glyph glyph-name="macron" unicode="&#xaf;" horiz-adv-x="738" 
d="M-20 1022v84h778v-84h-778z" />
    <glyph glyph-name="degree" unicode="&#xb0;" horiz-adv-x="535" 
d="M84 792q0 75 52.5 128t127.5 53q76 0 129 -53t53 -128q0 -74 -53.5 -127.5t-128.5 -53.5q-73 0 -126.5 52.5t-53.5 128.5zM155 792q0 -31 14.5 -55.5t39.5 -39.5t56 -15q38 0 74 30t36 80q0 45 -32.5 78t-77.5 33q-39 0 -74.5 -29.5t-35.5 -81.5z" />
    <glyph glyph-name="plusminus" unicode="&#xb1;" horiz-adv-x="734" 
d="M311 170v263h-260v109h260v260h111v-260h261v-109h-261v-263h-111zM683 0h-632v110h632v-110z" />
    <glyph glyph-name="twosuperior" unicode="&#xb2;" horiz-adv-x="445" 
d="M16 478q7 82 165 198q102 75 119.5 97.5t17.5 46.5q0 72 -90 72q-80 0 -99 -75l-99 11q35 141 200 141q190 0 190 -133q0 -41 -23.5 -83.5t-148.5 -131.5q-52 -38 -77 -64h252v-79h-407z" />
    <glyph glyph-name="threesuperior" unicode="&#xb3;" horiz-adv-x="445" 
d="M22 606l95 10q22 -73 100 -73q103 0 103 87q0 72 -104 72l-21 -2h-15l15 71q101 0 101 67q0 58 -77 58q-69 0 -93 -66l-93 15q44 124 186 124q180 0 180 -122q0 -77 -90 -105q113 -28 113 -125q0 -60 -51.5 -105t-147.5 -45q-174 0 -201 139z" />
    <glyph glyph-name="acute" unicode="&#xb4;" horiz-adv-x="445" 
d="M145 779l87 183h154l-144 -183h-97z" />
    <glyph glyph-name="mu" unicode="&#xb5;" horiz-adv-x="770" 
d="M664 693v-693h-105v82q-58 -98 -173 -98q-101 0 -165 86v-336h-117v959h117v-294q0 -176 33.5 -242.5t126.5 -66.5q90 0 129 63t39 244v296h115z" />
    <glyph glyph-name="paragraph" unicode="&#xb6;" horiz-adv-x="718" 
d="M264 -266v682q-112 0 -187.5 73.5t-75.5 191.5q0 110 70.5 193t237.5 83h414v-113h-94v-1110h-111v1110h-146v-1110h-108z" />
    <glyph glyph-name="periodcentered" unicode="&#xb7;" horiz-adv-x="371" 
d="M121 404v134h134v-134h-134z" />
    <glyph glyph-name="periodcentered" unicode="&#x2219;" horiz-adv-x="371" 
d="M121 404v134h134v-134h-134z" />
    <glyph glyph-name="cedilla" unicode="&#xb8;" horiz-adv-x="445" 
d="M141 -101l34 116h87l-21 -70q111 -12 111 -96q0 -43 -43 -83.5t-145 -40.5q-51 0 -94 8l7 76l61 -2q105 0 105 49q0 43 -102 43z" />
    <glyph glyph-name="onesuperior" unicode="&#xb9;" horiz-adv-x="445" 
d="M216 478v362q-64 -51 -146 -74v81q99 34 170 122h71v-491h-95z" />
    <glyph glyph-name="ordmasculine" unicode="&#xba;" horiz-adv-x="488" 
d="M243 973q109 0 162 -73t53 -172t-53.5 -172t-160.5 -73q-94 0 -154.5 64.5t-60.5 177.5q0 117 60 182.5t154 65.5zM243 886q-117 0 -117 -158q0 -159 117 -159q118 0 118 162q0 155 -118 155z" />
    <glyph glyph-name="guillemotright" unicode="&#xbb;" horiz-adv-x="743" 
d="M516 345l-170 297h97l208 -297l-208 -298h-96zM264 345l-173 297h99l205 -297l-205 -298h-99z" />
    <glyph glyph-name="onequarter" unicode="&#xbc;" horiz-adv-x="1115" 
d="M164 -37l720 1010h102l-719 -1010h-103zM216 478v362q-64 -51 -146 -74v81q99 34 170 122h71v-491h-95zM933 -20v100h-250v81l265 309h79v-319h68v-71h-68v-100h-94zM933 151v171l-150 -171h150z" />
    <glyph glyph-name="onehalf" unicode="&#xbd;" horiz-adv-x="1115" 
d="M149 -37l718 1010h103l-719 -1010h-102zM216 478v362q-64 -51 -146 -74v81q99 34 170 122h71v-491h-95zM685 -20q0 77 165 198q136 97 136 143q0 71 -90 71q-74 0 -99 -73l-99 9q36 142 200 142q191 0 191 -133q0 -54 -33.5 -96t-138.5 -120q-46 -32 -78 -62h252v-79
h-406z" />
    <glyph glyph-name="threequarters" unicode="&#xbe;" horiz-adv-x="1115" 
d="M164 -37l719 1010h103l-719 -1010h-103zM22 606l95 10q22 -73 100 -73q103 0 103 87q0 72 -102 72l-38 -2l15 71q101 0 101 67q0 58 -77 58q-69 0 -93 -66l-93 15q44 124 186 124q180 0 180 -122q0 -77 -90 -105q113 -28 113 -125q0 -60 -51.5 -105t-147.5 -45
q-174 0 -201 139zM933 -20v100h-250v81l264 309h80v-319h68v-71h-68v-100h-94zM933 151v171l-150 -171h150z" />
    <glyph glyph-name="questiondown" unicode="&#xbf;" horiz-adv-x="817" 
d="M478 693v-134h-133v134h133zM471 458v-34q0 -95 -30.5 -148.5t-119.5 -130.5q-97 -84 -97 -156q0 -69 53.5 -120.5t131.5 -51.5q160 0 191 193l120 -14q-38 -276 -309 -276q-142 0 -225 76.5t-83 184.5q0 117 144 244q71 63 91 101.5t20 131.5h113z" />
    <glyph glyph-name="Agrave" unicode="&#xc0;" horiz-adv-x="892" 
d="M-2 0l368 957h136l392 -957h-145l-111 290h-400l-105 -290h-135zM274 393h325l-100 265q-50 133 -68 198q-18 -92 -52 -182zM464 1049h-95l-151 183h157z" />
    <glyph glyph-name="Aacute" unicode="&#xc1;" horiz-adv-x="892" 
d="M-2 0l368 957h136l392 -957h-145l-111 290h-400l-105 -290h-135zM274 393h325l-100 265q-50 133 -68 198q-18 -92 -52 -182zM365 1049l87 183h154l-144 -183h-97z" />
    <glyph glyph-name="Acircumflex" unicode="&#xc2;" horiz-adv-x="892" 
d="M-2 0l368 957h136l392 -957h-145l-111 290h-400l-105 -290h-135zM274 393h325l-100 265q-50 133 -68 198q-18 -92 -52 -182zM430 1160l-74 -111h-135l141 183h126l146 -183h-133z" />
    <glyph glyph-name="Atilde" unicode="&#xc3;" horiz-adv-x="892" 
d="M-2 0l368 957h136l392 -957h-145l-111 290h-400l-105 -290h-135zM274 393h325l-100 265q-50 133 -68 198q-18 -92 -52 -182zM205 1046q0 148 132 148q41 0 110 -35q38 -19 62 -19q40 0 47 56h85q0 -148 -128 -148q-43 0 -108 36q-44 24 -64 24q-50 0 -50 -62h-86z" />
    <glyph glyph-name="Adieresis" unicode="&#xc4;" horiz-adv-x="892" 
d="M-2 0l368 957h136l392 -957h-145l-111 290h-400l-105 -290h-135zM274 393h325l-100 265q-50 133 -68 198q-18 -92 -52 -182zM240 1079v134h123v-134h-123zM483 1079v134h123v-134h-123z" />
    <glyph glyph-name="Aring" unicode="&#xc5;" horiz-adv-x="892" 
d="M-2 0l368 957h136l392 -957h-145l-111 290h-400l-105 -290h-135zM274 393h325l-100 265q-50 133 -68 198q-18 -92 -52 -182zM306 1153q0 50 35 83.5t82 33.5q42 0 80 -31.5t38 -87.5q0 -51 -35 -85.5t-82 -34.5q-43 0 -80.5 31t-37.5 91zM355 1153q0 -73 70 -73
q25 0 47 21t22 50q0 71 -69 71q-70 0 -70 -69z" />
    <glyph glyph-name="AE" unicode="&#xc6;" horiz-adv-x="1337" 
d="M1 0l460 957h785v-113h-481v-294h447v-113h-447v-324h499v-113h-626v276h-370l-130 -276h-137zM322 388h316v456h-95z" />
    <glyph glyph-name="Ccedilla" unicode="&#xc7;" horiz-adv-x="965" 
d="M786 336l127 -32q-82 -320 -397 -320q-231 0 -340 144.5t-109 357.5q0 242 130 364.5t321 122.5q297 0 378 -278l-124 -30q-64 200 -256 200q-155 0 -237 -100t-82 -279q0 -207 88.5 -300.5t220.5 -93.5q227 0 280 244zM431 -101l34 116h87l-21 -70q111 -12 111 -96
q0 -43 -43 -83.5t-145 -40.5q-51 0 -94 8l7 76l61 -2q105 0 105 49q0 43 -102 43z" />
    <glyph glyph-name="Egrave" unicode="&#xc8;" horiz-adv-x="892" 
d="M106 0v957h692v-113h-566v-293h530v-112h-530v-326h588v-113h-714zM514 1059h-95l-151 183h157z" />
    <glyph glyph-name="Eacute" unicode="&#xc9;" horiz-adv-x="892" 
d="M106 0v957h692v-113h-566v-293h530v-112h-530v-326h588v-113h-714zM375 1059l87 183h154l-144 -183h-97z" />
    <glyph glyph-name="Ecircumflex" unicode="&#xca;" horiz-adv-x="892" 
d="M106 0v957h692v-113h-566v-293h530v-112h-530v-326h588v-113h-714zM455 1170l-74 -111h-135l141 183h126l146 -183h-133z" />
    <glyph glyph-name="Edieresis" unicode="&#xcb;" horiz-adv-x="892" 
d="M106 0v957h692v-113h-566v-293h530v-112h-530v-326h588v-113h-714zM270 1079v134h123v-134h-123zM513 1079v134h123v-134h-123z" />
    <glyph glyph-name="Igrave" unicode="&#xcc;" horiz-adv-x="371" 
d="M125 0v957h126v-957h-126zM254 1059h-95l-151 183h157z" />
    <glyph glyph-name="Iacute" unicode="&#xcd;" horiz-adv-x="371" 
d="M125 0v957h126v-957h-126zM125 1059l87 183h154l-144 -183h-97z" />
    <glyph glyph-name="Icircumflex" unicode="&#xce;" horiz-adv-x="371" 
d="M125 0v957h126v-957h-126zM185 1170l-74 -111h-135l141 183h126l146 -183h-133z" />
    <glyph glyph-name="Idieresis" unicode="&#xcf;" horiz-adv-x="371" 
d="M125 0v957h126v-957h-126zM0 1079v134h123v-134h-123zM243 1079v134h123v-134h-123z" />
    <glyph glyph-name="Eth" unicode="&#xd0;" horiz-adv-x="965" 
d="M103 0v435h-105v87h105v435h330q153 0 243.5 -39t154 -150t63.5 -284q0 -484 -446 -484h-345zM230 113h204q114 0 181 30.5t108 119t41 222.5q0 127 -38 210t-103.5 116t-191.5 33h-201v-322h263v-87h-263v-322z" />
    <glyph glyph-name="Ntilde" unicode="&#xd1;" horiz-adv-x="965" 
d="M102 0v957h130l502 -751v751h122v-957h-130l-503 752v-752h-121zM285 1036q0 148 132 148q41 0 110 -35q38 -19 62 -19q40 0 47 56h85q0 -148 -128 -148q-43 0 -108 36q-44 24 -64 24q-50 0 -50 -62h-86z" />
    <glyph glyph-name="Ograve" unicode="&#xd2;" horiz-adv-x="1040" 
d="M65 466q0 144 51 257t154 182t253 69q100 0 184.5 -36t145 -100.5t94 -157t33.5 -203.5q0 -154 -55.5 -262t-165 -169.5t-237.5 -61.5q-132 0 -239 63.5t-162.5 176t-55.5 242.5zM195 464q0 -114 42.5 -198t114 -129t170.5 -45q154 0 240.5 106.5t86.5 279.5
q0 119 -41 206.5t-112.5 134t-171.5 46.5q-80 0 -141 -26.5t-103.5 -79.5t-63.5 -126.5t-21 -168.5zM554 1059h-95l-151 183h157z" />
    <glyph glyph-name="Oacute" unicode="&#xd3;" horiz-adv-x="1040" 
d="M65 466q0 144 51 257t154 182t253 69q100 0 184.5 -36t145 -100.5t94 -157t33.5 -203.5q0 -154 -55.5 -262t-165 -169.5t-237.5 -61.5q-132 0 -239 63.5t-162.5 176t-55.5 242.5zM195 464q0 -114 42.5 -198t114 -129t170.5 -45q154 0 240.5 106.5t86.5 279.5
q0 119 -41 206.5t-112.5 134t-171.5 46.5q-80 0 -141 -26.5t-103.5 -79.5t-63.5 -126.5t-21 -168.5zM455 1059l87 183h154l-144 -183h-97z" />
    <glyph glyph-name="Ocircumflex" unicode="&#xd4;" horiz-adv-x="1040" 
d="M65 466q0 144 51 257t154 182t253 69q100 0 184.5 -36t145 -100.5t94 -157t33.5 -203.5q0 -154 -55.5 -262t-165 -169.5t-237.5 -61.5q-132 0 -239 63.5t-162.5 176t-55.5 242.5zM195 464q0 -114 42.5 -198t114 -129t170.5 -45q154 0 240.5 106.5t86.5 279.5
q0 119 -41 206.5t-112.5 134t-171.5 46.5q-80 0 -141 -26.5t-103.5 -79.5t-63.5 -126.5t-21 -168.5zM525 1170l-74 -111h-135l141 183h126l146 -183h-133z" />
    <glyph glyph-name="Otilde" unicode="&#xd5;" horiz-adv-x="1040" 
d="M65 466q0 144 51 257t154 182t253 69q100 0 184.5 -36t145 -100.5t94 -157t33.5 -203.5q0 -154 -55.5 -262t-165 -169.5t-237.5 -61.5q-132 0 -239 63.5t-162.5 176t-55.5 242.5zM195 464q0 -114 42.5 -198t114 -129t170.5 -45q154 0 240.5 106.5t86.5 279.5
q0 119 -41 206.5t-112.5 134t-171.5 46.5q-80 0 -141 -26.5t-103.5 -79.5t-63.5 -126.5t-21 -168.5zM295 1046q0 148 132 148q41 0 110 -35q38 -19 62 -19q40 0 47 56h85q0 -148 -128 -148q-43 0 -108 36q-44 24 -64 24q-50 0 -50 -62h-86z" />
    <glyph glyph-name="Odieresis" unicode="&#xd6;" horiz-adv-x="1040" 
d="M65 466q0 144 51 257t154 182t253 69q100 0 184.5 -36t145 -100.5t94 -157t33.5 -203.5q0 -154 -55.5 -262t-165 -169.5t-237.5 -61.5q-132 0 -239 63.5t-162.5 176t-55.5 242.5zM195 464q0 -114 42.5 -198t114 -129t170.5 -45q154 0 240.5 106.5t86.5 279.5
q0 119 -41 206.5t-112.5 134t-171.5 46.5q-80 0 -141 -26.5t-103.5 -79.5t-63.5 -126.5t-21 -168.5zM335 1079v134h123v-134h-123zM578 1079v134h123v-134h-123z" />
    <glyph glyph-name="multiply" unicode="&#xd7;" horiz-adv-x="781" 
d="M105 267l206 206l-205 204l79 80l205 -205l205 204l78 -79l-204 -204l205 -205l-79 -79l-205 205l-206 -206z" />
    <glyph glyph-name="Oslash" unicode="&#xd8;" horiz-adv-x="1040" 
d="M816 869l110 123l64 -55l-115 -129q102 -145 102 -330q0 -232 -130 -363t-324 -131q-156 0 -295 100l-109 -123l-65 55l115 129q-107 159 -107 331q0 225 128 361t332 136q162 0 294 -104zM738 781q-103 84 -216 84q-142 0 -235.5 -96.5t-93.5 -290.5q0 -133 58 -242z
M791 714l-485 -543q96 -79 213 -79q145 0 236.5 103t91.5 280q0 133 -56 239z" />
    <glyph glyph-name="Ugrave" unicode="&#xd9;" horiz-adv-x="965" 
d="M731 957h127v-553q0 -139 -26.5 -212t-73 -118t-115.5 -67.5t-159 -22.5q-187 0 -283 90t-96 330v553h127v-552q0 -114 16.5 -164.5t46.5 -81t74.5 -46t103.5 -15.5q84 0 140 24t87 84t31 199v552zM534 1059h-95l-151 183h157z" />
    <glyph glyph-name="Uacute" unicode="&#xda;" horiz-adv-x="965" 
d="M731 957h127v-553q0 -139 -26.5 -212t-73 -118t-115.5 -67.5t-159 -22.5q-187 0 -283 90t-96 330v553h127v-552q0 -114 16.5 -164.5t46.5 -81t74.5 -46t103.5 -15.5q84 0 140 24t87 84t31 199v552zM395 1059l87 183h154l-144 -183h-97z" />
    <glyph glyph-name="Ucircumflex" unicode="&#xdb;" horiz-adv-x="965" 
d="M731 957h127v-553q0 -139 -26.5 -212t-73 -118t-115.5 -67.5t-159 -22.5q-187 0 -283 90t-96 330v553h127v-552q0 -114 16.5 -164.5t46.5 -81t74.5 -46t103.5 -15.5q84 0 140 24t87 84t31 199v552zM480 1170l-74 -111h-135l141 183h126l146 -183h-133z" />
    <glyph glyph-name="Udieresis" unicode="&#xdc;" horiz-adv-x="965" 
d="M731 957h127v-553q0 -139 -26.5 -212t-73 -118t-115.5 -67.5t-159 -22.5q-187 0 -283 90t-96 330v553h127v-552q0 -114 16.5 -164.5t46.5 -81t74.5 -46t103.5 -15.5q84 0 140 24t87 84t31 199v552zM300 1079v134h123v-134h-123zM543 1079v134h123v-134h-123z" />
    <glyph glyph-name="Yacute" unicode="&#xdd;" horiz-adv-x="892" 
d="M373 0v405l-369 552h154l189 -289q45 -68 97 -161q56 96 104 169l186 281h147l-382 -552v-405h-126zM365 1059l87 183h154l-144 -183h-97z" />
    <glyph glyph-name="Thorn" unicode="&#xde;" horiz-adv-x="892" 
d="M103 0v957h127v-195h234q186 0 277.5 -63.5t91.5 -213.5q0 -290 -358 -290h-245v-195h-127zM230 307h247q226 0 226 174q0 87 -51.5 127.5t-176.5 40.5h-245v-342z" />
    <glyph glyph-name="germandbls" unicode="&#xdf;" horiz-adv-x="817" 
d="M100 0v652q0 321 279 321q111 0 176.5 -56.5t65.5 -130.5q0 -62 -54 -157l-38 -73q-7 -13 -7 -36q0 -45 93 -104q90 -59 125 -102.5t35 -109.5q0 -90 -67 -155t-171 -65q-163 0 -237 157l101 47q54 -108 134 -108q43 0 81.5 30.5t38.5 83.5q0 56 -94 120
q-110 76 -135 112.5t-25 75.5q0 48 51 135q54 89 54 137q0 35 -33 69t-97 34q-68 0 -113.5 -43t-45.5 -187v-647h-117z" />
    <glyph glyph-name="agrave" unicode="&#xe0;" 
d="M541 86q-120 -102 -256 -102q-108 0 -172.5 53.5t-64.5 145.5q0 53 23 95t76 74.5t174 47.5q145 18 210 40v31q0 141 -167 141q-91 0 -127.5 -34t-53.5 -98l-114 15q45 214 312 214q75 0 128.5 -16t87 -48t43.5 -72t10 -126v-305q0 -22 8.5 -64t28.5 -78h-123
q-18 37 -23 86zM531 348q-62 -25 -192 -44q-105 -15 -135 -45t-30 -73q0 -110 139 -110q49 0 88 12.5t67.5 38.5t45.5 64.5t17 113.5v43zM436 779h-95l-151 183h157z" />
    <glyph glyph-name="aacute" unicode="&#xe1;" 
d="M541 86q-120 -102 -256 -102q-108 0 -172.5 53.5t-64.5 145.5q0 53 23 95t76 74.5t174 47.5q145 18 210 40v31q0 141 -167 141q-91 0 -127.5 -34t-53.5 -98l-114 15q45 214 312 214q75 0 128.5 -16t87 -48t43.5 -72t10 -126v-305q0 -22 8.5 -64t28.5 -78h-123
q-18 37 -23 86zM531 348q-62 -25 -192 -44q-105 -15 -135 -45t-30 -73q0 -110 139 -110q49 0 88 12.5t67.5 38.5t45.5 64.5t17 113.5v43zM307 779l87 183h154l-144 -183h-97z" />
    <glyph glyph-name="acircumflex" unicode="&#xe2;" 
d="M541 86q-120 -102 -256 -102q-108 0 -172.5 53.5t-64.5 145.5q0 53 23 95t76 74.5t174 47.5q145 18 210 40v31q0 141 -167 141q-91 0 -127.5 -34t-53.5 -98l-114 15q45 214 312 214q75 0 128.5 -16t87 -48t43.5 -72t10 -126v-305q0 -22 8.5 -64t28.5 -78h-123
q-18 37 -23 86zM531 348q-62 -25 -192 -44q-105 -15 -135 -45t-30 -73q0 -110 139 -110q49 0 88 12.5t67.5 38.5t45.5 64.5t17 113.5v43zM371 890l-74 -111h-135l141 183h126l146 -183h-133z" />
    <glyph glyph-name="atilde" unicode="&#xe3;" 
d="M541 86q-120 -102 -256 -102q-108 0 -172.5 53.5t-64.5 145.5q0 53 23 95t76 74.5t174 47.5q145 18 210 40v31q0 141 -167 141q-91 0 -127.5 -34t-53.5 -98l-114 15q45 214 312 214q75 0 128.5 -16t87 -48t43.5 -72t10 -126v-305q0 -22 8.5 -64t28.5 -78h-123
q-18 37 -23 86zM531 348q-62 -25 -192 -44q-105 -15 -135 -45t-30 -73q0 -110 139 -110q49 0 88 12.5t67.5 38.5t45.5 64.5t17 113.5v43zM150 796q0 148 132 148q41 0 110 -35q38 -19 62 -19q40 0 47 56h85q0 -148 -128 -148q-43 0 -108 36q-44 24 -64 24q-50 0 -50 -62h-86
z" />
    <glyph glyph-name="adieresis" unicode="&#xe4;" 
d="M541 86q-120 -102 -256 -102q-108 0 -172.5 53.5t-64.5 145.5q0 53 23 95t76 74.5t174 47.5q145 18 210 40v31q0 141 -167 141q-91 0 -127.5 -34t-53.5 -98l-114 15q45 214 312 214q75 0 128.5 -16t87 -48t43.5 -72t10 -126v-305q0 -22 8.5 -64t28.5 -78h-123
q-18 37 -23 86zM531 348q-62 -25 -192 -44q-105 -15 -135 -45t-30 -73q0 -110 139 -110q49 0 88 12.5t67.5 38.5t45.5 64.5t17 113.5v43zM186 789v134h123v-134h-123zM429 789v134h123v-134h-123z" />
    <glyph glyph-name="aring" unicode="&#xe5;" 
d="M541 86q-120 -102 -256 -102q-108 0 -172.5 53.5t-64.5 145.5q0 53 23 95t76 74.5t174 47.5q145 18 210 40v31q0 141 -167 141q-91 0 -127.5 -34t-53.5 -98l-114 15q45 214 312 214q75 0 128.5 -16t87 -48t43.5 -72t10 -126v-305q0 -22 8.5 -64t28.5 -78h-123
q-18 37 -23 86zM531 348q-62 -25 -192 -44q-105 -15 -135 -45t-30 -73q0 -110 139 -110q49 0 88 12.5t67.5 38.5t45.5 64.5t17 113.5v43zM246 873q0 50 35 83.5t82 33.5q42 0 80 -31.5t38 -87.5q0 -51 -35 -85.5t-82 -34.5q-43 0 -80.5 31t-37.5 91zM295 873q0 -73 70 -73
q25 0 47 21t22 50q0 71 -69 71q-70 0 -70 -69z" />
    <glyph glyph-name="ae" unicode="&#xe6;" horiz-adv-x="1189" 
d="M1132 212q-72 -228 -306 -228q-160 0 -258 130q-129 -130 -287 -130q-123 0 -180 62.5t-57 136.5q0 183 307 222q94 12 165 32v26q0 82 -34.5 115.5t-119.5 33.5q-164 0 -184 -134l-115 14q44 217 301 217q186 0 240 -94q82 94 222 94q146 0 227 -101t81 -252l-1 -39
h-501q0 -236 199 -236q141 0 178 147zM632 413h382q-18 199 -188 199q-77 0 -135.5 -53t-58.5 -146zM518 348q-90 -32 -219.5 -49t-129.5 -112q0 -110 135 -110q80 0 133 38.5t67 79.5t14 153z" />
    <glyph glyph-name="ccedilla" unicode="&#xe7;" horiz-adv-x="668" 
d="M541 254l115 -15q-18 -117 -95 -186t-193 -69q-149 0 -232.5 96.5t-83.5 263.5q0 120 37 200.5t113 122.5t166 42q235 0 277 -219l-114 -18q-33 140 -158 140q-200 0 -200 -265q0 -266 193 -266q150 0 175 173zM283 -101l34 116h87l-21 -70q111 -12 111 -96
q0 -43 -43 -83.5t-145 -40.5q-51 0 -94 8l7 76l61 -2q105 0 105 49q0 43 -102 43z" />
    <glyph glyph-name="egrave" unicode="&#xe8;" 
d="M563 223l121 -15q-60 -224 -305 -224q-104 0 -177.5 42.5t-113 122t-39.5 192.5q0 169 87 268.5t237 99.5q33 0 63 -5q29 -5 56 -15t50 -25q24 -15 44 -34q21 -21 38 -46q18 -26 31 -55q12 -29 20 -63q8 -33 11 -70q1 -11 1 -79h-517q6 -109 62 -172.5t148 -63.5
q132 0 183 142zM177 413h387q-8 100 -61 149.5t-129 49.5q-56 0 -98 -24.5t-68.5 -68.5t-30.5 -106zM436 779h-95l-151 183h157z" />
    <glyph glyph-name="eacute" unicode="&#xe9;" 
d="M563 223l121 -15q-60 -224 -305 -224q-104 0 -177.5 42.5t-113 122t-39.5 192.5q0 169 87 268.5t237 99.5q33 0 63 -5q29 -5 56 -15t50 -25q24 -15 44 -34q21 -21 38 -46q18 -26 31 -55q12 -29 20 -63q8 -33 11 -70q1 -11 1 -79h-517q6 -109 62 -172.5t148 -63.5
q132 0 183 142zM177 413h387q-8 100 -61 149.5t-129 49.5q-56 0 -98 -24.5t-68.5 -68.5t-30.5 -106zM297 779l87 183h154l-144 -183h-97z" />
    <glyph glyph-name="ecircumflex" unicode="&#xea;" 
d="M563 223l121 -15q-60 -224 -305 -224q-104 0 -177.5 42.5t-113 122t-39.5 192.5q0 169 87 268.5t237 99.5q33 0 63 -5q29 -5 56 -15t50 -25q24 -15 44 -34q21 -21 38 -46q18 -26 31 -55q12 -29 20 -63q8 -33 11 -70q1 -11 1 -79h-517q6 -109 62 -172.5t148 -63.5
q132 0 183 142zM177 413h387q-8 100 -61 149.5t-129 49.5q-56 0 -98 -24.5t-68.5 -68.5t-30.5 -106zM371 890l-74 -111h-135l141 183h126l146 -183h-133z" />
    <glyph glyph-name="edieresis" unicode="&#xeb;" 
d="M563 223l121 -15q-60 -224 -305 -224q-104 0 -177.5 42.5t-113 122t-39.5 192.5q0 169 87 268.5t237 99.5q33 0 63 -5q29 -5 56 -15t50 -25q24 -15 44 -34q21 -21 38 -46q18 -26 31 -55q12 -29 20 -63q8 -33 11 -70q1 -11 1 -79h-517q6 -109 62 -172.5t148 -63.5
q132 0 183 142zM177 413h387q-8 100 -61 149.5t-129 49.5q-56 0 -98 -24.5t-68.5 -68.5t-30.5 -106zM186 789v134h123v-134h-123zM429 789v134h123v-134h-123z" />
    <glyph glyph-name="igrave" unicode="&#xec;" horiz-adv-x="371" 
d="M129 0v693h118v-693h-118zM264 779h-95l-151 183h157z" />
    <glyph glyph-name="iacute" unicode="&#xed;" horiz-adv-x="371" 
d="M129 0v693h118v-693h-118zM120 779l87 183h154l-144 -183h-97z" />
    <glyph glyph-name="icircumflex" unicode="&#xee;" horiz-adv-x="371" 
d="M129 0v693h118v-693h-118zM185 890l-74 -111h-135l141 183h126l146 -183h-133z" />
    <glyph glyph-name="idieresis" unicode="&#xef;" horiz-adv-x="371" 
d="M129 0v693h118v-693h-118zM0 799v134h123v-134h-123zM243 799v134h123v-134h-123z" />
    <glyph glyph-name="eth" unicode="&#xf0;" horiz-adv-x="743" 
d="M201 957h142q50 -39 81 -67l140 67l29 -67l-112 -54q209 -241 209 -496q0 -184 -99.5 -270t-222.5 -86q-159 0 -239.5 100t-80.5 253q0 170 84 263t211 93q67 0 138 -38q-38 77 -93 139l-179 -83l-29 67l156 71q-63 59 -135 108zM568 345q0 124 -59.5 191t-144.5 67
q-84 0 -140 -66.5t-56 -202.5q0 -138 61.5 -196t137.5 -58q74 0 137.5 61t63.5 204z" />
    <glyph glyph-name="ntilde" unicode="&#xf1;" 
d="M88 0v693h106v-98q76 114 221 114q236 0 236 -252v-457h-117v422q0 185 -144 185q-184 0 -184 -228v-379h-118zM156 796q0 148 132 148q41 0 110 -35q38 -19 62 -19q40 0 47 56h85q0 -148 -128 -148q-43 0 -108 36q-44 24 -64 24q-50 0 -50 -62h-86z" />
    <glyph glyph-name="ograve" unicode="&#xf2;" 
d="M44 347q0 180 92 271t233 91q89 0 160 -36.5t118 -116.5t47 -200q0 -191 -94.5 -281.5t-230.5 -90.5q-102 0 -174 43.5t-111.5 124.5t-39.5 195zM165 347q0 -85 25.5 -145t70 -90.5t108.5 -30.5q99 0 151.5 73t52.5 197q0 119 -54 190t-150 71q-103 0 -153.5 -75.5
t-50.5 -189.5zM427 779h-95l-151 183h157z" />
    <glyph glyph-name="oacute" unicode="&#xf3;" 
d="M44 347q0 180 92 271t233 91q89 0 160 -36.5t118 -116.5t47 -200q0 -191 -94.5 -281.5t-230.5 -90.5q-102 0 -174 43.5t-111.5 124.5t-39.5 195zM165 347q0 -85 25.5 -145t70 -90.5t108.5 -30.5q99 0 151.5 73t52.5 197q0 119 -54 190t-150 71q-103 0 -153.5 -75.5
t-50.5 -189.5zM308 779l87 183h154l-144 -183h-97z" />
    <glyph glyph-name="ocircumflex" unicode="&#xf4;" 
d="M44 347q0 180 92 271t233 91q89 0 160 -36.5t118 -116.5t47 -200q0 -191 -94.5 -281.5t-230.5 -90.5q-102 0 -174 43.5t-111.5 124.5t-39.5 195zM165 347q0 -85 25.5 -145t70 -90.5t108.5 -30.5q99 0 151.5 73t52.5 197q0 119 -54 190t-150 71q-103 0 -153.5 -75.5
t-50.5 -189.5zM370 890l-74 -111h-135l141 183h126l146 -183h-133z" />
    <glyph glyph-name="otilde" unicode="&#xf5;" 
d="M44 347q0 180 92 271t233 91q89 0 160 -36.5t118 -116.5t47 -200q0 -191 -94.5 -281.5t-230.5 -90.5q-102 0 -174 43.5t-111.5 124.5t-39.5 195zM165 347q0 -85 25.5 -145t70 -90.5t108.5 -30.5q99 0 151.5 73t52.5 197q0 119 -54 190t-150 71q-103 0 -153.5 -75.5
t-50.5 -189.5zM148 796q0 148 132 148q41 0 110 -35q38 -19 62 -19q40 0 47 56h85q0 -148 -128 -148q-43 0 -108 36q-44 24 -64 24q-50 0 -50 -62h-86z" />
    <glyph glyph-name="odieresis" unicode="&#xf6;" 
d="M44 347q0 180 92 271t233 91q89 0 160 -36.5t118 -116.5t47 -200q0 -191 -94.5 -281.5t-230.5 -90.5q-102 0 -174 43.5t-111.5 124.5t-39.5 195zM165 347q0 -85 25.5 -145t70 -90.5t108.5 -30.5q99 0 151.5 73t52.5 197q0 119 -54 190t-150 71q-103 0 -153.5 -75.5
t-50.5 -189.5zM183 799v134h123v-134h-123zM426 799v134h123v-134h-123z" />
    <glyph glyph-name="divide" unicode="&#xf7;" horiz-adv-x="734" 
d="M300 602v134h133v-134h-133zM683 417h-632v110h632v-110zM300 208v134h133v-134h-133z" />
    <glyph glyph-name="oslash" unicode="&#xf8;" horiz-adv-x="817" 
d="M603 652l65 84l62 -46l-69 -90q76 -98 76 -254q0 -182 -92.5 -272t-233.5 -90q-105 0 -183 53l-69 -89l-61 47l70 92q-81 90 -81 250q0 195 96 283.5t226 88.5q98 0 194 -57zM537 566q-60 46 -124 46q-85 0 -145 -67t-60 -198q0 -99 34 -164zM586 503l-293 -381
q52 -41 115 -41q91 0 150 66.5t59 199.5q0 95 -31 156z" />
    <glyph glyph-name="ugrave" unicode="&#xf9;" 
d="M542 0v102q-80 -118 -220 -118q-64 0 -110.5 18t-75.5 54t-39.5 82.5t-10.5 125.5v429h117v-384q0 -90 6.5 -121.5t24 -54.5t45.5 -35t67 -12q70 0 113 31.5t57 81.5t14 123v371h118v-693h-106zM427 779h-95l-151 183h157z" />
    <glyph glyph-name="uacute" unicode="&#xfa;" 
d="M542 0v102q-80 -118 -220 -118q-64 0 -110.5 18t-75.5 54t-39.5 82.5t-10.5 125.5v429h117v-384q0 -90 6.5 -121.5t24 -54.5t45.5 -35t67 -12q70 0 113 31.5t57 81.5t14 123v371h118v-693h-106zM280 779l87 183h154l-144 -183h-97z" />
    <glyph glyph-name="ucircumflex" unicode="&#xfb;" 
d="M542 0v102q-80 -118 -220 -118q-64 0 -110.5 18t-75.5 54t-39.5 82.5t-10.5 125.5v429h117v-384q0 -90 6.5 -121.5t24 -54.5t45.5 -35t67 -12q70 0 113 31.5t57 81.5t14 123v371h118v-693h-106zM370 890l-74 -111h-135l141 183h126l146 -183h-133z" />
    <glyph glyph-name="udieresis" unicode="&#xfc;" 
d="M542 0v102q-80 -118 -220 -118q-64 0 -110.5 18t-75.5 54t-39.5 82.5t-10.5 125.5v429h117v-384q0 -90 6.5 -121.5t24 -54.5t45.5 -35t67 -12q70 0 113 31.5t57 81.5t14 123v371h118v-693h-106zM182 799v134h123v-134h-123zM425 799v134h123v-134h-123z" />
    <glyph glyph-name="yacute" unicode="&#xfd;" horiz-adv-x="668" 
d="M83 -267l-13 110q38 -10 67 -10q41 0 67.5 16t38 41t39.5 103l3 6l-263 694h126l144 -401q32 -90 51 -161q19 79 48 158l148 404h118l-264 -705q-38 -101 -64 -153.5t-69 -84t-101 -31.5q-34 0 -76 14zM268 779l87 183h154l-144 -183h-97z" />
    <glyph glyph-name="thorn" unicode="&#xfe;" horiz-adv-x="743" 
d="M88 -266v1223h118v-337q78 89 190 89q136 0 215 -98.5t79 -258.5q0 -165 -84.5 -266.5t-217.5 -101.5q-104 0 -182 88v-338h-118zM195 343q0 -145 58 -203.5t127 -58.5t129.5 60.5t60.5 210.5q0 132 -54.5 198.5t-130.5 66.5q-74 0 -132 -70t-58 -204z" />
    <glyph glyph-name="ydieresis" unicode="&#xff;" horiz-adv-x="668" 
d="M83 -267l-13 110q38 -10 67 -10q41 0 67.5 16t38 41t39.5 103l3 6l-263 694h126l144 -401q32 -90 51 -161q19 79 48 158l148 404h118l-264 -705q-38 -101 -64 -153.5t-69 -84t-101 -31.5q-34 0 -76 14zM155 799v134h123v-134h-123zM398 799v134h123v-134h-123z" />
    <glyph glyph-name="dotlessi" unicode="&#x131;" horiz-adv-x="371" 
d="M129 0v693h118v-693h-118z" />
    <glyph glyph-name="OE" unicode="&#x152;" horiz-adv-x="1337" 
d="M1294 113v-113h-562v138q-88 -154 -261 -154q-186 0 -286.5 135t-100.5 361q0 199 89.5 346t297.5 147q171 0 261 -145v129h542v-113h-424v-292h391v-113h-391v-326h444zM470 871q-101 0 -178 -88.5t-77 -312.5q0 -214 81 -299t174 -85t173.5 84.5t80.5 315.5
q0 216 -81 300.5t-173 84.5z" />
    <glyph glyph-name="oe" unicode="&#x153;" horiz-adv-x="1262" 
d="M638 114q-96 -130 -258 -130q-148 0 -237 93.5t-89 260.5q0 181 89.5 276t237.5 95q172 0 257 -133q93 133 254 133q125 0 222.5 -88t97.5 -306h-512q0 -118 65.5 -176t141.5 -58q136 0 178 145l118 -17q-60 -225 -298 -225q-175 0 -267 130zM174 348q0 -113 50 -190
t153 -77q82 0 143 69t61 199q0 129 -60 196t-144 67q-92 0 -147.5 -72.5t-55.5 -191.5zM705 412h383q0 83 -53 141.5t-136 58.5q-85 0 -139.5 -60t-54.5 -140z" />
    <glyph glyph-name="Scaron" unicode="&#x160;" horiz-adv-x="892" 
d="M60 307l120 11q14 -115 92 -168t190 -53q119 0 178.5 47.5t59.5 115.5q0 47 -29.5 81.5t-80.5 53t-182 48.5q-97 22 -163 51t-107 84t-41 132q0 82 39.5 139t118.5 90.5t178 33.5q173 0 263.5 -79t96.5 -207l-121 -9q-20 184 -233 184q-220 0 -220 -144q0 -42 27 -72.5
t69.5 -45.5t131.5 -35q158 -36 214 -62t91 -60.5t52.5 -77.5t17.5 -95q0 -134 -103 -210t-251 -76q-198 0 -300 89t-108 234zM444 1121l72 111h133l-147 -183h-125l-141 183h135z" />
    <glyph glyph-name="scaron" unicode="&#x161;" horiz-adv-x="668" 
d="M41 207l116 18q21 -144 180 -144t159 110q0 40 -28 59t-127 44q-64 16 -114.5 30.5t-89 41.5t-57.5 62.5t-19 80.5q0 52 25.5 95.5t82.5 74t147 30.5q83 0 141 -21t90 -62.5t44 -111.5l-115 -15q-17 113 -152 113q-150 0 -150 -89q0 -25 14.5 -43t35 -26t113.5 -34
q24 -6 108.5 -29t128 -70.5t43.5 -116.5q0 -102 -80 -161t-200 -59q-256 0 -296 223zM329 851l72 111h133l-147 -183h-125l-141 183h135z" />
    <glyph glyph-name="Ydieresis" unicode="&#x178;" horiz-adv-x="892" 
d="M373 0v405l-369 552h154l189 -289q45 -68 97 -161q56 96 104 169l186 281h147l-382 -552v-405h-126zM255 1079v134h123v-134h-123zM498 1079v134h123v-134h-123z" />
    <glyph glyph-name="florin" unicode="&#x192;" horiz-adv-x="743" 
d="M30 -264l23 101q73 -15 99 -15q66 0 84 100l115 680h-131l16 91h131l15 87q21 122 68 158t118 36q53 0 140 -25l-23 -100q-64 16 -100 16q-33 0 -52 -15t-34 -90l-12 -67h133l-16 -91h-133l-125 -713q-30 -170 -170 -170q-67 0 -146 17z" />
    <glyph glyph-name="circumflex" unicode="&#x2c6;" horiz-adv-x="445" 
d="M225 890l-74 -111h-135l141 183h126l146 -183h-133z" />
    <glyph glyph-name="caron" unicode="&#x2c7;" horiz-adv-x="445" 
d="M234 851l72 111h133l-147 -183h-125l-141 183h135z" />
    <glyph glyph-name="tilde" unicode="&#x2dc;" horiz-adv-x="445" 
d="M5 796q0 148 132 148q41 0 110 -35q38 -19 62 -19q40 0 47 56h85q0 -148 -128 -148q-43 0 -108 36q-44 24 -64 24q-50 0 -50 -62h-86z" />
    <glyph glyph-name="0e00;" unicode="&#xe00;" horiz-adv-x="211" 
 />
    <glyph glyph-name="afii59681" unicode="&#xe01;" horiz-adv-x="860" 
d="M240 592q-59 56 -187 84q0 6 27 28.5t77 49.5t124.5 48.5t144.5 21.5q143 0 230.5 -62t87.5 -187v-575h-96v577q0 163 -218 163q-118 0 -190 -48q7 0 55 -29t103 -75q-63 0 -102.5 -49t-39.5 -111v-428h-97v447q0 32 12.5 61.5t31 51.5t37.5 32z" />
    <glyph glyph-name="afii59682;" unicode="&#xe02;" horiz-adv-x="834" 
d="M221 742q70 -45 70 -103q0 -146 -135 -146q-141 0 -141 134q0 82 57 138t137 56q94 0 156.5 -24.5t92.5 -72t30 -99.5q0 -33 -32 -111q-32 -77 -32 -100v-322h117q72 0 72 74v653h96v-655q0 -83 -41.5 -123.5t-106.5 -40.5h-335v92h101v301q0 49 6.5 71.5t36.5 83.5
q21 43 21 79q0 119 -137 119q-7 0 -33 -4zM156 695q-66 0 -66 -68q0 -64 64 -64q65 0 65 68q0 64 -63 64z" />
    <glyph glyph-name="afii59683;" unicode="&#xe03;" horiz-adv-x="877" 
d="M303 0v92h99l1 483q0 20 28 52q28 21 29 37q0 14 -60 69l-103 -51l-94 51q-47 -21 -65.5 -57t-18.5 -62q22 13 57 13q136 0 136 -131q0 -39 -16.5 -67.5t-45 -45t-67.5 -16.5q-73 0 -114.5 52.5t-41.5 137.5q0 83 42 156t118 110l110 -63l112 61q24 -12 83 -67.5
t59 -68.5v-37q-53 -58 -53 -90v-466h93q70 0 70 74v653h97v-655q0 -57 -18 -91.5t-50.5 -53.5t-78.5 -19h-308zM248 498q0 65 -65 65q-66 0 -66 -65q0 -68 66 -68q65 0 65 68z" />
    <glyph glyph-name="afii59684;" unicode="&#xe04;" horiz-adv-x="858" 
d="M209 0v135q0 40 -14 68q-19 37 -53 111l-44 98q-11 23 -16.5 53.5t-5.5 67.5q0 72 37 137.5t112.5 109.5t188.5 44q145 0 233 -73.5t88 -199.5v-551h-96v547q0 92 -61.5 142.5t-171.5 50.5q-118 0 -179 -67.5t-61 -141.5q0 -104 47 -181v91q0 58 38 100.5t99 42.5
q54 0 96 -30t42 -90q0 -146 -131 -146q-17 0 -52 8v-326h-96zM353 514q-64 0 -64 -63q0 -66 64 -66q65 0 65 66q0 63 -65 63z" />
    <glyph glyph-name="afii59685;" unicode="&#xe05;" horiz-adv-x="834" 
d="M226 277q0 168 43 240.5t131 72.5q137 0 137 -139q0 -129 -144 -129q-50 0 -81 22q-20 -113 -20 -215q0 -59 5 -129h-100q-10 98 -29 150q-16 41 -43 123l-37 110q-10 29 -15 67t-5 81q0 196 258 293l94 -72l105 72q87 -20 138.5 -88t51.5 -160v-576h-97v568
q0 124 -85 170l-111 -82l-115 88q-153 -85 -153 -217q0 -47 21.5 -127t50.5 -123zM402 525q-70 0 -70 -70q0 -72 70 -72q71 0 71 72q0 70 -71 70z" />
    <glyph glyph-name="afii59686;" unicode="&#xe06;" horiz-adv-x="1032" 
d="M512 330l162 -166q68 -70 98 -70q37 0 37 78v647h96v-630q0 -116 -39 -153.5t-92 -37.5q-61 0 -108 51l-154 168v-102q0 -49 -36 -84t-85 -35q-46 0 -80.5 24t-52.5 62.5t-18 81.5q0 72 42.5 128t132.5 56v222q0 15 30 52q30 26 30 42q0 15 -23 42t-37 27l-101 -51
l-95 51q-41 -18 -62.5 -56.5t-21.5 -61.5q22 12 58 12q135 0 135 -131q0 -36 -14 -64.5t-43 -46.5t-72 -18q-73 0 -114.5 52.5t-41.5 137.5q0 86 43.5 158t116.5 109l111 -64l112 64q32 -18 87 -70t55 -70v-45q-56 -47 -56 -81v-228zM199 563q-66 0 -66 -65q0 -68 66 -68
q65 0 65 68q0 65 -65 65zM324 164q0 -88 55 -88q36 0 36 55v131q-91 0 -91 -98z" />
    <glyph glyph-name="afii59687;" unicode="&#xe07;" horiz-adv-x="662" 
d="M439 565q-32 -8 -52 -8q-127 0 -127 137q0 38 17.5 67t47 46t68.5 17q142 0 142 -144v-514q0 -102 -44 -138t-95 -36q-50 0 -93.5 36t-79 137.5t-69 125.5t-105.5 27v86q157 0 209 -104q15 -36 49 -107l40 -84q7 -13 17.5 -20t24.5 -7q50 0 50 72v411zM393 754
q-63 0 -63 -64q0 -65 63 -65q67 0 67 65q0 64 -67 64z" />
    <glyph glyph-name="afii59688;" unicode="&#xe08;" horiz-adv-x="762" 
d="M329 305q-31 -8 -50 -8q-129 0 -129 138q0 55 38 91.5t97 36.5q141 0 141 -143v-270q0 -68 60 -68q52 0 52 70v430q0 83 -51.5 119.5t-152.5 36.5q-162 0 -219 -138l-80 39q84 185 311 185q122 0 205.5 -55.5t83.5 -176.5v-461q0 -60 -44.5 -97.5t-113.5 -37.5
q-56 0 -102 33t-46 94v182zM285 494q-64 0 -64 -64q0 -65 64 -65q65 0 65 65q0 64 -65 64z" />
    <glyph glyph-name="afii59689;" unicode="&#xe09;" horiz-adv-x="889" 
d="M243 285q-35 -9 -53 -9q-123 0 -123 138q0 39 17 68t46.5 45t68.5 16q141 0 141 -143v-238q0 -76 31 -76q35 0 121 133q53 82 102 107v256q0 72 -57.5 115t-147.5 43q-172 0 -235 -134l-74 41q94 177 299 177q169 0 240 -69t71 -161v-264q76 0 122 -46.5t46 -125.5
q0 -162 -135 -162q-37 0 -64.5 14.5t-46 41t-18.5 59.5v129q-18 -14 -66 -84q-45 -82 -95.5 -121t-84.5 -39q-105 0 -105 127v162zM199 473q-64 0 -64 -63q0 -66 64 -66q65 0 65 66q0 63 -65 63zM688 252v-121q0 -53 38 -53q48 0 48 76q0 98 -86 98z" />
    <glyph glyph-name="afii59690;" unicode="&#xe0a;" horiz-adv-x="850" 
d="M811 789q-62 -61 -219 -109q29 -9 92 -55q45 -48 45 -111v-350q0 -164 -147 -164h-336v92h102v301q0 47 6.5 70t35.5 85q22 45 22 79q0 119 -137 119q-7 0 -33 -4q69 -45 69 -107q0 -64 -42.5 -103t-93.5 -39q-140 0 -140 134q0 81 57.5 137.5t137.5 56.5q198 0 256 -108
q48 8 147.5 59t140.5 113zM240 631q0 64 -64 64q-65 0 -65 -68q0 -64 63 -64q66 0 66 68zM633 166v324q0 56 -24 91t-100 63q-2 -42 -12 -73.5t-21 -57.5q-31 -77 -31 -99v-322h117q71 0 71 74z" />
    <glyph glyph-name="afii59691;" unicode="&#xe0b;" horiz-adv-x="914" 
d="M556 708q26 6 121.5 52t164.5 120l37 -91q-42 -34 -72 -51t-147 -58q14 -2 47.5 -16.5t61.5 -65t28 -84.5v-350q0 -83 -41.5 -123.5t-106.5 -40.5h-335v92h101v502l64 66q-17 54 -67 80l-90 -48l-92 48q-55 -22 -74 -90q22 4 37 4q51 0 92 -31.5t41 -94.5
q0 -148 -127 -148q-152 0 -152 181q0 77 28 135t75 94t57 36l113 -48l110 46q57 0 126 -116zM512 574v-482h117q72 0 72 74v324q0 69 -36.5 105.5t-89.5 49.5zM191 584q-66 0 -66 -68q0 -63 64 -63q65 0 65 67q0 64 -63 64z" />
    <glyph glyph-name="afii59692;" unicode="&#xe0c;" horiz-adv-x="1108" 
d="M874 819h97v-688q0 -120 -78 -131q-88 0 -131 72l-54 91q-8 13 -28 44v-110q0 -45 -36.5 -73t-75.5 -28q-61 0 -94 53.5t-33 130.5q0 130 142 152v284q0 124 -192 124q-122 0 -169 -48q15 -6 70.5 -40.5t86.5 -63.5q-53 0 -97 -47.5t-44 -112.5v-94q149 -15 149 -170
q0 -166 -145 -166q-100 0 -100 127v322q0 95 80 145q-74 66 -187 84q45 62 148.5 105t203.5 43q132 0 212.5 -52t80.5 -152v-296q47 -39 101 -130t75 -91q18 0 18 53v663zM518 193q0 -113 39 -113q26 0 26 29v147q-65 0 -65 -63zM238 254v-121q0 -47 27 -47q40 0 40 56
q0 112 -67 112z" />
    <glyph glyph-name="afii59693;" unicode="&#xe0d;" horiz-adv-x="1151" 
d="M1018 819v-665q0 -68 -15 -96.5t-40 -43t-60 -14.5h-362v92h59v525q0 123 -188 123q-88 0 -166 -48q87 -43 158 -104q-54 0 -98 -48t-44 -112v-172q24 8 52 8q122 0 122 -139q0 -56 -35.5 -91.5t-93.5 -35.5q-141 0 -141 144v305q0 95 80 145q-51 53 -186 84
q38 54 143.5 101t204.5 47q144 0 216.5 -58.5t72.5 -144.5v-529h174q50 0 50 66v662zM307 68q66 0 66 65q0 64 -66 64q-63 0 -63 -64q0 -65 63 -65zM920 -86h92q0 -98 -31.5 -164t-86 -104.5t-128.5 -38.5q-99 0 -173.5 45t-74.5 120q0 140 125 140q57 0 93 -34.5t36 -90.5
q0 -59 -57 -90q27 -9 43 -9q70 0 114.5 54t47.5 172zM647 -154q-59 0 -59 -61q0 -58 57 -58q60 0 60 62q0 57 -58 57z" />
    <glyph glyph-name="afii59694;" unicode="&#xe0e;" horiz-adv-x="946" 
d="M455 -303q-31 -49 -88.5 -82t-114.5 -33q-141 0 -141 121q0 70 49.5 109.5t130.5 39.5q28 0 77 -11t56 -24q17 38 33 80t16 93h97q0 -80 -74 -218l100 -86l108 101v791q0 162 -188 162q-117 0 -177 -48q17 -6 59.5 -31.5t97.5 -72.5q-53 0 -97 -47.5t-44 -112.5v-286
q0 -144 -142 -144q-61 0 -97.5 33t-36.5 84q0 149 128 149q28 0 51 -8v191q0 93 81 145q-56 53 -187 84q49 64 155.5 106t204.5 42q137 0 213 -63.5t76 -178.5v-808l-208 -216q-114 134 -138 139zM213 68q66 0 66 65q0 64 -66 64q-63 0 -63 -64q0 -65 63 -65zM379 -250
q-54 29 -100 29q-78 0 -78 -62q0 -55 63 -55q30 0 72.5 29.5t42.5 58.5z" />
    <glyph glyph-name="afii59695;" unicode="&#xe0f;" horiz-adv-x="928" 
d="M699 -221v832q0 44 -19.5 72t-61 42.5t-104.5 14.5q-90 0 -177 -48q96 -51 157 -104q-55 0 -98 -47t-43 -113v-286q0 -144 -147 -144q-32 0 -59.5 14.5t-47 43.5t-19.5 67q0 141 125 141q19 0 51 -8v191q0 93 81 145q-56 53 -187 84q38 53 145.5 100.5t214.5 47.5
q139 0 212 -49.5t73 -159.5v-836q0 -50 -28.5 -97t-135.5 -112l-94 131l-96 -133l-74 102q-13 -28 -60 -80q-31 -21 -88 -21q-45 0 -77.5 43t-32.5 93q0 63 35 110.5t90 47.5q63 0 114 -56q43 117 43 180h84q0 -50 -19.5 -117.5t-47.5 -117.5l28 -47l101 147l104 -161
q25 14 41.5 33.5t16.5 54.5zM211 68q66 0 66 65q0 64 -66 64q-63 0 -63 -64q0 -65 63 -65zM236 -211q-49 0 -49 -84q0 -66 39 -66q55 0 89 101q-44 49 -79 49z" />
    <glyph glyph-name="afii59696;" unicode="&#xe10;" horiz-adv-x="725" 
d="M668 723q-39 -20 -82 -20q-41 0 -121 17q-80 18 -121 18q-101 0 -141 -48q115 0 215.5 -44.5t135 -91t34.5 -109.5v-314q0 -66 -48 -100.5t-110 -34.5t-105 36t-43 91v105q-33 -9 -50 -9q-126 0 -126 148q0 119 132 119q141 0 141 -144v-192q0 -68 60 -68q52 0 52 70v282
q0 43 -22 76t-68 57t-152.5 45t-199.5 21q61 111 127 147.5t156 36.5q43 0 124 -19q82 -18 95 -18q31 0 93 19h-1zM303 353q0 63 -65 63q-64 0 -64 -63q0 -66 64 -66q65 0 65 66zM520 -289q-26 -6 -38 -6q-99 0 -99 100q0 47 31.5 71.5t69.5 24.5q106 0 106 -127v-133
l-143 -96l-94 64l-111 -63l-41 69q-33 -59 -97 -59q-100 0 -100 112q0 42 27 76.5t78 34.5q58 0 89 -31q20 60 28 147h75q0 -95 -57 -207l27 -47l84 45l92 -57l73 47v35zM484 -152q-43 0 -43 -43q0 -47 47 -47q42 0 42 43q0 47 -46 47zM104 -286q-34 0 -34 -48q0 -47 37 -47
q21 0 35 20.5t14 42.5q0 32 -52 32z" />
    <glyph glyph-name="afii59697;" unicode="&#xe11;" horiz-adv-x="1096" 
d="M973 0h-97v658q0 55 -34 55q-14 0 -26.5 -7.5t-24.5 -22.5q-26 -33 -76 -124q-45 -81 -91 -177q-60 -124 -85 -187q-16 -39 -21.5 -73.5t-5.5 -121.5h-103v580q0 12 32 42q25 31 26 42q0 14 -22 41.5t-37 27.5l-103 -51l-94 51q-14 -6 -55 -45q-28 -35 -29 -73
q36 12 58 12q135 0 135 -131q0 -38 -17 -67t-45.5 -45.5t-66.5 -16.5q-74 0 -115 52.5t-41 137.5q0 86 43.5 158t116.5 109l110 -64l113 64q37 -21 89 -70.5t52 -69.5v-45q-39 -36 -46 -46t-7 -25v-242q29 66 104 214t129.5 213.5t94.5 65.5q33 0 63.5 -16.5t53 -50
t22.5 -76.5v-676zM191 563q-66 0 -66 -65q0 -68 66 -68q65 0 65 68q0 65 -65 65z" />
    <glyph glyph-name="afii59698;" unicode="&#xe12;" horiz-adv-x="1131" 
d="M617 348v246q0 107 -88 144l-117 -89l-123 89q-152 -84 -152 -238q0 -76 61 -205q21 -45 64 -141q11 49 24.5 76.5t55.5 97.5q-37 0 -62 11t-45 41t-20 75q0 40 17.5 70t48 47.5t69.5 17.5q38 0 69.5 -18.5t50 -48t18.5 -66.5q0 -46 -42 -118l-60 -97q-34 -54 -53 -115.5
t-21 -126.5h-103q0 90 -79 252t-79 252q0 112 55.5 188t196.5 132l109 -80l113 82q76 -27 132 -87t56 -145v-264q51 -57 101 -153q45 -85 69 -85q18 0 18 56v671h97v-679q0 -84 -30.5 -114t-72.5 -30q-41 0 -75 37.5t-71 116.5q-17 34 -36 51v-102q0 -103 -111 -103
q-63 0 -100 54.5t-37 119.5q0 46 17 84t51.5 64t83.5 30zM350 527q-67 0 -67 -68q0 -70 67 -70q68 0 68 68q0 70 -68 70zM543 170q0 -92 47 -92q27 0 27 31v168q-74 -23 -74 -107z" />
    <glyph glyph-name="afii59699;" unicode="&#xe13;" horiz-adv-x="1215" 
d="M936 347v473h94v-463q68 0 122.5 -42t54.5 -120q0 -199 -144 -199q-127 0 -127 123v135q-77 -53 -132 -123t-69 -108q-5 -14 -10 -23h-97v615q0 43 -19.5 70t-60.5 41t-103 14q-99 0 -178 -48q17 -7 75 -43.5t82 -60.5q-34 -8 -100 -51q-41 -45 -41 -109v-172q34 8 51 8
q126 0 126 -149q0 -51 -44 -84t-88 -33q-141 0 -141 144v305q0 31 15 68.5t65 76.5q-74 61 -187 84q38 53 143.5 100.5t217.5 47.5q96 0 159.5 -23t94 -68t30.5 -114v-459q95 144 211 187zM1030 269v-142q0 -49 45 -49q52 0 52 82q0 109 -97 109zM328 68q65 0 65 65
q0 64 -65 64q-63 0 -63 -64q0 -65 63 -65z" />
    <glyph glyph-name="afii59700;" unicode="&#xe14;" horiz-adv-x="862" 
d="M383 320q-52 0 -89.5 42.5t-37.5 96.5q0 60 40.5 96.5t101.5 36.5q41 0 72 -18t49 -49t18 -72q0 -74 -53 -141q-125 -159 -140 -312h-100q-6 55 -16 100.5t-27.5 86t-71.5 146.5q-53 103 -53 204q0 124 100.5 203t239.5 79q128 0 225 -57.5t97 -185.5v-576h-96v568
q0 54 -26.5 92t-75.5 59t-118 21q-75 0 -136 -30.5t-93.5 -75.5t-32.5 -103q0 -129 63 -232q30 -48 74 -157q7 19 24 60t30 64zM398 527q-70 0 -70 -70q0 -72 70 -72q71 0 71 72q0 70 -71 70z" />
    <glyph glyph-name="afii59701;" unicode="&#xe15;" horiz-adv-x="871" 
d="M565 738l-110 -82l-115 88q-170 -68 -170 -213q0 -127 64 -232q28 -46 73 -157q34 88 47 112.5t42 65.5q-53 0 -91.5 42.5t-38.5 96.5q0 66 43.5 99.5t98.5 33.5q42 0 73 -18t48.5 -49t17.5 -72q0 -74 -53 -141q-126 -160 -139 -312h-101q-24 163 -84 274
q-84 155 -84 265q0 211 273 285l94 -72l104 72q87 -19 139 -84.5t52 -163.5v-576h-96v568q0 55 -14.5 92t-72.5 78zM408 527q-70 0 -70 -70q0 -72 70 -72q71 0 71 72q0 70 -71 70z" />
    <glyph glyph-name="afii59702;" unicode="&#xe16;" horiz-adv-x="873" 
d="M256 256q34 8 51 8q129 0 129 -142q0 -55 -40 -89.5t-95 -34.5q-142 0 -142 144v305q0 84 81 145q-26 20 -82 51q-45 17 -105 33q174 148 373 148q131 0 224.5 -57t93.5 -181v-586h-96v582q0 53 -22.5 87.5t-72 52.5t-123.5 18q-51 0 -108 -15t-82 -33q86 -43 158 -104
q-35 -9 -101 -51q-41 -44 -41 -109v-172zM301 68q66 0 66 65q0 64 -66 64q-63 0 -63 -64q0 -65 63 -65z" />
    <glyph glyph-name="afii59703;" unicode="&#xe17;" horiz-adv-x="942" 
d="M819 0h-96v652q0 43 -27.5 66.5t-56.5 23.5q-39 0 -118.5 -132.5t-134 -281.5t-54.5 -328h-97v563q-24 -8 -50 -8q-128 0 -128 141q0 33 14.5 60.5t45 46t74.5 18.5q141 0 141 -143v-262q62 142 153 275t160 133q50 0 90 -26.5t62 -70t22 -100.5v-627zM191 752
q-64 0 -64 -64q0 -65 64 -65q65 0 65 65q0 64 -65 64z" />
    <glyph glyph-name="afii59704;" unicode="&#xe18;" horiz-adv-x="764" 
d="M721 819l38 -74q-92 -53 -153 -53q-44 0 -130 21q-86 22 -128 22v-73q281 -61 281 -195v-344q0 -103 -121 -123h-364l-1 92h109v502q-26 5 -92 14t-82 9q-18 0 -18 22q0 45 37.5 90.5t90 66.5t121.5 21q35 0 148 -22q113 -21 145 -21q55 0 119 45zM166 686l86 -8v60
q-17 -2 -48 -13q-13 -9 -38 -39zM348 570v-478h146q39 0 39 43v312q0 97 -185 123z" />
    <glyph glyph-name="afii59705;" unicode="&#xe19;" horiz-adv-x="914" 
d="M617 361v458h96v-448q174 0 174 -193q0 -71 -36 -125.5t-111 -54.5q-123 0 -123 162v111q-53 0 -149 -88t-134 -183h-97v563q-31 -8 -50 -8q-129 0 -129 140q0 54 38 90t97 36q70 0 105.5 -33.5t35.5 -109.5v-512q57 77 153 136t130 59zM193 752q-64 0 -64 -64
q0 -65 64 -65q65 0 65 65q0 64 -65 64zM713 287v-121q0 -82 47 -82t47 115q0 88 -94 88z" />
    <glyph glyph-name="afii59706;" unicode="&#xe1a;" horiz-adv-x="926" 
d="M703 819h96v-696q0 -55 -37.5 -89t-95.5 -34h-537v92h108v471q-31 -8 -50 -8q-128 0 -128 141q0 55 37.5 90t96.5 35q72 0 106.5 -34t34.5 -109v-586h303q66 0 66 72v655zM193 752q-64 0 -64 -64q0 -65 64 -65q65 0 65 65q0 64 -65 64z" />
    <glyph glyph-name="afii59707;" unicode="&#xe1b;" horiz-adv-x="928" 
d="M703 1219h96v-1096q0 -55 -37.5 -89t-95.5 -34h-537v92h108v471q-23 -8 -50 -8q-127 0 -127 136q0 56 37 93t96 37q72 0 106.5 -34t34.5 -109v-586h303q66 0 66 72v1055zM193 752q-64 0 -64 -64q0 -65 64 -65q65 0 65 65q0 64 -65 64z" />
    <glyph glyph-name="afii59708;" unicode="&#xe1c;" horiz-adv-x="875" 
d="M116 0v678l2 26q1 15 7 31.5t17.5 31.5t29.5 27.5t39.5 19.5t46.5 7q37 0 69 -17.5t49.5 -45.5t17.5 -64q0 -139 -130 -139q-30 0 -51 8v-383q42 59 105 140q69 69 116 102q48 -33 99 -82.5t125 -159.5v639h96v-819h-96q-27 77 -92 170.5t-132 145.5q-153 -123 -221 -316
h-97zM258 752q-63 0 -63 -64q0 -65 63 -65q66 0 66 65q0 64 -66 64z" />
    <glyph glyph-name="afii59709;" unicode="&#xe1d;" horiz-adv-x="873" 
d="M116 0v678l2 26q1 15 7 31.5t17.5 31.5t29.5 27.5t39.5 19.5t46.5 7q37 0 69 -17.5t49.5 -45.5t17.5 -64q0 -139 -130 -139q-30 0 -51 8v-383q42 59 105 140q69 69 116 102q48 -33 99 -82.5t125 -159.5v1039h96v-1219h-96q-27 77 -92 170.5t-132 145.5
q-153 -123 -221 -316h-97zM258 752q-63 0 -63 -64q0 -65 63 -65q66 0 66 65q0 64 -66 64z" />
    <glyph glyph-name="afii59710;" unicode="&#xe1e;" horiz-adv-x="1014" 
d="M237 563q-31 -8 -50 -8q-129 0 -129 139q0 55 38 91t97 36q72 0 106.5 -34t34.5 -109v-405l76 168q92 203 92 378h100q0 -147 105 -364q48 -98 82 -182v546h96v-819h-94q-42 168 -135 353q-27 55 -57.5 147t-41.5 143q-28 -165 -96 -301q-125 -248 -125 -342h-99v563z
M193 752q-64 0 -64 -64q0 -65 64 -65q65 0 65 65q0 64 -65 64z" />
    <glyph glyph-name="afii59711;" unicode="&#xe1f;" horiz-adv-x="1014" 
d="M237 563q-31 -8 -50 -8q-129 0 -129 139q0 55 38 91t97 36q72 0 106.5 -34t34.5 -109v-405l76 168q92 203 92 378h100q0 -147 105 -364q48 -98 82 -182v946h96v-1219h-94q-42 168 -135 353q-27 55 -57.5 147t-41.5 143q-28 -165 -96 -301q-125 -248 -125 -342h-99v563z
M193 752q-64 0 -64 -64q0 -65 64 -65q65 0 65 65q0 64 -65 64z" />
    <glyph glyph-name="afii59712;" unicode="&#xe20;" horiz-adv-x="961" 
d="M324 592q-26 20 -82 51q-45 17 -105 33q169 148 373 148q136 0 227 -58t91 -180v-586h-96v582q0 45 -16.5 78.5t-64 56.5t-137.5 23q-51 0 -106.5 -14.5t-83.5 -33.5q86 -43 158 -104q-35 -9 -101 -51q-41 -44 -41 -109v-286q0 -144 -141 -144q-52 0 -93 31.5t-41 95.5
q0 139 128 139q30 0 50 -8v191q0 84 81 145zM199 68q65 0 65 65q0 64 -65 64q-64 0 -64 -64q0 -65 64 -65z" />
    <glyph glyph-name="afii59713;" unicode="&#xe21;" horiz-adv-x="885" 
d="M273 348v215q-32 -8 -52 -8q-130 0 -130 134q0 55 39.5 93.5t97.5 38.5q72 0 106.5 -34t34.5 -109v-348l162 -166q68 -70 98 -70q20 0 28 15t8 63v647h97v-630q0 -104 -34 -147.5t-97 -43.5t-109 51l-153 168v-102q0 -33 -16.5 -59.5t-43.5 -43t-61 -16.5q-71 0 -111 52
t-40 116q0 81 47.5 132.5t128.5 51.5zM228 752q-64 0 -64 -64q0 -65 64 -65q66 0 66 65q0 64 -66 64zM180 164q0 -88 56 -88q37 0 37 55v131q-93 0 -93 -98z" />
    <glyph glyph-name="afii59714;" unicode="&#xe22;" horiz-adv-x="836" 
d="M391 369q-23 -11 -76.5 -42t-68 -61.5t-14.5 -62.5v-111h324q64 0 64 70v657h97v-661q0 -71 -42.5 -114.5t-113.5 -43.5h-426v197q0 51 21 95t92 73q-25 7 -68 30q-45 39 -45 127v154q0 62 40 102.5t102 40.5q54 0 95 -36t41 -90q0 -140 -130 -140q-17 0 -51 8v-45
q0 -28 19.5 -60.5t96.5 -67.5zM277 750q-63 0 -63 -64q0 -65 63 -65q65 0 65 65q0 64 -65 64z" />
    <glyph glyph-name="afii59715;" unicode="&#xe23;" horiz-adv-x="668" 
d="M643 737q-61 -34 -94 -34q-43 0 -127 21q-84 22 -127 22q-85 0 -129 -51q55 -6 126.5 -25t135.5 -56.5t85.5 -74t21.5 -111.5v-286q0 -144 -142 -144q-36 0 -66 14.5t-49.5 43.5t-19.5 68q0 140 129 140q32 0 52 -8v187q0 63 -76.5 110t-252.5 78l-91 16
q56 111 127.5 142.5t142.5 31.5q39 0 115 -22q76 -21 112 -21q37 0 85 27zM393 68q67 0 67 65q0 64 -67 64q-63 0 -63 -64q0 -65 63 -65z" />
    <glyph glyph-name="afii59716;" unicode="&#xe24;" horiz-adv-x="871" 
d="M256 256q26 8 51 8q66 0 98 -41.5t32 -94.5q0 -57 -39.5 -93.5t-96.5 -36.5q-142 0 -142 144v305q0 84 81 145q-35 24 -74 46t-113 38q51 56 157 102t216 46q141 0 229.5 -60t88.5 -178v-883h-96v879q0 49 -19.5 83t-68.5 54.5t-130 20.5q-115 0 -190 -48
q86 -43 158 -104q-35 -9 -101 -51q-41 -44 -41 -109v-172zM301 68q66 0 66 65q0 64 -66 64q-63 0 -63 -64q0 -65 63 -65z" />
    <glyph glyph-name="afii59717;" unicode="&#xe25;" horiz-adv-x="795" 
d="M579 297v271q0 170 -204 170q-157 0 -230 -127l-63 46q17 29 75 91q93 71 228 71q85 0 146.5 -25t103 -78t41.5 -144v-572h-97v88q0 34 -64 156t-125.5 192t-100.5 70q-63 0 -63 -78v-172q22 8 51 8q128 0 128 -145q0 -56 -43 -88.5t-91 -32.5q-142 0 -142 144v282
q0 69 35 113t97 44q114 0 207 -113.5t111 -170.5zM271 68q65 0 65 65q0 64 -65 64q-63 0 -63 -64q0 -65 63 -65z" />
    <glyph glyph-name="afii59718;" unicode="&#xe26;" horiz-adv-x="967" 
d="M337 592q-29 26 -84 52.5t-103 31.5q18 19 64 53q46 26 125.5 60.5t182.5 34.5q139 0 228.5 -59.5t89.5 -178.5v-883h-96v879q0 54 -22 87.5t-71 52t-124 18.5q-114 0 -190 -48q86 -38 157 -104q-35 -9 -101 -51q-40 -44 -40 -109v-286q0 -144 -142 -144q-67 0 -99.5 39
t-32.5 87q0 140 126 140q30 0 51 -8v191q0 86 81 145zM211 68q66 0 66 65q0 64 -66 64q-63 0 -63 -64q0 -65 63 -65z" />
    <glyph glyph-name="afii59719;" unicode="&#xe27;" horiz-adv-x="748" 
d="M615 590v-448q0 -144 -142 -144q-37 0 -68 18.5t-49.5 46t-18.5 61.5q0 140 130 140q27 0 51 -8v316q0 92 -51.5 131t-146.5 39q-76 0 -137 -40.5t-81 -104.5l-73 34q35 89 113.5 141t175.5 52q80 0 147.5 -26t108.5 -77.5t41 -130.5zM473 68q66 0 66 65q0 64 -66 64
q-63 0 -63 -64q0 -65 63 -65z" />
    <glyph glyph-name="afii59720;" unicode="&#xe28;" horiz-adv-x="856" 
d="M475 492q9 -25 9 -49q0 -35 -14 -62.5t-43.5 -46t-71.5 -18.5q-20 0 -50 10v-326h-96v135q0 40 -14 68l-72 144q-20 41 -33.5 91t-13.5 95q0 118 89 204.5t249 86.5q61 0 116.5 -13t118.5 -67q10 11 26 34.5t23 40t15 41.5l86 -30q-4 -19 -32 -73t-66 -83q34 -54 34 -123
v-551h-96v508q0 75 -18 103q-93 -92 -146 -119zM213 350v91q0 60 39.5 101.5t97.5 41.5q49 0 89 -31q93 66 149 127q-19 17 -57 41q-47 19 -125 19q-119 0 -179.5 -70t-60.5 -139q0 -53 10 -89.5t37 -91.5zM353 514q-64 0 -64 -63q0 -66 64 -66q65 0 65 66q0 63 -65 63z" />
    <glyph glyph-name="afii59721;" unicode="&#xe29;" horiz-adv-x="994" 
d="M154 0v92h108v471q-32 -8 -51 -8q-130 0 -130 139q0 55 38.5 91t97.5 36q72 0 107 -34t35 -109v-586h320q65 0 65 72v145q-49 -8 -72 -8q-74 0 -129.5 20t-83 54t-27.5 82q0 36 16.5 63.5t44 43.5t62.5 16q39 0 68 -15.5t43 -41t14 -56.5q0 -62 -41 -88q21 -5 51 -5
q15 0 54 15v430h96v-403q70 38 94 131l76 -45q-16 -35 -73 -111q-38 -38 -97 -63v-205q0 -55 -37.5 -89t-95.5 -34h-553zM217 752q-63 0 -63 -64q0 -65 63 -65q66 0 66 65q0 64 -66 64zM555 518q-57 0 -57 -57q0 -61 61 -61q58 0 58 57q0 61 -62 61z" />
    <glyph glyph-name="afii59722;" unicode="&#xe2a;" horiz-adv-x="813" 
d="M731 830l70 -60q-34 -72 -97 -128q-13 -12 -22 -21q2 -12 2 -25v-596h-96v88q0 65 -113 241.5t-178 176.5q-21 0 -42 -18.5t-21 -59.5v-172q19 8 51 8q129 0 129 -157q0 -44 -43 -76.5t-92 -32.5q-19 0 -35.5 2.5t-30.5 7t-25.5 12t-20.5 17t-15 21.5t-10 26.5t-5 30.5
v309q0 78 46 119t114 41q65 0 117 -37q39 20 132 78l28 20q-12 20 -40 52q-51 41 -147 41q-164 0 -229 -132l-70 50q94 163 299 163q86 0 149 -24.5t107 -87.5q69 68 88 123zM588 297v271q-43 -35 -131 -74l39 -51q34 -45 92 -146zM279 68q65 0 65 65q0 64 -65 64
q-63 0 -63 -64q0 -65 63 -65z" />
    <glyph glyph-name="afii59723;" unicode="&#xe2b;" horiz-adv-x="938" 
d="M570 561q-88 30 -88 140q0 60 45.5 91.5t99.5 31.5q133 0 133 -139q0 -80 -61 -109q75 -50 96.5 -107.5t21.5 -136.5v-332h-96v381q0 33 -22.5 72t-57.5 55q-231 -199 -311 -508h-96v563q-32 -8 -51 -8q-132 0 -132 142q0 55 39.5 89.5t98.5 34.5q72 0 106.5 -34
t34.5 -109v-426q117 203 240 309zM189 752q-64 0 -64 -64q0 -65 64 -65q66 0 66 65q0 64 -66 64zM625 752q-64 0 -64 -64q0 -65 64 -65q65 0 65 65q0 64 -65 64z" />
    <glyph glyph-name="afii59724;" unicode="&#xe2c;" horiz-adv-x="1026" 
d="M879 617v-617h-94q-26 134 -136 353q-23 47 -48.5 110t-49.5 180q-13 -87 -36 -157t-60 -144q-125 -250 -125 -342h-98v563q-32 -8 -52 -8q-129 0 -129 142q0 61 41.5 92.5t94.5 31.5q65 0 103 -29.5t38 -113.5v-405l76 168q36 79 64 183.5t28 194.5h100q0 -148 105 -364
q47 -97 82 -182v313q-24 0 -78 18q-58 34 -58 101q0 116 117 116q115 0 115 -129q66 55 82 132l49 -54q-9 -35 -44.5 -82t-86.5 -71zM764 762q-53 0 -53 -53q0 -57 57 -57q54 0 54 53q0 57 -58 57zM187 752q-64 0 -64 -64q0 -65 64 -65q66 0 66 65q0 64 -66 64z" />
    <glyph glyph-name="afii59725;" unicode="&#xe2d;" horiz-adv-x="809" 
d="M297 92h238q36 0 46.5 16t10.5 52v420q0 52 -20 86.5t-64.5 57t-105.5 22.5q-167 0 -219 -133l-76 45q86 166 293 166q124 0 206 -63.5t82 -176.5v-457q0 -58 -33 -92.5t-87 -34.5h-299q-35 0 -63 14.5t-47 45t-19 75.5v289q0 43 18 75.5t49.5 50.5t73.5 18
q50 0 92.5 -36t42.5 -86q0 -145 -129 -145q-17 0 -51 8v-143q0 -74 61 -74zM281 498q-63 0 -63 -64q0 -65 65 -65q63 0 63 65q0 64 -65 64z" />
    <glyph glyph-name="afii59726;" unicode="&#xe2e;" horiz-adv-x="832" 
d="M645 733q45 43 68 99l72 -47q-36 -80 -96 -127q12 -40 12 -74v-457q0 -57 -33.5 -92t-87.5 -35h-299q-57 0 -93 38t-36 97v195q0 63 39 103t102 40q65 0 101 -43t36 -90q0 -133 -131 -133q-17 0 -51 8v-49q0 -74 61 -74h238q36 0 46.5 16t10.5 52v399l-6 52
q-98 -56 -258 -56q-116 0 -189 47.5t-73 85.5q0 47 103 91.5t204 44.5q73 0 136 -17t124 -74zM574 686q-90 61 -200 61q-47 0 -119 -18.5t-72 -42.5q0 -22 74 -40.5t128 -18.5q99 0 189 59zM293 404q-63 0 -63 -64q0 -65 63 -65q66 0 66 65q0 64 -66 64z" />
    <glyph glyph-name="afii59727;" unicode="&#xe2f;" horiz-adv-x="801" 
d="M568 819q96 0 96 -81v-537q0 -57 -22.5 -101.5t-61.5 -71.5t-92 -30l-41 72q27 0 57.5 17t47 43.5t16.5 72.5v313q-72 -125 -233 -125q-116 0 -178.5 72.5t-62.5 202.5q0 62 47 107.5t109 45.5q127 0 127 -122q0 -56 -35 -95t-90 -39q-30 0 -61 15q4 -54 40 -82.5
t99 -28.5q109 0 173.5 102t64.5 250zM248 758q-63 0 -63 -66q0 -65 63 -65q66 0 66 65q0 66 -66 66z" />
    <glyph glyph-name="afii59729;" unicode="&#xe30;" horiz-adv-x="666" 
d="M576 795v-139q-42 -61 -138.5 -104.5t-183.5 -43.5t-140 39.5t-53 110.5q0 60 36 96t95 36q64 0 102 -29.5t38 -74.5q0 -59 -18 -92q82 20 153.5 77.5t108.5 123.5zM199 727q-66 0 -66 -65q0 -68 66 -68q65 0 65 68q0 65 -65 65zM576 301v-139q-42 -61 -138.5 -104.5
t-183.5 -43.5q-61 0 -105 18.5t-66 51.5t-22 80q0 60 35.5 96t95.5 36q66 0 103 -30.5t37 -73.5q0 -59 -18 -92q82 21 153 77.5t109 123.5zM199 233q-66 0 -66 -65q0 -68 66 -68q65 0 65 68q0 65 -65 65z" />
    <glyph glyph-name="afii59728;" unicode="&#xe31;" horiz-adv-x="0" 
d="M158 1309v-150q-155 -139 -396 -139q-67 0 -122.5 20t-87 57t-31.5 91q0 39 15 70t45.5 51t74.5 20q133 0 133 -138q0 -59 -35 -83q99 -12 208.5 39t195.5 162zM-344 1268q-72 0 -72 -70q0 -71 72 -71q69 0 69 71q0 70 -69 70z" />
    <glyph glyph-name="afii59730;" unicode="&#xe32;" horiz-adv-x="684" 
d="M467 0v572q0 94 -49 132t-139 38q-159 0 -204 -143l-75 36q70 189 281 189q130 0 206 -62t76 -172v-590h-96z" />
    <glyph glyph-name="afii59731;" unicode="&#xe33;" horiz-adv-x="715" 
d="M491 0v572q0 94 -49 132t-139 38q-159 0 -204 -143l-75 36q70 189 281 189q130 0 206 -62t76 -172v-590h-96zM-137 1014q-62 0 -102 40.5t-40 102.5q0 38 16 69t48.5 52t77.5 21q42 0 73.5 -18t49.5 -50t18 -74q0 -38 -16 -70t-48 -52.5t-77 -20.5zM-137 1234
q-78 0 -78 -77t78 -77q75 0 75 77t-75 77z" />
    <glyph glyph-name="afii59732;" unicode="&#xe34;" horiz-adv-x="0" 
d="M-131 942q-159 66 -328 66q-146 0 -295 -57q0 133 88 220t221 87q73 0 130.5 -25t99 -72t63 -101.5t21.5 -117.5zM-646 1055q100 29 200 29q108 0 225 -39q-61 137 -218 137q-143 0 -207 -127z" />
    <glyph glyph-name="afii59733;" unicode="&#xe35;" horiz-adv-x="0" 
d="M-248 1183v169h97v-296q21 -60 21 -114q-159 66 -328 66q-145 0 -295 -57q0 131 89 219t220 88q140 0 196 -75zM-645 1055q98 29 200 29q107 0 225 -39q-61 137 -218 137q-143 0 -207 -127z" />
    <glyph glyph-name="afii59734;" unicode="&#xe36;" horiz-adv-x="0" 
d="M-370 1256q-4 15 -4 30q0 52 39.5 80.5t86.5 28.5q52 0 92.5 -30t40.5 -93q0 -85 -76 -117q43 -59 53 -114t10 -99q-158 66 -327 66q-145 0 -296 -57q0 149 94 230t219 81q22 0 69 -6h-1zM-244 1336q-64 0 -64 -64q0 -63 64 -63q63 0 63 63q0 64 -63 64zM-643 1055
q101 29 201 29q108 0 224 -39q-59 137 -216 137q-144 0 -209 -127z" />
    <glyph glyph-name="afii59735;" unicode="&#xe37;" horiz-adv-x="0" 
d="M-419 1260v98h92v-119q21 -8 74 -48v167h92v-278q31 -81 31 -138q-157 66 -328 66q-145 0 -296 -57q0 145 91 227t244 82zM-646 1055q102 29 202 29q108 0 223 -39q-59 137 -216 137q-144 0 -209 -127z" />
    <glyph glyph-name="afii59736;" unicode="&#xe38;" horiz-adv-x="0" 
d="M-221 -588v192q-35 -8 -52 -8q-128 0 -128 135q0 38 18 67.5t48 47t69 17.5q141 0 141 -144v-307h-96zM-266 -207q-66 0 -66 -66q0 -63 66 -63q63 0 63 63q0 66 -63 66z" />
    <glyph glyph-name="afii59737;" unicode="&#xe39;" horiz-adv-x="0" 
d="M-240 -508v364h96v-448h-311v196q-32 -8 -51 -8q-58 0 -94 37t-36 97q0 58 39 95.5t97 37.5q66 0 103.5 -30.5t37.5 -113.5v-227h119zM-500 -207q-65 0 -65 -66q0 -63 65 -63q63 0 63 63q0 66 -63 66z" />
    <glyph glyph-name="afii59738;" unicode="&#xe3a;" horiz-adv-x="0" 
d="M-164 -262q-85 0 -85 84q0 36 24.5 60t60.5 24q82 0 82 -84t-82 -84z" />
    <glyph glyph-name="afii59743;" unicode="&#xe3f;" horiz-adv-x="892" 
d="M461 0v-135h-98v135h-265v957h265v146h98v-146q106 0 175 -31.5t103.5 -90t34.5 -123.5q0 -137 -134 -203q181 -53 181 -232q0 -93 -43.5 -156.5t-120.5 -92t-196 -28.5zM363 555v289h-138v-289h138zM461 843v-288q189 0 189 142q0 75 -44 110.5t-145 35.5zM461 442v-329
q49 0 84.5 4.5t71 23.5t54 53t18.5 83q0 82 -53 123.5t-175 41.5zM363 113v329h-138v-329h138z" />
    <glyph glyph-name="afii59744;" unicode="&#xe40;" horiz-adv-x="459" 
d="M223 819v-563q27 8 52 8q128 0 128 -142q0 -33 -14.5 -60t-45 -45.5t-74.5 -18.5q-67 0 -104.5 31.5t-37.5 112.5v677h96zM269 68q65 0 65 65q0 64 -65 64q-64 0 -64 -64q0 -65 64 -65z" />
    <glyph glyph-name="afii59745;" unicode="&#xe41;" horiz-adv-x="799" 
d="M586 819v-563q26 8 51 8q129 0 129 -136q0 -57 -39 -93.5t-96 -36.5q-67 0 -104 31.5t-37 112.5v677h96zM631 68q66 0 66 65q0 64 -66 64q-63 0 -63 -64q0 -65 63 -65zM223 819v-563q25 8 51 8q129 0 129 -136q0 -63 -42 -96.5t-93 -33.5q-72 0 -106.5 34.5t-34.5 109.5
v677h96zM268 68q66 0 66 65q0 64 -66 64q-63 0 -63 -64q0 -65 63 -65z" />
    <glyph glyph-name="afii59746;" unicode="&#xe42;" horiz-adv-x="570" 
d="M-41 1301q98 131 242 131q43 0 121 -25q78 -24 110 -24q20 0 68 24l31 -71q-42 -33 -105 -33q-32 0 -107 30q-75 31 -112 31q-22 0 -48 -7.5t-56 -31.5q41 -16 94.5 -39.5t82.5 -50t40 -52t11 -87.5l1 -840q34 8 51 8q129 0 129 -129q0 -60 -37.5 -98.5t-97.5 -38.5
q-142 0 -142 144l-1 939q0 60 -13.5 83.5t-60.5 54t-104.5 54t-96.5 28.5zM377 68q66 0 66 65q0 64 -66 64q-63 0 -63 -64q0 -65 63 -65z" />
    <glyph glyph-name="afii59747;" unicode="&#xe43;" horiz-adv-x="535" 
d="M324 1266v-1010q19 8 51 8q128 0 128 -130q0 -136 -134 -136q-141 0 -141 144v1130q0 27 -9 44.5t-27.5 28.5t-41.5 11q-83 0 -83 -66q43 0 62 -9t30 -34.5t11 -66.5q0 -119 -94 -119q-105 0 -105 146q0 97 49.5 157t135.5 60q48 0 84.5 -16t60 -49.5t23.5 -92.5z
M72 1231q-39 0 -39 -55q0 -53 39 -53t39 51q0 57 -39 57zM369 68q65 0 65 65q0 64 -65 64q-63 0 -63 -64q0 -65 63 -65z" />
    <glyph glyph-name="afii59748;" unicode="&#xe44;" horiz-adv-x="629" 
d="M-25 1352v78l46 -2q26 -1 49 -15.5t36.5 -42t16.5 -67.5l23 -291l80 340q18 78 102 78q98 0 98 -123v-1051q34 8 51 8q126 0 126 -137q0 -129 -132 -129q-142 0 -142 144v1157q0 51 -13 51q-16 0 -25 -39l-63 -287q-18 -84 -80 -84q-80 0 -86 88l-15 237q-5 80 -72 87z
M471 68q66 0 66 65q0 64 -66 64q-63 0 -63 -64q0 -65 63 -65z" />
    <glyph glyph-name="afii59749;" unicode="&#xe45;" horiz-adv-x="703" 
d="M488 -297v869q0 53 -16 89t-57.5 58.5t-111.5 22.5q-53 0 -94 -17t-69 -49t-40 -76l-79 35q69 189 280 189q129 0 206 -59.5t77 -187.5v-874h-96z" />
    <glyph glyph-name="afii59750;" unicode="&#xe46;" horiz-adv-x="965" 
d="M348 572q37 28 97 28q30 0 57.5 -15.5t47.5 -47.5t20 -74q0 -55 -40 -92t-96 -37q-46 0 -87.5 24t-67 76t-25.5 134q0 50 16 99.5t60 91.5t115 60l98 -67l92 67q92 0 153.5 -57.5t61.5 -126.5v-715q0 -119 -80.5 -184.5t-163.5 -73.5l-45 69q90 24 141 65.5t51 123.5v693
q0 118 -112 118l-98 -57l-90 51q-49 0 -77 -38t-28 -115zM432 537q-69 0 -69 -70q0 -69 69 -69q70 0 70 69q0 70 -70 70z" />
    <glyph glyph-name="afii59751;" unicode="&#xe47;" horiz-adv-x="0" 
d="M-340 1070q6 71 82 71q88 0 88 -94q0 -84 -88 -84q-17 0 -33 4.5t-26.5 11.5t-74.5 57q-40 29 -71 29q-80 0 -80 -104q-105 39 -105 133q0 188 183 188q35 0 105 -9q69 -9 104 -9q88 0 88 80h80q0 -135 -181 -135q-31 0 -94 7t-94 7q-124 0 -124 -92q0 -43 13 -60
q37 57 87 57q73 0 141 -58zM-256 1092q-40 0 -40 -39t40 -39q39 0 39 39t-39 39z" />
    <glyph glyph-name="afii59752;" unicode="&#xe48;" horiz-adv-x="0" 
d="M-135 1657v-248h-97v248h97z" />
    <glyph glyph-name="afii59753;" unicode="&#xe49;" horiz-adv-x="0" 
d="M-256 1497q-129 0 -129 109q0 51 31 83t79 32q125 0 125 -109q0 -83 -45 -147q78 14 164 78t134 170v-140q-136 -178 -361 -178q-23 0 -70 6q44 28 72 96zM-269 1666q-57 0 -57 -58q0 -57 57 -57q58 0 58 57q0 58 -58 58z" />
    <glyph glyph-name="afii59754;" unicode="&#xe4a;" horiz-adv-x="0" 
d="M-371 1551q22 18 61 18q84 0 84 -86q0 -38 -29.5 -61t-68.5 -23q-51 0 -83 44t-32 103q0 158 117 158q66 0 96 -51q32 51 99 51q52 0 82 -36.5t30 -75.5q0 -57 -32 -132q125 67 125 234l68 -59q-9 -59 -38.5 -104.5t-69.5 -74t-79.5 -39t-108.5 -12.5q64 64 64 123
q0 111 -56 111q-59 0 -84 -44q-27 40 -90 40q-16 0 -32 -11.5t-21.5 -24.5t-1.5 -48zM-316 1530q-41 0 -41 -43q0 -45 43 -45t43 43q0 45 -45 45z" />
    <glyph glyph-name="afii59755;" unicode="&#xe4b;" horiz-adv-x="0" 
d="M-131 1737v-127h114v-90h-114v-121h-97v121h-114v90h114v127h97z" />
    <glyph glyph-name="afii59756;" unicode="&#xe4c;" horiz-adv-x="0" 
d="M-275 1448q46 23 70 23q52 0 79 -33.5t27 -73.5q0 -48 -31 -80t-84 -32q-62 0 -103.5 46t-41.5 109q0 185 262 185q50 0 72.5 17t32.5 64h93q-18 -139 -154 -139q-74 0 -147.5 -16t-74.5 -70zM-215 1420q-56 0 -56 -56q0 -59 58 -59q55 0 55 55q0 60 -57 60z" />
    <glyph glyph-name="afii59757;" unicode="&#xe4d;" horiz-adv-x="0" 
d="M-264 901q-42 0 -73.5 18t-50 50.5t-18.5 75.5q0 42 18 73.5t50 49.5t74 18t73.5 -18t49.5 -49.5t18 -73.5q0 -64 -38.5 -104t-102.5 -40zM-264 1121q-79 0 -79 -76q0 -78 79 -78q75 0 75 78q0 76 -75 76z" />
    <glyph glyph-name="afii59758;" unicode="&#xe4e;" horiz-adv-x="0" 
d="M-42 1024q-57 -47 -165 -47q-142 0 -142 103q0 71 60.5 109t140.5 38q-94 5 -94 86q0 53 64 82t157 29q65 0 99 -17l-51 -39q-31 11 -54 11q-41 0 -77 -20.5t-36 -55.5q0 -64 98 -64l-22 -47q-70 0 -120 -27t-50 -75q0 -58 68 -58q51 0 80 29z" />
    <glyph glyph-name="afii59759;" unicode="&#xe4f;" horiz-adv-x="1057" 
d="M959 410q0 -123 -51.5 -214t-143.5 -143.5t-215 -52.5t-213 51t-142 143t-52 216q0 125 51 215.5t142 142t214 51.5q125 0 216 -51t142.5 -142.5t51.5 -215.5zM903 410q0 160 -98 257t-256 97q-107 0 -184.5 -44.5t-122.5 -123.5t-45 -186q0 -156 98 -255.5t254 -99.5
q106 0 184.5 45.5t124 124.5t45.5 185zM783 410q0 -70 -30 -122t-82 -82t-122 -30q-63 0 -114.5 26t-85.5 79.5t-34 128.5q0 103 65.5 168t168.5 65q65 0 116 -25t84.5 -78.5t33.5 -129.5z" />
    <glyph glyph-name="afii59760;" unicode="&#xe50;" horiz-adv-x="850" 
d="M420 577q148 0 237 -78t89 -210q0 -139 -90.5 -215t-235.5 -76q-89 0 -161.5 31.5t-118.5 97t-46 162.5q0 79 33 141.5t107 104.5t186 42zM193 289q0 -97 61 -154t166 -57q103 0 165 56t62 155q0 60 -23 107t-74 76.5t-130 29.5q-107 0 -167 -56.5t-60 -156.5z" />
    <glyph glyph-name="afii59761;" unicode="&#xe51;" horiz-adv-x="895" 
d="M443 111q-46 0 -79.5 16.5t-52 45t-18.5 67.5q0 57 36.5 97t92.5 40q158 0 158 -170q0 -85 -63.5 -147t-149.5 -62q-121 0 -189 78t-68 219q0 126 96.5 203.5t236.5 77.5q99 0 178 -35.5t124.5 -103t45.5 -162.5q0 -291 -197 -386l-53 68q154 73 154 314q0 99 -72.5 163
t-177.5 64q-69 0 -123.5 -28t-84.5 -73t-30 -104q0 -64 20 -112t54.5 -72.5t83.5 -24.5q38 0 78 27zM434 304q-61 0 -61 -58q0 -66 66 -66q57 0 57 58q0 66 -62 66z" />
    <glyph glyph-name="afii59762;" unicode="&#xe52;" horiz-adv-x="1041" 
d="M422 430q60 0 88 -13.5t44 -43t16 -68.5q0 -63 -39.5 -94t-89.5 -31q-68 0 -104 53t-36 122q0 85 50.5 154t127.5 69q124 0 156 -78q24 78 121 78q75 0 111 -48t36 -112v-258q0 -61 -8.5 -91t-37.5 -49.5t-70 -19.5h-523q-30 0 -63 20t-41.5 48.5t-8.5 64.5v576
q0 33 -24 46t-78 13v84q201 0 201 -139v-557q0 -74 64 -74h415q27 0 45.5 7t25.5 21.5t7 49.5v252q0 84 -61 84q-35 0 -55.5 -31.5t-20.5 -71.5h-70q0 36 -32 69.5t-68 33.5q-63 0 -78 -66zM441 363q-56 0 -56 -56q0 -57 56 -57q55 0 55 57q0 56 -55 56z" />
    <glyph glyph-name="afii59763;" unicode="&#xe53;" horiz-adv-x="998" 
d="M204 241q36 20 84 20q46 0 81 -40.5t35 -97.5q0 -60 -43 -93.5t-92 -33.5q-168 0 -168 277q0 139 63.5 222t169.5 83q90 0 141.5 -42t51.5 -65q35 107 157 107q58 0 101 -25t67.5 -67.5t24.5 -100.5v-385h-94v367q0 127 -95 127q-50 0 -82 -40t-32 -91v-363h-96v365
q0 63 -44.5 95t-101.5 32q-35 0 -60 -15t-41 -45.5t-19.5 -59t-7.5 -131.5zM269 193q-62 0 -62 -62q0 -61 62 -61q61 0 61 61q0 62 -61 62z" />
    <glyph glyph-name="afii59764;" unicode="&#xe54;" horiz-adv-x="1016" 
d="M889 66l-49 -74q-76 34 -108.5 40.5t-61.5 6.5q-53 0 -156 -20q-103 -19 -155 -19q-75 0 -131.5 34.5t-91 96.5t-34.5 142q0 84 37 151.5t120 113.5t210 46l164 -4q82 0 140 27t99.5 111.5t47.5 176.5l92 -33q-1 -102 -79 -234t-279 -132l-158 4q-149 0 -220 -57.5
t-71 -159.5q0 -58 20.5 -105t57 -72.5t86.5 -25.5q28 0 84 8q57 9 86 9q-28 0 -65 22.5t-67 53t-41.5 58t-11.5 58.5q0 136 127 136q140 0 140 -137q0 -71 -66 -103q0 -6 14 -16.5t36 -18.5q12 -4 65.5 -13t121.5 -24q31 -7 97 -47zM486 357q-56 0 -56 -56q0 -63 62 -63
q57 0 57 55q0 64 -63 64z" />
    <glyph glyph-name="afii59765;" unicode="&#xe55;" horiz-adv-x="969" 
d="M807 660q-58 -47 -129 -47q-151 0 -151 120q0 119 157 119q66 0 135 -41q14 21 35 64q9 30 15 80l90 -33q0 -22 -17 -74.5t-61 -109.5q33 -50 33 -103q0 -64 -48.5 -106.5t-152.5 -42.5q-38 0 -114 6q-75 6 -113 6q-271 0 -271 -215q0 -89 44.5 -146t119.5 -57q28 0 84 8
q57 9 86 9q-43 0 -113.5 59t-70.5 121q0 66 35 107t93 41q139 0 139 -145q0 -62 -67 -95q0 -4 7 -9t25 -14t32 -14t48 -10l72 -9q76 -17 150 -63l-49 -74q-94 47 -170 47q-52 0 -156 -20q-103 -19 -155 -19q-75 0 -131.5 34.5t-91 96.5t-34.5 142q0 137 96 223t255 86
q39 0 116 -5t116 -5q116 0 116 57q0 10 -4 31zM772 742q-29 32 -84 32q-69 0 -69 -36q0 -41 71 -41q61 0 82 45zM496 357q-55 0 -55 -56q0 -63 63 -63q55 0 55 55q0 64 -63 64z" />
    <glyph glyph-name="afii59766;" unicode="&#xe56;" horiz-adv-x="865" 
d="M223 365h-28q0 143 -32 261.5t-118 227.5l82 51q131 -169 144 -370q73 49 215 49q112 0 184 -88t72 -211q0 -138 -87.5 -211.5t-199.5 -73.5q-77 0 -139.5 25t-94.5 65t-32 95q0 52 33 96.5t94 44.5q65 0 104.5 -40.5t39.5 -105.5q0 -66 -54 -94q240 0 240 209
q0 90 -56 147.5t-147 57.5q-160 0 -220 -135zM326 254q-64 0 -64 -63q0 -60 60 -60q63 0 63 64q0 59 -59 59z" />
    <glyph glyph-name="afii59767;" unicode="&#xe57;" horiz-adv-x="1092" 
d="M209 223q41 39 94 39q60 0 93.5 -42.5t33.5 -90.5q0 -39 -18.5 -69.5t-48 -48t-66.5 -17.5q-91 0 -140.5 82t-49.5 201q0 124 64.5 213.5t168.5 89.5q94 0 146 -92q48 92 155 92q160 0 160 -252q0 -115 -74 -234q101 63 132.5 153.5t31.5 211.5v74q0 68 11.5 142
t78.5 161h101q-47 -56 -71 -102.5t-29 -183.5l-3 -80q-3 -88 -10 -147.5t-30.5 -120t-73 -108.5t-117.5 -72t-156 -24q118 173 118 371q0 131 -83 131q-98 0 -98 -152h-80q0 46 -14 81t-38 53t-57 18q-63 0 -101 -65t-38 -148q0 -20 8 -64zM293 189q-57 0 -57 -58
q0 -61 61 -61q58 0 58 57q0 62 -62 62z" />
    <glyph glyph-name="afii59768;" unicode="&#xe58;" horiz-adv-x="973" 
d="M715 117q-160 0 -160 127q0 40 17 70t46 47.5t68 17.5q152 0 152 -170q0 -91 -42.5 -151t-109.5 -60q-81 0 -202 90q-120 90 -127 90q-23 0 -23 -53q0 -71 33 -127q-110 7 -187 85t-77 204q0 125 83.5 206t245.5 81q37 0 111 -7q74 -6 111 -6q104 0 137 47.5t33 135.5
q0 17 -9 103q70 -1 94 0q11 -101 11 -116q0 -252 -248 -252q-44 0 -132 7q-88 8 -132 8q-91 0 -151 -50.5t-60 -119.5q0 -48 8.5 -93.5t48.5 -85.5q0 29 19 88q27 44 65 44q50 0 167 -99q118 -98 179 -98q31 0 31 37zM695 305q-58 0 -58 -57q0 -59 58 -59q59 0 59 59
q0 57 -59 57z" />
    <glyph glyph-name="afii59769;" unicode="&#xe59;" horiz-adv-x="908" 
d="M432 117q-22 -6 -37 -6q-48 0 -76.5 35t-28.5 88q0 129 115 129q125 0 125 -158q0 -56 -22.5 -104.5t-60.5 -76.5t-87 -28q-71 0 -122 35.5t-80.5 102.5t-29.5 157q0 123 63 206t165 83q111 0 174 -94q0 94 53 94q26 0 80 -29t74 -29q22 0 22 101v65q0 52 -20 170h98
q18 -141 18 -188q0 -242 -90 -242q-38 0 -88 23q-49 24 -57 24q-15 0 -15 -22q0 -40 84 -176l104 -168q35 -58 38 -66l-78 -43l-183 302q-75 125 -118 159.5t-96 34.5q-60 0 -94.5 -68t-34.5 -176q0 -62 34.5 -121t92.5 -59q63 0 78 45zM405 289q-45 0 -45 -57q0 -54 47 -54
t47 54q0 57 -49 57z" />
    <glyph glyph-name="afii59770;" unicode="&#xe5a;" horiz-adv-x="873" 
d="M475 819q97 0 97 -81v-537q0 -84 -49.5 -141.5t-126.5 -61.5l-41 72q51 8 85.5 38.5t34.5 94.5v313q-44 -80 -84.5 -102.5t-103.5 -22.5q-75 0 -127.5 33t-81.5 95t-29 149q0 60 49 105.5t109 45.5q127 0 127 -122q0 -56 -35 -95t-90 -39q-34 0 -61 15q15 -62 43.5 -86.5
t91.5 -24.5q51 0 86 38t70.5 118.5t35.5 195.5zM205 758q-63 0 -63 -66q0 -65 63 -65q66 0 66 65q0 66 -66 66zM721 809l96 -16v-594q0 -85 -49.5 -142.5t-126.5 -60.5l-41 72q121 15 121 133v608z" />
    <glyph glyph-name="afii59771;" unicode="&#xe5b;" horiz-adv-x="1637" 
d="M629 684l-6 -90q-100 72 -209 72q-67 0 -118.5 -28.5t-89.5 -96.5t-38 -178q0 -79 27 -139t83 -96t140 -36q70 0 120.5 29.5t89.5 88t112 204.5l122 -152l121 154l105 -160l125 156q122 -196 190 -196q111 0 143 202h74q-46 -278 -217 -278q-110 0 -192 163l-131 -146
l-103 148q-60 -86 -121 -139l-94 117q-47 -93 -91 -153t-108 -90.5t-143 -30.5q-92 0 -166.5 39t-125 123t-50.5 206q0 162 91.5 267.5t242.5 105.5q105 0 217 -66z" />
    <glyph glyph-name="endash;" unicode="&#x2013;" 
d="M-3 299v95h744v-95h-744z" />
    <glyph glyph-name="emdash;" unicode="&#x2014;" horiz-adv-x="1337" 
d="M0 299v95h1337v-95h-1337z" />
    <glyph glyph-name="quoteleft;" unicode="&#x2018;" horiz-adv-x="297" 
d="M210 796v-136h-126v108q0 59 8.5 94.5t34 64.5t64.5 46l29 -45q-68 -29 -72 -132h62z" />
    <glyph glyph-name="quoteright;" unicode="&#x2019;" horiz-adv-x="297" 
d="M81 830v137h126v-108q0 -58 -8.5 -93.5t-34 -65t-65.5 -47.5l-28 47q68 28 71 130h-61z" />
    <glyph glyph-name="quotesinglbase" unicode="&#x201a;" horiz-adv-x="297" 
d="M81 0v136h126v-107q0 -160 -108 -206l-29 46q72 31 72 131h-61z" />
    <glyph glyph-name="quotedblleft;" unicode="&#x201c;" horiz-adv-x="445" 
d="M180 796v-136h-126v108q0 61 10 96.5t35 63.5t63 45l29 -45q-69 -29 -72 -132h61zM383 796v-136h-126v108q0 59 8.5 94.5t34 64.5t64.5 46l29 -45q-68 -29 -72 -132h62z" />
    <glyph glyph-name="quotedblright;" unicode="&#x201d;" horiz-adv-x="445" 
d="M57 830v137h126v-108q0 -54 -8 -91.5t-34.5 -67t-65.5 -47.5l-29 47q68 28 72 130h-61zM259 830v137h126v-108q0 -54 -8 -91.5t-34.5 -67t-65.5 -47.5l-28 47q68 28 72 130h-62z" />
    <glyph glyph-name="quotedblbase" unicode="&#x201e;" horiz-adv-x="445" 
d="M57 0v136h126v-107q0 -160 -108 -206l-29 46q72 31 72 131h-61zM259 0v136h126v-107q0 -158 -108 -206l-28 46q71 31 71 131h-61z" />
    <glyph glyph-name="dagger" unicode="&#x2020;" horiz-adv-x="743" 
d="M308 -226v791h-260v105h260v265h118v-265h262v-105h-262v-791h-118z" />
    <glyph glyph-name="daggerdbl" unicode="&#x2021;" horiz-adv-x="743" 
d="M310 -226v242h-262v105h262v473h-262v105h262v245h118v-245h263v-105h-263v-473h263v-105h-263v-242h-118z" />
    <glyph glyph-name="bullet;" unicode="&#x2022;" horiz-adv-x="468" 
d="M71 469q0 42 19 78t57.5 61.5t88.5 25.5q69 0 117.5 -48t48.5 -117q0 -47 -22.5 -84t-59.5 -59.5t-84 -22.5q-69 0 -117 48.5t-48 117.5z" />
    <glyph glyph-name="ellipsis;" unicode="&#x2026;" horiz-adv-x="1337" 
d="M156 0v134h134v-134h-134zM602 0v134h134v-134h-134zM1047 0v134h135v-134h-135z" />
    <glyph glyph-name="perthousand" unicode="&#x2030;" horiz-adv-x="1337" 
d="M209 -35l392 1008h86l-392 -1008h-86zM24 717q0 248 187 248q188 0 188 -245q0 -258 -187 -258q-188 0 -188 255zM121 712q0 -168 94 -168q87 0 87 169q0 171 -90 171q-91 0 -91 -172zM498 219q0 248 186 248q189 0 189 -245q0 -257 -187 -257q-188 0 -188 254zM595 214
q0 -168 94 -168q87 0 87 169q0 171 -90 171q-91 0 -91 -172zM938 219q0 248 187 248q188 0 188 -245q0 -257 -187 -257q-188 0 -188 254zM1035 214q0 -168 94 -168q87 0 87 169q0 171 -90 171q-91 0 -91 -172z" />
    <glyph glyph-name="guilsinglleft" unicode="&#x2039;" horiz-adv-x="445" 
d="M190 344l173 -297h-97l-206 297l206 298h97z" />
    <glyph glyph-name="guilsinglright" unicode="&#x203a;" horiz-adv-x="445" 
d="M256 346l-173 296h97l199 -292l-199 -303h-97z" />
    <glyph glyph-name="trademark" unicode="&#x2122;" horiz-adv-x="1337" 
d="M319 425v453h-172v79h435v-79h-174v-453h-89zM641 425v532h130l135 -425l130 425h128v-532h-81v446l-137 -446h-81l-142 453v-453h-82z" />
    <glyph glyph-name="ring" unicode="&#x25e6;" horiz-adv-x="445" 
d="M106 873q0 50 35 83.5t82 33.5q42 0 80 -31.5t38 -87.5q0 -51 -35 -85.5t-82 -34.5q-43 0 -80.5 31t-37.5 91zM155 873q0 -73 70 -73q25 0 47 21t22 50q0 71 -69 71q-70 0 -70 -69z" />
    <glyph glyph-name="f700;" unicode="&#xf700;" horiz-adv-x="715" 
d="M668 723q-39 -20 -82 -20q-41 0 -121 17q-80 18 -121 18q-101 0 -141 -48q115 0 215.5 -44.5t135 -91t34.5 -109.5v-314q0 -66 -48 -100.5t-110 -34.5t-105 36t-43 91v105q-33 -9 -50 -9q-126 0 -126 148q0 119 132 119q141 0 141 -144v-192q0 -68 60 -68q52 0 52 70v282
q0 43 -22 76t-68 57t-152.5 45t-199.5 21q61 111 127 147.5t156 36.5q43 0 124 -19q82 -18 95 -18q31 0 93 19h-1zM303 353q0 63 -65 63q-64 0 -64 -63q0 -66 64 -66q65 0 65 66z" />
    <glyph glyph-name="f701;" unicode="&#xf701;" horiz-adv-x="0" 
d="M-313 942q-157 66 -328 66q-145 0 -295 -57q1 137 89 222t220 85q145 0 229.5 -97t84.5 -219zM-828 1055q100 29 200 29q107 0 225 -39q-61 137 -218 137q-143 0 -207 -127z" />
    <glyph glyph-name="f702;" unicode="&#xf702;" horiz-adv-x="0" 
d="M-432 1176v176h98v-281q19 -54 19 -129q-159 66 -328 66q-146 0 -295 -57q0 131 89 219t220 88q133 0 197 -82zM-830 1055q100 29 200 29q108 0 224 -39q-58 137 -217 137q-143 0 -207 -127z" />
    <glyph glyph-name="f703;" unicode="&#xf703;" horiz-adv-x="0" 
d="M-381 1155q43 -59 53 -114t10 -99q-160 66 -327 66q-145 0 -296 -57q0 150 94 230.5t218 80.5q31 0 70 -6q-5 20 -5 30q0 38 30.5 73.5t94.5 35.5q47 0 76 -18.5t43.5 -44.5t14.5 -60q0 -28 -16.5 -63.5t-59.5 -53.5zM-434 1336q-64 0 -64 -64q0 -63 64 -63q63 0 63 63
q0 64 -63 64zM-833 1055q100 29 201 29q107 0 224 -39q-59 137 -217 137q-143 0 -208 -127z" />
    <glyph glyph-name="f704;" unicode="&#xf704;" horiz-adv-x="0" 
d="M-584 1264v94h92v-113q34 0 74 -48v161h92v-278q31 -80 31 -138q-160 66 -328 66q-145 0 -295 -57q0 87 32.5 155.5t104.5 113t197 44.5zM-810 1055q100 29 200 29q108 0 225 -39q-61 137 -217 137q-144 0 -208 -127z" />
    <glyph glyph-name="f705;" unicode="&#xf705;" horiz-adv-x="0" 
d="M-353 1200v-258h-96v258h96z" />
    <glyph glyph-name="f706;" unicode="&#xf706;" horiz-adv-x="0" 
d="M-611 1043q-127 0 -127 106q0 115 105 115q128 0 128 -107q0 -56 -18.5 -99.5t-26.5 -47.5q86 20 169 85t129 163v-139q-62 -82 -160 -130.5t-201 -48.5q-35 0 -70 6q56 38 72 97zM-623 1211q-60 0 -60 -58q0 -59 60 -59q57 0 57 59q0 58 -57 58z" />
    <glyph glyph-name="f707;" unicode="&#xf707;" horiz-adv-x="0" 
d="M-747 1086q31 20 66 20q37 0 58.5 -27t21.5 -58q0 -42 -29.5 -64.5t-66.5 -22.5q-51 0 -84 42.5t-33 101.5q0 161 116 161q66 0 97 -51q32 51 98 51q32 0 57.5 -15.5t40.5 -40.5t15 -56q0 -69 -33 -131q125 57 125 233l62 -53q0 -68 -45.5 -127t-101.5 -84t-143 -25
q65 46 65 146q0 88 -55 88q-61 0 -83 -39q-24 37 -86 37q-19 0 -36 -12t-23.5 -27t-2.5 -47zM-689 1067q-47 0 -47 -47t47 -47q45 0 45 47t-45 47z" />
    <glyph glyph-name="f708;" unicode="&#xf708;" horiz-adv-x="0" 
d="M-439 1274v-127h115v-90h-115v-121h-96v121h-114v90h114v127h96z" />
    <glyph glyph-name="f709;" unicode="&#xf709;" horiz-adv-x="0" 
d="M-534 1137q33 22 73 22q52 0 78.5 -33t26.5 -73q0 -50 -32 -81.5t-82 -31.5q-41 0 -73.5 21t-52.5 56t-20 79q0 84 65.5 134t197.5 50q35 0 64 11.5t41 70.5h94q-4 -21 -28 -76q-32 -53 -128 -63q-78 -5 -125.5 -12t-73 -27.5t-25.5 -46.5zM-471 1108q-57 0 -57 -55
q0 -59 59 -59q54 0 54 55q0 59 -56 59z" />
    <glyph glyph-name="f70a;" unicode="&#xf70a;" horiz-adv-x="0" 
d="M-144 1200v-258h-96v258h96z" />
    <glyph glyph-name="f70b;" unicode="&#xf70b;" horiz-adv-x="0" 
d="M-300 1061q-141 0 -141 121q0 55 32.5 88.5t84.5 33.5q141 0 141 -116q0 -30 -10.5 -76.5t-38.5 -87.5q99 20 186 92t138 183v-153q-68 -92 -174.5 -145t-220.5 -53q-36 0 -77 7q65 43 80 106zM-312 1248q-64 0 -64 -64q0 -63 64 -63q63 0 63 63q0 64 -63 64z" />
    <glyph glyph-name="f70c;" unicode="&#xf70c;" horiz-adv-x="0" 
d="M-454 1088q32 20 66 20t57 -25.5t23 -59.5q0 -41 -29.5 -64t-66.5 -23q-49 0 -83 40.5t-34 103.5q0 161 116 161q66 0 97 -51q32 51 98 51q30 0 55.5 -16t41.5 -41t16 -55q0 -68 -35 -131q127 66 127 233l60 -53q0 -89 -76.5 -162.5t-211.5 -73.5q25 16 45.5 68t20.5 82
q0 86 -55 86q-62 0 -86 -42q-30 44 -90 44q-35 0 -49 -22t-7 -70zM-397 1067q-47 0 -47 -47q0 -45 45 -45q48 0 48 47q0 45 -46 45z" />
    <glyph glyph-name="f70d;" unicode="&#xf70d;" horiz-adv-x="0" 
d="M-127 1274v-127h114v-90h-114v-121h-96v121h-115v90h115v127h96z" />
    <glyph glyph-name="f70e;" unicode="&#xf70e;" horiz-adv-x="0" 
d="M-331 1151q52 25 79 25q51 0 84.5 -34t33.5 -85q0 -54 -36.5 -89.5t-90.5 -35.5q-70 0 -116 50.5t-46 121.5q0 109 73.5 157t217.5 50q111 2 115 64l2 26h105q-5 -47 -30 -83t-70 -53.5t-182 -27.5q-70 -5 -105 -31t-34 -55zM-260 991q61 4 61 62q0 65 -63 65t-63 -61
q0 -62 65 -66z" />
    <glyph glyph-name="f70f;" unicode="&#xf70f;" horiz-adv-x="1118" 
d="M1004 820v-666q0 -91 -35 -122.5t-80 -31.5h-362v92h58v525q0 67 -49 95t-138 28q-118 0 -166 -48q6 0 54 -28.5t103 -75.5q-34 -9 -100 -51q-41 -44 -41 -109v-172q24 8 51 8q129 0 129 -143q0 -58 -43 -90.5t-92 -32.5q-142 0 -142 144v305q0 32 15 69t66 76
q-31 23 -92 58q-45 17 -95 26q14 16 48 48q49 36 133.5 68t166.5 32q84 0 148.5 -22.5t102.5 -67t38 -113.5v-529h174q52 0 52 66v662h96zM293 68q66 0 66 65q0 64 -66 64q-63 0 -63 -64q0 -65 63 -65z" />
    <glyph glyph-name="f710;" unicode="&#xf710;" horiz-adv-x="0" 
d="M-27 1333v-149q-154 -139 -395 -139q-118 0 -180.5 49t-62.5 119q0 58 34 97.5t96 39.5q141 0 141 -138q0 -38 -37 -79q96 0 168 24t134 70t102 106zM-525 1290q-71 0 -71 -69q0 -66 69 -66t69 70q0 65 -67 65z" />
    <glyph glyph-name="f711;" unicode="&#xf711;" horiz-adv-x="0" 
d="M-459 901q-63 0 -102 40.5t-39 103.5q0 38 15.5 69t48 51.5t77.5 20.5q62 0 102 -39.5t40 -101.5q0 -43 -18.5 -75.5t-50 -50.5t-73.5 -18zM-459 1121q-78 0 -78 -76q0 -78 78 -78q76 0 76 78q0 76 -76 76z" />
    <glyph glyph-name="f712;" unicode="&#xf712;" horiz-adv-x="0" 
d="M-500 1051q0 20 24 40.5t56 20.5q78 0 78 -92q0 -72 -84 -72q-46 0 -110 55q-54 46 -89 46q-78 0 -78 -105q-105 39 -105 133q0 189 187 189q24 0 71 -7t71 -7q32 0 61 19.5t29 55.5h80q0 -63 -44.5 -98t-95.5 -35q-30 0 -90 7q-60 8 -90 8q-49 0 -80.5 -27t-31.5 -70
q0 -12 14 -57q36 55 73 55q91 0 154 -59zM-422 1071q-42 0 -42 -41t42 -41q39 0 39 41t-39 41z" />
    <glyph glyph-name="f713;" unicode="&#xf713;" horiz-adv-x="0" 
d="M-332 1653v-244h-96v244h96z" />
    <glyph glyph-name="f714;" unicode="&#xf714;" horiz-adv-x="0" 
d="M-389 1526q-127 0 -127 107q0 34 14.5 60t39 41t57.5 15q122 0 122 -108q0 -69 -45 -148q51 18 152 72q95 68 146 176v-139q-62 -81 -160.5 -130t-200.5 -49q-36 0 -70 7q56 37 72 96zM-400 1694q-59 0 -59 -59q0 -60 59 -60q58 0 58 60q0 59 -58 59z" />
    <glyph glyph-name="f715;" unicode="&#xf715;" horiz-adv-x="0" 
d="M-501 1617q22 18 61 18q84 0 84 -86q0 -38 -29.5 -61t-68.5 -23q-51 0 -83 44t-32 103q0 158 117 158q66 0 96 -51q32 51 99 51q52 0 82 -36.5t30 -75.5q0 -57 -32 -132q125 67 125 234l68 -59q-9 -59 -38.5 -104.5t-69.5 -74t-79.5 -39t-108.5 -12.5q64 64 64 123
q0 111 -56 111q-59 0 -84 -44q-27 40 -90 40q-16 0 -32 -11.5t-21.5 -24.5t-1.5 -48zM-446 1596q-41 0 -41 -43q0 -45 43 -45t43 43q0 45 -45 45z" />
    <glyph glyph-name="f716;" unicode="&#xf716;" horiz-adv-x="0" 
d="M-323 1741v-127h114v-91h-114v-120h-97v120h-115v91h115v127h97z" />
    <glyph glyph-name="f717;" unicode="&#xf717;" horiz-adv-x="0" 
d="M-468 1436q44 20 64 20q37 0 67 -24t30 -72q0 -102 -101 -102q-61 0 -96 45t-35 98q0 164 234 164q34 0 59 11.5t35 62.5h84q-6 -40 -24.5 -68.5t-53.5 -42.5t-150 -24q-37 -3 -61 -11.5t-33 -19.5t-19 -37zM-412 1409q-50 0 -50 -49q0 -53 52 -53q49 0 49 49
q0 53 -51 53z" />
    <glyph glyph-name="f718;" unicode="&#xf718;" horiz-adv-x="0" 
d="M-221 -778v94q-35 -8 -52 -8q-127 0 -127 140q0 55 38 90.5t96 35.5q66 0 103.5 -31t37.5 -113v-208h-96zM-266 -496q-66 0 -66 -65q0 -64 66 -64q63 0 63 64q0 65 -63 65z" />
    <glyph glyph-name="f719;" unicode="&#xf719;" horiz-adv-x="0" 
d="M-240 -705v262h96v-346h-311v94q-32 -8 -51 -8q-128 0 -128 146q0 47 43.5 84t90.5 37q38 0 65.5 -9t45 -27t22 -35.5t9.5 -72.5v-125h118zM-500 -506q-65 0 -65 -66q0 -63 65 -63q64 0 64 63q0 66 -64 66z" />
    <glyph glyph-name="f71a;" unicode="&#xf71a;" horiz-adv-x="0" 
d="M-246 -514q0 33 22 61t60 28t60 -28t22 -61q0 -37 -24 -63.5t-58 -26.5t-58 26.5t-24 63.5z" />
    <glyph glyph-name="DEL" unicode="&#xf71b;" horiz-adv-x="0" 
d="M-615 1024h615v-1024h-615v1024z" />
    <glyph glyph-name="f71c;" unicode="&#xf71c;" horiz-adv-x="455" 
 />
    <glyph glyph-name="f71d;" unicode="&#xf71d;" horiz-adv-x="455" 
d="M24 -184v180h406v-180h-98v67h-215v-67h-93z" />
    <glyph glyph-name="000a" horiz-adv-x="1536" 
d="M256 0v1280h1024v-1280h-1024zM288 32h960v1216h-960v-1216z" />
  </font>
</defs>
</svg>
